<?xml version="1.0" encoding="us-ascii" standalone="no"?><svg xmlns="http://www.w3.org/2000/svg" xmlns:xlink="http://www.w3.org/1999/xlink" contentStyleType="text/css" height="910px" preserveAspectRatio="none" style="width:2743px;height:910px;background:#FFFFFF;" version="1.1" viewBox="0 0 2743 910" width="2743px" zoomAndPan="magnify"><defs/><g><text fill="#000000" font-family="sans-serif" font-size="14" font-weight="bold" lengthAdjust="spacing" textLength="443" x="1143" y="23.5352">Modulvorschau MII Erweiterungsmodul Seltene Erkrankungen</text><!--cluster MII_Datenmodell_Seltene_Erkrankungen--><g id="cluster_MII_Datenmodell_Seltene_Erkrankungen"><path d="M8.5,43.4883 L296.5,43.4883 A3.75,3.75 0 0 1 299,45.9883 L306,65.9766 L2733.5,65.9766 A2.5,2.5 0 0 1 2736,68.4766 L2736,901.1983 A2.5,2.5 0 0 1 2733.5,903.6983 L8.5,903.6983 A2.5,2.5 0 0 1 6,901.1983 L6,45.9883 A2.5,2.5 0 0 1 8.5,43.4883 " fill="none" style="stroke:#000000;stroke-width:1.5;"/><line style="stroke:#000000;stroke-width:1.5;" x1="6" x2="306" y1="65.9766" y2="65.9766"/><text fill="#000000" font-family="sans-serif" font-size="14" font-weight="bold" lengthAdjust="spacing" textLength="287" x="10" y="59.0234">MII_Datenmodell_Seltene_Erkrankungen</text></g><!--cluster MII_Person--><g id="cluster_MII_Person"><path d="M521.5,86.4883 L601.5,86.4883 A3.75,3.75 0 0 1 604,88.9883 L611,108.9766 L809.5,108.9766 A2.5,2.5 0 0 1 812,111.4766 L812,196.4583 A2.5,2.5 0 0 1 809.5,198.9583 L521.5,198.9583 A2.5,2.5 0 0 1 519,196.4583 L519,88.9883 A2.5,2.5 0 0 1 521.5,86.4883 " fill="#33CCFF" style="stroke:#000000;stroke-width:1.5;"/><line style="stroke:#000000;stroke-width:1.5;" x1="519" x2="611" y1="108.9766" y2="108.9766"/><text fill="#000000" font-family="sans-serif" font-size="14" font-weight="bold" lengthAdjust="spacing" textLength="79" x="523" y="102.0234">MII_Person</text></g><!--cluster MII_Modul_Diagnose--><g id="cluster_MII_Modul_Diagnose"><path d="M32.5,222.9583 L182.5,222.9583 A3.75,3.75 0 0 1 185,225.4583 L192,245.4466 L279.5,245.4466 A2.5,2.5 0 0 1 282,247.9466 L282,365.8983 A2.5,2.5 0 0 1 279.5,368.3983 L32.5,368.3983 A2.5,2.5 0 0 1 30,365.8983 L30,225.4583 A2.5,2.5 0 0 1 32.5,222.9583 " fill="#33CCFF" style="stroke:#000000;stroke-width:1.5;"/><line style="stroke:#000000;stroke-width:1.5;" x1="30" x2="192" y1="245.4466" y2="245.4466"/><text fill="#000000" font-family="sans-serif" font-size="14" font-weight="bold" lengthAdjust="spacing" textLength="149" x="34" y="238.4934">MII_Modul_Diagnose</text></g><!--cluster MII_Modul_Seltene_Erkrankungen--><g id="cluster_MII_Modul_Seltene_Erkrankungen"><path d="M308.5,222.9583 L549.5,222.9583 A3.75,3.75 0 0 1 552,225.4583 L559,245.4466 L2244.5,245.4466 A2.5,2.5 0 0 1 2247,247.9466 L2247,757.2183 A2.5,2.5 0 0 1 2244.5,759.7183 L308.5,759.7183 A2.5,2.5 0 0 1 306,757.2183 L306,225.4583 A2.5,2.5 0 0 1 308.5,222.9583 " fill="#FFEE22" style="stroke:#000000;stroke-width:1.5;"/><line style="stroke:#000000;stroke-width:1.5;" x1="306" x2="559" y1="245.4466" y2="245.4466"/><text fill="#000000" font-family="sans-serif" font-size="14" font-weight="bold" lengthAdjust="spacing" textLength="240" x="310" y="238.4934">MII_Modul_Seltene_Erkrankungen</text></g><!--cluster MII_Modul_ICU--><g id="cluster_MII_Modul_ICU"><path d="M2273.5,251.9283 L2381.5,251.9283 A3.75,3.75 0 0 1 2384,254.4283 L2391,274.4166 L2574.5,274.4166 A2.5,2.5 0 0 1 2577,276.9166 L2577,336.9183 A2.5,2.5 0 0 1 2574.5,339.4183 L2273.5,339.4183 A2.5,2.5 0 0 1 2271,336.9183 L2271,254.4283 A2.5,2.5 0 0 1 2273.5,251.9283 " fill="#00DD00" style="stroke:#000000;stroke-width:1.5;"/><line style="stroke:#000000;stroke-width:1.5;" x1="2271" x2="2391" y1="274.4166" y2="274.4166"/><text fill="#000000" font-family="sans-serif" font-size="14" font-weight="bold" lengthAdjust="spacing" textLength="107" x="2275" y="267.4634">MII_Modul_ICU</text></g><!--cluster MII_Modul_Labor--><g id="cluster_MII_Modul_Labor"><path d="M1222.5,98.9783 L1345.5,98.9783 A3.75,3.75 0 0 1 1348,101.4783 L1355,121.4666 L1373.5,121.4666 A2.5,2.5 0 0 1 1376,123.9666 L1376,183.9683 A2.5,2.5 0 0 1 1373.5,186.4683 L1222.5,186.4683 A2.5,2.5 0 0 1 1220,183.9683 L1220,101.4783 A2.5,2.5 0 0 1 1222.5,98.9783 " fill="#00DD00" style="stroke:#000000;stroke-width:1.5;"/><line style="stroke:#000000;stroke-width:1.5;" x1="1220" x2="1355" y1="121.4666" y2="121.4666"/><text fill="#000000" font-family="sans-serif" font-size="14" font-weight="bold" lengthAdjust="spacing" textLength="122" x="1224" y="114.5134">MII_Modul_Labor</text></g><!--cluster MII_Modul_Studie--><g id="cluster_MII_Modul_Studie"><path d="M551.5,787.9683 L679.5,787.9683 A3.75,3.75 0 0 1 682,790.4683 L689,810.4566 L689.5,810.4566 A2.5,2.5 0 0 1 692,812.9566 L692,872.9583 A2.5,2.5 0 0 1 689.5,875.4583 L551.5,875.4583 A2.5,2.5 0 0 1 549,872.9583 L549,790.4683 A2.5,2.5 0 0 1 551.5,787.9683 " fill="#00DD00" style="stroke:#000000;stroke-width:1.5;"/><line style="stroke:#000000;stroke-width:1.5;" x1="549" x2="689" y1="810.4566" y2="810.4566"/><text fill="#000000" font-family="sans-serif" font-size="14" font-weight="bold" lengthAdjust="spacing" textLength="127" x="553" y="803.5034">MII_Modul_Studie</text></g><!--cluster MII_Modul_Molekulargenetischer_Befundbericht--><g id="cluster_MII_Modul_Molekulargenetischer_Befundbericht"><path d="M1794.5,783.7183 L2139.5,783.7183 A3.75,3.75 0 0 1 2142,786.2183 L2149,806.2066 L2242.5,806.2066 A2.5,2.5 0 0 1 2245,808.7066 L2245,877.1983 A2.5,2.5 0 0 1 2242.5,879.6983 L1794.5,879.6983 A2.5,2.5 0 0 1 1792,877.1983 L1792,786.2183 A2.5,2.5 0 0 1 1794.5,783.7183 " fill="#33CCFF" style="stroke:#000000;stroke-width:1.5;"/><line style="stroke:#000000;stroke-width:1.5;" x1="1792" x2="2149" y1="806.2066" y2="806.2066"/><text fill="#000000" font-family="sans-serif" font-size="14" font-weight="bold" lengthAdjust="spacing" textLength="344" x="1796" y="799.2534">MII_Modul_Molekulargenetischer_Befundbericht</text></g><!--cluster MII_Modul_Symptom_klinischer_Ph?notyp--><g id="cluster_MII_Modul_Symptom_klinischer_Ph&#228;notyp"><path d="M2273.5,431.1083 L2576.5,431.1083 A3.75,3.75 0 0 1 2579,433.6083 L2586,453.5966 L2709.5,453.5966 A2.5,2.5 0 0 1 2712,456.0966 L2712,516.0983 A2.5,2.5 0 0 1 2709.5,518.5983 L2273.5,518.5983 A2.5,2.5 0 0 1 2271,516.0983 L2271,433.6083 A2.5,2.5 0 0 1 2273.5,431.1083 " fill="#33CCFF" style="stroke:#000000;stroke-width:1.5;"/><line style="stroke:#000000;stroke-width:1.5;" x1="2271" x2="2586" y1="453.5966" y2="453.5966"/><text fill="#000000" font-family="sans-serif" font-size="14" font-weight="bold" lengthAdjust="spacing" textLength="302" x="2275" y="446.6434">MII_Modul_Symptom_klinischer_Ph&#228;notyp</text></g><g id="elem_MII_Patient"><rect fill="#F1F1F1" height="61.4648" style="stroke:#181818;stroke-width:0.5;" width="141" x="534.5" y="121.4883"/><text fill="#000000" font-family="sans-serif" font-size="14" lengthAdjust="spacing" textLength="74" x="568" y="137.0234">MII_Patient</text><line style="stroke:#181818;stroke-width:0.5;" x1="535.5" x2="674.5" y1="141.9766" y2="141.9766"/><text fill="#000000" font-family="sans-serif" font-size="14" lengthAdjust="spacing" textLength="87" x="540.5" y="159.5117">o Geschlecht</text><text fill="#000000" font-family="sans-serif" font-size="14" lengthAdjust="spacing" textLength="129" x="540.5" y="176">o Geburtstag/Alter</text></g><g id="elem_Vitalstatus"><rect fill="#F1F1F1" height="61.4648" style="stroke:#181818;stroke-width:0.5;" width="85" x="710.5" y="121.4883"/><text fill="#000000" font-family="sans-serif" font-size="14" lengthAdjust="spacing" textLength="71" x="717.5" y="137.0234">Vitalstatus</text><line style="stroke:#181818;stroke-width:0.5;" x1="711.5" x2="794.5" y1="141.9766" y2="141.9766"/><text fill="#000000" font-family="sans-serif" font-size="14" lengthAdjust="spacing" textLength="58" x="716.5" y="159.5117">o Datum</text><text fill="#000000" font-family="sans-serif" font-size="14" lengthAdjust="spacing" textLength="55" x="716.5" y="176">o Status</text></g><g id="elem_MII_Diagnose"><rect fill="#F1F1F1" height="94.4414" style="stroke:#181818;stroke-width:0.5;" width="221" x="45.5" y="257.9583"/><text fill="#000000" font-family="sans-serif" font-size="14" lengthAdjust="spacing" textLength="91" x="110.5" y="273.4934">MII_Diagnose</text><line style="stroke:#181818;stroke-width:0.5;" x1="46.5" x2="265.5" y1="278.4466" y2="278.4466"/><text fill="#000000" font-family="sans-serif" font-size="14" lengthAdjust="spacing" textLength="118" x="51.5" y="295.9817">o code: ICD10GM</text><text fill="#000000" font-family="sans-serif" font-size="14" lengthAdjust="spacing" textLength="142" x="51.5" y="312.47">o code: ORPHAcodes</text><text fill="#000000" font-family="sans-serif" font-size="14" lengthAdjust="spacing" textLength="139" x="51.5" y="328.9583">o Alter bei Diagnose</text><text fill="#000000" font-family="sans-serif" font-size="14" lengthAdjust="spacing" textLength="209" x="51.5" y="345.4466">o Status (Verdacht, gesichert..)</text></g><g id="elem_MII_Diagnose_SE"><rect fill="#F1F1F1" height="61.4648" style="stroke:#181818;stroke-width:0.5;" width="154" x="322" y="453.6183"/><text fill="#000000" font-family="sans-serif" font-size="14" lengthAdjust="spacing" textLength="114" x="342" y="469.1534">MII_Diagnose_SE</text><line style="stroke:#181818;stroke-width:0.5;" x1="323" x2="475" y1="474.1066" y2="474.1066"/><text fill="#000000" font-family="sans-serif" font-size="14" lengthAdjust="spacing" textLength="118" x="328" y="491.6417">o code: ICD10GM</text><text fill="#000000" font-family="sans-serif" font-size="14" lengthAdjust="spacing" textLength="142" x="328" y="508.13">o code: ORPHAcodes</text></g><g id="elem_MII_MolGen_Variante_SE"><rect fill="#F1F1F1" height="44.9766" style="stroke:#181818;stroke-width:0.5;" width="180" x="2051" y="461.8583"/><text fill="#000000" font-family="sans-serif" font-size="14" lengthAdjust="spacing" textLength="166" x="2058" y="477.3934">MII_MolGen_Variante_SE</text><line style="stroke:#181818;stroke-width:0.5;" x1="2052" x2="2230" y1="482.3466" y2="482.3466"/><text fill="#000000" font-family="sans-serif" font-size="14" lengthAdjust="spacing" textLength="91" x="2057" y="499.8817">o code: HGVS</text></g><g id="elem_MII_Familienanamnese_SE"><rect fill="#F1F1F1" height="127.418" style="stroke:#181818;stroke-width:0.5;" width="213" x="1803.5" y="420.6383"/><text fill="#000000" font-family="sans-serif" font-size="14" lengthAdjust="spacing" textLength="178" x="1821" y="436.1734">MII_Familienanamnese_SE</text><line style="stroke:#181818;stroke-width:0.5;" x1="1804.5" x2="2015.5" y1="441.1266" y2="441.1266"/><text fill="#000000" font-family="sans-serif" font-size="14" lengthAdjust="spacing" textLength="201" x="1809.5" y="458.6617">o Verwandtschaftsverhaeltnis</text><text fill="#000000" font-family="sans-serif" font-size="14" lengthAdjust="spacing" textLength="87" x="1809.5" y="475.15">o Geschlecht</text><text fill="#000000" font-family="sans-serif" font-size="14" lengthAdjust="spacing" textLength="146" x="1809.5" y="491.6383">o gleiche Erkrankung</text><text fill="#000000" font-family="sans-serif" font-size="14" lengthAdjust="spacing" textLength="145" x="1809.5" y="508.1266">o andere Erkrankung</text><text fill="#000000" font-family="sans-serif" font-size="14" lengthAdjust="spacing" textLength="82" x="1809.5" y="524.6148">o Penetranz</text><text fill="#000000" font-family="sans-serif" font-size="14" lengthAdjust="spacing" textLength="87" x="1809.5" y="541.1031">o verstorben</text></g><g id="elem_MII_Symptom_Observation_SE"><rect fill="#F1F1F1" height="143.9063" style="stroke:#181818;stroke-width:0.5;" width="336" x="748" y="412.3983"/><text fill="#000000" font-family="sans-serif" font-size="14" lengthAdjust="spacing" textLength="204" x="814" y="427.9334">MII_Symptom_Observation_SE</text><line style="stroke:#181818;stroke-width:0.5;" x1="749" x2="1083" y1="432.8866" y2="432.8866"/><text fill="#000000" font-family="sans-serif" font-size="14" lengthAdjust="spacing" textLength="296" x="754" y="450.4217">o code: HPO | SNOMED CT | ICD-10 | LOINC</text><text fill="#000000" font-family="sans-serif" font-size="14" lengthAdjust="spacing" textLength="324" x="754" y="466.91">o excluded: Merkmal ausgeschlossen (Boolean)</text><text fill="#000000" font-family="sans-serif" font-size="14" lengthAdjust="spacing" textLength="183" x="754" y="483.3983">o value: Presence/Absence</text><text fill="#000000" font-family="sans-serif" font-size="14" lengthAdjust="spacing" textLength="224" x="754" y="499.8866">o date: Datum der Untersuchung</text><text fill="#000000" font-family="sans-serif" font-size="14" lengthAdjust="spacing" textLength="247" x="754" y="516.3748">o period: Zeitraum der Symptomatik</text><text fill="#000000" font-family="sans-serif" font-size="14" lengthAdjust="spacing" textLength="253" x="754" y="532.8631">o startAge: Alter bei Symptombeginn</text><text fill="#000000" font-family="sans-serif" font-size="14" lengthAdjust="spacing" textLength="203" x="754" y="549.3514">o change: &#196;nderung (Verlauf)</text></g><g id="elem_MII_Symptom_Condition_SE"><rect fill="#F1F1F1" height="36.4883" style="stroke:#181818;stroke-width:0.5;" width="203" x="1302.5" y="466.1083"/><text fill="#000000" font-family="sans-serif" font-size="14" lengthAdjust="spacing" textLength="189" x="1309.5" y="481.6434">MII_Symptom_Condition_SE</text><line style="stroke:#181818;stroke-width:0.5;" x1="1303.5" x2="1504.5" y1="486.5966" y2="486.5966"/></g><g id="elem_Untersuchung"><rect fill="#F1F1F1" height="94.4414" style="stroke:#181818;stroke-width:0.5;" width="216" x="1190" y="257.9583"/><text fill="#000000" font-family="sans-serif" font-size="14" lengthAdjust="spacing" textLength="97" x="1249.5" y="273.4934">Untersuchung</text><line style="stroke:#181818;stroke-width:0.5;" x1="1191" x2="1405" y1="278.4466" y2="278.4466"/><text fill="#000000" font-family="sans-serif" font-size="14" lengthAdjust="spacing" textLength="204" x="1196" y="295.9817">o Koerperliche_Untersuchung</text><text fill="#000000" font-family="sans-serif" font-size="14" lengthAdjust="spacing" textLength="86" x="1196" y="312.47">o Diagnostik</text><text fill="#000000" font-family="sans-serif" font-size="14" lengthAdjust="spacing" textLength="115" x="1196" y="328.9583">o Therapiestatus</text><text fill="#000000" font-family="sans-serif" font-size="14" lengthAdjust="spacing" textLength="58" x="1196" y="345.4466">o Datum</text></g><g id="elem_Therapiestatus"><rect fill="#F1F1F1" height="61.4648" style="stroke:#181818;stroke-width:0.5;" width="202" x="511" y="453.6183"/><text fill="#000000" font-family="sans-serif" font-size="14" lengthAdjust="spacing" textLength="102" x="561" y="469.1534">Therapiestatus</text><line style="stroke:#181818;stroke-width:0.5;" x1="512" x2="712" y1="474.1066" y2="474.1066"/><text fill="#000000" font-family="sans-serif" font-size="14" lengthAdjust="spacing" textLength="174" x="517" y="491.6417">o Therapieempfehlungen</text><text fill="#000000" font-family="sans-serif" font-size="14" lengthAdjust="spacing" textLength="190" x="517" y="508.13">o Durchgef&#252;hrte_Therapien</text></g><g id="elem_Therapieempfehlungen"><rect fill="#F1F1F1" height="77.9531" style="stroke:#181818;stroke-width:0.5;" width="175" x="423.5" y="641.0383"/><text fill="#000000" font-family="sans-serif" font-size="14" lengthAdjust="spacing" textLength="161" x="430.5" y="656.5734">Therapieempfehlungen</text><line style="stroke:#181818;stroke-width:0.5;" x1="424.5" x2="597.5" y1="661.5266" y2="661.5266"/><text fill="#000000" font-family="sans-serif" font-size="14" lengthAdjust="spacing" textLength="93" x="429.5" y="679.0617">o Therapieart</text><text fill="#000000" font-family="sans-serif" font-size="14" lengthAdjust="spacing" textLength="73" x="429.5" y="695.55">o off-label</text><text fill="#000000" font-family="sans-serif" font-size="14" lengthAdjust="spacing" textLength="56" x="429.5" y="712.0383">o Studie</text></g><g id="elem_Durchgef&#252;hrte_Therapien"><rect fill="#F1F1F1" height="127.418" style="stroke:#181818;stroke-width:0.5;" width="191" x="633.5" y="616.3083"/><text fill="#000000" font-family="sans-serif" font-size="14" lengthAdjust="spacing" textLength="177" x="640.5" y="631.8434">Durchgef&#252;hrte_Therapien</text><line style="stroke:#181818;stroke-width:0.5;" x1="634.5" x2="823.5" y1="636.7966" y2="636.7966"/><text fill="#000000" font-family="sans-serif" font-size="14" lengthAdjust="spacing" textLength="93" x="639.5" y="654.3317">o Therapieart</text><text fill="#000000" font-family="sans-serif" font-size="14" lengthAdjust="spacing" textLength="89" x="639.5" y="670.82">o Startdatum</text><text fill="#000000" font-family="sans-serif" font-size="14" lengthAdjust="spacing" textLength="83" x="639.5" y="687.3083">o Enddatum</text><text fill="#000000" font-family="sans-serif" font-size="14" lengthAdjust="spacing" textLength="145" x="639.5" y="703.7966">o Grund_Beendigung</text><text fill="#000000" font-family="sans-serif" font-size="14" lengthAdjust="spacing" textLength="73" x="639.5" y="720.2848">o off-label</text><text fill="#000000" font-family="sans-serif" font-size="14" lengthAdjust="spacing" textLength="56" x="639.5" y="736.7731">o Studie</text></g><g id="elem_Koerperliche_Untersuchung_SE"><rect fill="#F1F1F1" height="44.9766" style="stroke:#181818;stroke-width:0.5;" width="228" x="1540" y="461.8583"/><text fill="#000000" font-family="sans-serif" font-size="14" lengthAdjust="spacing" textLength="214" x="1547" y="477.3934">Koerperliche_Untersuchung_SE</text><line style="stroke:#181818;stroke-width:0.5;" x1="1541" x2="1767" y1="482.3466" y2="482.3466"/><text fill="#000000" font-family="sans-serif" font-size="14" lengthAdjust="spacing" textLength="97" x="1546" y="499.8817">o K&#246;rperma&#223;e</text></g><g id="elem_BMI_SE"><rect fill="#F1F1F1" height="61.4648" style="stroke:#181818;stroke-width:0.5;" width="123" x="1589.5" y="649.2783"/><text fill="#000000" font-family="sans-serif" font-size="14" lengthAdjust="spacing" textLength="47" x="1627.5" y="664.8134">BMI_SE</text><line style="stroke:#181818;stroke-width:0.5;" x1="1590.5" x2="1711.5" y1="669.7666" y2="669.7666"/><text fill="#000000" font-family="sans-serif" font-size="14" lengthAdjust="spacing" textLength="111" x="1595.5" y="687.3017">o Wert (decimal)</text><text fill="#000000" font-family="sans-serif" font-size="14" lengthAdjust="spacing" textLength="58" x="1595.5" y="703.79">o Datum</text></g><g id="elem_Kopfumfang_SE"><rect fill="#F1F1F1" height="61.4648" style="stroke:#181818;stroke-width:0.5;" width="150" x="1747" y="649.2783"/><text fill="#000000" font-family="sans-serif" font-size="14" lengthAdjust="spacing" textLength="108" x="1768" y="664.8134">Kopfumfang_SE</text><line style="stroke:#181818;stroke-width:0.5;" x1="1748" x2="1896" y1="669.7666" y2="669.7666"/><text fill="#000000" font-family="sans-serif" font-size="14" lengthAdjust="spacing" textLength="138" x="1753" y="687.3017">o Wert_cm (decimal)</text><text fill="#000000" font-family="sans-serif" font-size="14" lengthAdjust="spacing" textLength="58" x="1753" y="703.79">o Datum</text></g><g id="elem_Bauchumfang_SE"><rect fill="#F1F1F1" height="61.4648" style="stroke:#181818;stroke-width:0.5;" width="150" x="1220" y="649.2783"/><text fill="#000000" font-family="sans-serif" font-size="14" lengthAdjust="spacing" textLength="117" x="1236.5" y="664.8134">Bauchumfang_SE</text><line style="stroke:#181818;stroke-width:0.5;" x1="1221" x2="1369" y1="669.7666" y2="669.7666"/><text fill="#000000" font-family="sans-serif" font-size="14" lengthAdjust="spacing" textLength="138" x="1226" y="687.3017">o Wert_cm (decimal)</text><text fill="#000000" font-family="sans-serif" font-size="14" lengthAdjust="spacing" textLength="58" x="1226" y="703.79">o Datum</text></g><g id="elem_Hueftumfang_SE"><rect fill="#F1F1F1" height="61.4648" style="stroke:#181818;stroke-width:0.5;" width="150" x="1405" y="649.2783"/><text fill="#000000" font-family="sans-serif" font-size="14" lengthAdjust="spacing" textLength="113" x="1423.5" y="664.8134">Hueftumfang_SE</text><line style="stroke:#181818;stroke-width:0.5;" x1="1406" x2="1554" y1="669.7666" y2="669.7666"/><text fill="#000000" font-family="sans-serif" font-size="14" lengthAdjust="spacing" textLength="138" x="1411" y="687.3017">o Wert_cm (decimal)</text><text fill="#000000" font-family="sans-serif" font-size="14" lengthAdjust="spacing" textLength="58" x="1411" y="703.79">o Datum</text></g><g id="elem_Blutgruppe_SE"><rect fill="#F1F1F1" height="44.9766" style="stroke:#181818;stroke-width:0.5;" width="149" x="1118.5" y="461.8583"/><text fill="#000000" font-family="sans-serif" font-size="14" lengthAdjust="spacing" textLength="99" x="1143.5" y="477.3934">Blutgruppe_SE</text><line style="stroke:#181818;stroke-width:0.5;" x1="1119.5" x2="1266.5" y1="482.3466" y2="482.3466"/><text fill="#000000" font-family="sans-serif" font-size="14" lengthAdjust="spacing" textLength="137" x="1124.5" y="499.8817">o AB0_Rhesusfaktor</text></g><g id="elem_Koerpergewicht"><rect fill="#F1F1F1" height="36.4883" style="stroke:#181818;stroke-width:0.5;" width="122" x="2439" y="286.9283"/><text fill="#000000" font-family="sans-serif" font-size="14" lengthAdjust="spacing" textLength="108" x="2446" y="302.4634">Koerpergewicht</text><line style="stroke:#181818;stroke-width:0.5;" x1="2440" x2="2560" y1="307.4166" y2="307.4166"/></g><g id="elem_Koerpergroe&#223;e"><rect fill="#F1F1F1" height="36.4883" style="stroke:#181818;stroke-width:0.5;" width="117" x="2287.5" y="286.9283"/><text fill="#000000" font-family="sans-serif" font-size="14" lengthAdjust="spacing" textLength="103" x="2294.5" y="302.4634">Koerpergroe&#223;e</text><line style="stroke:#181818;stroke-width:0.5;" x1="2288.5" x2="2403.5" y1="307.4166" y2="307.4166"/></g><g id="elem_Laborparameter"><rect fill="#F1F1F1" height="36.4883" style="stroke:#181818;stroke-width:0.5;" width="124" x="1236" y="133.9783"/><text fill="#000000" font-family="sans-serif" font-size="14" lengthAdjust="spacing" textLength="110" x="1243" y="149.5134">Laborparameter</text><line style="stroke:#181818;stroke-width:0.5;" x1="1237" x2="1359" y1="154.4666" y2="154.4666"/></g><g id="elem_MII_Studie"><rect fill="#F1F1F1" height="36.4883" style="stroke:#181818;stroke-width:0.5;" width="84" x="578" y="822.9683"/><text fill="#000000" font-family="sans-serif" font-size="14" lengthAdjust="spacing" textLength="70" x="585" y="838.5034">MII_Studie</text><line style="stroke:#181818;stroke-width:0.5;" x1="579" x2="661" y1="843.4566" y2="843.4566"/></g><g id="elem_MII_MolGen_Variante"><rect fill="#F1F1F1" height="44.9766" style="stroke:#181818;stroke-width:0.5;" width="157" x="2071.5" y="818.7183"/><text fill="#000000" font-family="sans-serif" font-size="14" lengthAdjust="spacing" textLength="143" x="2078.5" y="834.2534">MII_MolGen_Variante</text><line style="stroke:#181818;stroke-width:0.5;" x1="2072.5" x2="2227.5" y1="839.2066" y2="839.2066"/><text fill="#000000" font-family="sans-serif" font-size="14" lengthAdjust="spacing" textLength="91" x="2077.5" y="856.7417">o code: HGVS</text></g><g id="elem_MII_MolGen_Familienanamnese"><rect fill="#F1F1F1" height="36.4883" style="stroke:#181818;stroke-width:0.5;" width="228" x="1808" y="822.9683"/><text fill="#000000" font-family="sans-serif" font-size="14" lengthAdjust="spacing" textLength="214" x="1815" y="838.5034">MII_MolGen_Familienanamnese</text><line style="stroke:#181818;stroke-width:0.5;" x1="1809" x2="2035" y1="843.4566" y2="843.4566"/></g><g id="elem_MII_Symptom_Observation"><rect fill="#F1F1F1" height="36.4883" style="stroke:#181818;stroke-width:0.5;" width="195" x="2286.5" y="466.1083"/><text fill="#000000" font-family="sans-serif" font-size="14" lengthAdjust="spacing" textLength="181" x="2293.5" y="481.6434">MII_Symptom_Observation</text><line style="stroke:#181818;stroke-width:0.5;" x1="2287.5" x2="2480.5" y1="486.5966" y2="486.5966"/></g><g id="elem_MII_Symptom_Condition"><rect fill="#F1F1F1" height="36.4883" style="stroke:#181818;stroke-width:0.5;" width="180" x="2516" y="466.1083"/><text fill="#000000" font-family="sans-serif" font-size="14" lengthAdjust="spacing" textLength="166" x="2523" y="481.6434">MII_Symptom_Condition</text><line style="stroke:#181818;stroke-width:0.5;" x1="2517" x2="2695" y1="486.5966" y2="486.5966"/></g><!--reverse link MII_Diagnose to MII_Diagnose_SE--><g id="link_MII_Diagnose_MII_Diagnose_SE"><path codeLine="124" d="M284.9,328.6983 C338.48,328.6983 373.33,328.6983 373.33,328.6983 C373.33,328.6983 373.33,407.7983 373.33,453.2283 " fill="none" id="MII_Diagnose-backto-MII_Diagnose_SE" style="stroke:#181818;stroke-width:1.0;"/><polygon fill="none" points="266.9,328.6983,284.9,334.6983,284.9,322.6983,266.9,328.6983" style="stroke:#181818;stroke-width:1.0;"/></g><!--reverse link MII_MolGen_Variante to MII_MolGen_Variante_SE--><g id="link_MII_MolGen_Variante_MII_MolGen_Variante_SE"><path codeLine="125" d="M2150,800.3483 C2150,735.8883 2150,571.2483 2150,507.0283 " fill="none" id="MII_MolGen_Variante-backto-MII_MolGen_Variante_SE" style="stroke:#181818;stroke-width:1.0;"/><polygon fill="none" points="2150,818.3483,2156,800.3483,2144,800.3483,2150,818.3483" style="stroke:#181818;stroke-width:1.0;"/></g><!--link MII_Familienanamnese_SE to MII_MolGen_Familienanamnese--><g id="link_MII_Familienanamnese_SE_MII_MolGen_Familienanamnese"><path codeLine="126" d="M1956.75,548.1483 C1956.75,631.3483 1956.75,754.2083 1956.75,804.5983 " fill="none" id="MII_Familienanamnese_SE-to-MII_MolGen_Familienanamnese" style="stroke:#181818;stroke-width:1.0;"/><polygon fill="none" points="1956.75,822.5983,1962.75,804.5983,1950.75,804.5983,1956.75,822.5983" style="stroke:#181818;stroke-width:1.0;"/></g><!--reverse link MII_Symptom_Observation to MII_Symptom_Observation_SE--><g id="link_MII_Symptom_Observation_MII_Symptom_Observation_SE"><path codeLine="127" d="M2346,447.7083 C2346,428.2983 2346,418.6983 2346,418.6983 C2346,418.6983 1462.25,418.6983 1084.24,418.6983 " fill="none" id="MII_Symptom_Observation-backto-MII_Symptom_Observation_SE" style="stroke:#181818;stroke-width:1.0;"/><polygon fill="none" points="2346,465.7083,2352,447.7083,2340,447.7083,2346,465.7083" style="stroke:#181818;stroke-width:1.0;"/></g><!--link MII_Symptom_Condition_SE to MII_Symptom_Condition--><g id="link_MII_Symptom_Condition_SE_MII_Symptom_Condition"><path codeLine="128" d="M1455.75,465.6883 C1455.75,445.0483 1455.75,414.6983 1455.75,414.6983 C1455.75,414.6983 2538.5,414.6983 2538.5,414.6983 C2538.5,414.6983 2538.5,427.0483 2538.5,447.6883 " fill="none" id="MII_Symptom_Condition_SE-to-MII_Symptom_Condition" style="stroke:#181818;stroke-width:1.0;"/><polygon fill="none" points="2538.5,465.6883,2544.5,447.6883,2532.5,447.6883,2538.5,465.6883" style="stroke:#181818;stroke-width:1.0;"/></g><!--link Laborparameter to Untersuchung--><g id="link_Laborparameter_Untersuchung"><path codeLine="130" d="M1298,170.6783 C1298,192.0483 1298,216.0883 1298,245.4883 " fill="none" id="Laborparameter-to-Untersuchung" style="stroke:#181818;stroke-width:1.0;"/><polygon fill="none" points="1298,257.4883,1302,251.4883,1298,245.4883,1294,251.4883,1298,257.4883" style="stroke:#181818;stroke-width:1.0;"/><text fill="#000000" font-family="sans-serif" font-size="13" lengthAdjust="spacing" textLength="24" x="1249.4" y="191.0245">0..1</text><text fill="#000000" font-family="sans-serif" font-size="13" lengthAdjust="spacing" textLength="22" x="1274.4531" y="247.3173">0..*</text></g><!--reverse link Untersuchung to MII_Diagnose_SE--><g id="link_Untersuchung_MII_Diagnose_SE"><path codeLine="131" d="M1177.6,281.6983 C943.71,281.6983 424.67,281.6983 424.67,281.6983 C424.67,281.6983 424.67,396.2883 424.67,453.1283 " fill="none" id="Untersuchung-backto-MII_Diagnose_SE" style="stroke:#181818;stroke-width:1.0;"/><polygon fill="none" points="1189.6,281.6983,1183.6,277.6983,1177.6,281.6983,1183.6,285.6983,1189.6,281.6983" style="stroke:#181818;stroke-width:1.0;"/><text fill="#000000" font-family="sans-serif" font-size="13" lengthAdjust="spacing" textLength="22" x="1159.9509" y="277.2919">0..*</text><text fill="#000000" font-family="sans-serif" font-size="13" lengthAdjust="spacing" textLength="22" x="405.6957" y="442.7422">0..*</text></g><!--reverse link Untersuchung to MII_MolGen_Variante_SE--><g id="link_Untersuchung_MII_MolGen_Variante_SE"><path codeLine="132" d="M1418.48,337.6983 C1646.16,337.6983 2141,337.6983 2141,337.6983 C2141,337.6983 2141,420.1883 2141,461.4383 " fill="none" id="Untersuchung-backto-MII_MolGen_Variante_SE" style="stroke:#181818;stroke-width:1.0;"/><polygon fill="none" points="1406.48,337.6983,1412.48,341.6983,1418.48,337.6983,1412.48,333.6983,1406.48,337.6983" style="stroke:#181818;stroke-width:1.0;"/><text fill="#000000" font-family="sans-serif" font-size="13" lengthAdjust="spacing" textLength="22" x="1414.3333" y="342.9764">0..*</text><text fill="#000000" font-family="sans-serif" font-size="13" lengthAdjust="spacing" textLength="22" x="2116.1813" y="451.2543">0..*</text></g><!--reverse link Untersuchung to MII_Symptom_Observation_SE--><g id="link_Untersuchung_MII_Symptom_Observation_SE"><path codeLine="133" d="M1215.83,364.7983 C1215.83,395.1083 1215.83,416.6983 1215.83,416.6983 C1215.83,416.6983 1152.67,416.6983 1084.32,416.6983 " fill="none" id="Untersuchung-backto-MII_Symptom_Observation_SE" style="stroke:#181818;stroke-width:1.0;"/><polygon fill="none" points="1215.83,352.7983,1211.83,358.7983,1215.83,364.7983,1219.83,358.7983,1215.83,352.7983" style="stroke:#181818;stroke-width:1.0;"/><text fill="#000000" font-family="sans-serif" font-size="13" lengthAdjust="spacing" textLength="22" x="1159.4736" y="365.2179">0..*</text><text fill="#000000" font-family="sans-serif" font-size="13" lengthAdjust="spacing" textLength="22" x="1088.3761" y="401.8451">0..*</text></g><!--reverse link Untersuchung to MII_Familienanamnese_SE--><g id="link_Untersuchung_MII_Familienanamnese_SE"><path codeLine="134" d="M1371.5,364.5383 C1371.5,403.9683 1371.5,441.6983 1371.5,441.6983 C1371.5,441.6983 1646.3,441.6983 1803.29,441.6983 " fill="none" id="Untersuchung-backto-MII_Familienanamnese_SE" style="stroke:#181818;stroke-width:1.0;"/><polygon fill="none" points="1371.5,352.5383,1367.5,358.5383,1371.5,364.5383,1375.5,358.5383,1371.5,352.5383" style="stroke:#181818;stroke-width:1.0;"/><text fill="#000000" font-family="sans-serif" font-size="13" lengthAdjust="spacing" textLength="22" x="1384.6563" y="372.6148">0..*</text><text fill="#000000" font-family="sans-serif" font-size="13" lengthAdjust="spacing" textLength="22" x="1773.3814" y="435.9077">0..*</text></g><!--reverse link Untersuchung to Koerperliche_Untersuchung_SE--><g id="link_Untersuchung_Koerperliche_Untersuchung_SE"><path codeLine="135" d="M1418.37,344.6983 C1503.94,344.6983 1597,344.6983 1597,344.6983 C1597,344.6983 1597,422.0283 1597,461.5983 " fill="none" id="Untersuchung-backto-Koerperliche_Untersuchung_SE" style="stroke:#181818;stroke-width:1.0;"/><polygon fill="none" points="1406.37,344.6983,1412.37,348.6983,1418.37,344.6983,1412.37,340.6983,1406.37,344.6983" style="stroke:#181818;stroke-width:1.0;"/><text fill="#000000" font-family="sans-serif" font-size="13" lengthAdjust="spacing" textLength="22" x="1414.1896" y="352.1201">0..*</text><text fill="#000000" font-family="sans-serif" font-size="13" lengthAdjust="spacing" textLength="22" x="1556.725" y="451.0791">0..*</text></g><!--link Koerpergewicht to Koerperliche_Untersuchung_SE--><g id="link_Koerpergewicht_Koerperliche_Untersuchung_SE"><path codeLine="136" d="M2460.25,323.7283 C2460.25,327.6783 2460.25,330.6983 2460.25,330.6983 C2460.25,330.6983 1711,330.6983 1711,330.6983 C1711,330.6983 1711,406.9383 1711,449.6783 " fill="none" id="Koerpergewicht-to-Koerperliche_Untersuchung_SE" style="stroke:#181818;stroke-width:1.0;"/><polygon fill="none" points="1711,461.6783,1715,455.6783,1711,449.6783,1707,455.6783,1711,461.6783" style="stroke:#181818;stroke-width:1.0;"/><text fill="#000000" font-family="sans-serif" font-size="13" lengthAdjust="spacing" textLength="22" x="2412.4503" y="328.8565">0..*</text><text fill="#000000" font-family="sans-serif" font-size="13" lengthAdjust="spacing" textLength="22" x="1701.3625" y="451.1806">0..*</text></g><!--link Koerpergroe?e to Koerperliche_Untersuchung_SE--><g id="link_Koerpergroe&#223;e_Koerperliche_Untersuchung_SE"><path codeLine="137" d="M2287,304.6983 C2119.66,304.6983 1654,304.6983 1654,304.6983 C1654,304.6983 1654,401.2583 1654,449.5983 " fill="none" id="Koerpergroe&#223;e-to-Koerperliche_Untersuchung_SE" style="stroke:#181818;stroke-width:1.0;"/><polygon fill="none" points="1654,461.5983,1658,455.5983,1654,449.5983,1650,455.5983,1654,461.5983" style="stroke:#181818;stroke-width:1.0;"/><text fill="#000000" font-family="sans-serif" font-size="13" lengthAdjust="spacing" textLength="22" x="2257.3438" y="301.4115">0..*</text><text fill="#000000" font-family="sans-serif" font-size="13" lengthAdjust="spacing" textLength="22" x="1629.0438" y="451.0791">0..*</text></g><!--reverse link Koerperliche_Untersuchung_SE to BMI_SE--><g id="link_Koerperliche_Untersuchung_SE_BMI_SE"><path codeLine="138" d="M1651,519.1783 C1651,554.2583 1651,609.4983 1651,648.9683 " fill="none" id="Koerperliche_Untersuchung_SE-backto-BMI_SE" style="stroke:#181818;stroke-width:1.0;"/><polygon fill="none" points="1651,507.1783,1647,513.1783,1651,519.1783,1655,513.1783,1651,507.1783" style="stroke:#181818;stroke-width:1.0;"/><text fill="#000000" font-family="sans-serif" font-size="13" lengthAdjust="spacing" textLength="22" x="1608.35" y="527.59">0..*</text><text fill="#000000" font-family="sans-serif" font-size="13" lengthAdjust="spacing" textLength="22" x="1626.7313" y="638.6193">0..*</text></g><!--reverse link Koerperliche_Untersuchung_SE to Kopfumfang_SE--><g id="link_Koerperliche_Untersuchung_SE_Kopfumfang_SE"><path codeLine="139" d="M1757.5,519.1783 C1757.5,554.2583 1757.5,609.4983 1757.5,648.9683 " fill="none" id="Koerperliche_Untersuchung_SE-backto-Kopfumfang_SE" style="stroke:#181818;stroke-width:1.0;"/><polygon fill="none" points="1757.5,507.1783,1753.5,513.1783,1757.5,519.1783,1761.5,513.1783,1757.5,507.1783" style="stroke:#181818;stroke-width:1.0;"/><text fill="#000000" font-family="sans-serif" font-size="13" lengthAdjust="spacing" textLength="22" x="1775.9688" y="511.5222">0..*</text><text fill="#000000" font-family="sans-serif" font-size="13" lengthAdjust="spacing" textLength="22" x="1719.9281" y="638.6193">0..*</text></g><!--reverse link Koerperliche_Untersuchung_SE to Bauchumfang_SE--><g id="link_Koerperliche_Untersuchung_SE_Bauchumfang_SE"><path codeLine="140" d="M1545,519.1483 C1545,538.6883 1545,551.6983 1545,551.6983 C1545,551.6983 1336.25,551.6983 1336.25,551.6983 C1336.25,551.6983 1336.25,610.9783 1336.25,648.9483 " fill="none" id="Koerperliche_Untersuchung_SE-backto-Bauchumfang_SE" style="stroke:#181818;stroke-width:1.0;"/><polygon fill="none" points="1545,507.1483,1541,513.1483,1545,519.1483,1549,513.1483,1545,507.1483" style="stroke:#181818;stroke-width:1.0;"/><text fill="#000000" font-family="sans-serif" font-size="13" lengthAdjust="spacing" textLength="22" x="1509.875" y="506.4072">0..*</text><text fill="#000000" font-family="sans-serif" font-size="13" lengthAdjust="spacing" textLength="22" x="1320.4891" y="638.5952">0..*</text></g><!--reverse link Koerperliche_Untersuchung_SE to Hueftumfang_SE--><g id="link_Koerperliche_Untersuchung_SE_Hueftumfang_SE"><path codeLine="141" d="M1550,519.1783 C1550,554.2583 1550,609.4983 1550,648.9683 " fill="none" id="Koerperliche_Untersuchung_SE-backto-Hueftumfang_SE" style="stroke:#181818;stroke-width:1.0;"/><polygon fill="none" points="1550,507.1783,1546,513.1783,1550,519.1783,1554,513.1783,1550,507.1783" style="stroke:#181818;stroke-width:1.0;"/><text fill="#000000" font-family="sans-serif" font-size="13" lengthAdjust="spacing" textLength="22" x="1509.6719" y="524.6055">0..*</text><text fill="#000000" font-family="sans-serif" font-size="13" lengthAdjust="spacing" textLength="22" x="1540.1688" y="638.6193">0..*</text></g><!--reverse link Untersuchung to Blutgruppe_SE--><g id="link_Untersuchung_Blutgruppe_SE"><path codeLine="142" d="M1241.67,364.7183 C1241.67,399.9683 1241.67,434.4483 1241.67,461.6983 " fill="none" id="Untersuchung-backto-Blutgruppe_SE" style="stroke:#181818;stroke-width:1.0;"/><polygon fill="none" points="1241.67,352.7183,1237.67,358.7183,1241.67,364.7183,1245.67,358.7183,1241.67,352.7183" style="stroke:#181818;stroke-width:1.0;"/><text fill="#000000" font-family="sans-serif" font-size="13" lengthAdjust="spacing" textLength="22" x="1181.7969" y="372.8961">0..*</text><text fill="#000000" font-family="sans-serif" font-size="13" lengthAdjust="spacing" textLength="24" x="1227.5251" y="451.206">0..1</text></g><!--reverse link Untersuchung to MII_Symptom_Condition_SE--><g id="link_Untersuchung_MII_Symptom_Condition_SE"><path codeLine="143" d="M1337,364.7183 C1337,401.8383 1337,439.3983 1337,465.8583 " fill="none" id="Untersuchung-backto-MII_Symptom_Condition_SE" style="stroke:#181818;stroke-width:1.0;"/><polygon fill="none" points="1337,352.7183,1333,358.7183,1337,364.7183,1341,358.7183,1337,352.7183" style="stroke:#181818;stroke-width:1.0;"/><text fill="#000000" font-family="sans-serif" font-size="13" lengthAdjust="spacing" textLength="22" x="1330.75" y="372.8961">0..*</text><text fill="#000000" font-family="sans-serif" font-size="13" lengthAdjust="spacing" textLength="22" x="1291.1125" y="455.5135">0..*</text></g><!--reverse link Untersuchung to Therapiestatus--><g id="link_Untersuchung_Therapiestatus"><path codeLine="144" d="M1177.84,304.6983 C1003.82,304.6983 693,304.6983 693,304.6983 C693,304.6983 693,402.0983 693,453.4683 " fill="none" id="Untersuchung-backto-Therapiestatus" style="stroke:#181818;stroke-width:1.0;"/><polygon fill="none" points="1189.84,304.6983,1183.84,300.6983,1177.84,304.6983,1183.84,308.6983,1189.84,304.6983" style="stroke:#181818;stroke-width:1.0;"/><text fill="#000000" font-family="sans-serif" font-size="13" lengthAdjust="spacing" textLength="22" x="1159.8339" y="301.7409">0..*</text><text fill="#000000" font-family="sans-serif" font-size="13" lengthAdjust="spacing" textLength="22" x="686.3125" y="442.6745">0..*</text></g><!--reverse link Therapiestatus to Therapieempfehlungen--><g id="link_Therapiestatus_Therapieempfehlungen"><path codeLine="145" d="M554.75,527.3583 C554.75,561.2983 554.75,603.7983 554.75,640.7183 " fill="none" id="Therapiestatus-backto-Therapieempfehlungen" style="stroke:#181818;stroke-width:1.0;"/><polygon fill="none" points="554.75,515.3583,550.75,521.3583,554.75,527.3583,558.75,521.3583,554.75,515.3583" style="stroke:#181818;stroke-width:1.0;"/><text fill="#000000" font-family="sans-serif" font-size="13" lengthAdjust="spacing" textLength="22" x="480.7094" y="530.9696">0..*</text><text fill="#000000" font-family="sans-serif" font-size="13" lengthAdjust="spacing" textLength="24" x="536.207" y="630.2702">1..1</text></g><!--reverse link Therapiestatus to Durchgef?hrte_Therapien--><g id="link_Therapiestatus_Durchgef&#252;hrte_Therapien"><path codeLine="146" d="M673.25,527.3583 C673.25,554.2883 673.25,582.1783 673.25,615.9483 " fill="none" id="Therapiestatus-backto-Durchgef&#252;hrte_Therapien" style="stroke:#181818;stroke-width:1.0;"/><polygon fill="none" points="673.25,515.3583,669.25,521.3583,673.25,527.3583,677.25,521.3583,673.25,515.3583" style="stroke:#181818;stroke-width:1.0;"/><text fill="#000000" font-family="sans-serif" font-size="13" lengthAdjust="spacing" textLength="22" x="700.2438" y="535.9979">0..*</text><text fill="#000000" font-family="sans-serif" font-size="13" lengthAdjust="spacing" textLength="24" x="641.8398" y="605.7058">1..1</text></g><!--reverse link Therapieempfehlungen to MII_Studie--><g id="link_Therapieempfehlungen_MII_Studie"><path codeLine="147" d="M588.25,731.4483 C588.25,764.2583 588.25,797.5083 588.25,822.5783 " fill="none" id="Therapieempfehlungen-backto-MII_Studie" style="stroke:#181818;stroke-width:1.0;"/><polygon fill="none" points="588.25,719.4483,584.25,725.4483,588.25,731.4483,592.25,725.4483,588.25,719.4483" style="stroke:#181818;stroke-width:1.0;"/><text fill="#000000" font-family="sans-serif" font-size="13" lengthAdjust="spacing" textLength="22" x="603.5277" y="738.207">0..*</text><text fill="#000000" font-family="sans-serif" font-size="13" lengthAdjust="spacing" textLength="22" x="553.1578" y="812.1906">0..*</text></g><!--reverse link Durchgef?hrte_Therapien to MII_Studie--><g id="link_Durchgef&#252;hrte_Therapien_MII_Studie"><path codeLine="148" d="M647.75,756.1883 C647.75,784.4583 647.75,803.5383 647.75,822.7183 " fill="none" id="Durchgef&#252;hrte_Therapien-backto-MII_Studie" style="stroke:#181818;stroke-width:1.0;"/><polygon fill="none" points="647.75,744.1883,643.75,750.1883,647.75,756.1883,651.75,750.1883,647.75,744.1883" style="stroke:#181818;stroke-width:1.0;"/><text fill="#000000" font-family="sans-serif" font-size="13" lengthAdjust="spacing" textLength="22" x="603.2641" y="755.608">0..*</text><text fill="#000000" font-family="sans-serif" font-size="13" lengthAdjust="spacing" textLength="22" x="630.8797" y="812.3735">0..*</text></g><!--SRC=[hLVDSjis4BxhAJ3AnUvKZfpSFBtetnfRaIPAt9bUE12v956100S0xQQERtsFNleCFVMc5-loLoH5Ih8d1uzfx7xV_c2nkzPR9aAgQ43kcG3pBGGYbV5bfsEOuK0MqeduerJQzcb45lCvcQWdO0PK93mTn5Ao1cv004gsYeej2a1qGcflgGUaYnXhJ541bO5pAzEsojfTyjpf499ZOiWAb9Q2lFluSJIQJfzHIeZS_0wsISNKC126f08KaHcWZnnitvIEDf4osb3l_G2DgauYUIbpFJ13EMgOI9CI6JeS1SLVwqIUWJifGoM-94lMc55FI0tTt6jou7QkKZ9bOrfko7mqlkxF5hNJvUVLxI3-r8KW2OHiW96Sg-OckNW0vL3Cmy_40yri7vIvkheiOiUVPl-RR-RTT3gPVFZG6egrdhmjcfSwuqBo6GZhWIf6XKc83vXlPm_hPlIK1enZJL110m5rlp0dJrGu9gvZr-X7K3x5S0NJnmh8un3dhrJPXGZ9G3LALfX3WuT_5YTeJHkfDlWi6brVVmj28mDhkT6W7h6ofMWEVhKatydwqt8n6PFH5_p6HFUk-_Xnlvn_6XNgy8VD8mUS6x80jGqe9pJINXAVr1e4kHXAoO6AoxsFb4TeOgKmTSA6zuDDyhkGE_Y4Rz9tGJ1oyXLlIEd8zikXXw2OHAk_OOTGDDFCeiEmjeKYlZXb1Xuoxkivqzk0nuJOH-vJ4Ulj_eeJZiQI-kOqSY-F9tCaXSEoL7RAIcNFIoc-aw3GVnvVkDKONLRnvJY-uEEY8GEzxn3Lzb5nhwfTifqB80XTy7dQGGkoIDc-1-xkFr_XgyXrHJj_cURG26Q-E9Eks-Dq0xpKH2A7mI5tcnVak85rVD5EfPjEX5CzcE6rEjOG02_CAoVyVEzQBw_Q1Uvs_yPg0TtztK0oNCohwhzYvoGN3jWCdz3bgTkzaw4R1Iwj6urPB3iudsX8Ozz_1DDj1AxvCJxno7Wg2iDQNnqC-zPd7tIaNRh57bUUCaqpPZxwYYEbtn-F-_tdXXlqu8db7RWcKHBIQskXlgSRgGhowknDPCcU0_4UqCgHrbSBIT9TyW9ywJGpu123RSGfHe9ZWEbu_69jkrZY6-oE65ktTQcf3S1N3ByCMP-1MQ2DaMPjSikPoBnS-Rj_XCGTiDt3Xabril-coOhJLTc0VldUS-IJwDMNYKoldejSlTUoAbHXzKJ4y2ZCm0sRGePk22z6AkRvfdTaLDVWHUYPsQDpgJAEklshgv-wH2Qe-8_hxc7jDYDw-UTXFiy0D2Rq35nhFix0Dj_32U2nJe_eeuFW8BjxldtVUJD3qP_EOoZmwTXvFQuoRzvWjZ9bNe-lpfOJ5uTbN9aWhokkofCvYQnjMV4_ExMZ0fCseEvruc3B4dOMziYEraHxm5AAEHymhGlNIMm7s-t_]--></g></svg>