<?xml version="1.0" encoding="us-ascii" standalone="no"?><svg xmlns="http://www.w3.org/2000/svg" xmlns:xlink="http://www.w3.org/1999/xlink" contentStyleType="text/css" height="925px" preserveAspectRatio="none" style="width:1864px;height:925px;background:#FFFFFF;" version="1.1" viewBox="0 0 1864 925" width="1864px" zoomAndPan="magnify"><defs/><g><text fill="#000000" font-family="sans-serif" font-size="14" font-weight="bold" lengthAdjust="spacing" textLength="437" x="706.5" y="24.5332">Modulvorschau MII Erweiterungsmodul Seltene Erkrankungen</text><!--cluster MII_Datenmodell_Seltene_Erkrankungen--><g id="cluster_MII_Datenmodell_Seltene_Erkrankungen"><path d="M8.5,44.6094 L295.5,44.6094 A3.75,3.75 0 0 1 298,47.1094 L305,68.2188 L1854.5,68.2188 A2.5,2.5 0 0 1 1857,70.7188 L1857,916.1094 A2.5,2.5 0 0 1 1854.5,918.6094 L8.5,918.6094 A2.5,2.5 0 0 1 6,916.1094 L6,47.1094 A2.5,2.5 0 0 1 8.5,44.6094 " fill="none" style="stroke:#000000;stroke-width:1.5;"/><line style="stroke:#000000;stroke-width:1.5;" x1="6" x2="305" y1="68.2188" y2="68.2188"/><text fill="#000000" font-family="sans-serif" font-size="14" font-weight="bold" lengthAdjust="spacing" textLength="286" x="10" y="61.1426">MII_Datenmodell_Seltene_Erkrankungen</text></g><!--cluster MII_Person--><g id="cluster_MII_Person"><path d="M1301.5,88.6094 L1381.5,88.6094 A3.75,3.75 0 0 1 1384,91.1094 L1391,112.2188 L1571.5,112.2188 A2.5,2.5 0 0 1 1574,114.7188 L1574,203.1094 A2.5,2.5 0 0 1 1571.5,205.6094 L1301.5,205.6094 A2.5,2.5 0 0 1 1299,203.1094 L1299,91.1094 A2.5,2.5 0 0 1 1301.5,88.6094 " fill="#33CCFF" style="stroke:#000000;stroke-width:1.5;"/><line style="stroke:#000000;stroke-width:1.5;" x1="1299" x2="1391" y1="112.2188" y2="112.2188"/><text fill="#000000" font-family="sans-serif" font-size="14" font-weight="bold" lengthAdjust="spacing" textLength="79" x="1303" y="105.1426">MII_Person</text></g><!--cluster MII_Modul_Diagnose--><g id="cluster_MII_Modul_Diagnose"><path d="M1420.5,229.6094 L1568.5,229.6094 A3.75,3.75 0 0 1 1571,232.1094 L1578,253.2188 L1657.5,253.2188 A2.5,2.5 0 0 1 1660,255.7188 L1660,379.1094 A2.5,2.5 0 0 1 1657.5,381.6094 L1420.5,381.6094 A2.5,2.5 0 0 1 1418,379.1094 L1418,232.1094 A2.5,2.5 0 0 1 1420.5,229.6094 " fill="#33CCFF" style="stroke:#000000;stroke-width:1.5;"/><line style="stroke:#000000;stroke-width:1.5;" x1="1418" x2="1578" y1="253.2188" y2="253.2188"/><text fill="#000000" font-family="sans-serif" font-size="14" font-weight="bold" lengthAdjust="spacing" textLength="147" x="1422" y="246.1426">MII_Modul_Diagnose</text></g><!--cluster MII_Modul_Seltene_Erkrankungen--><g id="cluster_MII_Modul_Seltene_Erkrankungen"><path d="M32.5,229.6094 L275.5,229.6094 A3.75,3.75 0 0 1 278,232.1094 L285,253.2188 L1391.5,253.2188 A2.5,2.5 0 0 1 1394,255.7188 L1394,769.1094 A2.5,2.5 0 0 1 1391.5,771.6094 L32.5,771.6094 A2.5,2.5 0 0 1 30,769.1094 L30,232.1094 A2.5,2.5 0 0 1 32.5,229.6094 " fill="#FFEE22" style="stroke:#000000;stroke-width:1.5;"/><line style="stroke:#000000;stroke-width:1.5;" x1="30" x2="285" y1="253.2188" y2="253.2188"/><text fill="#000000" font-family="sans-serif" font-size="14" font-weight="bold" lengthAdjust="spacing" textLength="242" x="34" y="246.1426">MII_Modul_Seltene_Erkrankungen</text></g><!--cluster MII_Modul_ICU--><g id="cluster_MII_Modul_ICU"><path d="M616.5,102.1094 L722.5,102.1094 A3.75,3.75 0 0 1 725,104.6094 L732,125.7188 L902.5,125.7188 A2.5,2.5 0 0 1 905,128.2188 L905,189.6094 A2.5,2.5 0 0 1 902.5,192.1094 L616.5,192.1094 A2.5,2.5 0 0 1 614,189.6094 L614,104.6094 A2.5,2.5 0 0 1 616.5,102.1094 " fill="#00DD00" style="stroke:#000000;stroke-width:1.5;"/><line style="stroke:#000000;stroke-width:1.5;" x1="614" x2="732" y1="125.7188" y2="125.7188"/><text fill="#000000" font-family="sans-serif" font-size="14" font-weight="bold" lengthAdjust="spacing" textLength="105" x="618" y="118.6426">MII_Modul_ICU</text></g><!--cluster MII_Modul_Labor--><g id="cluster_MII_Modul_Labor"><path d="M444.5,102.1094 L566.5,102.1094 A3.75,3.75 0 0 1 569,104.6094 L576,125.7188 L587.5,125.7188 A2.5,2.5 0 0 1 590,128.2188 L590,189.6094 A2.5,2.5 0 0 1 587.5,192.1094 L444.5,192.1094 A2.5,2.5 0 0 1 442,189.6094 L442,104.6094 A2.5,2.5 0 0 1 444.5,102.1094 " fill="#00DD00" style="stroke:#000000;stroke-width:1.5;"/><line style="stroke:#000000;stroke-width:1.5;" x1="442" x2="576" y1="125.7188" y2="125.7188"/><text fill="#000000" font-family="sans-serif" font-size="14" font-weight="bold" lengthAdjust="spacing" textLength="121" x="446" y="118.6426">MII_Modul_Labor</text></g><!--cluster MII_Modul_Studie--><g id="cluster_MII_Modul_Studie"><path d="M168.5,800.1094 L295.5,800.1094 A3.75,3.75 0 0 1 298,802.6094 L305,823.7188 L305.5,823.7188 A2.5,2.5 0 0 1 308,826.2188 L308,887.6094 A2.5,2.5 0 0 1 305.5,890.1094 L168.5,890.1094 A2.5,2.5 0 0 1 166,887.6094 L166,802.6094 A2.5,2.5 0 0 1 168.5,800.1094 " fill="#00DD00" style="stroke:#000000;stroke-width:1.5;"/><line style="stroke:#000000;stroke-width:1.5;" x1="166" x2="305" y1="823.7188" y2="823.7188"/><text fill="#000000" font-family="sans-serif" font-size="14" font-weight="bold" lengthAdjust="spacing" textLength="126" x="170" y="816.6426">MII_Modul_Studie</text></g><!--cluster MII_Modul_Molekulargenetischer_Befundbericht--><g id="cluster_MII_Modul_Molekulargenetischer_Befundbericht"><path d="M573.5,795.6094 L919.5,795.6094 A3.75,3.75 0 0 1 922,798.1094 L929,819.2188 L1000.5,819.2188 A2.5,2.5 0 0 1 1003,821.7188 L1003,892.1094 A2.5,2.5 0 0 1 1000.5,894.6094 L573.5,894.6094 A2.5,2.5 0 0 1 571,892.1094 L571,798.1094 A2.5,2.5 0 0 1 573.5,795.6094 " fill="#33CCFF" style="stroke:#000000;stroke-width:1.5;"/><line style="stroke:#000000;stroke-width:1.5;" x1="571" x2="929" y1="819.2188" y2="819.2188"/><text fill="#000000" font-family="sans-serif" font-size="14" font-weight="bold" lengthAdjust="spacing" textLength="345" x="575" y="812.1426">MII_Modul_Molekulargenetischer_Befundbericht</text></g><!--cluster MII_Modul_Symptom_klinischer_Ph?notyp--><g id="cluster_MII_Modul_Symptom_klinischer_Ph&#228;notyp"><path d="M1420.5,438.1094 L1715.5,438.1094 A3.75,3.75 0 0 1 1718,440.6094 L1725,461.7188 L1830.5,461.7188 A2.5,2.5 0 0 1 1833,464.2188 L1833,525.6094 A2.5,2.5 0 0 1 1830.5,528.1094 L1420.5,528.1094 A2.5,2.5 0 0 1 1418,525.6094 L1418,440.6094 A2.5,2.5 0 0 1 1420.5,438.1094 " fill="#33CCFF" style="stroke:#000000;stroke-width:1.5;"/><line style="stroke:#000000;stroke-width:1.5;" x1="1418" x2="1725" y1="461.7188" y2="461.7188"/><text fill="#000000" font-family="sans-serif" font-size="14" font-weight="bold" lengthAdjust="spacing" textLength="294" x="1422" y="454.6426">MII_Modul_Symptom_klinischer_Ph&#228;notyp</text></g><g id="elem_MII_Patient"><rect fill="#F1F1F1" height="64.8281" style="stroke:#181818;stroke-width:0.5;" width="128" x="1430" y="124.6094"/><text fill="#000000" font-family="sans-serif" font-size="14" lengthAdjust="spacing" textLength="69" x="1459.5" y="141.1426">MII_Patient</text><line style="stroke:#181818;stroke-width:0.5;" x1="1431" x2="1557" y1="146.2188" y2="146.2188"/><text fill="#000000" font-family="sans-serif" font-size="14" lengthAdjust="spacing" textLength="83" x="1436" y="164.752">o Geschlecht</text><text fill="#000000" font-family="sans-serif" font-size="14" lengthAdjust="spacing" textLength="116" x="1436" y="182.3613">o Geburtstag/Alter</text></g><g id="elem_Vitalstatus"><rect fill="#F1F1F1" height="64.8281" style="stroke:#181818;stroke-width:0.5;" width="79" x="1315.5" y="124.6094"/><text fill="#000000" font-family="sans-serif" font-size="14" lengthAdjust="spacing" textLength="65" x="1322.5" y="141.1426">Vitalstatus</text><line style="stroke:#181818;stroke-width:0.5;" x1="1316.5" x2="1393.5" y1="146.2188" y2="146.2188"/><text fill="#000000" font-family="sans-serif" font-size="14" lengthAdjust="spacing" textLength="53" x="1321.5" y="164.752">o Datum</text><text fill="#000000" font-family="sans-serif" font-size="14" lengthAdjust="spacing" textLength="52" x="1321.5" y="182.3613">o Status</text></g><g id="elem_MII_Diagnose"><rect fill="#F1F1F1" height="100.0469" style="stroke:#181818;stroke-width:0.5;" width="209" x="1434.5" y="265.6094"/><text fill="#000000" font-family="sans-serif" font-size="14" lengthAdjust="spacing" textLength="85" x="1496.5" y="282.1426">MII_Diagnose</text><line style="stroke:#181818;stroke-width:0.5;" x1="1435.5" x2="1642.5" y1="287.2188" y2="287.2188"/><text fill="#000000" font-family="sans-serif" font-size="14" lengthAdjust="spacing" textLength="112" x="1440.5" y="305.752">o code: ICD10GM</text><text fill="#000000" font-family="sans-serif" font-size="14" lengthAdjust="spacing" textLength="122" x="1440.5" y="323.3613">o code: Orphacode</text><text fill="#000000" font-family="sans-serif" font-size="14" lengthAdjust="spacing" textLength="128" x="1440.5" y="340.9707">o Alter bei Diagnose</text><text fill="#000000" font-family="sans-serif" font-size="14" lengthAdjust="spacing" textLength="197" x="1440.5" y="358.5801">o Status (Verdacht, gesichert..)</text></g><g id="elem_MII_Diagnose_SE"><rect fill="#F1F1F1" height="64.8281" style="stroke:#181818;stroke-width:0.5;" width="134" x="1244" y="460.6094"/><text fill="#000000" font-family="sans-serif" font-size="14" lengthAdjust="spacing" textLength="111" x="1255.5" y="477.1426">MII_Diagnose_SE</text><line style="stroke:#181818;stroke-width:0.5;" x1="1245" x2="1377" y1="482.2188" y2="482.2188"/><text fill="#000000" font-family="sans-serif" font-size="14" lengthAdjust="spacing" textLength="112" x="1250" y="500.752">o code: ICD10GM</text><text fill="#000000" font-family="sans-serif" font-size="14" lengthAdjust="spacing" textLength="122" x="1250" y="518.3613">o code: Orphacode</text></g><g id="elem_MII_MolGen_Variante_SE"><rect fill="#F1F1F1" height="47.2188" style="stroke:#181818;stroke-width:0.5;" width="175" x="269.5" y="469.6094"/><text fill="#000000" font-family="sans-serif" font-size="14" lengthAdjust="spacing" textLength="161" x="276.5" y="486.1426">MII_MolGen_Variante_SE</text><line style="stroke:#181818;stroke-width:0.5;" x1="270.5" x2="443.5" y1="491.2188" y2="491.2188"/><text fill="#000000" font-family="sans-serif" font-size="14" lengthAdjust="spacing" textLength="89" x="275.5" y="509.752">o code: HGVS</text></g><g id="elem_MII_Familienanamnese_SE"><rect fill="#F1F1F1" height="37.6094" style="stroke:#181818;stroke-width:0.5;" width="184" x="706" y="474.1094"/><text fill="#000000" font-family="sans-serif" font-size="14" lengthAdjust="spacing" textLength="170" x="713" y="490.6426">MII_Familienanamnese_SE</text><line style="stroke:#181818;stroke-width:0.5;" x1="707" x2="889" y1="495.7188" y2="495.7188"/></g><g id="elem_Familienmitglied"><rect fill="#F1F1F1" height="100.0469" style="stroke:#181818;stroke-width:0.5;" width="197" x="455.5" y="638.1094"/><text fill="#000000" font-family="sans-serif" font-size="14" lengthAdjust="spacing" textLength="101" x="503.5" y="654.6426">Familienmitglied</text><line style="stroke:#181818;stroke-width:0.5;" x1="456.5" x2="651.5" y1="659.7188" y2="659.7188"/><text fill="#000000" font-family="sans-serif" font-size="14" lengthAdjust="spacing" textLength="185" x="461.5" y="678.252">o Verwandtschaftsverhaeltnis</text><text fill="#000000" font-family="sans-serif" font-size="14" lengthAdjust="spacing" textLength="83" x="461.5" y="695.8613">o Geschlecht</text><text fill="#000000" font-family="sans-serif" font-size="14" lengthAdjust="spacing" textLength="134" x="461.5" y="713.4707">o gleiche Erkrankung</text><text fill="#000000" font-family="sans-serif" font-size="14" lengthAdjust="spacing" textLength="134" x="461.5" y="731.0801">o andere Erkrankung</text></g><g id="elem_MII_Symptom_Observation_SE"><rect fill="#F1F1F1" height="135.2656" style="stroke:#181818;stroke-width:0.5;" width="283" x="925.5" y="425.6094"/><text fill="#000000" font-family="sans-serif" font-size="14" lengthAdjust="spacing" textLength="194" x="970" y="442.1426">MII_Symptom_Observation_SE</text><line style="stroke:#181818;stroke-width:0.5;" x1="926.5" x2="1207.5" y1="447.2188" y2="447.2188"/><text fill="#000000" font-family="sans-serif" font-size="14" lengthAdjust="spacing" textLength="271" x="931.5" y="465.752">o code: Human Phenotype Ontology (HPO)</text><text fill="#000000" font-family="sans-serif" font-size="14" lengthAdjust="spacing" textLength="173" x="931.5" y="483.3613">o value: Presence/Absence</text><text fill="#000000" font-family="sans-serif" font-size="14" lengthAdjust="spacing" textLength="206" x="931.5" y="500.9707">o date: Datum der Untersuchung</text><text fill="#000000" font-family="sans-serif" font-size="14" lengthAdjust="spacing" textLength="224" x="931.5" y="518.5801">o period: Zeitraum der Symptomatik</text><text fill="#000000" font-family="sans-serif" font-size="14" lengthAdjust="spacing" textLength="230" x="931.5" y="536.1895">o startAge: Alter bei Symptombeginn</text><text fill="#000000" font-family="sans-serif" font-size="14" lengthAdjust="spacing" textLength="129" x="931.5" y="553.7988">o change: &#196;nderung</text></g><g id="elem_MII_Symptom_Condition_SE"><rect fill="#F1F1F1" height="37.6094" style="stroke:#181818;stroke-width:0.5;" width="191" x="479.5" y="474.1094"/><text fill="#000000" font-family="sans-serif" font-size="14" lengthAdjust="spacing" textLength="177" x="486.5" y="490.6426">MII_Symptom_Condition_SE</text><line style="stroke:#181818;stroke-width:0.5;" x1="480.5" x2="669.5" y1="495.7188" y2="495.7188"/></g><g id="elem_Untersuchung"><rect fill="#F1F1F1" height="100.0469" style="stroke:#181818;stroke-width:0.5;" width="200" x="586" y="265.6094"/><text fill="#000000" font-family="sans-serif" font-size="14" lengthAdjust="spacing" textLength="88" x="642" y="282.1426">Untersuchung</text><line style="stroke:#181818;stroke-width:0.5;" x1="587" x2="785" y1="287.2188" y2="287.2188"/><text fill="#000000" font-family="sans-serif" font-size="14" lengthAdjust="spacing" textLength="188" x="592" y="305.752">o Koerperliche_Untersuchung</text><text fill="#000000" font-family="sans-serif" font-size="14" lengthAdjust="spacing" textLength="78" x="592" y="323.3613">o Diagnostik</text><text fill="#000000" font-family="sans-serif" font-size="14" lengthAdjust="spacing" textLength="107" x="592" y="340.9707">o Therapiestatus</text><text fill="#000000" font-family="sans-serif" font-size="14" lengthAdjust="spacing" textLength="53" x="592" y="358.5801">o Datum</text></g><g id="elem_Therapiestatus"><rect fill="#F1F1F1" height="64.8281" style="stroke:#181818;stroke-width:0.5;" width="188" x="46" y="460.6094"/><text fill="#000000" font-family="sans-serif" font-size="14" lengthAdjust="spacing" textLength="95" x="92.5" y="477.1426">Therapiestatus</text><line style="stroke:#181818;stroke-width:0.5;" x1="47" x2="233" y1="482.2188" y2="482.2188"/><text fill="#000000" font-family="sans-serif" font-size="14" lengthAdjust="spacing" textLength="159" x="52" y="500.752">o Therapieempfehlungen</text><text fill="#000000" font-family="sans-serif" font-size="14" lengthAdjust="spacing" textLength="176" x="52" y="518.3613">o Durchgef&#252;hrte_Therapien</text></g><g id="elem_Therapieempfehlungen"><rect fill="#F1F1F1" height="82.4375" style="stroke:#181818;stroke-width:0.5;" width="161" x="259.5" y="647.1094"/><text fill="#000000" font-family="sans-serif" font-size="14" lengthAdjust="spacing" textLength="147" x="266.5" y="663.6426">Therapieempfehlungen</text><line style="stroke:#181818;stroke-width:0.5;" x1="260.5" x2="419.5" y1="668.7188" y2="668.7188"/><text fill="#000000" font-family="sans-serif" font-size="14" lengthAdjust="spacing" textLength="86" x="265.5" y="687.252">o Therapieart</text><text fill="#000000" font-family="sans-serif" font-size="14" lengthAdjust="spacing" textLength="63" x="265.5" y="704.8613">o off-label</text><text fill="#000000" font-family="sans-serif" font-size="14" lengthAdjust="spacing" textLength="52" x="265.5" y="722.4707">o Studie</text></g><g id="elem_Durchgef&#252;hrte_Therapien"><rect fill="#F1F1F1" height="135.2656" style="stroke:#181818;stroke-width:0.5;" width="178" x="46" y="620.6094"/><text fill="#000000" font-family="sans-serif" font-size="14" lengthAdjust="spacing" textLength="164" x="53" y="637.1426">Durchgef&#252;hrte_Therapien</text><line style="stroke:#181818;stroke-width:0.5;" x1="47" x2="223" y1="642.2188" y2="642.2188"/><text fill="#000000" font-family="sans-serif" font-size="14" lengthAdjust="spacing" textLength="86" x="52" y="660.752">o Therapieart</text><text fill="#000000" font-family="sans-serif" font-size="14" lengthAdjust="spacing" textLength="81" x="52" y="678.3613">o Startdatum</text><text fill="#000000" font-family="sans-serif" font-size="14" lengthAdjust="spacing" textLength="76" x="52" y="695.9707">o Enddatum</text><text fill="#000000" font-family="sans-serif" font-size="14" lengthAdjust="spacing" textLength="136" x="52" y="713.5801">o Grund_Beendigung</text><text fill="#000000" font-family="sans-serif" font-size="14" lengthAdjust="spacing" textLength="63" x="52" y="731.1895">o off-label</text><text fill="#000000" font-family="sans-serif" font-size="14" lengthAdjust="spacing" textLength="52" x="52" y="748.7988">o Studie</text></g><g id="elem_Koerpergewicht"><rect fill="#F1F1F1" height="37.6094" style="stroke:#181818;stroke-width:0.5;" width="112" x="630" y="138.1094"/><text fill="#000000" font-family="sans-serif" font-size="14" lengthAdjust="spacing" textLength="98" x="637" y="154.6426">Koerpergewicht</text><line style="stroke:#181818;stroke-width:0.5;" x1="631" x2="741" y1="159.7188" y2="159.7188"/></g><g id="elem_Koerpergroe&#223;e"><rect fill="#F1F1F1" height="37.6094" style="stroke:#181818;stroke-width:0.5;" width="111" x="777.5" y="138.1094"/><text fill="#000000" font-family="sans-serif" font-size="14" lengthAdjust="spacing" textLength="97" x="784.5" y="154.6426">Koerpergroe&#223;e</text><line style="stroke:#181818;stroke-width:0.5;" x1="778.5" x2="887.5" y1="159.7188" y2="159.7188"/></g><g id="elem_Laborparameter"><rect fill="#F1F1F1" height="37.6094" style="stroke:#181818;stroke-width:0.5;" width="116" x="458" y="138.1094"/><text fill="#000000" font-family="sans-serif" font-size="14" lengthAdjust="spacing" textLength="102" x="465" y="154.6426">Laborparameter</text><line style="stroke:#181818;stroke-width:0.5;" x1="459" x2="573" y1="159.7188" y2="159.7188"/></g><g id="elem_MII_Studie"><rect fill="#F1F1F1" height="37.6094" style="stroke:#181818;stroke-width:0.5;" width="79" x="197.5" y="836.1094"/><text fill="#000000" font-family="sans-serif" font-size="14" lengthAdjust="spacing" textLength="65" x="204.5" y="852.6426">MII_Studie</text><line style="stroke:#181818;stroke-width:0.5;" x1="198.5" x2="275.5" y1="857.7188" y2="857.7188"/></g><g id="elem_MII_MolGen_Variante"><rect fill="#F1F1F1" height="47.2188" style="stroke:#181818;stroke-width:0.5;" width="149" x="587.5" y="831.6094"/><text fill="#000000" font-family="sans-serif" font-size="14" lengthAdjust="spacing" textLength="135" x="594.5" y="848.1426">MII_MolGen_Variante</text><line style="stroke:#181818;stroke-width:0.5;" x1="588.5" x2="735.5" y1="853.2188" y2="853.2188"/><text fill="#000000" font-family="sans-serif" font-size="14" lengthAdjust="spacing" textLength="89" x="593.5" y="871.752">o code: HGVS</text></g><g id="elem_MII_MolGen_Familienanamnese"><rect fill="#F1F1F1" height="37.6094" style="stroke:#181818;stroke-width:0.5;" width="215" x="771.5" y="836.1094"/><text fill="#000000" font-family="sans-serif" font-size="14" lengthAdjust="spacing" textLength="201" x="778.5" y="852.6426">MII_MolGen_Familienanamnese</text><line style="stroke:#181818;stroke-width:0.5;" x1="772.5" x2="985.5" y1="857.7188" y2="857.7188"/></g><g id="elem_MII_Symptom_Observation"><rect fill="#F1F1F1" height="37.6094" style="stroke:#181818;stroke-width:0.5;" width="182" x="1635" y="474.1094"/><text fill="#000000" font-family="sans-serif" font-size="14" lengthAdjust="spacing" textLength="168" x="1642" y="490.6426">MII_Symptom_Observation</text><line style="stroke:#181818;stroke-width:0.5;" x1="1636" x2="1816" y1="495.7188" y2="495.7188"/></g><g id="elem_MII_Symptom_Condition"><rect fill="#F1F1F1" height="37.6094" style="stroke:#181818;stroke-width:0.5;" width="165" x="1434.5" y="474.1094"/><text fill="#000000" font-family="sans-serif" font-size="14" lengthAdjust="spacing" textLength="151" x="1441.5" y="490.6426">MII_Symptom_Condition</text><line style="stroke:#181818;stroke-width:0.5;" x1="1435.5" x2="1598.5" y1="495.7188" y2="495.7188"/></g><!--reverse link MII_Diagnose to MII_Diagnose_SE--><g id="link_MII_Diagnose_MII_Diagnose_SE"><path codeLine="100" d="M1416.44,332.6094 C1371.35,332.6094 1346.75,332.6094 1346.75,332.6094 C1346.75,332.6094 1346.75,413.2894 1346.75,460.2394 " fill="none" id="MII_Diagnose-backto-MII_Diagnose_SE" style="stroke:#181818;stroke-width:1.0;"/><polygon fill="none" points="1434.44,332.6094,1416.44,326.6094,1416.44,338.6094,1434.44,332.6094" style="stroke:#181818;stroke-width:1.0;"/></g><!--reverse link MII_MolGen_Variante to MII_MolGen_Variante_SE--><g id="link_MII_MolGen_Variante_MII_MolGen_Variante_SE"><path codeLine="101" d="M569.49,855.6094 C502.48,855.6094 432.5,855.6094 432.5,855.6094 C432.5,855.6094 432.5,596.9394 432.5,516.6194 " fill="none" id="MII_MolGen_Variante-backto-MII_MolGen_Variante_SE" style="stroke:#181818;stroke-width:1.0;"/><polygon fill="none" points="587.49,855.6094,569.49,849.6094,569.49,861.6094,587.49,855.6094" style="stroke:#181818;stroke-width:1.0;"/></g><!--link MII_Familienanamnese_SE to MII_MolGen_Familienanamnese--><g id="link_MII_Familienanamnese_SE_MII_MolGen_Familienanamnese"><path codeLine="102" d="M830.75,512.3194 C830.75,575.0194 830.75,755.3094 830.75,817.9494 " fill="none" id="MII_Familienanamnese_SE-to-MII_MolGen_Familienanamnese" style="stroke:#181818;stroke-width:1.0;"/><polygon fill="none" points="830.75,835.9494,836.75,817.9494,824.75,817.9494,830.75,835.9494" style="stroke:#181818;stroke-width:1.0;"/></g><!--reverse link MII_Symptom_Observation to MII_Symptom_Observation_SE--><g id="link_MII_Symptom_Observation_MII_Symptom_Observation_SE"><path codeLine="103" d="M1639.25,455.8294 C1639.25,441.9294 1639.25,443.6094 1639.25,443.6094 C1639.25,443.6094 1378.29,443.6094 1208.82,443.6094 " fill="none" id="MII_Symptom_Observation-backto-MII_Symptom_Observation_SE" style="stroke:#181818;stroke-width:1.0;"/><polygon fill="none" points="1639.25,473.8294,1645.25,455.8294,1633.25,455.8294,1639.25,473.8294" style="stroke:#181818;stroke-width:1.0;"/></g><!--link MII_Symptom_Condition_SE to MII_Symptom_Condition--><g id="link_MII_Symptom_Condition_SE_MII_Symptom_Condition"><path codeLine="104" d="M661.5,512.3694 C661.5,540.7894 661.5,590.6094 661.5,590.6094 C661.5,590.6094 1517,590.6094 1517,590.6094 C1517,590.6094 1517,558.7894 1517,530.3694 " fill="none" id="MII_Symptom_Condition_SE-to-MII_Symptom_Condition" style="stroke:#181818;stroke-width:1.0;"/><polygon fill="none" points="1517,512.3694,1511,530.3694,1523,530.3694,1517,512.3694" style="stroke:#181818;stroke-width:1.0;"/></g><!--reverse link MII_Familienanamnese_SE to Familienmitglied--><g id="link_MII_Familienanamnese_SE_Familienmitglied"><path codeLine="106" d="M721.25,524.2094 C721.25,573.3994 721.25,688.6094 721.25,688.6094 C721.25,688.6094 688.95,688.6094 652.74,688.6094 " fill="none" id="MII_Familienanamnese_SE-backto-Familienmitglied" style="stroke:#181818;stroke-width:1.0;"/><polygon fill="none" points="721.25,512.2094,717.25,518.2094,721.25,524.2094,725.25,518.2094,721.25,512.2094" style="stroke:#181818;stroke-width:1.0;"/><text fill="#000000" font-family="sans-serif" font-size="13" lengthAdjust="spacing" textLength="20" x="678.4653" y="533.2507">1..*</text><text fill="#000000" font-family="sans-serif" font-size="13" lengthAdjust="spacing" textLength="22" x="660.4561" y="685.5879">1..1</text></g><!--link Laborparameter to Untersuchung--><g id="link_Laborparameter_Untersuchung"><path codeLine="107" d="M574,157.6094 C592.38,157.6094 608,157.6094 608,157.6094 C608,157.6094 608,206.9394 608,253.1794 " fill="none" id="Laborparameter-to-Untersuchung" style="stroke:#181818;stroke-width:1.0;"/><polygon fill="none" points="608,265.1794,612,259.1794,608,253.1794,604,259.1794,608,265.1794" style="stroke:#181818;stroke-width:1.0;"/><text fill="#000000" font-family="sans-serif" font-size="13" lengthAdjust="spacing" textLength="22" x="581.9781" y="154.2802">0..1</text><text fill="#000000" font-family="sans-serif" font-size="13" lengthAdjust="spacing" textLength="20" x="576.175" y="254.8434">0..*</text></g><!--reverse link Untersuchung to MII_Diagnose_SE--><g id="link_Untersuchung_MII_Diagnose_SE"><path codeLine="108" d="M798.05,299.6094 C967.26,299.6094 1279.75,299.6094 1279.75,299.6094 C1279.75,299.6094 1279.75,405.0794 1279.75,460.2894 " fill="none" id="Untersuchung-backto-MII_Diagnose_SE" style="stroke:#181818;stroke-width:1.0;"/><polygon fill="none" points="786.05,299.6094,792.05,303.6094,798.05,299.6094,792.05,295.6094,786.05,299.6094" style="stroke:#181818;stroke-width:1.0;"/><text fill="#000000" font-family="sans-serif" font-size="13" lengthAdjust="spacing" textLength="20" x="794.1318" y="295.3532">0..*</text><text fill="#000000" font-family="sans-serif" font-size="13" lengthAdjust="spacing" textLength="20" x="1251.6289" y="449.7996">0..*</text></g><!--reverse link Untersuchung to MII_MolGen_Variante_SE--><g id="link_Untersuchung_MII_MolGen_Variante_SE"><path codeLine="109" d="M573.95,315.6094 C477.16,315.6094 357,315.6094 357,315.6094 C357,315.6094 357,421.2594 357,469.5394 " fill="none" id="Untersuchung-backto-MII_MolGen_Variante_SE" style="stroke:#181818;stroke-width:1.0;"/><polygon fill="none" points="585.95,315.6094,579.95,311.6094,573.95,315.6094,579.95,319.6094,585.95,315.6094" style="stroke:#181818;stroke-width:1.0;"/><text fill="#000000" font-family="sans-serif" font-size="13" lengthAdjust="spacing" textLength="20" x="557.8682" y="312.5282">0..*</text><text fill="#000000" font-family="sans-serif" font-size="13" lengthAdjust="spacing" textLength="20" x="334.3125" y="458.5679">0..*</text></g><!--reverse link Untersuchung to MII_Symptom_Observation_SE--><g id="link_Untersuchung_MII_Symptom_Observation_SE"><path codeLine="110" d="M759.33,377.8294 C759.33,413.6894 759.33,443.6094 759.33,443.6094 C759.33,443.6094 844.58,443.6094 925.32,443.6094 " fill="none" id="Untersuchung-backto-MII_Symptom_Observation_SE" style="stroke:#181818;stroke-width:1.0;"/><polygon fill="none" points="759.33,365.8294,755.33,371.8294,759.33,377.8294,763.33,371.8294,759.33,365.8294" style="stroke:#181818;stroke-width:1.0;"/><text fill="#000000" font-family="sans-serif" font-size="13" lengthAdjust="spacing" textLength="20" x="747.84" y="387.1683">0..*</text><text fill="#000000" font-family="sans-serif" font-size="13" lengthAdjust="spacing" textLength="20" x="897.499" y="438.1419">0..*</text></g><!--reverse link Untersuchung to MII_Familienanamnese_SE--><g id="link_Untersuchung_MII_Familienanamnese_SE"><path codeLine="111" d="M732.67,377.9994 C732.67,413.8694 732.67,448.0994 732.67,473.7594 " fill="none" id="Untersuchung-backto-MII_Familienanamnese_SE" style="stroke:#181818;stroke-width:1.0;"/><polygon fill="none" points="732.67,365.9994,728.67,371.9994,732.67,377.9994,736.67,371.9994,732.67,365.9994" style="stroke:#181818;stroke-width:1.0;"/><text fill="#000000" font-family="sans-serif" font-size="13" lengthAdjust="spacing" textLength="20" x="717.3683" y="386.9952">0..*</text><text fill="#000000" font-family="sans-serif" font-size="13" lengthAdjust="spacing" textLength="20" x="690.5418" y="463.3294">0..*</text></g><!--link Koerpergewicht to Untersuchung--><g id="link_Koerpergewicht_Untersuchung"><path codeLine="112" d="M686,176.2294 C686,198.2094 686,223.1694 686,253.5094 " fill="none" id="Koerpergewicht-to-Untersuchung" style="stroke:#181818;stroke-width:1.0;"/><polygon fill="none" points="686,265.5094,690,259.5094,686,253.5094,682,259.5094,686,265.5094" style="stroke:#181818;stroke-width:1.0;"/><text fill="#000000" font-family="sans-serif" font-size="13" lengthAdjust="spacing" textLength="20" x="663.3125" y="197.1127">0..*</text><text fill="#000000" font-family="sans-serif" font-size="13" lengthAdjust="spacing" textLength="20" x="664.5938" y="254.8556">0..*</text></g><!--link Koerpergroe?e to Untersuchung--><g id="link_Koerpergroe&#223;e_Untersuchung"><path codeLine="113" d="M781.75,176.2294 C781.75,198.2094 781.75,223.1694 781.75,253.5094 " fill="none" id="Koerpergroe&#223;e-to-Untersuchung" style="stroke:#181818;stroke-width:1.0;"/><polygon fill="none" points="781.75,265.5094,785.75,259.5094,781.75,253.5094,777.75,259.5094,781.75,265.5094" style="stroke:#181818;stroke-width:1.0;"/><text fill="#000000" font-family="sans-serif" font-size="13" lengthAdjust="spacing" textLength="20" x="749.6914" y="195.1368">0..*</text><text fill="#000000" font-family="sans-serif" font-size="13" lengthAdjust="spacing" textLength="20" x="773.8086" y="254.8556">0..*</text></g><!--reverse link Untersuchung to MII_Symptom_Condition_SE--><g id="link_Untersuchung_MII_Symptom_Condition_SE"><path codeLine="114" d="M642.33,377.9994 C642.33,413.8694 642.33,448.0994 642.33,473.7594 " fill="none" id="Untersuchung-backto-MII_Symptom_Condition_SE" style="stroke:#181818;stroke-width:1.0;"/><polygon fill="none" points="642.33,365.9994,638.33,371.9994,642.33,377.9994,646.33,371.9994,642.33,365.9994" style="stroke:#181818;stroke-width:1.0;"/><text fill="#000000" font-family="sans-serif" font-size="13" lengthAdjust="spacing" textLength="20" x="615.4535" y="386.9952">0..*</text><text fill="#000000" font-family="sans-serif" font-size="13" lengthAdjust="spacing" textLength="20" x="639.1707" y="463.3294">0..*</text></g><!--reverse link Untersuchung to Therapiestatus--><g id="link_Untersuchung_Therapiestatus"><path codeLine="115" d="M614.17,377.9794 C614.17,421.5494 614.17,465.6094 614.17,465.6094 C614.17,465.6094 372.53,465.6094 234.25,465.6094 " fill="none" id="Untersuchung-backto-Therapiestatus" style="stroke:#181818;stroke-width:1.0;"/><polygon fill="none" points="614.17,365.9794,610.17,371.9794,614.17,377.9794,618.17,371.9794,614.17,365.9794" style="stroke:#181818;stroke-width:1.0;"/><text fill="#000000" font-family="sans-serif" font-size="13" lengthAdjust="spacing" textLength="20" x="583.6855" y="386.9727">0..*</text><text fill="#000000" font-family="sans-serif" font-size="13" lengthAdjust="spacing" textLength="20" x="241.9059" y="460.5167">0..*</text></g><!--reverse link Therapiestatus to Therapieempfehlungen--><g id="link_Therapiestatus_Therapieempfehlungen"><path codeLine="116" d="M246.04,521.6094 C263.57,521.6094 264.5,521.6094 264.5,521.6094 C264.5,521.6094 264.5,597.6494 264.5,646.9494 " fill="none" id="Therapiestatus-backto-Therapieempfehlungen" style="stroke:#181818;stroke-width:1.0;"/><polygon fill="none" points="234.04,521.6094,240.04,525.6094,246.04,521.6094,240.04,517.6094,234.04,521.6094" style="stroke:#181818;stroke-width:1.0;"/><text fill="#000000" font-family="sans-serif" font-size="13" lengthAdjust="spacing" textLength="20" x="242.0056" y="520.6941">0..*</text><text fill="#000000" font-family="sans-serif" font-size="13" lengthAdjust="spacing" textLength="22" x="232.0505" y="635.4055">1..1</text></g><!--reverse link Therapiestatus to Durchgef?hrte_Therapien--><g id="link_Therapiestatus_Durchgef&#252;hrte_Therapien"><path codeLine="117" d="M135,537.7494 C135,563.5494 135,588.4494 135,620.5494 " fill="none" id="Therapiestatus-backto-Durchgef&#252;hrte_Therapien" style="stroke:#181818;stroke-width:1.0;"/><polygon fill="none" points="135,525.7494,131,531.7494,135,537.7494,139,531.7494,135,525.7494" style="stroke:#181818;stroke-width:1.0;"/><text fill="#000000" font-family="sans-serif" font-size="13" lengthAdjust="spacing" textLength="20" x="112.1406" y="547.0414">0..*</text><text fill="#000000" font-family="sans-serif" font-size="13" lengthAdjust="spacing" textLength="22" x="111.7969" y="609.7848">1..1</text></g><!--reverse link Therapieempfehlungen to MII_Studie--><g id="link_Therapieempfehlungen_MII_Studie"><path codeLine="118" d="M268,741.3894 C268,775.3894 268,810.0594 268,835.9094 " fill="none" id="Therapieempfehlungen-backto-MII_Studie" style="stroke:#181818;stroke-width:1.0;"/><polygon fill="none" points="268,729.3894,264,735.3894,268,741.3894,272,735.3894,268,729.3894" style="stroke:#181818;stroke-width:1.0;"/><text fill="#000000" font-family="sans-serif" font-size="13" lengthAdjust="spacing" textLength="20" x="234.4188" y="751.0394">0..*</text><text fill="#000000" font-family="sans-serif" font-size="13" lengthAdjust="spacing" textLength="20" x="254.4312" y="825.1881">0..*</text></g><!--reverse link Durchgef?hrte_Therapien to MII_Studie--><g id="link_Durchgef&#252;hrte_Therapien_MII_Studie"><path codeLine="119" d="M210.75,768.0394 C210.75,796.9294 210.75,816.4094 210.75,835.9494 " fill="none" id="Durchgef&#252;hrte_Therapien-backto-MII_Studie" style="stroke:#181818;stroke-width:1.0;"/><polygon fill="none" points="210.75,756.0394,206.75,762.0394,210.75,768.0394,214.75,762.0394,210.75,756.0394" style="stroke:#181818;stroke-width:1.0;"/><text fill="#000000" font-family="sans-serif" font-size="13" lengthAdjust="spacing" textLength="20" x="197.5305" y="777.3692">0..*</text><text fill="#000000" font-family="sans-serif" font-size="13" lengthAdjust="spacing" textLength="20" x="179.6484" y="825.2404">0..*</text></g><!--SRC=[dLNDSjCm4BxxAJJXKXXIKhXrk9JyqO5ECnFeWOj7jZUsY2nvPBcT3lJ6Ut3XCRZrnLWviYl_9Ic7J1BjVgjlF-rFlcKYeugcv3CJeEyp85BfH7gUPfe3kP9HmM-boiE45kJgyfBCrHqm3QeGSPuQAra3ro00BLj5nHOD8BoCXbiQ0naXnfzHT41duDotthxhFI8_F8-G2cCWAr2v5EJ5ktVJwMBn0ws4oE0xX7fdffg1q6HdG1DP0dBa42RQEGeAfNDDupSNUAdoIik36-k6QShHGnSvSO8XuIAj_wrBkmLxkmYD_4gL_1cZiP0vZ2hMf4ExSd6k2b6MSt8vdPrDbbUjqskL9TJyhC_BF4W0Z5IXMYp9oGseYA8ChqaCEGiJKFhqz6MTEdxwwVS_p8l5OZv_-tOm4tyz_wza7je1hoHVWl1lg69Kw39k9_37vSsw7xsWAUDO4LJGL419otMfp2dJCNv7JcIKwuwAI9iAt-Zy5bH2KGd1ydsb5NCmqZerNvim6AYEfSDuVPzcMgR-TP23kiLobg8_voAbWgmI4B9ipskX9PVnFJdvkBf-MJlVKbwWzqfXyYA4DnT1-LtR8sp1yrrT4-H7lgB6AY_2nAMUWM8oEYVViCCLjPwMA3BS4bAxOiyeVH5ZpAUIj9u1n4o8fpGIAepVuoyZp44zfb94pAhXkKukOqUbJn8KykRcEVpUh6of8l_ww0js1SqOv4-TtMpx1hscjtDtPO0qsq32TvEl3bQeC8bXy_WtKLZFbQyOZk-6wLw2UjTdShCPSne0Txg_Y5XFQmsn8FilM9ldZHfJS2wYvi4I7pFoFm3WWyMku0VP3GpGo-bN73YJoMmscJG6ZdtZ6EvOrOGjYvBm-1k6Gt-cWLHryEPWBctb4WIp90PZx98O25AMS9NbWzSV0MSSR0jECHDSjYmtmna5tA2E0ROUvZOQt7Yj-VYCsMYHxH5f4-tDrFRYbZDXMQwInp_b11fcs3FH3ZRvJYmZLsCzllyvZkIT6BTNZVLhQr6vZmSsIHFM5iB0Yyo2-nV9G7e6gLYSwF6UaTw2rwdRQ_SElm56P7HsUlfgH2IIDZ_FHfqDX-36m1nDBC9SQVuWfbFu_OXnzRFx64S0Ub_Z2DoWc4TW-nznlnxufpDcZaRKu-SPYJNU-Y2ojOFC8cuTrPXTvzYw65XHHs7tRB2-i9qeJixLP1nSHmUndeU3uXy0]--></g></svg>