<?xml version="1.0" encoding="us-ascii" standalone="no"?><svg xmlns="http://www.w3.org/2000/svg" xmlns:xlink="http://www.w3.org/1999/xlink" contentStyleType="text/css" height="894px" preserveAspectRatio="none" style="width:2452px;height:894px;background:#FFFFFF;" version="1.1" viewBox="0 0 2452 894" width="2452px" zoomAndPan="magnify"><defs/><g><text fill="#000000" font-family="sans-serif" font-size="14" font-weight="bold" lengthAdjust="spacing" textLength="443" x="997.5" y="23.5352">Modulvorschau MII Erweiterungsmodul Seltene Erkrankungen</text><!--cluster MII_Datenmodell_Seltene_Erkrankungen--><g id="cluster_MII_Datenmodell_Seltene_Erkrankungen"><path d="M8.5,43.4883 L296.5,43.4883 A3.75,3.75 0 0 1 299,45.9883 L306,65.9766 L2442.5,65.9766 A2.5,2.5 0 0 1 2445,68.4766 L2445,884.7083 A2.5,2.5 0 0 1 2442.5,887.2083 L8.5,887.2083 A2.5,2.5 0 0 1 6,884.7083 L6,45.9883 A2.5,2.5 0 0 1 8.5,43.4883 " fill="none" style="stroke:#000000;stroke-width:1.5;"/><line style="stroke:#000000;stroke-width:1.5;" x1="6" x2="306" y1="65.9766" y2="65.9766"/><text fill="#000000" font-family="sans-serif" font-size="14" font-weight="bold" lengthAdjust="spacing" textLength="287" x="10" y="59.0234">MII_Datenmodell_Seltene_Erkrankungen</text></g><!--cluster MII_Person--><g id="cluster_MII_Person"><path d="M449.5,86.4883 L529.5,86.4883 A3.75,3.75 0 0 1 532,88.9883 L539,108.9766 L737.5,108.9766 A2.5,2.5 0 0 1 740,111.4766 L740,196.4583 A2.5,2.5 0 0 1 737.5,198.9583 L449.5,198.9583 A2.5,2.5 0 0 1 447,196.4583 L447,88.9883 A2.5,2.5 0 0 1 449.5,86.4883 " fill="#33CCFF" style="stroke:#000000;stroke-width:1.5;"/><line style="stroke:#000000;stroke-width:1.5;" x1="447" x2="539" y1="108.9766" y2="108.9766"/><text fill="#000000" font-family="sans-serif" font-size="14" font-weight="bold" lengthAdjust="spacing" textLength="79" x="451" y="102.0234">MII_Person</text></g><!--cluster MII_Modul_Diagnose--><g id="cluster_MII_Modul_Diagnose"><path d="M32.5,222.9583 L182.5,222.9583 A3.75,3.75 0 0 1 185,225.4583 L192,245.4466 L279.5,245.4466 A2.5,2.5 0 0 1 282,247.9466 L282,365.8983 A2.5,2.5 0 0 1 279.5,368.3983 L32.5,368.3983 A2.5,2.5 0 0 1 30,365.8983 L30,225.4583 A2.5,2.5 0 0 1 32.5,222.9583 " fill="#33CCFF" style="stroke:#000000;stroke-width:1.5;"/><line style="stroke:#000000;stroke-width:1.5;" x1="30" x2="192" y1="245.4466" y2="245.4466"/><text fill="#000000" font-family="sans-serif" font-size="14" font-weight="bold" lengthAdjust="spacing" textLength="149" x="34" y="238.4934">MII_Modul_Diagnose</text></g><!--cluster MII_Modul_Seltene_Erkrankungen--><g id="cluster_MII_Modul_Seltene_Erkrankungen"><path d="M308.5,222.9583 L549.5,222.9583 A3.75,3.75 0 0 1 552,225.4583 L559,245.4466 L1953.5,245.4466 A2.5,2.5 0 0 1 1956,247.9466 L1956,740.7283 A2.5,2.5 0 0 1 1953.5,743.2283 L308.5,743.2283 A2.5,2.5 0 0 1 306,740.7283 L306,225.4583 A2.5,2.5 0 0 1 308.5,222.9583 " fill="#FFEE22" style="stroke:#000000;stroke-width:1.5;"/><line style="stroke:#000000;stroke-width:1.5;" x1="306" x2="559" y1="245.4466" y2="245.4466"/><text fill="#000000" font-family="sans-serif" font-size="14" font-weight="bold" lengthAdjust="spacing" textLength="240" x="310" y="238.4934">MII_Modul_Seltene_Erkrankungen</text></g><!--cluster MII_Modul_ICU--><g id="cluster_MII_Modul_ICU"><path d="M1982.5,251.9283 L2090.5,251.9283 A3.75,3.75 0 0 1 2093,254.4283 L2100,274.4166 L2283.5,274.4166 A2.5,2.5 0 0 1 2286,276.9166 L2286,336.9183 A2.5,2.5 0 0 1 2283.5,339.4183 L1982.5,339.4183 A2.5,2.5 0 0 1 1980,336.9183 L1980,254.4283 A2.5,2.5 0 0 1 1982.5,251.9283 " fill="#00DD00" style="stroke:#000000;stroke-width:1.5;"/><line style="stroke:#000000;stroke-width:1.5;" x1="1980" x2="2100" y1="274.4166" y2="274.4166"/><text fill="#000000" font-family="sans-serif" font-size="14" font-weight="bold" lengthAdjust="spacing" textLength="107" x="1984" y="267.4634">MII_Modul_ICU</text></g><!--cluster MII_Modul_Labor--><g id="cluster_MII_Modul_Labor"><path d="M1069.5,98.9783 L1192.5,98.9783 A3.75,3.75 0 0 1 1195,101.4783 L1202,121.4666 L1220.5,121.4666 A2.5,2.5 0 0 1 1223,123.9666 L1223,183.9683 A2.5,2.5 0 0 1 1220.5,186.4683 L1069.5,186.4683 A2.5,2.5 0 0 1 1067,183.9683 L1067,101.4783 A2.5,2.5 0 0 1 1069.5,98.9783 " fill="#00DD00" style="stroke:#000000;stroke-width:1.5;"/><line style="stroke:#000000;stroke-width:1.5;" x1="1067" x2="1202" y1="121.4666" y2="121.4666"/><text fill="#000000" font-family="sans-serif" font-size="14" font-weight="bold" lengthAdjust="spacing" textLength="122" x="1071" y="114.5134">MII_Modul_Labor</text></g><!--cluster MII_Modul_Studie--><g id="cluster_MII_Modul_Studie"><path d="M716.5,771.4783 L844.5,771.4783 A3.75,3.75 0 0 1 847,773.9783 L854,793.9666 L854.5,793.9666 A2.5,2.5 0 0 1 857,796.4666 L857,856.4683 A2.5,2.5 0 0 1 854.5,858.9683 L716.5,858.9683 A2.5,2.5 0 0 1 714,856.4683 L714,773.9783 A2.5,2.5 0 0 1 716.5,771.4783 " fill="#00DD00" style="stroke:#000000;stroke-width:1.5;"/><line style="stroke:#000000;stroke-width:1.5;" x1="714" x2="854" y1="793.9666" y2="793.9666"/><text fill="#000000" font-family="sans-serif" font-size="14" font-weight="bold" lengthAdjust="spacing" textLength="127" x="718" y="787.0134">MII_Modul_Studie</text></g><!--cluster MII_Modul_Molekulargenetischer_Befundbericht--><g id="cluster_MII_Modul_Molekulargenetischer_Befundbericht"><path d="M198.5,767.2283 L543.5,767.2283 A3.75,3.75 0 0 1 546,769.7283 L553,789.7166 L646.5,789.7166 A2.5,2.5 0 0 1 649,792.2166 L649,860.7083 A2.5,2.5 0 0 1 646.5,863.2083 L198.5,863.2083 A2.5,2.5 0 0 1 196,860.7083 L196,769.7283 A2.5,2.5 0 0 1 198.5,767.2283 " fill="#33CCFF" style="stroke:#000000;stroke-width:1.5;"/><line style="stroke:#000000;stroke-width:1.5;" x1="196" x2="553" y1="789.7166" y2="789.7166"/><text fill="#000000" font-family="sans-serif" font-size="14" font-weight="bold" lengthAdjust="spacing" textLength="344" x="200" y="782.7634">MII_Modul_Molekulargenetischer_Befundbericht</text></g><!--cluster MII_Modul_Symptom_klinischer_Ph?notyp--><g id="cluster_MII_Modul_Symptom_klinischer_Ph&#228;notyp"><path d="M1982.5,422.8583 L2285.5,422.8583 A3.75,3.75 0 0 1 2288,425.3583 L2295,445.3466 L2418.5,445.3466 A2.5,2.5 0 0 1 2421,447.8466 L2421,507.8483 A2.5,2.5 0 0 1 2418.5,510.3483 L1982.5,510.3483 A2.5,2.5 0 0 1 1980,507.8483 L1980,425.3583 A2.5,2.5 0 0 1 1982.5,422.8583 " fill="#33CCFF" style="stroke:#000000;stroke-width:1.5;"/><line style="stroke:#000000;stroke-width:1.5;" x1="1980" x2="2295" y1="445.3466" y2="445.3466"/><text fill="#000000" font-family="sans-serif" font-size="14" font-weight="bold" lengthAdjust="spacing" textLength="302" x="1984" y="438.3934">MII_Modul_Symptom_klinischer_Ph&#228;notyp</text></g><g id="elem_MII_Patient"><rect fill="#F1F1F1" height="61.4648" style="stroke:#181818;stroke-width:0.5;" width="141" x="462.5" y="121.4883"/><text fill="#000000" font-family="sans-serif" font-size="14" lengthAdjust="spacing" textLength="74" x="496" y="137.0234">MII_Patient</text><line style="stroke:#181818;stroke-width:0.5;" x1="463.5" x2="602.5" y1="141.9766" y2="141.9766"/><text fill="#000000" font-family="sans-serif" font-size="14" lengthAdjust="spacing" textLength="87" x="468.5" y="159.5117">o Geschlecht</text><text fill="#000000" font-family="sans-serif" font-size="14" lengthAdjust="spacing" textLength="129" x="468.5" y="176">o Geburtstag/Alter</text></g><g id="elem_Vitalstatus"><rect fill="#F1F1F1" height="61.4648" style="stroke:#181818;stroke-width:0.5;" width="85" x="638.5" y="121.4883"/><text fill="#000000" font-family="sans-serif" font-size="14" lengthAdjust="spacing" textLength="71" x="645.5" y="137.0234">Vitalstatus</text><line style="stroke:#181818;stroke-width:0.5;" x1="639.5" x2="722.5" y1="141.9766" y2="141.9766"/><text fill="#000000" font-family="sans-serif" font-size="14" lengthAdjust="spacing" textLength="58" x="644.5" y="159.5117">o Datum</text><text fill="#000000" font-family="sans-serif" font-size="14" lengthAdjust="spacing" textLength="55" x="644.5" y="176">o Status</text></g><g id="elem_MII_Diagnose"><rect fill="#F1F1F1" height="94.4414" style="stroke:#181818;stroke-width:0.5;" width="221" x="45.5" y="257.9583"/><text fill="#000000" font-family="sans-serif" font-size="14" lengthAdjust="spacing" textLength="91" x="110.5" y="273.4934">MII_Diagnose</text><line style="stroke:#181818;stroke-width:0.5;" x1="46.5" x2="265.5" y1="278.4466" y2="278.4466"/><text fill="#000000" font-family="sans-serif" font-size="14" lengthAdjust="spacing" textLength="118" x="51.5" y="295.9817">o code: ICD10GM</text><text fill="#000000" font-family="sans-serif" font-size="14" lengthAdjust="spacing" textLength="142" x="51.5" y="312.47">o code: ORPHAcodes</text><text fill="#000000" font-family="sans-serif" font-size="14" lengthAdjust="spacing" textLength="139" x="51.5" y="328.9583">o Alter bei Diagnose</text><text fill="#000000" font-family="sans-serif" font-size="14" lengthAdjust="spacing" textLength="209" x="51.5" y="345.4466">o Status (Verdacht, gesichert..)</text></g><g id="elem_MII_Diagnose_SE"><rect fill="#F1F1F1" height="61.4648" style="stroke:#181818;stroke-width:0.5;" width="154" x="322" y="445.3683"/><text fill="#000000" font-family="sans-serif" font-size="14" lengthAdjust="spacing" textLength="114" x="342" y="460.9034">MII_Diagnose_SE</text><line style="stroke:#181818;stroke-width:0.5;" x1="323" x2="475" y1="465.8566" y2="465.8566"/><text fill="#000000" font-family="sans-serif" font-size="14" lengthAdjust="spacing" textLength="118" x="328" y="483.3917">o code: ICD10GM</text><text fill="#000000" font-family="sans-serif" font-size="14" lengthAdjust="spacing" textLength="142" x="328" y="499.88">o code: ORPHAcodes</text></g><g id="elem_MII_MolGen_Variante_SE"><rect fill="#F1F1F1" height="44.9766" style="stroke:#181818;stroke-width:0.5;" width="180" x="942" y="453.6183"/><text fill="#000000" font-family="sans-serif" font-size="14" lengthAdjust="spacing" textLength="166" x="949" y="469.1534">MII_MolGen_Variante_SE</text><line style="stroke:#181818;stroke-width:0.5;" x1="943" x2="1121" y1="474.1066" y2="474.1066"/><text fill="#000000" font-family="sans-serif" font-size="14" lengthAdjust="spacing" textLength="91" x="948" y="491.6417">o code: HGVS</text></g><g id="elem_MII_Familienanamnese_SE"><rect fill="#F1F1F1" height="127.418" style="stroke:#181818;stroke-width:0.5;" width="213" x="694.5" y="412.3983"/><text fill="#000000" font-family="sans-serif" font-size="14" lengthAdjust="spacing" textLength="178" x="712" y="427.9334">MII_Familienanamnese_SE</text><line style="stroke:#181818;stroke-width:0.5;" x1="695.5" x2="906.5" y1="432.8866" y2="432.8866"/><text fill="#000000" font-family="sans-serif" font-size="14" lengthAdjust="spacing" textLength="201" x="700.5" y="450.4217">o Verwandtschaftsverhaeltnis</text><text fill="#000000" font-family="sans-serif" font-size="14" lengthAdjust="spacing" textLength="87" x="700.5" y="466.91">o Geschlecht</text><text fill="#000000" font-family="sans-serif" font-size="14" lengthAdjust="spacing" textLength="146" x="700.5" y="483.3983">o gleiche Erkrankung</text><text fill="#000000" font-family="sans-serif" font-size="14" lengthAdjust="spacing" textLength="145" x="700.5" y="499.8866">o andere Erkrankung</text><text fill="#000000" font-family="sans-serif" font-size="14" lengthAdjust="spacing" textLength="82" x="700.5" y="516.3748">o Penetranz</text><text fill="#000000" font-family="sans-serif" font-size="14" lengthAdjust="spacing" textLength="87" x="700.5" y="532.8631">o verstorben</text></g><g id="elem_MII_Symptom_Observation_SE"><rect fill="#F1F1F1" height="94.4414" style="stroke:#181818;stroke-width:0.5;" width="245" x="1394.5" y="428.8883"/><text fill="#000000" font-family="sans-serif" font-size="14" lengthAdjust="spacing" textLength="204" x="1415" y="444.4234">MII_Symptom_Observation_SE</text><line style="stroke:#181818;stroke-width:0.5;" x1="1395.5" x2="1638.5" y1="449.3766" y2="449.3766"/><text fill="#000000" font-family="sans-serif" font-size="14" lengthAdjust="spacing" textLength="233" x="1400.5" y="466.9117">o code: HPO | SNOMED CT | LOINC</text><text fill="#000000" font-family="sans-serif" font-size="14" lengthAdjust="spacing" textLength="219" x="1400.5" y="483.4">o value: Present/Absent (LOINC)</text><text fill="#000000" font-family="sans-serif" font-size="14" lengthAdjust="spacing" textLength="173" x="1400.5" y="499.8883">o date: effectiveDateTime</text><text fill="#000000" font-family="sans-serif" font-size="14" lengthAdjust="spacing" textLength="203" x="1400.5" y="516.3766">o change: &#196;nderung (Verlauf)</text></g><g id="elem_MII_Symptom_Condition_SE"><rect fill="#F1F1F1" height="110.9297" style="stroke:#181818;stroke-width:0.5;" width="283" x="944.5" y="608.0583"/><text fill="#000000" font-family="sans-serif" font-size="14" lengthAdjust="spacing" textLength="189" x="991.5" y="623.5934">MII_Symptom_Condition_SE</text><line style="stroke:#181818;stroke-width:0.5;" x1="945.5" x2="1226.5" y1="628.5466" y2="628.5466"/><text fill="#000000" font-family="sans-serif" font-size="14" lengthAdjust="spacing" textLength="271" x="950.5" y="646.0817">o code: HPO | SNOMED CT | ICD-10-GM</text><text fill="#000000" font-family="sans-serif" font-size="14" lengthAdjust="spacing" textLength="220" x="950.5" y="662.57">o onset: dateTime | Age | Period</text><text fill="#000000" font-family="sans-serif" font-size="14" lengthAdjust="spacing" textLength="255" x="950.5" y="679.0583">o abatement: dateTime | Age | Period</text><text fill="#000000" font-family="sans-serif" font-size="14" lengthAdjust="spacing" textLength="162" x="950.5" y="695.5466">o severity: Schweregrad</text><text fill="#000000" font-family="sans-serif" font-size="14" lengthAdjust="spacing" textLength="255" x="950.5" y="712.0348">o bodySite: Anatomische Lokalisation</text></g><g id="elem_Untersuchung"><rect fill="#F1F1F1" height="94.4414" style="stroke:#181818;stroke-width:0.5;" width="216" x="1037" y="257.9583"/><text fill="#000000" font-family="sans-serif" font-size="14" lengthAdjust="spacing" textLength="97" x="1096.5" y="273.4934">Untersuchung</text><line style="stroke:#181818;stroke-width:0.5;" x1="1038" x2="1252" y1="278.4466" y2="278.4466"/><text fill="#000000" font-family="sans-serif" font-size="14" lengthAdjust="spacing" textLength="204" x="1043" y="295.9817">o Koerperliche_Untersuchung</text><text fill="#000000" font-family="sans-serif" font-size="14" lengthAdjust="spacing" textLength="86" x="1043" y="312.47">o Diagnostik</text><text fill="#000000" font-family="sans-serif" font-size="14" lengthAdjust="spacing" textLength="115" x="1043" y="328.9583">o Therapiestatus</text><text fill="#000000" font-family="sans-serif" font-size="14" lengthAdjust="spacing" textLength="58" x="1043" y="345.4466">o Datum</text></g><g id="elem_Therapiestatus"><rect fill="#F1F1F1" height="61.4648" style="stroke:#181818;stroke-width:0.5;" width="202" x="1157" y="445.3683"/><text fill="#000000" font-family="sans-serif" font-size="14" lengthAdjust="spacing" textLength="102" x="1207" y="460.9034">Therapiestatus</text><line style="stroke:#181818;stroke-width:0.5;" x1="1158" x2="1358" y1="465.8566" y2="465.8566"/><text fill="#000000" font-family="sans-serif" font-size="14" lengthAdjust="spacing" textLength="174" x="1163" y="483.3917">o Therapieempfehlungen</text><text fill="#000000" font-family="sans-serif" font-size="14" lengthAdjust="spacing" textLength="190" x="1163" y="499.88">o Durchgef&#252;hrte_Therapien</text></g><g id="elem_Therapieempfehlungen"><rect fill="#F1F1F1" height="77.9531" style="stroke:#181818;stroke-width:0.5;" width="175" x="508.5" y="624.5483"/><text fill="#000000" font-family="sans-serif" font-size="14" lengthAdjust="spacing" textLength="161" x="515.5" y="640.0834">Therapieempfehlungen</text><line style="stroke:#181818;stroke-width:0.5;" x1="509.5" x2="682.5" y1="645.0366" y2="645.0366"/><text fill="#000000" font-family="sans-serif" font-size="14" lengthAdjust="spacing" textLength="93" x="514.5" y="662.5717">o Therapieart</text><text fill="#000000" font-family="sans-serif" font-size="14" lengthAdjust="spacing" textLength="73" x="514.5" y="679.06">o off-label</text><text fill="#000000" font-family="sans-serif" font-size="14" lengthAdjust="spacing" textLength="56" x="514.5" y="695.5483">o Studie</text></g><g id="elem_Durchgef&#252;hrte_Therapien"><rect fill="#F1F1F1" height="127.418" style="stroke:#181818;stroke-width:0.5;" width="191" x="718.5" y="599.8183"/><text fill="#000000" font-family="sans-serif" font-size="14" lengthAdjust="spacing" textLength="177" x="725.5" y="615.3534">Durchgef&#252;hrte_Therapien</text><line style="stroke:#181818;stroke-width:0.5;" x1="719.5" x2="908.5" y1="620.3066" y2="620.3066"/><text fill="#000000" font-family="sans-serif" font-size="14" lengthAdjust="spacing" textLength="93" x="724.5" y="637.8417">o Therapieart</text><text fill="#000000" font-family="sans-serif" font-size="14" lengthAdjust="spacing" textLength="89" x="724.5" y="654.33">o Startdatum</text><text fill="#000000" font-family="sans-serif" font-size="14" lengthAdjust="spacing" textLength="83" x="724.5" y="670.8183">o Enddatum</text><text fill="#000000" font-family="sans-serif" font-size="14" lengthAdjust="spacing" textLength="145" x="724.5" y="687.3066">o Grund_Beendigung</text><text fill="#000000" font-family="sans-serif" font-size="14" lengthAdjust="spacing" textLength="73" x="724.5" y="703.7948">o off-label</text><text fill="#000000" font-family="sans-serif" font-size="14" lengthAdjust="spacing" textLength="56" x="724.5" y="720.2831">o Studie</text></g><g id="elem_Koerperliche_Untersuchung_SE"><rect fill="#F1F1F1" height="44.9766" style="stroke:#181818;stroke-width:0.5;" width="228" x="1712" y="453.6183"/><text fill="#000000" font-family="sans-serif" font-size="14" lengthAdjust="spacing" textLength="214" x="1719" y="469.1534">Koerperliche_Untersuchung_SE</text><line style="stroke:#181818;stroke-width:0.5;" x1="1713" x2="1939" y1="474.1066" y2="474.1066"/><text fill="#000000" font-family="sans-serif" font-size="14" lengthAdjust="spacing" textLength="97" x="1718" y="491.6417">o K&#246;rperma&#223;e</text></g><g id="elem_BMI_SE"><rect fill="#F1F1F1" height="61.4648" style="stroke:#181818;stroke-width:0.5;" width="123" x="1817.5" y="632.7883"/><text fill="#000000" font-family="sans-serif" font-size="14" lengthAdjust="spacing" textLength="47" x="1855.5" y="648.3234">BMI_SE</text><line style="stroke:#181818;stroke-width:0.5;" x1="1818.5" x2="1939.5" y1="653.2766" y2="653.2766"/><text fill="#000000" font-family="sans-serif" font-size="14" lengthAdjust="spacing" textLength="111" x="1823.5" y="670.8117">o Wert (decimal)</text><text fill="#000000" font-family="sans-serif" font-size="14" lengthAdjust="spacing" textLength="58" x="1823.5" y="687.3">o Datum</text></g><g id="elem_Kopfumfang_SE"><rect fill="#F1F1F1" height="61.4648" style="stroke:#181818;stroke-width:0.5;" width="150" x="1263" y="632.7883"/><text fill="#000000" font-family="sans-serif" font-size="14" lengthAdjust="spacing" textLength="108" x="1284" y="648.3234">Kopfumfang_SE</text><line style="stroke:#181818;stroke-width:0.5;" x1="1264" x2="1412" y1="653.2766" y2="653.2766"/><text fill="#000000" font-family="sans-serif" font-size="14" lengthAdjust="spacing" textLength="138" x="1269" y="670.8117">o Wert_cm (decimal)</text><text fill="#000000" font-family="sans-serif" font-size="14" lengthAdjust="spacing" textLength="58" x="1269" y="687.3">o Datum</text></g><g id="elem_Bauchumfang_SE"><rect fill="#F1F1F1" height="61.4648" style="stroke:#181818;stroke-width:0.5;" width="150" x="1448" y="632.7883"/><text fill="#000000" font-family="sans-serif" font-size="14" lengthAdjust="spacing" textLength="117" x="1464.5" y="648.3234">Bauchumfang_SE</text><line style="stroke:#181818;stroke-width:0.5;" x1="1449" x2="1597" y1="653.2766" y2="653.2766"/><text fill="#000000" font-family="sans-serif" font-size="14" lengthAdjust="spacing" textLength="138" x="1454" y="670.8117">o Wert_cm (decimal)</text><text fill="#000000" font-family="sans-serif" font-size="14" lengthAdjust="spacing" textLength="58" x="1454" y="687.3">o Datum</text></g><g id="elem_Hueftumfang_SE"><rect fill="#F1F1F1" height="61.4648" style="stroke:#181818;stroke-width:0.5;" width="150" x="1633" y="632.7883"/><text fill="#000000" font-family="sans-serif" font-size="14" lengthAdjust="spacing" textLength="113" x="1651.5" y="648.3234">Hueftumfang_SE</text><line style="stroke:#181818;stroke-width:0.5;" x1="1634" x2="1782" y1="653.2766" y2="653.2766"/><text fill="#000000" font-family="sans-serif" font-size="14" lengthAdjust="spacing" textLength="138" x="1639" y="670.8117">o Wert_cm (decimal)</text><text fill="#000000" font-family="sans-serif" font-size="14" lengthAdjust="spacing" textLength="58" x="1639" y="687.3">o Datum</text></g><g id="elem_Blutgruppe_SE"><rect fill="#F1F1F1" height="44.9766" style="stroke:#181818;stroke-width:0.5;" width="149" x="510.5" y="453.6183"/><text fill="#000000" font-family="sans-serif" font-size="14" lengthAdjust="spacing" textLength="99" x="535.5" y="469.1534">Blutgruppe_SE</text><line style="stroke:#181818;stroke-width:0.5;" x1="511.5" x2="658.5" y1="474.1066" y2="474.1066"/><text fill="#000000" font-family="sans-serif" font-size="14" lengthAdjust="spacing" textLength="137" x="516.5" y="491.6417">o AB0_Rhesusfaktor</text></g><g id="elem_Koerpergewicht"><rect fill="#F1F1F1" height="36.4883" style="stroke:#181818;stroke-width:0.5;" width="122" x="2148" y="286.9283"/><text fill="#000000" font-family="sans-serif" font-size="14" lengthAdjust="spacing" textLength="108" x="2155" y="302.4634">Koerpergewicht</text><line style="stroke:#181818;stroke-width:0.5;" x1="2149" x2="2269" y1="307.4166" y2="307.4166"/></g><g id="elem_Koerpergroe&#223;e"><rect fill="#F1F1F1" height="36.4883" style="stroke:#181818;stroke-width:0.5;" width="117" x="1996.5" y="286.9283"/><text fill="#000000" font-family="sans-serif" font-size="14" lengthAdjust="spacing" textLength="103" x="2003.5" y="302.4634">Koerpergroe&#223;e</text><line style="stroke:#181818;stroke-width:0.5;" x1="1997.5" x2="2112.5" y1="307.4166" y2="307.4166"/></g><g id="elem_Laborparameter"><rect fill="#F1F1F1" height="36.4883" style="stroke:#181818;stroke-width:0.5;" width="124" x="1083" y="133.9783"/><text fill="#000000" font-family="sans-serif" font-size="14" lengthAdjust="spacing" textLength="110" x="1090" y="149.5134">Laborparameter</text><line style="stroke:#181818;stroke-width:0.5;" x1="1084" x2="1206" y1="154.4666" y2="154.4666"/></g><g id="elem_MII_Studie"><rect fill="#F1F1F1" height="36.4883" style="stroke:#181818;stroke-width:0.5;" width="84" x="743" y="806.4783"/><text fill="#000000" font-family="sans-serif" font-size="14" lengthAdjust="spacing" textLength="70" x="750" y="822.0134">MII_Studie</text><line style="stroke:#181818;stroke-width:0.5;" x1="744" x2="826" y1="826.9666" y2="826.9666"/></g><g id="elem_MII_MolGen_Variante"><rect fill="#F1F1F1" height="44.9766" style="stroke:#181818;stroke-width:0.5;" width="157" x="475.5" y="802.2283"/><text fill="#000000" font-family="sans-serif" font-size="14" lengthAdjust="spacing" textLength="143" x="482.5" y="817.7634">MII_MolGen_Variante</text><line style="stroke:#181818;stroke-width:0.5;" x1="476.5" x2="631.5" y1="822.7166" y2="822.7166"/><text fill="#000000" font-family="sans-serif" font-size="14" lengthAdjust="spacing" textLength="91" x="481.5" y="840.2517">o code: HGVS</text></g><g id="elem_MII_MolGen_Familienanamnese"><rect fill="#F1F1F1" height="36.4883" style="stroke:#181818;stroke-width:0.5;" width="228" x="212" y="806.4783"/><text fill="#000000" font-family="sans-serif" font-size="14" lengthAdjust="spacing" textLength="214" x="219" y="822.0134">MII_MolGen_Familienanamnese</text><line style="stroke:#181818;stroke-width:0.5;" x1="213" x2="439" y1="826.9666" y2="826.9666"/></g><g id="elem_MII_Symptom_Observation"><rect fill="#F1F1F1" height="36.4883" style="stroke:#181818;stroke-width:0.5;" width="195" x="1995.5" y="457.8583"/><text fill="#000000" font-family="sans-serif" font-size="14" lengthAdjust="spacing" textLength="181" x="2002.5" y="473.3934">MII_Symptom_Observation</text><line style="stroke:#181818;stroke-width:0.5;" x1="1996.5" x2="2189.5" y1="478.3466" y2="478.3466"/></g><g id="elem_MII_Symptom_Condition"><rect fill="#F1F1F1" height="36.4883" style="stroke:#181818;stroke-width:0.5;" width="180" x="2225" y="457.8583"/><text fill="#000000" font-family="sans-serif" font-size="14" lengthAdjust="spacing" textLength="166" x="2232" y="473.3934">MII_Symptom_Condition</text><line style="stroke:#181818;stroke-width:0.5;" x1="2226" x2="2404" y1="478.3466" y2="478.3466"/></g><!--reverse link MII_Diagnose to MII_Diagnose_SE--><g id="link_MII_Diagnose_MII_Diagnose_SE"><path codeLine="127" d="M239.25,370.8183 C239.25,421.4283 239.25,476.2083 239.25,476.2083 C239.25,476.2083 281.08,476.2083 321.93,476.2083 " fill="none" id="MII_Diagnose-backto-MII_Diagnose_SE" style="stroke:#181818;stroke-width:1.0;"/><polygon fill="none" points="239.25,352.8183,233.25,370.8183,245.25,370.8183,239.25,352.8183" style="stroke:#181818;stroke-width:1.0;"/></g><!--reverse link MII_MolGen_Variante to MII_MolGen_Variante_SE--><g id="link_MII_MolGen_Variante_MII_MolGen_Variante_SE"><path codeLine="128" d="M492.25,783.7383 C492.25,718.5683 492.25,555.2083 492.25,555.2083 C492.25,555.2083 1033.25,555.2083 1033.25,555.2083 C1033.25,555.2083 1033.25,522.3483 1033.25,498.9883 " fill="none" id="MII_MolGen_Variante-backto-MII_MolGen_Variante_SE" style="stroke:#181818;stroke-width:1.0;"/><polygon fill="none" points="492.25,801.7383,498.25,783.7383,486.25,783.7383,492.25,801.7383" style="stroke:#181818;stroke-width:1.0;"/></g><!--link MII_Familienanamnese_SE to MII_MolGen_Familienanamnese--><g id="link_MII_Familienanamnese_SE_MII_MolGen_Familienanamnese"><path codeLine="129" d="M694.2,523.2083 C569.77,523.2083 381,523.2083 381,523.2083 C381,523.2083 381,722.8483 381,788.3083 " fill="none" id="MII_Familienanamnese_SE-to-MII_MolGen_Familienanamnese" style="stroke:#181818;stroke-width:1.0;"/><polygon fill="none" points="381,806.3083,387,788.3083,375,788.3083,381,806.3083" style="stroke:#181818;stroke-width:1.0;"/></g><!--reverse link MII_Symptom_Observation to MII_Symptom_Observation_SE--><g id="link_MII_Symptom_Observation_MII_Symptom_Observation_SE"><path codeLine="130" d="M2055,439.4283 C2055,439.4283 1798.54,441.2083 1639.75,441.2083 " fill="none" id="MII_Symptom_Observation-backto-MII_Symptom_Observation_SE" style="stroke:#181818;stroke-width:1.0;"/><polygon fill="none" points="2055,457.4283,2061,439.4283,2049,439.4283,2055,457.4283" style="stroke:#181818;stroke-width:1.0;"/></g><!--link MII_Symptom_Condition_SE to MII_Symptom_Condition--><g id="link_MII_Symptom_Condition_SE_MII_Symptom_Condition"><path codeLine="131" d="M1227.88,624.2083 C1551.22,624.2083 2315,624.2083 2315,624.2083 C2315,624.2083 2315,552.2683 2315,512.5583 " fill="none" id="MII_Symptom_Condition_SE-to-MII_Symptom_Condition" style="stroke:#181818;stroke-width:1.0;"/><polygon fill="none" points="2315,494.5583,2309,512.5583,2321,512.5583,2315,494.5583" style="stroke:#181818;stroke-width:1.0;"/></g><!--link Laborparameter to Untersuchung--><g id="link_Laborparameter_Untersuchung"><path codeLine="133" d="M1145,170.6683 C1145,192.0483 1145,216.0883 1145,245.4883 " fill="none" id="Laborparameter-to-Untersuchung" style="stroke:#181818;stroke-width:1.0;"/><polygon fill="none" points="1145,257.4883,1149,251.4883,1145,245.4883,1141,251.4883,1145,257.4883" style="stroke:#181818;stroke-width:1.0;"/><text fill="#000000" font-family="sans-serif" font-size="13" lengthAdjust="spacing" textLength="24" x="1096.4" y="190.994">0..1</text><text fill="#000000" font-family="sans-serif" font-size="13" lengthAdjust="spacing" textLength="22" x="1121.4531" y="247.3173">0..*</text></g><!--reverse link Untersuchung to MII_Diagnose_SE--><g id="link_Untersuchung_MII_Diagnose_SE"><path codeLine="134" d="M1024.8,289.2083 C833.9,289.2083 469.25,289.2083 469.25,289.2083 C469.25,289.2083 469.25,392.1583 469.25,445.2383 " fill="none" id="Untersuchung-backto-MII_Diagnose_SE" style="stroke:#181818;stroke-width:1.0;"/><polygon fill="none" points="1036.8,289.2083,1030.8,285.2083,1024.8,289.2083,1030.8,293.2083,1036.8,289.2083" style="stroke:#181818;stroke-width:1.0;"/><text fill="#000000" font-family="sans-serif" font-size="13" lengthAdjust="spacing" textLength="22" x="1007.1637" y="285.283">0..*</text><text fill="#000000" font-family="sans-serif" font-size="13" lengthAdjust="spacing" textLength="22" x="460.2109" y="434.4488">0..*</text></g><!--reverse link Untersuchung to MII_MolGen_Variante_SE--><g id="link_Untersuchung_MII_MolGen_Variante_SE"><path codeLine="135" d="M1093.67,364.7883 C1093.67,397.5883 1093.67,427.6983 1093.67,453.2583 " fill="none" id="Untersuchung-backto-MII_MolGen_Variante_SE" style="stroke:#181818;stroke-width:1.0;"/><polygon fill="none" points="1093.67,352.7883,1089.67,358.7883,1093.67,364.7883,1097.67,358.7883,1093.67,352.7883" style="stroke:#181818;stroke-width:1.0;"/><text fill="#000000" font-family="sans-serif" font-size="13" lengthAdjust="spacing" textLength="22" x="1036.6094" y="373.0055">0..*</text><text fill="#000000" font-family="sans-serif" font-size="13" lengthAdjust="spacing" textLength="22" x="1085.2876" y="442.7123">0..*</text></g><!--reverse link Untersuchung to MII_Symptom_Observation_SE--><g id="link_Untersuchung_MII_Symptom_Observation_SE"><path codeLine="136" d="M1221,364.8383 C1221,402.6583 1221,437.2083 1221,437.2083 C1221,437.2083 1312.72,437.2083 1394.04,437.2083 " fill="none" id="Untersuchung-backto-MII_Symptom_Observation_SE" style="stroke:#181818;stroke-width:1.0;"/><polygon fill="none" points="1221,352.8383,1217,358.8383,1221,364.8383,1225,358.8383,1221,352.8383" style="stroke:#181818;stroke-width:1.0;"/><text fill="#000000" font-family="sans-serif" font-size="13" lengthAdjust="spacing" textLength="22" x="1235.5625" y="373.0836">0..*</text><text fill="#000000" font-family="sans-serif" font-size="13" lengthAdjust="spacing" textLength="22" x="1364.2954" y="432.1031">0..*</text></g><!--reverse link Untersuchung to MII_Familienanamnese_SE--><g id="link_Untersuchung_MII_Familienanamnese_SE"><path codeLine="137" d="M1065.33,364.6283 C1065.33,396.3183 1065.33,420.2083 1065.33,420.2083 C1065.33,420.2083 981.11,420.2083 907.75,420.2083 " fill="none" id="Untersuchung-backto-MII_Familienanamnese_SE" style="stroke:#181818;stroke-width:1.0;"/><polygon fill="none" points="1065.33,352.6283,1061.33,358.6283,1065.33,364.6283,1069.33,358.6283,1065.33,352.6283" style="stroke:#181818;stroke-width:1.0;"/><text fill="#000000" font-family="sans-serif" font-size="13" lengthAdjust="spacing" textLength="22" x="1005.9286" y="366.7398">0..*</text><text fill="#000000" font-family="sans-serif" font-size="13" lengthAdjust="spacing" textLength="22" x="910.2859" y="401.5704">0..*</text></g><!--reverse link Untersuchung to Koerperliche_Untersuchung_SE--><g id="link_Untersuchung_Koerperliche_Untersuchung_SE"><path codeLine="138" d="M1265.34,333.2083 C1444.02,333.2083 1769,333.2083 1769,333.2083 C1769,333.2083 1769,412.7483 1769,453.1483 " fill="none" id="Untersuchung-backto-Koerperliche_Untersuchung_SE" style="stroke:#181818;stroke-width:1.0;"/><polygon fill="none" points="1253.34,333.2083,1259.34,337.2083,1265.34,333.2083,1259.34,329.2083,1253.34,333.2083" style="stroke:#181818;stroke-width:1.0;"/><text fill="#000000" font-family="sans-serif" font-size="13" lengthAdjust="spacing" textLength="22" x="1261.1504" y="337.1113">0..*</text><text fill="#000000" font-family="sans-serif" font-size="13" lengthAdjust="spacing" textLength="22" x="1729.575" y="442.9515">0..*</text></g><!--link MII_Symptom_Observation_SE to MII_Symptom_Condition_SE--><g id="link_MII_Symptom_Observation_SE_MII_Symptom_Condition_SE"><path codeLine="139" d="M1400.67,523.5383 C1400.67,564.1783 1400.67,616.2083 1400.67,616.2083 C1400.67,616.2083 1311.21,616.2083 1227.68,616.2083 " fill="none" id="MII_Symptom_Observation_SE-MII_Symptom_Condition_SE" style="stroke:#181818;stroke-width:1.0;"/><text fill="#000000" font-family="sans-serif" font-size="13" lengthAdjust="spacing" textLength="22" x="1367.1349" y="526.3943">0..*</text><text fill="#000000" font-family="sans-serif" font-size="13" lengthAdjust="spacing" textLength="22" x="1235.8998" y="601.1366">0..*</text></g><!--link Koerpergewicht to Koerperliche_Untersuchung_SE--><g id="link_Koerpergewicht_Koerperliche_Untersuchung_SE"><path codeLine="140" d="M2169.25,323.7483 C2169.25,333.3983 2169.25,343.2083 2169.25,343.2083 C2169.25,343.2083 1883,343.2083 1883,343.2083 C1883,343.2083 1883,403.2583 1883,441.2583 " fill="none" id="Koerpergewicht-to-Koerperliche_Untersuchung_SE" style="stroke:#181818;stroke-width:1.0;"/><polygon fill="none" points="1883,453.2583,1887,447.2583,1883,441.2583,1879,447.2583,1883,453.2583" style="stroke:#181818;stroke-width:1.0;"/><text fill="#000000" font-family="sans-serif" font-size="13" lengthAdjust="spacing" textLength="22" x="2121.4503" y="328.89">0..*</text><text fill="#000000" font-family="sans-serif" font-size="13" lengthAdjust="spacing" textLength="22" x="1873.3625" y="442.7123">0..*</text></g><!--link Koerpergroe?e to Koerperliche_Untersuchung_SE--><g id="link_Koerpergroe&#223;e_Koerperliche_Untersuchung_SE"><path codeLine="141" d="M1996.03,305.2083 C1928.18,305.2083 1826,305.2083 1826,305.2083 C1826,305.2083 1826,394.9283 1826,441.4083 " fill="none" id="Koerpergroe&#223;e-to-Koerperliche_Untersuchung_SE" style="stroke:#181818;stroke-width:1.0;"/><polygon fill="none" points="1826,453.4083,1830,447.4083,1826,441.4083,1822,447.4083,1826,453.4083" style="stroke:#181818;stroke-width:1.0;"/><text fill="#000000" font-family="sans-serif" font-size="13" lengthAdjust="spacing" textLength="22" x="1966.377" y="301.9772">0..*</text><text fill="#000000" font-family="sans-serif" font-size="13" lengthAdjust="spacing" textLength="22" x="1801.0438" y="442.9026">0..*</text></g><!--reverse link Koerperliche_Untersuchung_SE to BMI_SE--><g id="link_Koerperliche_Untersuchung_SE_BMI_SE"><path codeLine="142" d="M1878.75,511.0883 C1878.75,544.6083 1878.75,595.0183 1878.75,632.5583 " fill="none" id="Koerperliche_Untersuchung_SE-backto-BMI_SE" style="stroke:#181818;stroke-width:1.0;"/><polygon fill="none" points="1878.75,499.0883,1874.75,505.0883,1878.75,511.0883,1882.75,505.0883,1878.75,499.0883" style="stroke:#181818;stroke-width:1.0;"/><text fill="#000000" font-family="sans-serif" font-size="13" lengthAdjust="spacing" textLength="22" x="1916.2438" y="518.9394">0..*</text><text fill="#000000" font-family="sans-serif" font-size="13" lengthAdjust="spacing" textLength="22" x="1854.4297" y="622.2258">0..*</text></g><!--reverse link Koerperliche_Untersuchung_SE to Kopfumfang_SE--><g id="link_Koerperliche_Untersuchung_SE_Kopfumfang_SE"><path codeLine="143" d="M1729.75,510.8383 C1729.75,526.0183 1729.75,531.2083 1729.75,531.2083 C1729.75,531.2083 1406.83,531.2083 1406.83,531.2083 C1406.83,531.2083 1406.83,593.3883 1406.83,632.4983 " fill="none" id="Koerperliche_Untersuchung_SE-backto-Kopfumfang_SE" style="stroke:#181818;stroke-width:1.0;"/><polygon fill="none" points="1729.75,498.8383,1725.75,504.8383,1729.75,510.8383,1733.75,504.8383,1729.75,498.8383" style="stroke:#181818;stroke-width:1.0;"/><text fill="#000000" font-family="sans-serif" font-size="13" lengthAdjust="spacing" textLength="22" x="1681.6078" y="500.1572">0..*</text><text fill="#000000" font-family="sans-serif" font-size="13" lengthAdjust="spacing" textLength="22" x="1396.7574" y="622.1534">0..*</text></g><!--reverse link Koerperliche_Untersuchung_SE to Bauchumfang_SE--><g id="link_Koerperliche_Untersuchung_SE_Bauchumfang_SE"><path codeLine="144" d="M1747.5,510.9783 C1747.5,542.9683 1747.5,585.2083 1747.5,585.2083 C1747.5,585.2083 1523,585.2083 1523,585.2083 C1523,585.2083 1523,610.6783 1523,632.5683 " fill="none" id="Koerperliche_Untersuchung_SE-backto-Bauchumfang_SE" style="stroke:#181818;stroke-width:1.0;"/><polygon fill="none" points="1747.5,498.9783,1743.5,504.9783,1747.5,510.9783,1751.5,504.9783,1747.5,498.9783" style="stroke:#181818;stroke-width:1.0;"/><text fill="#000000" font-family="sans-serif" font-size="13" lengthAdjust="spacing" textLength="22" x="1703.6844" y="518.9876">0..*</text><text fill="#000000" font-family="sans-serif" font-size="13" lengthAdjust="spacing" textLength="22" x="1498.7313" y="622.2379">0..*</text></g><!--reverse link Koerperliche_Untersuchung_SE to Hueftumfang_SE--><g id="link_Koerperliche_Untersuchung_SE_Hueftumfang_SE"><path codeLine="145" d="M1765.25,511.0883 C1765.25,544.6083 1765.25,595.0183 1765.25,632.5583 " fill="none" id="Koerperliche_Untersuchung_SE-backto-Hueftumfang_SE" style="stroke:#181818;stroke-width:1.0;"/><polygon fill="none" points="1765.25,499.0883,1761.25,505.0883,1765.25,511.0883,1769.25,505.0883,1765.25,499.0883" style="stroke:#181818;stroke-width:1.0;"/><text fill="#000000" font-family="sans-serif" font-size="13" lengthAdjust="spacing" textLength="22" x="1725.7609" y="519.1244">0..*</text><text fill="#000000" font-family="sans-serif" font-size="13" lengthAdjust="spacing" textLength="22" x="1752.7891" y="622.2258">0..*</text></g><!--reverse link Untersuchung to Blutgruppe_SE--><g id="link_Untersuchung_Blutgruppe_SE"><path codeLine="146" d="M1024.76,321.2083 C878.82,321.2083 649,321.2083 649,321.2083 C649,321.2083 649,410.1583 649,453.2483 " fill="none" id="Untersuchung-backto-Blutgruppe_SE" style="stroke:#181818;stroke-width:1.0;"/><polygon fill="none" points="1036.76,321.2083,1030.76,317.2083,1024.76,321.2083,1030.76,325.2083,1036.76,321.2083" style="stroke:#181818;stroke-width:1.0;"/><text fill="#000000" font-family="sans-serif" font-size="13" lengthAdjust="spacing" textLength="22" x="1007.1212" y="319.333">0..*</text><text fill="#000000" font-family="sans-serif" font-size="13" lengthAdjust="spacing" textLength="24" x="638.975" y="442.6996">0..1</text></g><!--reverse link Untersuchung to MII_Symptom_Condition_SE--><g id="link_Untersuchung_MII_Symptom_Condition_SE"><path codeLine="147" d="M1139.5,364.7583 C1139.5,430.7283 1139.5,537.7383 1139.5,607.7783 " fill="none" id="Untersuchung-backto-MII_Symptom_Condition_SE" style="stroke:#181818;stroke-width:1.0;"/><polygon fill="none" points="1139.5,352.7583,1135.5,358.7583,1139.5,364.7583,1143.5,358.7583,1139.5,352.7583" style="stroke:#181818;stroke-width:1.0;"/><text fill="#000000" font-family="sans-serif" font-size="13" lengthAdjust="spacing" textLength="22" x="1108.2188" y="372.9586">0..*</text><text fill="#000000" font-family="sans-serif" font-size="13" lengthAdjust="spacing" textLength="22" x="1122.9453" y="597.2633">0..*</text></g><!--reverse link Untersuchung to Therapiestatus--><g id="link_Untersuchung_Therapiestatus"><path codeLine="148" d="M1189,364.7883 C1189,394.2283 1189,419.1683 1189,444.9083 " fill="none" id="Untersuchung-backto-Therapiestatus" style="stroke:#181818;stroke-width:1.0;"/><polygon fill="none" points="1189,352.7883,1185,358.7883,1189,364.7883,1193,358.7883,1189,352.7883" style="stroke:#181818;stroke-width:1.0;"/><text fill="#000000" font-family="sans-serif" font-size="13" lengthAdjust="spacing" textLength="22" x="1185.5625" y="373.0055">0..*</text><text fill="#000000" font-family="sans-serif" font-size="13" lengthAdjust="spacing" textLength="22" x="1150.5" y="434.5284">0..*</text></g><!--reverse link Therapiestatus to Therapieempfehlungen--><g id="link_Therapiestatus_Therapieempfehlungen"><path codeLine="149" d="M1180.5,519.1783 C1180.5,546.5883 1180.5,570.2083 1180.5,570.2083 C1180.5,570.2083 671.5,570.2083 671.5,570.2083 C671.5,570.2083 671.5,598.7183 671.5,624.2183 " fill="none" id="Therapiestatus-backto-Therapieempfehlungen" style="stroke:#181818;stroke-width:1.0;"/><polygon fill="none" points="1180.5,507.1783,1176.5,513.1783,1180.5,519.1783,1184.5,513.1783,1180.5,507.1783" style="stroke:#181818;stroke-width:1.0;"/><text fill="#000000" font-family="sans-serif" font-size="13" lengthAdjust="spacing" textLength="22" x="1126.9719" y="513.2015">0..*</text><text fill="#000000" font-family="sans-serif" font-size="13" lengthAdjust="spacing" textLength="24" x="658.4141" y="613.7685">1..1</text></g><!--reverse link Therapiestatus to Durchgef?hrte_Therapien--><g id="link_Therapiestatus_Durchgef&#252;hrte_Therapien"><path codeLine="150" d="M1204,519.1183 C1204,557.0283 1204,604.2083 1204,604.2083 C1204,604.2083 1025.38,604.2083 909.9,604.2083 " fill="none" id="Therapiestatus-backto-Durchgef&#252;hrte_Therapien" style="stroke:#181818;stroke-width:1.0;"/><polygon fill="none" points="1204,507.1183,1200,513.1183,1204,519.1183,1208,513.1183,1204,507.1183" style="stroke:#181818;stroke-width:1.0;"/><text fill="#000000" font-family="sans-serif" font-size="13" lengthAdjust="spacing" textLength="22" x="1128.375" y="524.2167">0..*</text><text fill="#000000" font-family="sans-serif" font-size="13" lengthAdjust="spacing" textLength="24" x="901.8934" y="589.0689">1..1</text></g><!--reverse link Therapieempfehlungen to MII_Studie--><g id="link_Therapieempfehlungen_MII_Studie"><path codeLine="151" d="M658,714.6583 C658,762.5183 658,825.2083 658,825.2083 C658,825.2083 705.77,825.2083 742.71,825.2083 " fill="none" id="Therapieempfehlungen-backto-MII_Studie" style="stroke:#181818;stroke-width:1.0;"/><polygon fill="none" points="658,702.6583,654,708.6583,658,714.6583,662,708.6583,658,702.6583" style="stroke:#181818;stroke-width:1.0;"/><text fill="#000000" font-family="sans-serif" font-size="13" lengthAdjust="spacing" textLength="22" x="672.3375" y="722.8761">0..*</text><text fill="#000000" font-family="sans-serif" font-size="13" lengthAdjust="spacing" textLength="22" x="712.883" y="821.7692">0..*</text></g><!--reverse link Durchgef?hrte_Therapien to MII_Studie--><g id="link_Durchgef&#252;hrte_Therapien_MII_Studie"><path codeLine="152" d="M785,739.6983 C785,767.9683 785,787.0483 785,806.2283 " fill="none" id="Durchgef&#252;hrte_Therapien-backto-MII_Studie" style="stroke:#181818;stroke-width:1.0;"/><polygon fill="none" points="785,727.6983,781,733.6983,785,739.6983,789,733.6983,785,727.6983" style="stroke:#181818;stroke-width:1.0;"/><text fill="#000000" font-family="sans-serif" font-size="13" lengthAdjust="spacing" textLength="22" x="747.25" y="747.642">0..*</text><text fill="#000000" font-family="sans-serif" font-size="13" lengthAdjust="spacing" textLength="22" x="759.6313" y="795.8835">0..*</text></g><!--SRC=[hLVDKkCu4BxdALIP2snjc31pe-OIaX1Ia24rOTYZIxRRjZQsv99aA9RXjk-nbts6FSqjBxOjn_-naq3D0KZK_NtgFtKtQiruJ2MDo2tZe9zZ84BgGFHwckaGo4AuIVWef782cf35V4wcyWcO1fbmNqL6IbOGQk20ahMaV8q2uBsOEclg0-aZnffGL41b24ChqxQgsdtoqkiHacCCP0bI2Ku-VFuy7bzTlQ2K467_2OxUYgbcm3NP2b14Pe0sXk04kd9a9r8hJVsF8xnKzbB9QvNhWMaQeePE5AcGeS59L7nRfV8CtDiorFnBesHD6FMvKD3FhIOxPkSgbQiS3Ci5cOydvyFPed5wzsrvFJ8VLI587I4sC99pDSma9myWNOfn-9tue9WJWDHdPwU5x_ZJRdzxPZvSNKsddpvrkcAjfk_pvhN9k13X3BZrG2MZNAV4EypNiuTLE_gAHYp4cg2SHXoQTc5CdYXtjQbZJwj7a055TpbJ-mh83y74hrBPXGZ9GBPAbXX3ZOT_5ITucz92slWiMarVFKUn5f5rPokGZrZPWhSxlxmZFyZgwzrYEY7ZU_nyUpV_EYxleM62Qak9xdFzSMIRF-GaLJejj5nyZ1S4F0-lPuzWtkOzYyeomWXXvY_8vc_Z8dgMLbH84-zql_bZmLsM6t_OTYoImVbmK2aJmHNeYzH0On7gZ7pp6ti14suPUXiL8dJjiAe2Z3tJpnTavGHFc31Vqb9g2_TvnKmqHfoY1qoPPD-ADGsPIjDGlld2u-zOcb8bJc0YKtfv8q3662PJBrPLf-mfsmUZsReukiUtIMC6gcmmzUvJYtLTkt9tBe0ezY08jmsu84ka4_ZWRNu64XzLhikx-QiqkvTGMRuFuNc3aDeGLdfGuZBOvUwoWko_05kQr6wj6K-vMp-OOOswrYK0LfzV3VZnrdKchrx9Dvl_Z5f4D_-qa5mkvdNrFx3naXCN71RHyFHGTcz4x2MHHvkN6XRBYOudkgJ6zb_1T9s0ft-DJM6YVPd4SQCjZow7rhS0LA8ykiOMMHrIRIDgFlwE4saud4o6mvUM3FhmnF86tf180TkqTL3VKbl8Whm-kbDPkYQ1MICwERRrrK6Ijigy05zxxGmu0s6TX1GzmIcIDYI9jUrXYTlOoT2tVkTEr9YVRvYT6R8vGZD7MptDUluwP3opSXbi_kK2LyXk2ri6tS5XiWsM2LTjWVhoO-2A9pvexYAPNZCMkVgWOzEemvg1CF0api0jYqQ6Rd7F82Np0ptOC-aRyCBrxDhE8Mk2KXj7_U7PsMzz8bAK-NBUtwtTTiGW_xWRpoC0hG4z0jSPZoEmxNau0DpNwRkpQ9fMHj1kVoqhPFyysKbIQLRPljxDKBIvunWA_7PwlHrN6rllkBOshDwEhu-e0_d7rr0RH6-hqKQE3o0RovhvbwjnL62sVQn_dXhOiSiTXTspwhNHxh1KVCxdLEVUTX3RmwxzFm00]--></g></svg>