<?xml version="1.0" encoding="us-ascii" standalone="no"?><svg xmlns="http://www.w3.org/2000/svg" xmlns:xlink="http://www.w3.org/1999/xlink" contentStyleType="text/css" height="1047px" preserveAspectRatio="none" style="width:2940px;height:1047px;background:#FFFFFF;" version="1.1" viewBox="0 0 2940 1047" width="2940px" zoomAndPan="magnify"><defs/><g><text fill="#000000" font-family="sans-serif" font-size="14" font-weight="bold" lengthAdjust="spacing" textLength="437" x="1244.5" y="24.5332">Modulvorschau MII Erweiterungsmodul Seltene Erkrankungen</text><!--cluster MII_Datenmodell_Seltene_Erkrankungen--><g id="cluster_MII_Datenmodell_Seltene_Erkrankungen"><path d="M8.5,44.6094 L295.5,44.6094 A3.75,3.75 0 0 1 298,47.1094 L305,68.2188 L2070.5,68.2188 A2.5,2.5 0 0 1 2073,70.7188 L2073,951.6094 A2.5,2.5 0 0 1 2070.5,954.1094 L8.5,954.1094 A2.5,2.5 0 0 1 6,951.6094 L6,47.1094 A2.5,2.5 0 0 1 8.5,44.6094 " fill="none" style="stroke:#000000;stroke-width:1.5;"/><line style="stroke:#000000;stroke-width:1.5;" x1="6" x2="305" y1="68.2188" y2="68.2188"/><text fill="#000000" font-family="sans-serif" font-size="14" font-weight="bold" lengthAdjust="spacing" textLength="286" x="10" y="61.1426">MII_Datenmodell_Seltene_Erkrankungen</text></g><!--cluster MII_Person--><g id="cluster_MII_Person"><path d="M1607.5,96.6094 L1687.5,96.6094 A3.75,3.75 0 0 1 1690,99.1094 L1697,120.2188 L1877.5,120.2188 A2.5,2.5 0 0 1 1880,122.7188 L1880,211.1094 A2.5,2.5 0 0 1 1877.5,213.6094 L1607.5,213.6094 A2.5,2.5 0 0 1 1605,211.1094 L1605,99.1094 A2.5,2.5 0 0 1 1607.5,96.6094 " fill="#33CCFF" style="stroke:#000000;stroke-width:1.5;"/><line style="stroke:#000000;stroke-width:1.5;" x1="1605" x2="1697" y1="120.2188" y2="120.2188"/><text fill="#000000" font-family="sans-serif" font-size="14" font-weight="bold" lengthAdjust="spacing" textLength="79" x="1609" y="113.1426">MII_Person</text></g><!--cluster MII_Modul_Diagnose--><g id="cluster_MII_Modul_Diagnose"><path d="M213.5,241.6094 L361.5,241.6094 A3.75,3.75 0 0 1 364,244.1094 L371,265.2188 L450.5,265.2188 A2.5,2.5 0 0 1 453,267.7188 L453,391.1094 A2.5,2.5 0 0 1 450.5,393.6094 L213.5,393.6094 A2.5,2.5 0 0 1 211,391.1094 L211,244.1094 A2.5,2.5 0 0 1 213.5,241.6094 " fill="#33CCFF" style="stroke:#000000;stroke-width:1.5;"/><line style="stroke:#000000;stroke-width:1.5;" x1="211" x2="371" y1="265.2188" y2="265.2188"/><text fill="#000000" font-family="sans-serif" font-size="14" font-weight="bold" lengthAdjust="spacing" textLength="147" x="215" y="258.1426">MII_Modul_Diagnose</text></g><!--cluster MII_Modul_Seltene_Erkrankungen--><g id="cluster_MII_Modul_Seltene_Erkrankungen"><path d="M479.5,237.6094 L722.5,237.6094 A3.75,3.75 0 0 1 725,240.1094 L732,261.2188 L1854.5,261.2188 A2.5,2.5 0 0 1 1857,263.7188 L1857,785.1094 A2.5,2.5 0 0 1 1854.5,787.6094 L479.5,787.6094 A2.5,2.5 0 0 1 477,785.1094 L477,240.1094 A2.5,2.5 0 0 1 479.5,237.6094 " fill="#FFEE22" style="stroke:#000000;stroke-width:1.5;"/><line style="stroke:#000000;stroke-width:1.5;" x1="477" x2="732" y1="261.2188" y2="261.2188"/><text fill="#000000" font-family="sans-serif" font-size="14" font-weight="bold" lengthAdjust="spacing" textLength="242" x="481" y="254.1426">MII_Modul_Seltene_Erkrankungen</text></g><!--cluster MII_Modul_ICU--><g id="cluster_MII_Modul_ICU"><path d="M1140.5,110.1094 L1246.5,110.1094 A3.75,3.75 0 0 1 1249,112.6094 L1256,133.7188 L1426.5,133.7188 A2.5,2.5 0 0 1 1429,136.2188 L1429,197.6094 A2.5,2.5 0 0 1 1426.5,200.1094 L1140.5,200.1094 A2.5,2.5 0 0 1 1138,197.6094 L1138,112.6094 A2.5,2.5 0 0 1 1140.5,110.1094 " fill="#00DD00" style="stroke:#000000;stroke-width:1.5;"/><line style="stroke:#000000;stroke-width:1.5;" x1="1138" x2="1256" y1="133.7188" y2="133.7188"/><text fill="#000000" font-family="sans-serif" font-size="14" font-weight="bold" lengthAdjust="spacing" textLength="105" x="1142" y="126.6426">MII_Modul_ICU</text></g><!--cluster MII_Modul_Labor--><g id="cluster_MII_Modul_Labor"><path d="M968.5,110.1094 L1090.5,110.1094 A3.75,3.75 0 0 1 1093,112.6094 L1100,133.7188 L1111.5,133.7188 A2.5,2.5 0 0 1 1114,136.2188 L1114,197.6094 A2.5,2.5 0 0 1 1111.5,200.1094 L968.5,200.1094 A2.5,2.5 0 0 1 966,197.6094 L966,112.6094 A2.5,2.5 0 0 1 968.5,110.1094 " fill="#00DD00" style="stroke:#000000;stroke-width:1.5;"/><line style="stroke:#000000;stroke-width:1.5;" x1="966" x2="1100" y1="133.7188" y2="133.7188"/><text fill="#000000" font-family="sans-serif" font-size="14" font-weight="bold" lengthAdjust="spacing" textLength="121" x="970" y="126.6426">MII_Modul_Labor</text></g><!--cluster MII_Modul_Studie--><g id="cluster_MII_Modul_Studie"><path d="M1883.5,649.1094 L2010.5,649.1094 A3.75,3.75 0 0 1 2013,651.6094 L2020,672.7188 L2020.5,672.7188 A2.5,2.5 0 0 1 2023,675.2188 L2023,736.6094 A2.5,2.5 0 0 1 2020.5,739.1094 L1883.5,739.1094 A2.5,2.5 0 0 1 1881,736.6094 L1881,651.6094 A2.5,2.5 0 0 1 1883.5,649.1094 " fill="#00DD00" style="stroke:#000000;stroke-width:1.5;"/><line style="stroke:#000000;stroke-width:1.5;" x1="1881" x2="2020" y1="672.7188" y2="672.7188"/><text fill="#000000" font-family="sans-serif" font-size="14" font-weight="bold" lengthAdjust="spacing" textLength="126" x="1885" y="665.6426">MII_Modul_Studie</text></g><!--cluster MII_Modul_Molekulargenetischer_Befundbericht--><g id="cluster_MII_Modul_Molekulargenetischer_Befundbericht"><path d="M1554.5,823.1094 L1900.5,823.1094 A3.75,3.75 0 0 1 1903,825.6094 L1910,846.7188 L1981.5,846.7188 A2.5,2.5 0 0 1 1984,849.2188 L1984,919.6094 A2.5,2.5 0 0 1 1981.5,922.1094 L1554.5,922.1094 A2.5,2.5 0 0 1 1552,919.6094 L1552,825.6094 A2.5,2.5 0 0 1 1554.5,823.1094 " fill="#33CCFF" style="stroke:#000000;stroke-width:1.5;"/><line style="stroke:#000000;stroke-width:1.5;" x1="1552" x2="1910" y1="846.7188" y2="846.7188"/><text fill="#000000" font-family="sans-serif" font-size="14" font-weight="bold" lengthAdjust="spacing" textLength="345" x="1556" y="839.6426">MII_Modul_Molekulargenetischer_Befundbericht</text></g><!--cluster MII_Modul_Symptom_klinischer_Ph?notyp--><g id="cluster_MII_Modul_Symptom_klinischer_Ph&#228;notyp"><path d="M40.5,454.1094 L335.5,454.1094 A3.75,3.75 0 0 1 338,456.6094 L345,477.7188 L450.5,477.7188 A2.5,2.5 0 0 1 453,480.2188 L453,541.6094 A2.5,2.5 0 0 1 450.5,544.1094 L40.5,544.1094 A2.5,2.5 0 0 1 38,541.6094 L38,456.6094 A2.5,2.5 0 0 1 40.5,454.1094 " fill="#33CCFF" style="stroke:#000000;stroke-width:1.5;"/><line style="stroke:#000000;stroke-width:1.5;" x1="38" x2="345" y1="477.7188" y2="477.7188"/><text fill="#000000" font-family="sans-serif" font-size="14" font-weight="bold" lengthAdjust="spacing" textLength="294" x="42" y="470.6426">MII_Modul_Symptom_klinischer_Ph&#228;notyp</text></g><!--cluster MII_SE_Mappings--><g id="cluster_MII_SE_Mappings"><path d="M2120.5,454.1094 L2245.5,454.1094 A3.75,3.75 0 0 1 2248,456.6094 L2255,477.7188 L2763.5,477.7188 A2.5,2.5 0 0 1 2766,480.2188 L2766,541.6094 A2.5,2.5 0 0 1 2763.5,544.1094 L2120.5,544.1094 A2.5,2.5 0 0 1 2118,541.6094 L2118,456.6094 A2.5,2.5 0 0 1 2120.5,454.1094 " fill="none" style="stroke:#000000;stroke-width:1.5;"/><line style="stroke:#000000;stroke-width:1.5;" x1="2118" x2="2255" y1="477.7188" y2="477.7188"/><text fill="#000000" font-family="sans-serif" font-size="14" font-weight="bold" lengthAdjust="spacing" textLength="124" x="2122" y="470.6426">MII_SE_Mappings</text></g><!--cluster MII_SE_Erfassungsboegen--><g id="cluster_MII_SE_Erfassungsboegen"><path d="M2115.5,819.6094 L2304.5,819.6094 A3.75,3.75 0 0 1 2307,822.1094 L2314,843.2188 L2930.5,843.2188 A2.5,2.5 0 0 1 2933,845.7188 L2933,1037.6094 A2.5,2.5 0 0 1 2930.5,1040.1094 L2115.5,1040.1094 A2.5,2.5 0 0 1 2113,1037.6094 L2113,822.1094 A2.5,2.5 0 0 1 2115.5,819.6094 " fill="none" style="stroke:#000000;stroke-width:1.5;"/><line style="stroke:#000000;stroke-width:1.5;" x1="2113" x2="2314" y1="843.2188" y2="843.2188"/><text fill="#000000" font-family="sans-serif" font-size="14" font-weight="bold" lengthAdjust="spacing" textLength="188" x="2117" y="836.1426">MII_SE_Erfassungsboegen</text></g><g id="elem_MII_Patient"><rect fill="#F1F1F1" height="64.8281" style="stroke:#181818;stroke-width:0.5;" width="128" x="1736" y="132.6094"/><text fill="#000000" font-family="sans-serif" font-size="14" lengthAdjust="spacing" textLength="69" x="1765.5" y="149.1426">MII_Patient</text><line style="stroke:#181818;stroke-width:0.5;" x1="1737" x2="1863" y1="154.2188" y2="154.2188"/><text fill="#000000" font-family="sans-serif" font-size="14" lengthAdjust="spacing" textLength="83" x="1742" y="172.752">o Geschlecht</text><text fill="#000000" font-family="sans-serif" font-size="14" lengthAdjust="spacing" textLength="116" x="1742" y="190.3613">o Geburtstag/Alter</text></g><g id="elem_Vitalstatus"><rect fill="#F1F1F1" height="64.8281" style="stroke:#181818;stroke-width:0.5;" width="79" x="1621.5" y="132.6094"/><text fill="#000000" font-family="sans-serif" font-size="14" lengthAdjust="spacing" textLength="65" x="1628.5" y="149.1426">Vitalstatus</text><line style="stroke:#181818;stroke-width:0.5;" x1="1622.5" x2="1699.5" y1="154.2188" y2="154.2188"/><text fill="#000000" font-family="sans-serif" font-size="14" lengthAdjust="spacing" textLength="53" x="1627.5" y="172.752">o Datum</text><text fill="#000000" font-family="sans-serif" font-size="14" lengthAdjust="spacing" textLength="52" x="1627.5" y="190.3613">o Status</text></g><g id="elem_MII_Diagnose"><rect fill="#F1F1F1" height="100.0469" style="stroke:#181818;stroke-width:0.5;" width="209" x="227.5" y="277.6094"/><text fill="#000000" font-family="sans-serif" font-size="14" lengthAdjust="spacing" textLength="85" x="289.5" y="294.1426">MII_Diagnose</text><line style="stroke:#181818;stroke-width:0.5;" x1="228.5" x2="435.5" y1="299.2188" y2="299.2188"/><text fill="#000000" font-family="sans-serif" font-size="14" lengthAdjust="spacing" textLength="112" x="233.5" y="317.752">o code: ICD10GM</text><text fill="#000000" font-family="sans-serif" font-size="14" lengthAdjust="spacing" textLength="122" x="233.5" y="335.3613">o code: Orphacode</text><text fill="#000000" font-family="sans-serif" font-size="14" lengthAdjust="spacing" textLength="128" x="233.5" y="352.9707">o Alter bei Diagnose</text><text fill="#000000" font-family="sans-serif" font-size="14" lengthAdjust="spacing" textLength="197" x="233.5" y="370.5801">o Status (Verdacht, gesichert..)</text></g><g id="elem_MII_Diagnose_SE"><rect fill="#F1F1F1" height="64.8281" style="stroke:#181818;stroke-width:0.5;" width="134" x="493" y="476.6094"/><text fill="#000000" font-family="sans-serif" font-size="14" lengthAdjust="spacing" textLength="111" x="504.5" y="493.1426">MII_Diagnose_SE</text><line style="stroke:#181818;stroke-width:0.5;" x1="494" x2="626" y1="498.2188" y2="498.2188"/><text fill="#000000" font-family="sans-serif" font-size="14" lengthAdjust="spacing" textLength="112" x="499" y="516.752">o code: ICD10GM</text><text fill="#000000" font-family="sans-serif" font-size="14" lengthAdjust="spacing" textLength="122" x="499" y="534.3613">o code: Orphacode</text></g><g id="elem_MII_MolGen_Variante_SE"><rect fill="#F1F1F1" height="47.2188" style="stroke:#181818;stroke-width:0.5;" width="175" x="1347.5" y="485.6094"/><text fill="#000000" font-family="sans-serif" font-size="14" lengthAdjust="spacing" textLength="161" x="1354.5" y="502.1426">MII_MolGen_Variante_SE</text><line style="stroke:#181818;stroke-width:0.5;" x1="1348.5" x2="1521.5" y1="507.2188" y2="507.2188"/><text fill="#000000" font-family="sans-serif" font-size="14" lengthAdjust="spacing" textLength="89" x="1353.5" y="525.752">o code: HGVS</text></g><g id="elem_MII_Familienanamnese_SE"><rect fill="#F1F1F1" height="37.6094" style="stroke:#181818;stroke-width:0.5;" width="184" x="889" y="490.1094"/><text fill="#000000" font-family="sans-serif" font-size="14" lengthAdjust="spacing" textLength="170" x="896" y="506.6426">MII_Familienanamnese_SE</text><line style="stroke:#181818;stroke-width:0.5;" x1="890" x2="1072" y1="511.7188" y2="511.7188"/></g><g id="elem_Familienmitglied"><rect fill="#F1F1F1" height="100.0469" style="stroke:#181818;stroke-width:0.5;" width="197" x="882.5" y="654.1094"/><text fill="#000000" font-family="sans-serif" font-size="14" lengthAdjust="spacing" textLength="101" x="930.5" y="670.6426">Familienmitglied</text><line style="stroke:#181818;stroke-width:0.5;" x1="883.5" x2="1078.5" y1="675.7188" y2="675.7188"/><text fill="#000000" font-family="sans-serif" font-size="14" lengthAdjust="spacing" textLength="185" x="888.5" y="694.252">o Verwandtschaftsverhaeltnis</text><text fill="#000000" font-family="sans-serif" font-size="14" lengthAdjust="spacing" textLength="83" x="888.5" y="711.8613">o Geschlecht</text><text fill="#000000" font-family="sans-serif" font-size="14" lengthAdjust="spacing" textLength="134" x="888.5" y="729.4707">o gleiche Erkrankung</text><text fill="#000000" font-family="sans-serif" font-size="14" lengthAdjust="spacing" textLength="134" x="888.5" y="747.0801">o andere Erkrankung</text></g><g id="elem_MII_Symptom_Observation_SE"><rect fill="#F1F1F1" height="135.2656" style="stroke:#181818;stroke-width:0.5;" width="283" x="1557.5" y="441.6094"/><text fill="#000000" font-family="sans-serif" font-size="14" lengthAdjust="spacing" textLength="194" x="1602" y="458.1426">MII_Symptom_Observation_SE</text><line style="stroke:#181818;stroke-width:0.5;" x1="1558.5" x2="1839.5" y1="463.2188" y2="463.2188"/><text fill="#000000" font-family="sans-serif" font-size="14" lengthAdjust="spacing" textLength="271" x="1563.5" y="481.752">o code: Human Phenotype Ontology (HPO)</text><text fill="#000000" font-family="sans-serif" font-size="14" lengthAdjust="spacing" textLength="173" x="1563.5" y="499.3613">o value: Presence/Absence</text><text fill="#000000" font-family="sans-serif" font-size="14" lengthAdjust="spacing" textLength="206" x="1563.5" y="516.9707">o date: Datum der Untersuchung</text><text fill="#000000" font-family="sans-serif" font-size="14" lengthAdjust="spacing" textLength="224" x="1563.5" y="534.5801">o period: Zeitraum der Symptomatik</text><text fill="#000000" font-family="sans-serif" font-size="14" lengthAdjust="spacing" textLength="230" x="1563.5" y="552.1895">o startAge: Alter bei Symptombeginn</text><text fill="#000000" font-family="sans-serif" font-size="14" lengthAdjust="spacing" textLength="129" x="1563.5" y="569.7988">o change: &#196;nderung</text></g><g id="elem_MII_Symptom_Condition_SE"><rect fill="#F1F1F1" height="37.6094" style="stroke:#181818;stroke-width:0.5;" width="191" x="662.5" y="490.1094"/><text fill="#000000" font-family="sans-serif" font-size="14" lengthAdjust="spacing" textLength="177" x="669.5" y="506.6426">MII_Symptom_Condition_SE</text><line style="stroke:#181818;stroke-width:0.5;" x1="663.5" x2="852.5" y1="511.7188" y2="511.7188"/></g><g id="elem_Untersuchung"><rect fill="#F1F1F1" height="100.0469" style="stroke:#181818;stroke-width:0.5;" width="192" x="1114" y="277.6094"/><text fill="#000000" font-family="sans-serif" font-size="14" lengthAdjust="spacing" textLength="88" x="1166" y="294.1426">Untersuchung</text><line style="stroke:#181818;stroke-width:0.5;" x1="1115" x2="1305" y1="299.2188" y2="299.2188"/><text fill="#000000" font-family="sans-serif" font-size="14" lengthAdjust="spacing" textLength="53" x="1120" y="317.752">o Datum</text><text fill="#000000" font-family="sans-serif" font-size="14" lengthAdjust="spacing" textLength="180" x="1120" y="335.3613">o K&#246;rperliche_Untersuchung</text><text fill="#000000" font-family="sans-serif" font-size="14" lengthAdjust="spacing" textLength="78" x="1120" y="352.9707">o Diagnostik</text><text fill="#000000" font-family="sans-serif" font-size="14" lengthAdjust="spacing" textLength="107" x="1120" y="370.5801">o Therapiestatus</text></g><g id="elem_Therapiestatus"><rect fill="#F1F1F1" height="64.8281" style="stroke:#181818;stroke-width:0.5;" width="188" x="1116" y="477.1094"/><text fill="#000000" font-family="sans-serif" font-size="14" lengthAdjust="spacing" textLength="95" x="1162.5" y="493.6426">Therapiestatus</text><line style="stroke:#181818;stroke-width:0.5;" x1="1117" x2="1303" y1="498.7188" y2="498.7188"/><text fill="#000000" font-family="sans-serif" font-size="14" lengthAdjust="spacing" textLength="159" x="1122" y="517.252">o Therapieempfehlungen</text><text fill="#000000" font-family="sans-serif" font-size="14" lengthAdjust="spacing" textLength="176" x="1122" y="534.8613">o Durchgef&#252;hrte_Therapien</text></g><g id="elem_Therapieempfehlungen"><rect fill="#F1F1F1" height="82.4375" style="stroke:#181818;stroke-width:0.5;" width="161" x="1121.5" y="663.1094"/><text fill="#000000" font-family="sans-serif" font-size="14" lengthAdjust="spacing" textLength="147" x="1128.5" y="679.6426">Therapieempfehlungen</text><line style="stroke:#181818;stroke-width:0.5;" x1="1122.5" x2="1281.5" y1="684.7188" y2="684.7188"/><text fill="#000000" font-family="sans-serif" font-size="14" lengthAdjust="spacing" textLength="86" x="1127.5" y="703.252">o Therapieart</text><text fill="#000000" font-family="sans-serif" font-size="14" lengthAdjust="spacing" textLength="63" x="1127.5" y="720.8613">o off-label</text><text fill="#000000" font-family="sans-serif" font-size="14" lengthAdjust="spacing" textLength="52" x="1127.5" y="738.4707">o Studie</text></g><g id="elem_Durchgef&#252;hrte_Therapien"><rect fill="#F1F1F1" height="135.2656" style="stroke:#181818;stroke-width:0.5;" width="178" x="1318" y="636.6094"/><text fill="#000000" font-family="sans-serif" font-size="14" lengthAdjust="spacing" textLength="164" x="1325" y="653.1426">Durchgef&#252;hrte_Therapien</text><line style="stroke:#181818;stroke-width:0.5;" x1="1319" x2="1495" y1="658.2188" y2="658.2188"/><text fill="#000000" font-family="sans-serif" font-size="14" lengthAdjust="spacing" textLength="86" x="1324" y="676.752">o Therapieart</text><text fill="#000000" font-family="sans-serif" font-size="14" lengthAdjust="spacing" textLength="81" x="1324" y="694.3613">o Startdatum</text><text fill="#000000" font-family="sans-serif" font-size="14" lengthAdjust="spacing" textLength="76" x="1324" y="711.9707">o Enddatum</text><text fill="#000000" font-family="sans-serif" font-size="14" lengthAdjust="spacing" textLength="136" x="1324" y="729.5801">o Grund_Beendigung</text><text fill="#000000" font-family="sans-serif" font-size="14" lengthAdjust="spacing" textLength="63" x="1324" y="747.1895">o off-label</text><text fill="#000000" font-family="sans-serif" font-size="14" lengthAdjust="spacing" textLength="52" x="1324" y="764.7988">o Studie</text></g><g id="elem_Koerpergewicht"><rect fill="#F1F1F1" height="37.6094" style="stroke:#181818;stroke-width:0.5;" width="112" x="1154" y="146.1094"/><text fill="#000000" font-family="sans-serif" font-size="14" lengthAdjust="spacing" textLength="98" x="1161" y="162.6426">Koerpergewicht</text><line style="stroke:#181818;stroke-width:0.5;" x1="1155" x2="1265" y1="167.7188" y2="167.7188"/></g><g id="elem_Koerpergroe&#223;e"><rect fill="#F1F1F1" height="37.6094" style="stroke:#181818;stroke-width:0.5;" width="111" x="1301.5" y="146.1094"/><text fill="#000000" font-family="sans-serif" font-size="14" lengthAdjust="spacing" textLength="97" x="1308.5" y="162.6426">Koerpergroe&#223;e</text><line style="stroke:#181818;stroke-width:0.5;" x1="1302.5" x2="1411.5" y1="167.7188" y2="167.7188"/></g><g id="elem_Laborparameter"><rect fill="#F1F1F1" height="37.6094" style="stroke:#181818;stroke-width:0.5;" width="116" x="982" y="146.1094"/><text fill="#000000" font-family="sans-serif" font-size="14" lengthAdjust="spacing" textLength="102" x="989" y="162.6426">Laborparameter</text><line style="stroke:#181818;stroke-width:0.5;" x1="983" x2="1097" y1="167.7188" y2="167.7188"/></g><g id="elem_Studie"><rect fill="#F1F1F1" height="37.6094" style="stroke:#181818;stroke-width:0.5;" width="54" x="1897" y="685.1094"/><text fill="#000000" font-family="sans-serif" font-size="14" lengthAdjust="spacing" textLength="40" x="1904" y="701.6426">Studie</text><line style="stroke:#181818;stroke-width:0.5;" x1="1898" x2="1950" y1="706.7188" y2="706.7188"/></g><g id="elem_MII_MolGen_Variante"><rect fill="#F1F1F1" height="47.2188" style="stroke:#181818;stroke-width:0.5;" width="149" x="1818.5" y="859.1094"/><text fill="#000000" font-family="sans-serif" font-size="14" lengthAdjust="spacing" textLength="135" x="1825.5" y="875.6426">MII_MolGen_Variante</text><line style="stroke:#181818;stroke-width:0.5;" x1="1819.5" x2="1966.5" y1="880.7188" y2="880.7188"/><text fill="#000000" font-family="sans-serif" font-size="14" lengthAdjust="spacing" textLength="89" x="1824.5" y="899.252">o code: HGVS</text></g><g id="elem_MII_MolGen_Familienanamnese"><rect fill="#F1F1F1" height="37.6094" style="stroke:#181818;stroke-width:0.5;" width="215" x="1568.5" y="863.6094"/><text fill="#000000" font-family="sans-serif" font-size="14" lengthAdjust="spacing" textLength="201" x="1575.5" y="880.1426">MII_MolGen_Familienanamnese</text><line style="stroke:#181818;stroke-width:0.5;" x1="1569.5" x2="1782.5" y1="885.2188" y2="885.2188"/></g><g id="elem_MII_Symptom_Observation"><rect fill="#F1F1F1" height="37.6094" style="stroke:#181818;stroke-width:0.5;" width="182" x="54" y="490.1094"/><text fill="#000000" font-family="sans-serif" font-size="14" lengthAdjust="spacing" textLength="168" x="61" y="506.6426">MII_Symptom_Observation</text><line style="stroke:#181818;stroke-width:0.5;" x1="55" x2="235" y1="511.7188" y2="511.7188"/></g><g id="elem_MII_Symptom_Condition"><rect fill="#F1F1F1" height="37.6094" style="stroke:#181818;stroke-width:0.5;" width="165" x="271.5" y="490.1094"/><text fill="#000000" font-family="sans-serif" font-size="14" lengthAdjust="spacing" textLength="151" x="278.5" y="506.6426">MII_Symptom_Condition</text><line style="stroke:#181818;stroke-width:0.5;" x1="272.5" x2="435.5" y1="511.7188" y2="511.7188"/></g><g id="elem_Mapping_MII_NARSE"><rect fill="#F1F1F1" height="37.6094" style="stroke:#181818;stroke-width:0.5;" width="147" x="2602.5" y="490.1094"/><text fill="#000000" font-family="sans-serif" font-size="14" lengthAdjust="spacing" textLength="133" x="2609.5" y="506.6426">Mapping_MII_NARSE</text><line style="stroke:#181818;stroke-width:0.5;" x1="2603.5" x2="2748.5" y1="511.7188" y2="511.7188"/></g><g id="elem_Mapping_MII_ERDRI_CDS"><rect fill="#F1F1F1" height="37.6094" style="stroke:#181818;stroke-width:0.5;" width="180" x="2134" y="490.1094"/><text fill="#000000" font-family="sans-serif" font-size="14" lengthAdjust="spacing" textLength="166" x="2141" y="506.6426">Mapping_MII_ERDRI_CDS</text><line style="stroke:#181818;stroke-width:0.5;" x1="2135" x2="2313" y1="511.7188" y2="511.7188"/></g><g id="elem_Mapping_MII_MVGenomSeq_SE"><rect fill="#F1F1F1" height="37.6094" style="stroke:#181818;stroke-width:0.5;" width="218" x="2349" y="490.1094"/><text fill="#000000" font-family="sans-serif" font-size="14" lengthAdjust="spacing" textLength="204" x="2356" y="506.6426">Mapping_MII_MVGenomSeq_SE</text><line style="stroke:#181818;stroke-width:0.5;" x1="2350" x2="2566" y1="511.7188" y2="511.7188"/></g><g id="elem_Familienanamnese_Questionnaire"><rect fill="#F1F1F1" height="37.6094" style="stroke:#181818;stroke-width:0.5;" width="230" x="2156" y="863.6094"/><text fill="#000000" font-family="sans-serif" font-size="14" lengthAdjust="spacing" textLength="216" x="2163" y="880.1426">Familienanamnese_Questionnaire</text><line style="stroke:#181818;stroke-width:0.5;" x1="2157" x2="2385" y1="885.2188" y2="885.2188"/></g><g id="elem_Vitalstatus_Todesursache_Questionnaire"><rect fill="#F1F1F1" height="37.6094" style="stroke:#181818;stroke-width:0.5;" width="275" x="2421.5" y="863.6094"/><text fill="#000000" font-family="sans-serif" font-size="14" lengthAdjust="spacing" textLength="261" x="2428.5" y="880.1426">Vitalstatus_Todesursache_Questionnaire</text><line style="stroke:#181818;stroke-width:0.5;" x1="2422.5" x2="2695.5" y1="885.2188" y2="885.2188"/></g><g id="elem_Diagnostik_Questionnaire"><rect fill="#F1F1F1" height="37.6094" style="stroke:#181818;stroke-width:0.5;" width="177" x="2731.5" y="863.6094"/><text fill="#000000" font-family="sans-serif" font-size="14" lengthAdjust="spacing" textLength="163" x="2738.5" y="880.1426">Diagnostik_Questionnaire</text><line style="stroke:#181818;stroke-width:0.5;" x1="2732.5" x2="2907.5" y1="885.2188" y2="885.2188"/></g><g id="elem_Verlauf_Questionnaire"><rect fill="#F1F1F1" height="37.6094" style="stroke:#181818;stroke-width:0.5;" width="156" x="2193" y="978.1094"/><text fill="#000000" font-family="sans-serif" font-size="14" lengthAdjust="spacing" textLength="142" x="2200" y="994.6426">Verlauf_Questionnaire</text><line style="stroke:#181818;stroke-width:0.5;" x1="2194" x2="2348" y1="999.7188" y2="999.7188"/></g><g id="elem_Therapiestatus_Questionnaire"><rect fill="#F1F1F1" height="37.6094" style="stroke:#181818;stroke-width:0.5;" width="206" x="2384" y="978.1094"/><text fill="#000000" font-family="sans-serif" font-size="14" lengthAdjust="spacing" textLength="192" x="2391" y="994.6426">Therapiestatus_Questionnaire</text><line style="stroke:#181818;stroke-width:0.5;" x1="2385" x2="2589" y1="999.7188" y2="999.7188"/></g><g id="elem_NARSE_Consent"><rect fill="#F1F1F1" height="37.6094" style="stroke:#181818;stroke-width:0.5;" width="121" x="2625.5" y="978.1094"/><text fill="#000000" font-family="sans-serif" font-size="14" lengthAdjust="spacing" textLength="107" x="2632.5" y="994.6426">NARSE_Consent</text><line style="stroke:#181818;stroke-width:0.5;" x1="2626.5" x2="2745.5" y1="999.7188" y2="999.7188"/></g><!--reverse link MII_Diagnose to MII_Diagnose_SE--><g id="link_MII_Diagnose_MII_Diagnose_SE"><path codeLine="98" d="M408.4433,388.7934 C448.3933,420.2434 484.95,449.0194 519.68,476.3694 " fill="none" id="MII_Diagnose-backto-MII_Diagnose_SE" style="stroke:#181818;stroke-width:1.0;"/><polygon fill="none" points="394.3,377.6594,404.7319,393.5079,412.1546,384.079,394.3,377.6594" style="stroke:#181818;stroke-width:1.0;"/></g><!--reverse link MII_MolGen_Variante to MII_MolGen_Variante_SE--><g id="link_MII_MolGen_Variante_MII_MolGen_Variante_SE"><path codeLine="99" d="M1933.9417,846.5713 C1950.8517,830.8213 1957.75,820.5394 1967,795.6094 C1991.58,729.3594 2013.36,689.9394 1967,636.6094 C1904.13,564.2894 1629.94,609.6494 1540,576.6094 C1512.05,566.3394 1483.72,547.8194 1463.54,532.9294 " fill="none" id="MII_MolGen_Variante-backto-MII_MolGen_Variante_SE" style="stroke:#181818;stroke-width:1.0;"/><polygon fill="none" points="1920.77,858.8394,1938.0311,850.9618,1929.8523,842.1807,1920.77,858.8394" style="stroke:#181818;stroke-width:1.0;"/></g><!--link MII_Familienanamnese_SE to MII_MolGen_Familienanamnese--><g id="link_MII_Familienanamnese_SE_MII_MolGen_Familienanamnese"><path codeLine="100" d="M1004.23,528.1794 C1025.38,543.6394 1058.07,565.1594 1090,576.6094 C1268.73,640.7094 1352.36,535.3694 1513,636.6094 C1601.82,692.5794 1647.0032,799.6262 1663.7632,846.3562 " fill="none" id="MII_Familienanamnese_SE-to-MII_MolGen_Familienanamnese" style="stroke:#181818;stroke-width:1.0;"/><polygon fill="none" points="1669.84,863.2994,1669.411,844.3306,1658.1155,848.3818,1669.84,863.2994" style="stroke:#181818;stroke-width:1.0;"/></g><!--reverse link MII_Symptom_Observation to MII_Symptom_Observation_SE--><g id="link_MII_Symptom_Observation_MII_Symptom_Observation_SE"><path codeLine="101" d="M177.6012,477.7138 C200.7912,456.2538 228.68,434.9794 271.5,421.6094 C337.84,400.8994 1454.83,405.7594 1522.5,421.6094 C1542.15,426.2094 1562.11,433.3394 1581.21,441.5894 " fill="none" id="MII_Symptom_Observation-backto-MII_Symptom_Observation_SE" style="stroke:#181818;stroke-width:1.0;"/><polygon fill="none" points="164.39,489.9394,181.6764,482.1175,173.526,473.3101,164.39,489.9394" style="stroke:#181818;stroke-width:1.0;"/></g><!--link MII_Symptom_Condition_SE to MII_Symptom_Condition--><g id="link_MII_Symptom_Condition_SE_MII_Symptom_Condition"><path codeLine="102" d="M737.7,489.9294 C713.45,468.4594 670.6,434.9394 626.5,421.6094 C570.34,404.6294 550.91,405.4794 494.5,421.6094 C448.08,434.8794 415.987,456.9916 389.847,478.4716 " fill="none" id="MII_Symptom_Condition_SE-to-MII_Symptom_Condition" style="stroke:#181818;stroke-width:1.0;"/><polygon fill="none" points="375.94,489.8994,393.6563,483.1072,386.0378,473.8359,375.94,489.8994" style="stroke:#181818;stroke-width:1.0;"/></g><!--reverse link MII_Familienanamnese_SE to Familienmitglied--><g id="link_MII_Familienanamnese_SE_Familienmitglied"><path codeLine="104" d="M981,540.2694 C981,568.6994 981,612.7094 981,653.7094 " fill="none" id="MII_Familienanamnese_SE-backto-Familienmitglied" style="stroke:#181818;stroke-width:1.0;"/><polygon fill="none" points="981,528.2694,977,534.2694,981,540.2694,985,534.2694,981,528.2694" style="stroke:#181818;stroke-width:1.0;"/></g><!--link Laborparameter to Untersuchung--><g id="link_Laborparameter_Untersuchung"><path codeLine="105" d="M1039.29,184.4094 C1038.55,230.2994 1031.54,346.6094 1101,346.6094 " fill="none" id="Laborparameter-to-Untersuchung" style="stroke:#181818;stroke-width:1.0;"/><polygon fill="none" points="1113,346.6094,1107,342.6094,1101,346.6094,1107,350.6094,1113,346.6094" style="stroke:#181818;stroke-width:1.0;"/></g><!--reverse link Untersuchung to MII_Diagnose_SE--><g id="link_Untersuchung_MII_Diagnose_SE"><path codeLine="106" d="M1101,346.6094 C888.76,346.6094 837.74,352.7294 645,441.6094 C626.28,450.2394 607.96,463.7294 593.14,476.3094 " fill="none" id="Untersuchung-backto-MII_Diagnose_SE" style="stroke:#181818;stroke-width:1.0;"/><polygon fill="none" points="1113,346.6094,1107,342.6094,1101,346.6094,1107,350.6094,1113,346.6094" style="stroke:#181818;stroke-width:1.0;"/></g><!--reverse link Untersuchung to MII_MolGen_Variante_SE--><g id="link_Untersuchung_MII_MolGen_Variante_SE"><path codeLine="107" d="M1319,346.6094 C1388.94,346.6094 1414.71,440.7994 1428.65,485.3094 " fill="none" id="Untersuchung-backto-MII_MolGen_Variante_SE" style="stroke:#181818;stroke-width:1.0;"/><polygon fill="none" points="1307,346.6094,1313,350.6094,1319,346.6094,1313,342.6094,1307,346.6094" style="stroke:#181818;stroke-width:1.0;"/></g><!--reverse link Untersuchung to MII_Symptom_Observation_SE--><g id="link_Untersuchung_MII_Symptom_Observation_SE"><path codeLine="108" d="M1319,346.6094 C1424.26,346.6094 1522.24,396.9994 1598.82,441.4894 " fill="none" id="Untersuchung-backto-MII_Symptom_Observation_SE" style="stroke:#181818;stroke-width:1.0;"/><polygon fill="none" points="1307,346.6094,1313,350.6094,1319,346.6094,1313,342.6094,1307,346.6094" style="stroke:#181818;stroke-width:1.0;"/></g><!--reverse link Untersuchung to MII_Familienanamnese_SE--><g id="link_Untersuchung_MII_Familienanamnese_SE"><path codeLine="109" d="M1101,346.6094 C1027.67,346.6094 999.76,447.6594 986.28,489.8994 " fill="none" id="Untersuchung-backto-MII_Familienanamnese_SE" style="stroke:#181818;stroke-width:1.0;"/><polygon fill="none" points="1113,346.6094,1107,342.6094,1101,346.6094,1107,350.6094,1113,346.6094" style="stroke:#181818;stroke-width:1.0;"/></g><!--link Koerpergewicht to Untersuchung--><g id="link_Koerpergewicht_Untersuchung"><path codeLine="110" d="M1229.37,184.2294 C1273.75,226.7994 1386,329.6094 1319,329.6094 " fill="none" id="Koerpergewicht-to-Untersuchung" style="stroke:#181818;stroke-width:1.0;"/><polygon fill="none" points="1307,329.6094,1313,333.6094,1319,329.6094,1313,325.6094,1307,329.6094" style="stroke:#181818;stroke-width:1.0;"/></g><!--link Koerpergroe?e to Untersuchung--><g id="link_Koerpergroe&#223;e_Untersuchung"><path codeLine="111" d="M1359.21,184.2294 C1363.39,226.7994 1379.26,329.6094 1319,329.6094 " fill="none" id="Koerpergroe&#223;e-to-Untersuchung" style="stroke:#181818;stroke-width:1.0;"/><polygon fill="none" points="1307,329.6094,1313,333.6094,1319,329.6094,1313,325.6094,1307,329.6094" style="stroke:#181818;stroke-width:1.0;"/></g><!--reverse link Untersuchung to MII_Symptom_Condition_SE--><g id="link_Untersuchung_MII_Symptom_Condition_SE"><path codeLine="112" d="M1101,329.6094 C959.24,329.6094 828.31,444.6294 777.44,490.0094 " fill="none" id="Untersuchung-backto-MII_Symptom_Condition_SE" style="stroke:#181818;stroke-width:1.0;"/><polygon fill="none" points="1113,329.6094,1107,325.6094,1101,329.6094,1107,333.6094,1113,329.6094" style="stroke:#181818;stroke-width:1.0;"/></g><!--reverse link Untersuchung to Therapiestatus--><g id="link_Untersuchung_Therapiestatus"><path codeLine="113" d="M1319,364.6094 C1371.17,364.6094 1296.07,430.5194 1249.98,473.0094 " fill="none" id="Untersuchung-backto-Therapiestatus" style="stroke:#181818;stroke-width:1.0;"/><polygon fill="none" points="1307,364.6094,1313,368.6094,1319,364.6094,1313,360.6094,1307,364.6094" style="stroke:#181818;stroke-width:1.0;"/></g><!--reverse link Therapiestatus to Therapieempfehlungen--><g id="link_Therapiestatus_Therapieempfehlungen"><path codeLine="114" d="M1103,511.1094 C1069.97,511.1094 1138.77,606.5594 1175.14,662.8594 " fill="none" id="Therapiestatus-backto-Therapieempfehlungen" style="stroke:#181818;stroke-width:1.0;"/><polygon fill="none" points="1115,511.1094,1109,507.1094,1103,511.1094,1109,515.1094,1115,511.1094" style="stroke:#181818;stroke-width:1.0;"/><text fill="#000000" font-family="sans-serif" font-size="13" lengthAdjust="spacing" textLength="20" x="1087.9453" y="508.1854">0..*</text><text fill="#000000" font-family="sans-serif" font-size="13" lengthAdjust="spacing" textLength="22" x="1146.8694" y="652.1903">1..1</text></g><!--reverse link Therapiestatus to Durchgef?hrte_Therapien--><g id="link_Therapiestatus_Durchgef&#252;hrte_Therapien"><path codeLine="115" d="M1317,529.1094 C1340.86,529.1094 1318.24,555.8594 1330,576.6094 C1341.16,596.2894 1353.74,617.3894 1365.45,636.6094 " fill="none" id="Therapiestatus-backto-Durchgef&#252;hrte_Therapien" style="stroke:#181818;stroke-width:1.0;"/><polygon fill="none" points="1305,529.1094,1311,533.1094,1317,529.1094,1311,525.1094,1305,529.1094" style="stroke:#181818;stroke-width:1.0;"/><text fill="#000000" font-family="sans-serif" font-size="13" lengthAdjust="spacing" textLength="20" x="1312.0547" y="527.3947">0..*</text><text fill="#000000" font-family="sans-serif" font-size="13" lengthAdjust="spacing" textLength="22" x="1337.7023" y="625.8514">1..1</text></g><!--reverse link Therapiestatus to Studie--><g id="link_Therapiestatus_Studie"><path codeLine="116" d="M1272.9607,551.2109 C1293.2307,563.1009 1306.75,569.1694 1330,576.6094 C1554.52,648.4594 1644.48,534.5994 1857,636.6094 C1879.75,647.5294 1899.38,669.3794 1911.4,685.0494 " fill="none" id="Therapiestatus-backto-Studie" style="stroke:#181818;stroke-width:1.0;"/><polygon fill="none" points="1262.61,545.1394,1265.7615,551.6254,1272.9607,551.2109,1269.8092,544.7249,1262.61,545.1394" style="stroke:#181818;stroke-width:1.0;"/></g><!--reverse link Untersuchung to MII_SE_Erfassungsboegen--><g id="link_Untersuchung_MII_SE_Erfassungsboegen"><path codeLine="140" d="M1319.9861,337.394 C1479.5961,351.674 1769.79,384.5494 1858,441.6094 C1952.9,502.9994 2018.3675,611.7669 2060.25,705.7956 C2081.1913,752.81 2096.2363,796.1397 2106.1159,828.0202 C2108.5859,835.9903 2110.7329,843.2448 2112.5686,849.6625 C2112.6834,850.0636 2112.7969,850.4614 2112.9092,850.8559 " fill="none" id="Untersuchung-backto-MII_SE_Erfassungsboegen" style="stroke:#181818;stroke-width:1.0;"/><polygon fill="#181818" points="1314.01,336.8594,1322.6177,341.6455,1318.9901,337.3049,1323.3306,333.6773,1314.01,336.8594" style="stroke:#181818;stroke-width:1.0;"/></g><!--link MII_Datenmodell_Seltene_Erkrankungen to Mapping_MII_NARSE--><g id="link_MII_Datenmodell_Seltene_Erkrankungen_Mapping_MII_NARSE"><path codeLine="141" d="M2073.3231,167.5664 C2073.8577,167.664 2074.416,167.7665 2074.9975,167.8739 C2076.1605,168.0887 2077.4162,168.3232 2078.7599,168.5774 C2081.4474,169.0858 2084.4871,169.6732 2087.8416,170.3402 C2101.2594,173.0078 2119.7138,176.9475 2140.8125,182.1931 C2183.01,192.6844 2235.785,208.3994 2280,229.6094 C2437.24,305.0494 2595.2318,437.2115 2651.1618,486.0815 " fill="none" id="MII_Datenmodell_Seltene_Erkrankungen-to-Mapping_MII_NARSE" style="stroke:#181818;stroke-width:1.0;"/><polygon fill="#181818" points="2655.68,490.0294,2651.5346,481.0954,2651.9148,486.7395,2646.2708,487.1197,2655.68,490.0294" style="stroke:#181818;stroke-width:1.0;"/></g><!--link MII_Datenmodell_Seltene_Erkrankungen to Mapping_MII_ERDRI_CDS--><g id="link_MII_Datenmodell_Seltene_Erkrankungen_Mapping_MII_ERDRI_CDS"><path codeLine="142" d="M2073.2155,183.7776 C2073.3413,184.0481 2073.4683,184.3214 2073.5967,184.5974 C2074.6231,186.8054 2075.7306,189.1877 2076.9132,191.7314 C2079.2782,196.8187 2081.9434,202.5516 2084.8606,208.8266 C2096.5294,233.9263 2112.23,267.6981 2128.8825,303.5169 C2162.1875,375.1544 2196.7701,449.5388 2213.0501,484.5488 " fill="none" id="MII_Datenmodell_Seltene_Erkrankungen-to-Mapping_MII_ERDRI_CDS" style="stroke:#181818;stroke-width:1.0;"/><polygon fill="#181818" points="2215.58,489.9894,2215.4122,480.1419,2213.4717,485.4556,2208.1581,483.5152,2215.58,489.9894" style="stroke:#181818;stroke-width:1.0;"/></g><!--link MII_Datenmodell_Seltene_Erkrankungen to Mapping_MII_MVGenomSeq_SE--><g id="link_MII_Datenmodell_Seltene_Erkrankungen_Mapping_MII_MVGenomSeq_SE"><path codeLine="143" d="M2073.0222,170.8565 C2073.1047,170.906 2073.1877,170.9558 2073.2713,171.006 C2073.4385,171.1064 2073.608,171.2081 2073.7796,171.3112 C2074.466,171.7237 2075.1872,172.1583 2075.9414,172.6141 C2081.9747,176.26 2090.1131,181.2606 2099.3538,187.1569 C2117.835,198.9494 2140.725,214.3244 2160,229.6094 C2273.75,319.7994 2392.2432,439.8123 2436.6032,485.7723 " fill="none" id="MII_Datenmodell_Seltene_Erkrankungen-to-Mapping_MII_MVGenomSeq_SE" style="stroke:#181818;stroke-width:1.0;"/><polygon fill="#181818" points="2440.77,490.0894,2437.3978,480.8358,2437.2976,486.4918,2431.6417,486.3916,2440.77,490.0894" style="stroke:#181818;stroke-width:1.0;"/></g><!--SRC=[dLVDZjis4BxhAGZdaXIruqrkHX5WwxyOgRlkEl6X5u6InX9hYLGfQXUBT6zzZrxw33trvXVhK7-cPD5ETu65Tpa_dFbcvXjJCHK3MOiWZn-4pFo8vcIzMf6vV0IcGEOyp18j9Lk85N10oK5IVa01S2Ub_e66G0PeuyueAg0onB5RQRkcze1yTHn2QXjjiW6P2KvUlNy_dIuMNr5AYF1-0r-LOgeOS4LA0Oh84Z366Fn86KTUBbMcQFZs5Y-LJY5vDdtjcA8nQgWy8uOp33XFcl-sXRmoTaeFhVmAbDmPeo4N6GpggCbPsBMASPMFi4p8QZgx6I_NdTCxcKPK_zcS5taG3nYfNNMY9Azt80EAC7nFGiYO7u5Kez6R9dNyxG-_lp2l5elv_DqxQoRkTlwYP9wx3jSYNW9tTrGoobNXzypnn-Lkss-ze0cBiICefmc78YnJfHOdJ8Nu6HYU4Qv7oWEbEtoliWUG4KKaECikjLOOWuRMwFb6XCv0dadE8ju-9QaIYNldPI0Vi9q5xyyvJoWdcmYuK4yfa3kkH2p29_Bwu-RkJQFyGECSjJSIa-S-lBtrYiz67k08Jig-9XWV-O8Ooopt8pFq52GJmOJyYXCkQQLP1OeH7WXfL75cfBeDqUUf9IjD3qB6-IcDY7AjT_nJ0tCLZwdW0QlGS4mbCsBhg7uw_YCnYrWNn-tDiMfSpAOv-empGbC6cJddnirjkN5tBO0atKCKbypNN9HBFmfXV_mtajZFjIwt-pVTd5-2U3TdOhyVnjI3s9Z-F60zesMBWbo-OAlB6xIWdVEWVR34OWRkZm1OiD24-6fq5W9TJRyWuOp7izbut2ASJm9qLKDuPFKGTYHImF4liBl-YNf2DixRn5p8KYff0df9M7sKILYSD1a-E_tMo6zmo6EAMN1GBDF4ZE3j4KCFnmxp6bYtNOSR_mSlLfPTUgoIxCsociD3p7WLvIOw_bsmZpt27ZQxEk0bM1gkrchyuOzX81xviBjcAhqk5hNwqB95scPT8BHvdbR6_Kl4afwsb2oCrF02dNVCczIhQoyIdoKY8Z3QxZv3TPFi9fCJow6-lkcioI_ezq5_LRqN-QjMLjYkMlONgsrctGOLA6UyyZBpXdo-tVn2wRjkEjj7svujhFR1oSRSA6Gm7es-6w23Shm6DwFHpS2smxeUhNkat-k5vTVrN39daLT5ejNFS_iHiPsxQvgc3DyTWu81Qsuf3rsjy_FjVO5WZsX-FxjVkTFPjb-ytc7tYcGBl-iQ82-PZn6yUYxtDClqeySJ45Rxi_Fjicd5NtBC3il9APFWz3qstCz8t5akCwgRmw9_wdghHsmlckzjuZRKDgq2DDs3-8rHwTHjAHTCEVpG_kxuBUyxKb7qXvvYlTp-LD6N-sYNtN7-0m00]--></g></svg>