<?xml version="1.0" encoding="us-ascii" standalone="no"?><svg xmlns="http://www.w3.org/2000/svg" xmlns:xlink="http://www.w3.org/1999/xlink" contentStyleType="text/css" height="941px" preserveAspectRatio="none" style="width:2146px;height:941px;background:#FFFFFF;" version="1.1" viewBox="0 0 2146 941" width="2146px" zoomAndPan="magnify"><defs/><g><text fill="#000000" font-family="sans-serif" font-size="14" font-weight="bold" lengthAdjust="spacing" textLength="437" x="847.5" y="24.5332">Modulvorschau MII Erweiterungsmodul Seltene Erkrankungen</text><!--cluster MII_Datenmodell_Seltene_Erkrankungen--><g id="cluster_MII_Datenmodell_Seltene_Erkrankungen"><path d="M8.5,44.6094 L295.5,44.6094 A3.75,3.75 0 0 1 298,47.1094 L305,68.2188 L2136.5,68.2188 A2.5,2.5 0 0 1 2139,70.7188 L2139,932.1094 A2.5,2.5 0 0 1 2136.5,934.6094 L8.5,934.6094 A2.5,2.5 0 0 1 6,932.1094 L6,47.1094 A2.5,2.5 0 0 1 8.5,44.6094 " fill="none" style="stroke:#000000;stroke-width:1.5;"/><line style="stroke:#000000;stroke-width:1.5;" x1="6" x2="305" y1="68.2188" y2="68.2188"/><text fill="#000000" font-family="sans-serif" font-size="14" font-weight="bold" lengthAdjust="spacing" textLength="286" x="10" y="61.1426">MII_Datenmodell_Seltene_Erkrankungen</text></g><!--cluster MII_Person--><g id="cluster_MII_Person"><path d="M1669.5,88.6094 L1749.5,88.6094 A3.75,3.75 0 0 1 1752,91.1094 L1759,112.2188 L1939.5,112.2188 A2.5,2.5 0 0 1 1942,114.7188 L1942,203.1094 A2.5,2.5 0 0 1 1939.5,205.6094 L1669.5,205.6094 A2.5,2.5 0 0 1 1667,203.1094 L1667,91.1094 A2.5,2.5 0 0 1 1669.5,88.6094 " fill="#33CCFF" style="stroke:#000000;stroke-width:1.5;"/><line style="stroke:#000000;stroke-width:1.5;" x1="1667" x2="1759" y1="112.2188" y2="112.2188"/><text fill="#000000" font-family="sans-serif" font-size="14" font-weight="bold" lengthAdjust="spacing" textLength="79" x="1671" y="105.1426">MII_Person</text></g><!--cluster MII_Modul_Diagnose--><g id="cluster_MII_Modul_Diagnose"><path d="M1875.5,233.6094 L2023.5,233.6094 A3.75,3.75 0 0 1 2026,236.1094 L2033,257.2188 L2112.5,257.2188 A2.5,2.5 0 0 1 2115,259.7188 L2115,383.1094 A2.5,2.5 0 0 1 2112.5,385.6094 L1875.5,385.6094 A2.5,2.5 0 0 1 1873,383.1094 L1873,236.1094 A2.5,2.5 0 0 1 1875.5,233.6094 " fill="#33CCFF" style="stroke:#000000;stroke-width:1.5;"/><line style="stroke:#000000;stroke-width:1.5;" x1="1873" x2="2033" y1="257.2188" y2="257.2188"/><text fill="#000000" font-family="sans-serif" font-size="14" font-weight="bold" lengthAdjust="spacing" textLength="147" x="1877" y="250.1426">MII_Modul_Diagnose</text></g><!--cluster MII_Modul_Seltene_Erkrankungen--><g id="cluster_MII_Modul_Seltene_Erkrankungen"><path d="M471.5,229.6094 L714.5,229.6094 A3.75,3.75 0 0 1 717,232.1094 L724,253.2188 L1846.5,253.2188 A2.5,2.5 0 0 1 1849,255.7188 L1849,785.1094 A2.5,2.5 0 0 1 1846.5,787.6094 L471.5,787.6094 A2.5,2.5 0 0 1 469,785.1094 L469,232.1094 A2.5,2.5 0 0 1 471.5,229.6094 " fill="#FFEE22" style="stroke:#000000;stroke-width:1.5;"/><line style="stroke:#000000;stroke-width:1.5;" x1="469" x2="724" y1="253.2188" y2="253.2188"/><text fill="#000000" font-family="sans-serif" font-size="14" font-weight="bold" lengthAdjust="spacing" textLength="242" x="473" y="246.1426">MII_Modul_Seltene_Erkrankungen</text></g><!--cluster MII_Modul_ICU--><g id="cluster_MII_Modul_ICU"><path d="M1071.5,102.1094 L1177.5,102.1094 A3.75,3.75 0 0 1 1180,104.6094 L1187,125.7188 L1357.5,125.7188 A2.5,2.5 0 0 1 1360,128.2188 L1360,189.6094 A2.5,2.5 0 0 1 1357.5,192.1094 L1071.5,192.1094 A2.5,2.5 0 0 1 1069,189.6094 L1069,104.6094 A2.5,2.5 0 0 1 1071.5,102.1094 " fill="#00DD00" style="stroke:#000000;stroke-width:1.5;"/><line style="stroke:#000000;stroke-width:1.5;" x1="1069" x2="1187" y1="125.7188" y2="125.7188"/><text fill="#000000" font-family="sans-serif" font-size="14" font-weight="bold" lengthAdjust="spacing" textLength="105" x="1073" y="118.6426">MII_Modul_ICU</text></g><!--cluster MII_Modul_Labor--><g id="cluster_MII_Modul_Labor"><path d="M899.5,102.1094 L1021.5,102.1094 A3.75,3.75 0 0 1 1024,104.6094 L1031,125.7188 L1042.5,125.7188 A2.5,2.5 0 0 1 1045,128.2188 L1045,189.6094 A2.5,2.5 0 0 1 1042.5,192.1094 L899.5,192.1094 A2.5,2.5 0 0 1 897,189.6094 L897,104.6094 A2.5,2.5 0 0 1 899.5,102.1094 " fill="#00DD00" style="stroke:#000000;stroke-width:1.5;"/><line style="stroke:#000000;stroke-width:1.5;" x1="897" x2="1031" y1="125.7188" y2="125.7188"/><text fill="#000000" font-family="sans-serif" font-size="14" font-weight="bold" lengthAdjust="spacing" textLength="121" x="901" y="118.6426">MII_Modul_Labor</text></g><!--cluster MII_Modul_Studie--><g id="cluster_MII_Modul_Studie"><path d="M624.5,816.1094 L751.5,816.1094 A3.75,3.75 0 0 1 754,818.6094 L761,839.7188 L761.5,839.7188 A2.5,2.5 0 0 1 764,842.2188 L764,903.6094 A2.5,2.5 0 0 1 761.5,906.1094 L624.5,906.1094 A2.5,2.5 0 0 1 622,903.6094 L622,818.6094 A2.5,2.5 0 0 1 624.5,816.1094 " fill="#00DD00" style="stroke:#000000;stroke-width:1.5;"/><line style="stroke:#000000;stroke-width:1.5;" x1="622" x2="761" y1="839.7188" y2="839.7188"/><text fill="#000000" font-family="sans-serif" font-size="14" font-weight="bold" lengthAdjust="spacing" textLength="126" x="626" y="832.6426">MII_Modul_Studie</text></g><!--cluster MII_Modul_Molekulargenetischer_Befundbericht--><g id="cluster_MII_Modul_Molekulargenetischer_Befundbericht"><path d="M1040.5,811.6094 L1386.5,811.6094 A3.75,3.75 0 0 1 1389,814.1094 L1396,835.2188 L1467.5,835.2188 A2.5,2.5 0 0 1 1470,837.7188 L1470,908.1094 A2.5,2.5 0 0 1 1467.5,910.6094 L1040.5,910.6094 A2.5,2.5 0 0 1 1038,908.1094 L1038,814.1094 A2.5,2.5 0 0 1 1040.5,811.6094 " fill="#33CCFF" style="stroke:#000000;stroke-width:1.5;"/><line style="stroke:#000000;stroke-width:1.5;" x1="1038" x2="1396" y1="835.2188" y2="835.2188"/><text fill="#000000" font-family="sans-serif" font-size="14" font-weight="bold" lengthAdjust="spacing" textLength="345" x="1042" y="828.1426">MII_Modul_Molekulargenetischer_Befundbericht</text></g><!--cluster MII_Modul_Symptom_klinischer_Ph?notyp--><g id="cluster_MII_Modul_Symptom_klinischer_Ph&#228;notyp"><path d="M32.5,446.1094 L327.5,446.1094 A3.75,3.75 0 0 1 330,448.6094 L337,469.7188 L442.5,469.7188 A2.5,2.5 0 0 1 445,472.2188 L445,533.6094 A2.5,2.5 0 0 1 442.5,536.1094 L32.5,536.1094 A2.5,2.5 0 0 1 30,533.6094 L30,448.6094 A2.5,2.5 0 0 1 32.5,446.1094 " fill="#33CCFF" style="stroke:#000000;stroke-width:1.5;"/><line style="stroke:#000000;stroke-width:1.5;" x1="30" x2="337" y1="469.7188" y2="469.7188"/><text fill="#000000" font-family="sans-serif" font-size="14" font-weight="bold" lengthAdjust="spacing" textLength="294" x="34" y="462.6426">MII_Modul_Symptom_klinischer_Ph&#228;notyp</text></g><g id="elem_MII_Patient"><rect fill="#F1F1F1" height="64.8281" style="stroke:#181818;stroke-width:0.5;" width="128" x="1798" y="124.6094"/><text fill="#000000" font-family="sans-serif" font-size="14" lengthAdjust="spacing" textLength="69" x="1827.5" y="141.1426">MII_Patient</text><line style="stroke:#181818;stroke-width:0.5;" x1="1799" x2="1925" y1="146.2188" y2="146.2188"/><text fill="#000000" font-family="sans-serif" font-size="14" lengthAdjust="spacing" textLength="83" x="1804" y="164.752">o Geschlecht</text><text fill="#000000" font-family="sans-serif" font-size="14" lengthAdjust="spacing" textLength="116" x="1804" y="182.3613">o Geburtstag/Alter</text></g><g id="elem_Vitalstatus"><rect fill="#F1F1F1" height="64.8281" style="stroke:#181818;stroke-width:0.5;" width="79" x="1683.5" y="124.6094"/><text fill="#000000" font-family="sans-serif" font-size="14" lengthAdjust="spacing" textLength="65" x="1690.5" y="141.1426">Vitalstatus</text><line style="stroke:#181818;stroke-width:0.5;" x1="1684.5" x2="1761.5" y1="146.2188" y2="146.2188"/><text fill="#000000" font-family="sans-serif" font-size="14" lengthAdjust="spacing" textLength="53" x="1689.5" y="164.752">o Datum</text><text fill="#000000" font-family="sans-serif" font-size="14" lengthAdjust="spacing" textLength="52" x="1689.5" y="182.3613">o Status</text></g><g id="elem_MII_Diagnose"><rect fill="#F1F1F1" height="100.0469" style="stroke:#181818;stroke-width:0.5;" width="209" x="1889.5" y="269.6094"/><text fill="#000000" font-family="sans-serif" font-size="14" lengthAdjust="spacing" textLength="85" x="1951.5" y="286.1426">MII_Diagnose</text><line style="stroke:#181818;stroke-width:0.5;" x1="1890.5" x2="2097.5" y1="291.2188" y2="291.2188"/><text fill="#000000" font-family="sans-serif" font-size="14" lengthAdjust="spacing" textLength="112" x="1895.5" y="309.752">o code: ICD10GM</text><text fill="#000000" font-family="sans-serif" font-size="14" lengthAdjust="spacing" textLength="122" x="1895.5" y="327.3613">o code: Orphacode</text><text fill="#000000" font-family="sans-serif" font-size="14" lengthAdjust="spacing" textLength="128" x="1895.5" y="344.9707">o Alter bei Diagnose</text><text fill="#000000" font-family="sans-serif" font-size="14" lengthAdjust="spacing" textLength="197" x="1895.5" y="362.5801">o Status (Verdacht, gesichert..)</text></g><g id="elem_MII_Diagnose_SE"><rect fill="#F1F1F1" height="64.8281" style="stroke:#181818;stroke-width:0.5;" width="134" x="1699" y="468.6094"/><text fill="#000000" font-family="sans-serif" font-size="14" lengthAdjust="spacing" textLength="111" x="1710.5" y="485.1426">MII_Diagnose_SE</text><line style="stroke:#181818;stroke-width:0.5;" x1="1700" x2="1832" y1="490.2188" y2="490.2188"/><text fill="#000000" font-family="sans-serif" font-size="14" lengthAdjust="spacing" textLength="112" x="1705" y="508.752">o code: ICD10GM</text><text fill="#000000" font-family="sans-serif" font-size="14" lengthAdjust="spacing" textLength="122" x="1705" y="526.3613">o code: Orphacode</text></g><g id="elem_MII_MolGen_Variante_SE"><rect fill="#F1F1F1" height="47.2188" style="stroke:#181818;stroke-width:0.5;" width="175" x="724.5" y="477.6094"/><text fill="#000000" font-family="sans-serif" font-size="14" lengthAdjust="spacing" textLength="161" x="731.5" y="494.1426">MII_MolGen_Variante_SE</text><line style="stroke:#181818;stroke-width:0.5;" x1="725.5" x2="898.5" y1="499.2188" y2="499.2188"/><text fill="#000000" font-family="sans-serif" font-size="14" lengthAdjust="spacing" textLength="89" x="730.5" y="517.752">o code: HGVS</text></g><g id="elem_MII_Familienanamnese_SE"><rect fill="#F1F1F1" height="37.6094" style="stroke:#181818;stroke-width:0.5;" width="184" x="1161" y="482.1094"/><text fill="#000000" font-family="sans-serif" font-size="14" lengthAdjust="spacing" textLength="170" x="1168" y="498.6426">MII_Familienanamnese_SE</text><line style="stroke:#181818;stroke-width:0.5;" x1="1162" x2="1344" y1="503.7188" y2="503.7188"/></g><g id="elem_Familienmitglied"><rect fill="#F1F1F1" height="100.0469" style="stroke:#181818;stroke-width:0.5;" width="197" x="926.5" y="650.1094"/><text fill="#000000" font-family="sans-serif" font-size="14" lengthAdjust="spacing" textLength="101" x="974.5" y="666.6426">Familienmitglied</text><line style="stroke:#181818;stroke-width:0.5;" x1="927.5" x2="1122.5" y1="671.7188" y2="671.7188"/><text fill="#000000" font-family="sans-serif" font-size="14" lengthAdjust="spacing" textLength="185" x="932.5" y="690.252">o Verwandtschaftsverhaeltnis</text><text fill="#000000" font-family="sans-serif" font-size="14" lengthAdjust="spacing" textLength="83" x="932.5" y="707.8613">o Geschlecht</text><text fill="#000000" font-family="sans-serif" font-size="14" lengthAdjust="spacing" textLength="134" x="932.5" y="725.4707">o gleiche Erkrankung</text><text fill="#000000" font-family="sans-serif" font-size="14" lengthAdjust="spacing" textLength="134" x="932.5" y="743.0801">o andere Erkrankung</text></g><g id="elem_MII_Symptom_Observation_SE"><rect fill="#F1F1F1" height="135.2656" style="stroke:#181818;stroke-width:0.5;" width="283" x="1380.5" y="433.6094"/><text fill="#000000" font-family="sans-serif" font-size="14" lengthAdjust="spacing" textLength="194" x="1425" y="450.1426">MII_Symptom_Observation_SE</text><line style="stroke:#181818;stroke-width:0.5;" x1="1381.5" x2="1662.5" y1="455.2188" y2="455.2188"/><text fill="#000000" font-family="sans-serif" font-size="14" lengthAdjust="spacing" textLength="271" x="1386.5" y="473.752">o code: Human Phenotype Ontology (HPO)</text><text fill="#000000" font-family="sans-serif" font-size="14" lengthAdjust="spacing" textLength="173" x="1386.5" y="491.3613">o value: Presence/Absence</text><text fill="#000000" font-family="sans-serif" font-size="14" lengthAdjust="spacing" textLength="206" x="1386.5" y="508.9707">o date: Datum der Untersuchung</text><text fill="#000000" font-family="sans-serif" font-size="14" lengthAdjust="spacing" textLength="224" x="1386.5" y="526.5801">o period: Zeitraum der Symptomatik</text><text fill="#000000" font-family="sans-serif" font-size="14" lengthAdjust="spacing" textLength="230" x="1386.5" y="544.1895">o startAge: Alter bei Symptombeginn</text><text fill="#000000" font-family="sans-serif" font-size="14" lengthAdjust="spacing" textLength="129" x="1386.5" y="561.7988">o change: &#196;nderung</text></g><g id="elem_MII_Symptom_Condition_SE"><rect fill="#F1F1F1" height="37.6094" style="stroke:#181818;stroke-width:0.5;" width="191" x="934.5" y="482.1094"/><text fill="#000000" font-family="sans-serif" font-size="14" lengthAdjust="spacing" textLength="177" x="941.5" y="498.6426">MII_Symptom_Condition_SE</text><line style="stroke:#181818;stroke-width:0.5;" x1="935.5" x2="1124.5" y1="503.7188" y2="503.7188"/></g><g id="elem_Untersuchung"><rect fill="#F1F1F1" height="100.0469" style="stroke:#181818;stroke-width:0.5;" width="192" x="1045" y="269.6094"/><text fill="#000000" font-family="sans-serif" font-size="14" lengthAdjust="spacing" textLength="88" x="1097" y="286.1426">Untersuchung</text><line style="stroke:#181818;stroke-width:0.5;" x1="1046" x2="1236" y1="291.2188" y2="291.2188"/><text fill="#000000" font-family="sans-serif" font-size="14" lengthAdjust="spacing" textLength="53" x="1051" y="309.752">o Datum</text><text fill="#000000" font-family="sans-serif" font-size="14" lengthAdjust="spacing" textLength="180" x="1051" y="327.3613">o K&#246;rperliche_Untersuchung</text><text fill="#000000" font-family="sans-serif" font-size="14" lengthAdjust="spacing" textLength="78" x="1051" y="344.9707">o Diagnostik</text><text fill="#000000" font-family="sans-serif" font-size="14" lengthAdjust="spacing" textLength="107" x="1051" y="362.5801">o Therapiestatus</text></g><g id="elem_Therapiestatus"><rect fill="#F1F1F1" height="64.8281" style="stroke:#181818;stroke-width:0.5;" width="188" x="493" y="469.1094"/><text fill="#000000" font-family="sans-serif" font-size="14" lengthAdjust="spacing" textLength="95" x="539.5" y="485.6426">Therapiestatus</text><line style="stroke:#181818;stroke-width:0.5;" x1="494" x2="680" y1="490.7188" y2="490.7188"/><text fill="#000000" font-family="sans-serif" font-size="14" lengthAdjust="spacing" textLength="159" x="499" y="509.252">o Therapieempfehlungen</text><text fill="#000000" font-family="sans-serif" font-size="14" lengthAdjust="spacing" textLength="176" x="499" y="526.8613">o Durchgef&#252;hrte_Therapien</text></g><g id="elem_Therapieempfehlungen"><rect fill="#F1F1F1" height="82.4375" style="stroke:#181818;stroke-width:0.5;" width="161" x="722.5" y="659.1094"/><text fill="#000000" font-family="sans-serif" font-size="14" lengthAdjust="spacing" textLength="147" x="729.5" y="675.6426">Therapieempfehlungen</text><line style="stroke:#181818;stroke-width:0.5;" x1="723.5" x2="882.5" y1="680.7188" y2="680.7188"/><text fill="#000000" font-family="sans-serif" font-size="14" lengthAdjust="spacing" textLength="86" x="728.5" y="699.252">o Therapieart</text><text fill="#000000" font-family="sans-serif" font-size="14" lengthAdjust="spacing" textLength="63" x="728.5" y="716.8613">o off-label</text><text fill="#000000" font-family="sans-serif" font-size="14" lengthAdjust="spacing" textLength="52" x="728.5" y="734.4707">o Studie</text></g><g id="elem_Durchgef&#252;hrte_Therapien"><rect fill="#F1F1F1" height="135.2656" style="stroke:#181818;stroke-width:0.5;" width="178" x="493" y="632.6094"/><text fill="#000000" font-family="sans-serif" font-size="14" lengthAdjust="spacing" textLength="164" x="500" y="649.1426">Durchgef&#252;hrte_Therapien</text><line style="stroke:#181818;stroke-width:0.5;" x1="494" x2="670" y1="654.2188" y2="654.2188"/><text fill="#000000" font-family="sans-serif" font-size="14" lengthAdjust="spacing" textLength="86" x="499" y="672.752">o Therapieart</text><text fill="#000000" font-family="sans-serif" font-size="14" lengthAdjust="spacing" textLength="81" x="499" y="690.3613">o Startdatum</text><text fill="#000000" font-family="sans-serif" font-size="14" lengthAdjust="spacing" textLength="76" x="499" y="707.9707">o Enddatum</text><text fill="#000000" font-family="sans-serif" font-size="14" lengthAdjust="spacing" textLength="136" x="499" y="725.5801">o Grund_Beendigung</text><text fill="#000000" font-family="sans-serif" font-size="14" lengthAdjust="spacing" textLength="63" x="499" y="743.1895">o off-label</text><text fill="#000000" font-family="sans-serif" font-size="14" lengthAdjust="spacing" textLength="52" x="499" y="760.7988">o Studie</text></g><g id="elem_Koerpergewicht"><rect fill="#F1F1F1" height="37.6094" style="stroke:#181818;stroke-width:0.5;" width="112" x="1085" y="138.1094"/><text fill="#000000" font-family="sans-serif" font-size="14" lengthAdjust="spacing" textLength="98" x="1092" y="154.6426">Koerpergewicht</text><line style="stroke:#181818;stroke-width:0.5;" x1="1086" x2="1196" y1="159.7188" y2="159.7188"/></g><g id="elem_Koerpergroe&#223;e"><rect fill="#F1F1F1" height="37.6094" style="stroke:#181818;stroke-width:0.5;" width="111" x="1232.5" y="138.1094"/><text fill="#000000" font-family="sans-serif" font-size="14" lengthAdjust="spacing" textLength="97" x="1239.5" y="154.6426">Koerpergroe&#223;e</text><line style="stroke:#181818;stroke-width:0.5;" x1="1233.5" x2="1342.5" y1="159.7188" y2="159.7188"/></g><g id="elem_Laborparameter"><rect fill="#F1F1F1" height="37.6094" style="stroke:#181818;stroke-width:0.5;" width="116" x="913" y="138.1094"/><text fill="#000000" font-family="sans-serif" font-size="14" lengthAdjust="spacing" textLength="102" x="920" y="154.6426">Laborparameter</text><line style="stroke:#181818;stroke-width:0.5;" x1="914" x2="1028" y1="159.7188" y2="159.7188"/></g><g id="elem_MII_Studie"><rect fill="#F1F1F1" height="37.6094" style="stroke:#181818;stroke-width:0.5;" width="79" x="653.5" y="852.1094"/><text fill="#000000" font-family="sans-serif" font-size="14" lengthAdjust="spacing" textLength="65" x="660.5" y="868.6426">MII_Studie</text><line style="stroke:#181818;stroke-width:0.5;" x1="654.5" x2="731.5" y1="873.7188" y2="873.7188"/></g><g id="elem_MII_MolGen_Variante"><rect fill="#F1F1F1" height="47.2188" style="stroke:#181818;stroke-width:0.5;" width="149" x="1054.5" y="847.6094"/><text fill="#000000" font-family="sans-serif" font-size="14" lengthAdjust="spacing" textLength="135" x="1061.5" y="864.1426">MII_MolGen_Variante</text><line style="stroke:#181818;stroke-width:0.5;" x1="1055.5" x2="1202.5" y1="869.2188" y2="869.2188"/><text fill="#000000" font-family="sans-serif" font-size="14" lengthAdjust="spacing" textLength="89" x="1060.5" y="887.752">o code: HGVS</text></g><g id="elem_MII_MolGen_Familienanamnese"><rect fill="#F1F1F1" height="37.6094" style="stroke:#181818;stroke-width:0.5;" width="215" x="1238.5" y="852.1094"/><text fill="#000000" font-family="sans-serif" font-size="14" lengthAdjust="spacing" textLength="201" x="1245.5" y="868.6426">MII_MolGen_Familienanamnese</text><line style="stroke:#181818;stroke-width:0.5;" x1="1239.5" x2="1452.5" y1="873.7188" y2="873.7188"/></g><g id="elem_MII_Symptom_Observation"><rect fill="#F1F1F1" height="37.6094" style="stroke:#181818;stroke-width:0.5;" width="182" x="46" y="482.1094"/><text fill="#000000" font-family="sans-serif" font-size="14" lengthAdjust="spacing" textLength="168" x="53" y="498.6426">MII_Symptom_Observation</text><line style="stroke:#181818;stroke-width:0.5;" x1="47" x2="227" y1="503.7188" y2="503.7188"/></g><g id="elem_MII_Symptom_Condition"><rect fill="#F1F1F1" height="37.6094" style="stroke:#181818;stroke-width:0.5;" width="165" x="263.5" y="482.1094"/><text fill="#000000" font-family="sans-serif" font-size="14" lengthAdjust="spacing" textLength="151" x="270.5" y="498.6426">MII_Symptom_Condition</text><line style="stroke:#181818;stroke-width:0.5;" x1="264.5" x2="427.5" y1="503.7188" y2="503.7188"/></g><!--reverse link MII_Diagnose to MII_Diagnose_SE--><g id="link_MII_Diagnose_MII_Diagnose_SE"><path codeLine="100" d="M1871.39,336.6094 C1832.43,336.6094 1815.5,336.6094 1815.5,336.6094 C1815.5,336.6094 1815.5,420.2094 1815.5,468.2194 " fill="none" id="MII_Diagnose-backto-MII_Diagnose_SE" style="stroke:#181818;stroke-width:1.0;"/><polygon fill="none" points="1889.39,336.6094,1871.39,330.6094,1871.39,342.6094,1889.39,336.6094" style="stroke:#181818;stroke-width:1.0;"/></g><!--reverse link MII_MolGen_Variante to MII_MolGen_Variante_SE--><g id="link_MII_MolGen_Variante_MII_MolGen_Variante_SE"><path codeLine="101" d="M1036.48,871.6094 C968.14,871.6094 895.5,871.6094 895.5,871.6094 C895.5,871.6094 895.5,606.6194 895.5,524.8494 " fill="none" id="MII_MolGen_Variante-backto-MII_MolGen_Variante_SE" style="stroke:#181818;stroke-width:1.0;"/><polygon fill="none" points="1054.48,871.6094,1036.48,865.6094,1036.48,877.6094,1054.48,871.6094" style="stroke:#181818;stroke-width:1.0;"/></g><!--link MII_Familienanamnese_SE to MII_MolGen_Familienanamnese--><g id="link_MII_Familienanamnese_SE_MII_MolGen_Familienanamnese"><path codeLine="102" d="M1291.75,520.2194 C1291.75,583.8494 1291.75,770.0994 1291.75,833.8894 " fill="none" id="MII_Familienanamnese_SE-to-MII_MolGen_Familienanamnese" style="stroke:#181818;stroke-width:1.0;"/><polygon fill="none" points="1291.75,851.8894,1297.75,833.8894,1285.75,833.8894,1291.75,851.8894" style="stroke:#181818;stroke-width:1.0;"/></g><!--reverse link MII_Symptom_Observation to MII_Symptom_Observation_SE--><g id="link_MII_Symptom_Observation_MII_Symptom_Observation_SE"><path codeLine="103" d="M137,463.9294 C137,449.2894 137,449.6094 137,449.6094 C137,449.6094 1027.3,449.6094 1380.29,449.6094 " fill="none" id="MII_Symptom_Observation-backto-MII_Symptom_Observation_SE" style="stroke:#181818;stroke-width:1.0;"/><polygon fill="none" points="137,481.9294,143,463.9294,131,463.9294,137,481.9294" style="stroke:#181818;stroke-width:1.0;"/></g><!--link MII_Symptom_Condition_SE to MII_Symptom_Condition--><g id="link_MII_Symptom_Condition_SE_MII_Symptom_Condition"><path codeLine="104" d="M981.75,481.8994 C981.75,470.2494 981.75,457.6094 981.75,457.6094 C981.75,457.6094 346,457.6094 346,457.6094 C346,457.6094 346,452.2494 346,463.8994 " fill="none" id="MII_Symptom_Condition_SE-to-MII_Symptom_Condition" style="stroke:#181818;stroke-width:1.0;"/><polygon fill="none" points="346,481.8994,352,463.8994,340,463.8994,346,481.8994" style="stroke:#181818;stroke-width:1.0;"/></g><!--reverse link MII_Familienanamnese_SE to Familienmitglied--><g id="link_MII_Familienanamnese_SE_Familienmitglied"><path codeLine="106" d="M1182.25,532.2394 C1182.25,582.1694 1182.25,700.6094 1182.25,700.6094 C1182.25,700.6094 1155.29,700.6094 1123.7,700.6094 " fill="none" id="MII_Familienanamnese_SE-backto-Familienmitglied" style="stroke:#181818;stroke-width:1.0;"/><polygon fill="none" points="1182.25,520.2394,1178.25,526.2394,1182.25,532.2394,1186.25,526.2394,1182.25,520.2394" style="stroke:#181818;stroke-width:1.0;"/><text fill="#000000" font-family="sans-serif" font-size="13" lengthAdjust="spacing" textLength="20" x="1140.5484" y="541.1254">1..*</text><text fill="#000000" font-family="sans-serif" font-size="13" lengthAdjust="spacing" textLength="22" x="1131.4133" y="697.5879">1..1</text></g><!--link Laborparameter to Untersuchung--><g id="link_Laborparameter_Untersuchung"><path codeLine="107" d="M1029.02,157.6094 C1046.43,157.6094 1061,157.6094 1061,157.6094 C1061,157.6094 1061,280.4994 1061,317.3894 " fill="none" id="Laborparameter-to-Untersuchung" style="stroke:#181818;stroke-width:1.0;"/><polygon fill="none" points="1061,329.3894,1065,323.3894,1061,317.3894,1057,323.3894,1061,329.3894" style="stroke:#181818;stroke-width:1.0;"/><text fill="#000000" font-family="sans-serif" font-size="13" lengthAdjust="spacing" textLength="22" x="1037.0004" y="154.2802">0..1</text><text fill="#000000" font-family="sans-serif" font-size="13" lengthAdjust="spacing" textLength="20" x="1016.8125" y="327.4038">0..*</text></g><!--reverse link Untersuchung to MII_Diagnose_SE--><g id="link_Untersuchung_MII_Diagnose_SE"><path codeLine="108" d="M1153.11,303.6094 C1162.18,303.6094 1730.75,303.6094 1730.75,303.6094 C1730.75,303.6094 1730.75,412.3994 1730.75,468.4994 " fill="none" id="Untersuchung-backto-MII_Diagnose_SE" style="stroke:#181818;stroke-width:1.0;"/><polygon fill="none" points="1141.11,303.6094,1147.11,307.6094,1153.11,303.6094,1147.11,299.6094,1141.11,303.6094" style="stroke:#181818;stroke-width:1.0;"/><text fill="#000000" font-family="sans-serif" font-size="13" lengthAdjust="spacing" textLength="20" x="1103.8025" y="259.3711">0..*</text><text fill="#000000" font-family="sans-serif" font-size="13" lengthAdjust="spacing" textLength="20" x="1701.4172" y="457.6727">0..*</text></g><!--reverse link Untersuchung to MII_MolGen_Variante_SE--><g id="link_Untersuchung_MII_MolGen_Variante_SE"><path codeLine="109" d="M1128.94,319.6094 C1123.88,319.6094 812,319.6094 812,319.6094 C812,319.6094 812,428.1794 812,477.3794 " fill="none" id="Untersuchung-backto-MII_MolGen_Variante_SE" style="stroke:#181818;stroke-width:1.0;"/><polygon fill="none" points="1140.94,319.6094,1134.94,315.6094,1128.94,319.6094,1134.94,323.6094,1140.94,319.6094" style="stroke:#181818;stroke-width:1.0;"/><text fill="#000000" font-family="sans-serif" font-size="13" lengthAdjust="spacing" textLength="20" x="1046.496" y="259.0318">0..*</text><text fill="#000000" font-family="sans-serif" font-size="13" lengthAdjust="spacing" textLength="20" x="789.4375" y="466.7607">0..*</text></g><!--reverse link Untersuchung to MII_Symptom_Observation_SE--><g id="link_Untersuchung_MII_Symptom_Observation_SE"><path codeLine="110" d="M1217,358.6894 C1217,382.9694 1217,441.6094 1217,441.6094 C1217,441.6094 1300.57,441.6094 1380.21,441.6094 " fill="none" id="Untersuchung-backto-MII_Symptom_Observation_SE" style="stroke:#181818;stroke-width:1.0;"/><polygon fill="none" points="1217,346.6894,1213,352.6894,1217,358.6894,1221,352.6894,1217,346.6894" style="stroke:#181818;stroke-width:1.0;"/><text fill="#000000" font-family="sans-serif" font-size="13" lengthAdjust="spacing" textLength="20" x="1245.675" y="358.3683">0..*</text><text fill="#000000" font-family="sans-serif" font-size="13" lengthAdjust="spacing" textLength="20" x="1352.3833" y="435.6262">0..*</text></g><!--reverse link Untersuchung to MII_Familienanamnese_SE--><g id="link_Untersuchung_MII_Familienanamnese_SE"><path codeLine="111" d="M1189,358.8894 C1189,383.7894 1189,446.4394 1189,481.9494 " fill="none" id="Untersuchung-backto-MII_Familienanamnese_SE" style="stroke:#181818;stroke-width:1.0;"/><polygon fill="none" points="1189,346.8894,1185,352.8894,1189,358.8894,1193,352.8894,1189,346.8894" style="stroke:#181818;stroke-width:1.0;"/><text fill="#000000" font-family="sans-serif" font-size="13" lengthAdjust="spacing" textLength="20" x="1243.1" y="382.2776">0..*</text><text fill="#000000" font-family="sans-serif" font-size="13" lengthAdjust="spacing" textLength="20" x="1146.3375" y="471.2404">0..*</text></g><!--link Koerpergewicht to Untersuchung--><g id="link_Koerpergewicht_Untersuchung"><path codeLine="112" d="M1141,176.2994 C1141,211.7294 1141,274.1594 1141,300.2994 " fill="none" id="Koerpergewicht-to-Untersuchung" style="stroke:#181818;stroke-width:1.0;"/><polygon fill="none" points="1141,312.2994,1145,306.2994,1141,300.2994,1137,306.2994,1141,312.2994" style="stroke:#181818;stroke-width:1.0;"/><text fill="#000000" font-family="sans-serif" font-size="13" lengthAdjust="spacing" textLength="20" x="1118.3125" y="197.2015">0..*</text><text fill="#000000" font-family="sans-serif" font-size="13" lengthAdjust="spacing" textLength="20" x="1174" y="259.7742">0..*</text></g><!--link Koerpergroe?e to Untersuchung--><g id="link_Koerpergroe&#223;e_Untersuchung"><path codeLine="113" d="M1238.75,176.2994 C1238.75,219.0194 1238.75,306.4394 1238.75,309.5394 " fill="none" id="Koerpergroe&#223;e-to-Untersuchung" style="stroke:#181818;stroke-width:1.0;"/><polygon fill="none" points="1238.75,321.5394,1242.75,315.5394,1238.75,309.5394,1234.75,315.5394,1238.75,321.5394" style="stroke:#181818;stroke-width:1.0;"/><text fill="#000000" font-family="sans-serif" font-size="13" lengthAdjust="spacing" textLength="20" x="1204.3078" y="196.5125">0..*</text><text fill="#000000" font-family="sans-serif" font-size="13" lengthAdjust="spacing" textLength="20" x="1244.9793" y="318.6924">0..*</text></g><!--reverse link Untersuchung to MII_Symptom_Condition_SE--><g id="link_Untersuchung_MII_Symptom_Condition_SE"><path codeLine="114" d="M1096,341.7894 C1096,368.7394 1096,443.2594 1096,482.0194 " fill="none" id="Untersuchung-backto-MII_Symptom_Condition_SE" style="stroke:#181818;stroke-width:1.0;"/><polygon fill="none" points="1096,329.7894,1092,335.7894,1096,341.7894,1100,335.7894,1096,329.7894" style="stroke:#181818;stroke-width:1.0;"/><text fill="#000000" font-family="sans-serif" font-size="13" lengthAdjust="spacing" textLength="20" x="1016.875" y="329.7918">0..*</text><text fill="#000000" font-family="sans-serif" font-size="13" lengthAdjust="spacing" textLength="20" x="1093.15" y="471.3318">0..*</text></g><!--reverse link Untersuchung to Therapiestatus--><g id="link_Untersuchung_Therapiestatus"><path codeLine="115" d="M1066.5,376.8794 C1066.5,403.2494 1066.5,471.6094 1066.5,471.6094 C1066.5,471.6094 830.1,471.6094 689.28,471.6094 " fill="none" id="Untersuchung-backto-Therapiestatus" style="stroke:#181818;stroke-width:1.0;"/><polygon fill="none" points="1066.5,364.8794,1062.5,370.8794,1066.5,376.8794,1070.5,370.8794,1066.5,364.8794" style="stroke:#181818;stroke-width:1.0;"/><text fill="#000000" font-family="sans-serif" font-size="13" lengthAdjust="spacing" textLength="20" x="1025.9031" y="391.3962">0..*</text><text fill="#000000" font-family="sans-serif" font-size="13" lengthAdjust="spacing" textLength="20" x="689.28" y="469.1045">0..*</text></g><!--reverse link Therapiestatus to Therapieempfehlungen--><g id="link_Therapiestatus_Therapieempfehlungen"><path codeLine="116" d="M599.1,531.6094 C603.11,531.6094 719.5,531.6094 719.5,531.6094 C719.5,531.6094 719.5,605.0394 719.5,654.9594 " fill="none" id="Therapiestatus-backto-Therapieempfehlungen" style="stroke:#181818;stroke-width:1.0;"/><polygon fill="none" points="587.1,531.6094,593.1,535.6094,599.1,531.6094,593.1,527.6094,587.1,531.6094" style="stroke:#181818;stroke-width:1.0;"/><text fill="#000000" font-family="sans-serif" font-size="13" lengthAdjust="spacing" textLength="20" x="564.4394" y="555.3873">0..*</text><text fill="#000000" font-family="sans-serif" font-size="13" lengthAdjust="spacing" textLength="22" x="692.6273" y="649.7117">1..1</text></g><!--reverse link Therapiestatus to Durchgef?hrte_Therapien--><g id="link_Therapiestatus_Durchgef&#252;hrte_Therapien"><path codeLine="117" d="M582,541.2694 C582,558.8394 582,589.8194 582,628.2694 " fill="none" id="Therapiestatus-backto-Durchgef&#252;hrte_Therapien" style="stroke:#181818;stroke-width:1.0;"/><polygon fill="none" points="582,529.2694,578,535.2694,582,541.2694,586,535.2694,582,529.2694" style="stroke:#181818;stroke-width:1.0;"/><text fill="#000000" font-family="sans-serif" font-size="13" lengthAdjust="spacing" textLength="20" x="540.625" y="555.1529">0..*</text><text fill="#000000" font-family="sans-serif" font-size="13" lengthAdjust="spacing" textLength="22" x="559.4328" y="621.65">1..1</text></g><!--reverse link Therapieempfehlungen to MII_Studie--><g id="link_Therapieempfehlungen_MII_Studie"><path codeLine="118" d="M723.5,748.2094 C723.5,770.3594 723.5,820.4294 723.5,852.0594 " fill="none" id="Therapieempfehlungen-backto-MII_Studie" style="stroke:#181818;stroke-width:1.0;"/><polygon fill="none" points="723.5,736.2094,719.5,742.2094,723.5,748.2094,727.5,742.2094,723.5,736.2094" style="stroke:#181818;stroke-width:1.0;"/><text fill="#000000" font-family="sans-serif" font-size="13" lengthAdjust="spacing" textLength="20" x="694.2703" y="754.2479">0..*</text><text fill="#000000" font-family="sans-serif" font-size="13" lengthAdjust="spacing" textLength="20" x="709.7781" y="841.3841">0..*</text></g><!--reverse link Durchgef?hrte_Therapien to MII_Studie--><g id="link_Durchgef&#252;hrte_Therapien_MII_Studie"><path codeLine="119" d="M666.25,775.4494 C666.25,793.8394 666.25,826.2694 666.25,851.9294 " fill="none" id="Durchgef&#252;hrte_Therapien-backto-MII_Studie" style="stroke:#181818;stroke-width:1.0;"/><polygon fill="none" points="666.25,763.4494,662.25,769.4494,666.25,775.4494,670.25,769.4494,666.25,763.4494" style="stroke:#181818;stroke-width:1.0;"/><text fill="#000000" font-family="sans-serif" font-size="13" lengthAdjust="spacing" textLength="20" x="678.9148" y="786.5366">0..*</text><text fill="#000000" font-family="sans-serif" font-size="13" lengthAdjust="spacing" textLength="20" x="634.9953" y="841.2143">0..*</text></g><!--SRC=[hLRDRkCs4BxhAGZlPRUeiyxkpUWbzTy6kq4Ck9j3Bm8bZINM52bGL89Wczk-HozzXfvwyujrg3zJFtJgeeV0DcVcuyp7cM-I7vZ8gA8f-S84wESCY5GwaPwdcUP0xcHKy4UfyZ2X1RcxlIKhzGHCWof4dAV6IdR0DGX0oq5HSK0322-ZuO76G2OOuoyfEg0pSExNthxjFI7VF8-G9iQ4R47bKf0t7pyk5klrDxGI8eFV8DILcMe6GfFAW2Qo0SoHGvXewoWebCurZT_VuANAAoqlDjO3qvIZXovoOe5XmaNQ_jgLzZhOgn0wzPKi-Kj6Oo5pc3HPaq7QZOjrLOYqpCdjOdazszprJkzLbb3pjJqlwo01CD90zR8aRnz0HHHf-974aBCm0QMlhjwrfUFVUFhZ3_DclLwjFdnmLkBlLl-fc9S-u9ta6n3-0rMC2btY3e0_RHvsuz5hcZAE7K45JGMKQTakZJbbEiRFo496kfweYBJfyBtE7q4b59aGB3_NMZ47GwtLywq9mK0DB8ECTyzffcNgtmSvg4TiPod6QovIAiWs0I7ByRmNMd8PFvEtdxRtxrhdHyeBzDugB5w4yFucA3zRUuGZEA_wcc1-v2johF8YJEpKCr1CHdFoAqwuehLddIXcU22aTSMPKVecHinJIzQU0SHCY5CP2HN6x_ZT4FCg7mif8bQpuTbETiREKVry_4jX5TmyZZzQOzsuM4rxz0lE2CqOvFQSMpTtxTRTZG7IR0y9hvIllQXGOHB3_lXteh2V6r_XnhTXXfSWt-sPtE-dd0R0hUal8ZOoMguioFaBTkPvemwrAn5r3pRuc97_Cm0-M6nJ_6fs3W6zNNn5mPdDbilPh2CudoMOLutXYJL3sBCe2SS_m0tzXGPIjU1TOIvjvH84ioIS65KH3f2oXPigNxnn1DGuE1ISOYMuR5bkn1a9t2EF0OuUrZPnRhoUFbwWZNLaNoBhGaShhMVnm9ceizmcnpzB1N9dEA9ehmvvHPQXgxCUV_fz6iadCUslcjglpqNZFdLiacvOdmWJNcHryFWYSPHd8XMB4pqz8-czyBRq-jgpukV8Y4okhwv-c129IPklrvF1XiDWM_xcyvFkaSciZZRNcnyOFnY2rwEdpTVX8rqOFFfY5s8uoRyGPxm1kY3EBJEa5dyCrEl_06i5xsAmKTOwZTS7xUs_8LBFmVoNq3qwOTWxxeHK3NlToewjsaTqRhPnr3FhUEp2-RnIym6QnLqZzoxeVu_XUQY2_m00]--></g></svg>