<svg xmlns="http://www.w3.org/2000/svg" xmlns:xlink="http://www.w3.org/1999/xlink" contentStyleType="text/css" data-diagram-type="CLASS" height="578px" preserveAspectRatio="none" style="width:365px;height:578px;" version="1.1" viewBox="0 0 365 578" width="365px" zoomAndPan="magnify"><title>Was die beiden Profile unterscheidet</title><defs/><g><g class="title" data-source-line="17"><text fill="#000000" font-family="Helvetica" font-size="14" font-weight="bold" lengthAdjust="spacing" textLength="245.0547" x="53.2217" y="20.7803">Was die beiden Profile unterscheidet</text></g><!--class C--><g class="entity" data-entity="C" data-source-line="19" data-uid="ent0002" id="entity_C"><rect fill="#FFFFFF" height="166" rx="2.5" ry="2.5" style="stroke:#4A86E8;stroke-width:0.5;" width="292.793" x="60.07" y="42"/><rect fill="#EEF4FD" height="30" rx="2.5" ry="2.5" style="stroke:#EEF4FD;stroke-width:0.5;" width="292.793" x="60.07" y="42"/><rect fill="#EEF4FD" height="2.5" style="stroke:#EEF4FD;stroke-width:0.5;" width="292.793" x="60.07" y="69.5"/><rect fill="none" height="166" rx="2.5" ry="2.5" style="stroke:#4A86E8;stroke-width:0.5;" width="292.793" x="60.07" y="42"/><ellipse cx="109.7536" cy="57" fill="#ADD1B2" rx="10" ry="10" style="stroke:#181818;stroke-width:1;"/><path d="M111.5876,61.248 Q111.1774,61.459 110.7263,61.5645 Q110.2751,61.6699 109.777,61.6699 Q108.0075,61.6699 107.0759,60.5039 Q106.1442,59.3379 106.1442,57.1348 Q106.1442,54.9258 107.0759,53.7598 Q108.0075,52.5938 109.777,52.5938 Q110.2751,52.5938 110.7321,52.6992 Q111.1891,52.8047 111.5876,53.0156 L111.5876,54.9375 Q111.1423,54.5273 110.7233,54.3369 Q110.3044,54.1465 109.8591,54.1465 Q108.9098,54.1465 108.4264,54.8994 Q107.943,55.6523 107.943,57.1348 Q107.943,58.6113 108.4264,59.3643 Q108.9098,60.1172 109.8591,60.1172 Q110.3044,60.1172 110.7233,59.9268 Q111.1423,59.7363 111.5876,59.3262 Z " fill="#000000"/><text fill="#1A1A1A" font-family="Helvetica" font-size="12" lengthAdjust="spacing" textLength="185.4258" x="128.7536" y="60.2402">MII_PR_Seltene_ClinicalDiagnosis</text><line style="stroke:#4A86E8;stroke-width:0.5;" x1="61.07" x2="351.863" y1="72" y2="72"/><text fill="#000000" font-family="Helvetica" font-size="12" lengthAdjust="spacing" textLength="98.0449" x="66.07" y="85.2402">verificationStatus :</text><text fill="#000000" font-family="Helvetica" font-size="12" font-weight="bold" lengthAdjust="spacing" textLength="64.0137" x="167.4489" y="85.2402">provisional</text><text fill="#000000" font-family="Helvetica" font-size="12" lengthAdjust="spacing" textLength="61.8164" x="234.7966" y="85.2402">| differential</text><line style="stroke:#4A86E8;stroke-width:1;" x1="61.07" x2="351.863" y1="92" y2="92"/><text fill="#000000" font-family="Helvetica" font-size="12" lengthAdjust="spacing" textLength="120.7383" x="66.07" y="105.2402">code.coding[icd10-gm]</text><text fill="#000000" font-family="Helvetica" font-size="12" lengthAdjust="spacing" textLength="118.7578" x="66.07" y="117.2402">code.coding[orphanet]</text><text fill="#000000" font-family="Helvetica" font-size="12" lengthAdjust="spacing" textLength="68.0508" x="66.07" y="129.2402">code.coding[</text><text fill="#000000" font-family="Helvetica" font-size="12" font-weight="bold" lengthAdjust="spacing" textLength="21.9902" x="134.1208" y="129.2402">hpo</text><text fill="#000000" font-family="Helvetica" font-size="12" lengthAdjust="spacing" textLength="106.0605" x="156.111" y="129.2402">]      &#171;eigener Slice&#187;</text><line style="stroke:#4A86E8;stroke-width:1;" x1="61.07" x2="351.863" y1="136" y2="136"/><text fill="#000000" font-family="Helvetica" font-size="12" lengthAdjust="spacing" textLength="280.793" x="66.07" y="149.2402">category : ClinicalDiagnosisCategoryVS  (extensible)</text><line style="stroke:#4A86E8;stroke-width:1;" x1="61.07" x2="351.863" y1="156" y2="156"/><text fill="#000000" font-family="Helvetica" font-size="12" lengthAdjust="spacing" textLength="95.3906" x="66.07" y="169.2402">evidence.detail &#8594;</text><text fill="#000000" font-family="Helvetica" font-size="12" font-weight="bold" lengthAdjust="spacing" textLength="158.6895" x="164.7946" y="169.2402">HPO-Symptom-Observation</text><line style="stroke:#4A86E8;stroke-width:1;" x1="61.07" x2="351.863" y1="176" y2="176"/><text fill="#000000" font-family="Helvetica" font-size="12" lengthAdjust="spacing" textLength="122.7422" x="66.07" y="189.2402">extension[ageOfOnset]</text><text fill="#000000" font-family="Helvetica" font-size="12" lengthAdjust="spacing" textLength="155.4316" x="66.07" y="201.2402">extension[inheritancePattern]</text></g><!--class G--><g class="entity" data-entity="G" data-source-line="34" data-uid="ent0003" id="entity_G"><rect fill="#FFFFFF" height="190" rx="2.5" ry="2.5" style="stroke:#4A86E8;stroke-width:0.5;" width="304.0781" x="54.42" y="312"/><rect fill="#EEF4FD" height="30" rx="2.5" ry="2.5" style="stroke:#EEF4FD;stroke-width:0.5;" width="304.0781" x="54.42" y="312"/><rect fill="#EEF4FD" height="2.5" style="stroke:#EEF4FD;stroke-width:0.5;" width="304.0781" x="54.42" y="339.5"/><rect fill="none" height="190" rx="2.5" ry="2.5" style="stroke:#4A86E8;stroke-width:0.5;" width="304.0781" x="54.42" y="312"/><ellipse cx="108.4073" cy="327" fill="#ADD1B2" rx="10" ry="10" style="stroke:#181818;stroke-width:1;"/><path d="M110.2413,331.248 Q109.8311,331.459 109.38,331.5645 Q108.9288,331.6699 108.4307,331.6699 Q106.6612,331.6699 105.7296,330.5039 Q104.7979,329.3379 104.7979,327.1348 Q104.7979,324.9258 105.7296,323.7598 Q106.6612,322.5938 108.4307,322.5938 Q108.9288,322.5938 109.3858,322.6992 Q109.8429,322.8047 110.2413,323.0156 L110.2413,324.9375 Q109.796,324.5273 109.377,324.3369 Q108.9581,324.1465 108.5128,324.1465 Q107.5636,324.1465 107.0802,324.8994 Q106.5968,325.6523 106.5968,327.1348 Q106.5968,328.6113 107.0802,329.3643 Q107.5636,330.1172 108.5128,330.1172 Q108.9581,330.1172 109.377,329.9268 Q109.796,329.7363 110.2413,329.3262 Z " fill="#000000"/><text fill="#1A1A1A" font-family="Helvetica" font-size="12" lengthAdjust="spacing" textLength="188.1035" x="127.4073" y="330.2402">MII_PR_Seltene_GeneticDiagnosis</text><line style="stroke:#4A86E8;stroke-width:0.5;" x1="55.42" x2="357.4981" y1="342" y2="342"/><text fill="#000000" font-family="Helvetica" font-size="12" lengthAdjust="spacing" textLength="98.0449" x="60.42" y="355.2402">verificationStatus :</text><text fill="#000000" font-family="Helvetica" font-size="12" font-weight="bold" lengthAdjust="spacing" textLength="58.0078" x="161.7989" y="355.2402">confirmed</text><line style="stroke:#4A86E8;stroke-width:1;" x1="55.42" x2="357.4981" y1="362" y2="362"/><text fill="#000000" font-family="Helvetica" font-size="12" lengthAdjust="spacing" textLength="120.7383" x="60.42" y="375.2402">code.coding[icd10-gm]</text><text fill="#000000" font-family="Helvetica" font-size="12" lengthAdjust="spacing" textLength="118.7578" x="60.42" y="387.2402">code.coding[orphanet]</text><text fill="#000000" font-family="Helvetica" font-size="12" lengthAdjust="spacing" textLength="68.0508" x="60.42" y="399.2402">code.coding[</text><text fill="#000000" font-family="Helvetica" font-size="12" font-weight="bold" lengthAdjust="spacing" textLength="32.0039" x="128.4708" y="399.2402">omim</text><text fill="#000000" font-family="Helvetica" font-size="12" lengthAdjust="spacing" textLength="102.7266" x="160.4747" y="399.2402">]     &#171;eigener Slice&#187;</text><line style="stroke:#4A86E8;stroke-width:1;" x1="55.42" x2="357.4981" y1="406" y2="406"/><text fill="#000000" font-family="Helvetica" font-size="12" lengthAdjust="spacing" textLength="236.1504" x="60.42" y="419.2402">category : SCT#782964007 Genetic disease</text><text fill="#000000" font-family="Helvetica" font-size="12" font-weight="bold" lengthAdjust="spacing" textLength="44.6602" x="303.2384" y="419.2402">(Pflicht)</text><line style="stroke:#4A86E8;stroke-width:1;" x1="55.42" x2="357.4981" y1="426" y2="426"/><text fill="#000000" font-family="Helvetica" font-size="12" lengthAdjust="spacing" textLength="95.3906" x="60.42" y="439.2402">evidence.detail &#8594;</text><text fill="#000000" font-family="Helvetica" font-size="12" font-weight="bold" lengthAdjust="spacing" textLength="95.3496" x="159.1446" y="439.2402">MolGen-Variante</text><text fill="#000000" font-family="Helvetica" font-size="12" lengthAdjust="spacing" textLength="95.3906" x="60.42" y="451.2402">evidence.detail &#8594;</text><text fill="#000000" font-family="Helvetica" font-size="12" font-weight="bold" lengthAdjust="spacing" textLength="193.3535" x="159.1446" y="451.2402">MolGen-DiagnostischeImplikation</text><line style="stroke:#4A86E8;stroke-width:1;" x1="55.42" x2="357.4981" y1="458" y2="458"/><text fill="#000000" font-family="Helvetica" font-size="12" lengthAdjust="spacing" textLength="126.0762" x="60.42" y="471.2402">extension[geneticBasis]</text><text fill="#000000" font-family="Helvetica" font-size="12" lengthAdjust="spacing" textLength="155.4316" x="60.42" y="483.2402">extension[inheritancePattern]</text><text fill="#000000" font-family="Helvetica" font-size="12" lengthAdjust="spacing" textLength="118.084" x="60.42" y="495.2402">extension[penetrance]</text></g><g class="entity" data-entity="GMN5" data-source-line="54" data-uid="ent0006" id="entity_GMN5"><path d="M104.28,243 L104.28,277 A0,0 0 0 0 104.28,277 L308.6491,277 A0,0 0 0 0 308.6491,277 L308.6491,253 L298.6491,243 L210.46,243 L206.46,208.15 L202.46,243 L104.28,243 A0,0 0 0 0 104.28,243" fill="#FEFFDD" style="stroke:#181818;stroke-width:0.5;"/><path d="M298.6491,243 L298.6491,253 L308.6491,253 L298.6491,243" fill="#FEFFDD" style="stroke:#181818;stroke-width:0.5;"/><text fill="#000000" font-family="Helvetica" font-size="12" lengthAdjust="spacing" textLength="78.0293" x="110.28" y="257.2402">Belegt sich mit</text><text fill="#000000" font-family="Helvetica" font-size="12" font-weight="bold" lengthAdjust="spacing" textLength="61.3418" x="191.6433" y="257.2402">Phaenotyp</text><text fill="#000000" font-family="Helvetica" font-size="12" lengthAdjust="spacing" textLength="37.3301" x="256.3191" y="257.2402">(HPO).</text><text fill="#000000" font-family="Helvetica" font-size="12" lengthAdjust="spacing" textLength="115.4063" x="110.28" y="269.2402">Kategorie ist optional.</text></g><g class="entity" data-entity="GMN8" data-source-line="59" data-uid="ent0009" id="entity_GMN8"><path d="M104.6,537 L104.6,571 A0,0 0 0 0 104.6,571 L308.3246,571 A0,0 0 0 0 308.3246,571 L308.3246,547 L298.3246,537 L210.46,537 L206.46,502.3 L202.46,537 L104.6,537 A0,0 0 0 0 104.6,537" fill="#FEFFDD" style="stroke:#181818;stroke-width:0.5;"/><path d="M298.3246,537 L298.3246,547 L308.3246,547 L298.3246,537" fill="#FEFFDD" style="stroke:#181818;stroke-width:0.5;"/><text fill="#000000" font-family="Helvetica" font-size="12" lengthAdjust="spacing" textLength="78.0293" x="110.6" y="551.2402">Belegt sich mit</text><text fill="#000000" font-family="Helvetica" font-size="12" font-weight="bold" lengthAdjust="spacing" textLength="98.0273" x="191.9633" y="551.2402">Molekulargenetik</text><text fill="#000000" font-family="Helvetica" font-size="12" lengthAdjust="spacing" textLength="3.334" x="289.9906" y="551.2402">.</text><text fill="#000000" font-family="Helvetica" font-size="12" lengthAdjust="spacing" textLength="66.7031" x="110.6" y="563.2402">Kategorie ist</text><text fill="#000000" font-family="Helvetica" font-size="12" font-weight="bold" lengthAdjust="spacing" textLength="36.668" x="180.6371" y="563.2402">Pflicht</text><text fill="#000000" font-family="Helvetica" font-size="12" lengthAdjust="spacing" textLength="3.334" x="217.3051" y="563.2402">.</text></g><!--link C to G--><!--SRC=[fLJDJjj04BxxAKPm0Amw0aI18eHKGaaYH8bmHGyeGXDxRA-othLsrw7GLkgf3r3r2NcIpje1KaXffThI7kRdsvdlcvqLE9522PiK13dbfFXKv5h3aS1SQKjmz-qdaB7aRXsaWc1C8kLGYSfd7CVzQA2iGtLBAbW1h3D8oK1CmX4a7Zz16RN0IPIsgC96USqmaDOcAO24OgZOcNhYQZCbaqiIIT5XlBWoc1IAQcTGSdq5IaTg3rHjuBW_E8_UIIf9EOLyleAXqPcGqU38GgrIwEgKR2UGb3bm6ep82z-4eSG9hG8x4Qf2WoMCCPdaHdDELqjjW6zJbbsCF1Tb2qprjL0vP2WjpNbIoh2MxbWhzvuhWJx9gMyO5yV4ufPWOtFE-TOOVTtUlVow-UQSYKHhuNC0SAWDipkBsyBTRThrrYVLBsVDnvu-8SS_ynDbMrdAVb_CpBQ1_W- -1e4JJX9yH3klTyiiCQsEfu4dXAqk2DhIbau7WwlX-LLCNXswwivqFxgNUmaOhTkqmFAAZ9rUWTYXgotiGHXMHa-5PHlAC8GlV7MMaUTVeEIiAE8ZOJaxVB02bo99DzQZl1mziMjJ5SZ3zjGUXaMbmt04pRU_pqFdXv8dLOg4uE3WuH9qb6jpmrKzQwCxyrt40AlqYNkrOYnfxJwNffwhX3hC3Ge9Tzz_S6lzuLaKtvILqsLqDhPafatpOVYGrY9fTOavdMLdohRrFzg5AfWsVcK93T6n0chabLhCVgzzRB-Jttk9_4IhJ9YIqiUQ_ezhNOhodkn_uphkVbZUsTryixsrlhu3inPu2YmXBo6kSNMOSNRXrkPuMqZtgPQS7bsW4SZ3seI_63aZgbryWxAIOl97WMQBx12PrxzBDE-lVARnxaQwBaINXKYvgb6pbg83w0M1qhmrnzhng83EeEiVDqdA7LZk7KhXkEnXWSI1DnK_b5KUhhKEXvsqLFA35TQ1hbppb3e1yHhqgC-mUmkncHAQr19Ds-Wa39-3SmMj5DxvWFyB]--></g></svg>