<?xml version="1.0" encoding="us-ascii" standalone="no"?><svg xmlns="http://www.w3.org/2000/svg" xmlns:xlink="http://www.w3.org/1999/xlink" contentStyleType="text/css" height="1598px" preserveAspectRatio="none" style="width:1915px;height:1598px;background:#F8F9FA;" version="1.1" viewBox="0 0 1915 1598" width="1915px" zoomAndPan="magnify"><defs><filter height="300%" id="fkhwci8cz1gxd" width="300%" x="-1" y="-1"><feGaussianBlur result="blurOut" stdDeviation="2.0"/><feColorMatrix in="blurOut" result="blurOut2" type="matrix" values="0 0 0 0 0 0 0 0 0 0 0 0 0 0 0 0 0 0 .4 0"/><feOffset dx="4.0" dy="4.0" in="blurOut2" result="blurOut3"/><feBlend in="SourceGraphic" in2="blurOut3" mode="normal"/></filter></defs><g><rect fill="#F8F9FA" height="1598" style="stroke:none;stroke-width:1.0;" width="1915" x="0" y="0"/><!--class condition-cataract--><g id="elem_condition-cataract"><rect codeLine="48" fill="#DC2626" filter="url(#fkhwci8cz1gxd)" height="164.3594" id="condition-cataract" rx="5" ry="5" style="stroke:#DC2626;stroke-width:0.5;" width="197" x="177" y="7"/><ellipse cx="215.4" cy="28.3516" fill="#ADD1B2" rx="11" ry="11" style="stroke:#181818;stroke-width:1.0;"/><path d="M218.1656,24.2266 Q218.3219,24.0078 218.5094,23.8984 Q218.6969,23.7891 218.9156,23.7891 Q219.2906,23.7891 219.525,24.0547 Q219.7594,24.3047 219.7594,24.9141 L219.7594,26.3672 Q219.7594,26.9766 219.525,27.2422 Q219.2906,27.5078 218.9156,27.5078 Q218.5719,27.5078 218.3688,27.3047 Q218.1656,27.1172 218.0563,26.6016 Q218.0094,26.2422 217.8219,26.0547 Q217.4938,25.6797 216.8844,25.4609 Q216.275,25.2422 215.65,25.2422 Q214.8844,25.2422 214.2438,25.5703 Q213.6188,25.8984 213.1188,26.6484 Q212.6344,27.3984 212.6344,28.4297 L212.6344,29.5234 Q212.6344,30.7578 213.525,31.5859 Q214.4156,32.3984 216.0094,32.3984 Q216.9469,32.3984 217.6031,32.1484 Q217.9938,31.9922 218.4156,31.5547 Q218.6813,31.2891 218.8219,31.2109 Q218.9781,31.1328 219.1813,31.1328 Q219.5094,31.1328 219.7594,31.3984 Q220.025,31.6484 220.025,31.9922 Q220.025,32.3359 219.6813,32.7422 Q219.1813,33.3203 218.3844,33.6484 Q217.3063,34.1016 216.0094,34.1016 Q214.4938,34.1016 213.2906,33.4766 Q212.3063,32.9766 211.6188,31.9141 Q210.9313,30.8359 210.9313,29.5547 L210.9313,28.3984 Q210.9313,27.0703 211.5406,25.9297 Q212.1656,24.7734 213.2594,24.1641 Q214.3531,23.5391 215.5875,23.5391 Q216.3219,23.5391 216.9625,23.7109 Q217.6188,23.8672 218.1656,24.2266 Z " fill="#000000"/><text fill="#000000" font-family="sans-serif" font-size="12" font-style="italic" lengthAdjust="spacing" textLength="67" x="257.6" y="24.457">&#171;Condition&#187;</text><text fill="#FFFFFF" font-family="sans-serif" font-size="14" lengthAdjust="spacing" textLength="113" x="234.6" y="41.627">condition-cataract</text><line style="stroke:#DC2626;stroke-width:0.5;" x1="178" x2="373" y1="49.7031" y2="49.7031"/><text fill="#000000" font-family="sans-serif" font-size="14" font-weight="bold" lengthAdjust="spacing" textLength="119" x="183" y="68.2363">Katarakt bilateral</text><text fill="#000000" font-family="sans-serif" font-size="14" lengthAdjust="spacing" textLength="102" x="183" y="85.8457">Status: resolved</text><text fill="#000000" font-family="sans-serif" font-size="14" lengthAdjust="spacing" textLength="89" x="183" y="103.4551">ICD-10: H26.9</text><text fill="#000000" font-family="sans-serif" font-size="14" lengthAdjust="spacing" textLength="163" x="183" y="121.0645">Erstdiagnose: 15.10.2024</text><text fill="#000000" font-family="sans-serif" font-size="14" lengthAdjust="spacing" textLength="128" x="183" y="138.6738">Z.n. OP: 12.11.2024</text><text fill="#000000" font-family="sans-serif" font-size="14" lengthAdjust="spacing" textLength="185" x="183" y="156.2832">&#8594; Anlass f&#252;r ZSE-Vorstellung</text><line style="stroke:#DC2626;stroke-width:0.5;" x1="178" x2="373" y1="163.3594" y2="163.3594"/></g><!--class condition-marfan-suspected--><g id="elem_condition-marfan-suspected"><rect codeLine="57" fill="#DC2626" filter="url(#fkhwci8cz1gxd)" height="164.3594" id="condition-marfan-suspected" rx="5" ry="5" style="stroke:#DC2626;stroke-width:0.5;" width="220" x="158.5" y="249"/><ellipse cx="178.9" cy="270.3516" fill="#ADD1B2" rx="11" ry="11" style="stroke:#181818;stroke-width:1.0;"/><path d="M181.6656,266.2266 Q181.8219,266.0078 182.0094,265.8984 Q182.1969,265.7891 182.4156,265.7891 Q182.7906,265.7891 183.025,266.0547 Q183.2594,266.3047 183.2594,266.9141 L183.2594,268.3672 Q183.2594,268.9766 183.025,269.2422 Q182.7906,269.5078 182.4156,269.5078 Q182.0719,269.5078 181.8688,269.3047 Q181.6656,269.1172 181.5563,268.6016 Q181.5094,268.2422 181.3219,268.0547 Q180.9938,267.6797 180.3844,267.4609 Q179.775,267.2422 179.15,267.2422 Q178.3844,267.2422 177.7438,267.5703 Q177.1188,267.8984 176.6188,268.6484 Q176.1344,269.3984 176.1344,270.4297 L176.1344,271.5234 Q176.1344,272.7578 177.025,273.5859 Q177.9156,274.3984 179.5094,274.3984 Q180.4469,274.3984 181.1031,274.1484 Q181.4938,273.9922 181.9156,273.5547 Q182.1813,273.2891 182.3219,273.2109 Q182.4781,273.1328 182.6813,273.1328 Q183.0094,273.1328 183.2594,273.3984 Q183.525,273.6484 183.525,273.9922 Q183.525,274.3359 183.1813,274.7422 Q182.6813,275.3203 181.8844,275.6484 Q180.8063,276.1016 179.5094,276.1016 Q177.9938,276.1016 176.7906,275.4766 Q175.8063,274.9766 175.1188,273.9141 Q174.4313,272.8359 174.4313,271.5547 L174.4313,270.3984 Q174.4313,269.0703 175.0406,267.9297 Q175.6656,266.7734 176.7594,266.1641 Q177.8531,265.5391 179.0875,265.5391 Q179.8219,265.5391 180.4625,265.7109 Q181.1188,265.8672 181.6656,266.2266 Z " fill="#000000"/><text fill="#000000" font-family="sans-serif" font-size="12" font-style="italic" lengthAdjust="spacing" textLength="67" x="248.6" y="266.457">&#171;Condition&#187;</text><text fill="#FFFFFF" font-family="sans-serif" font-size="14" lengthAdjust="spacing" textLength="176" x="194.1" y="283.627">condition-marfan-suspected</text><line style="stroke:#DC2626;stroke-width:0.5;" x1="159.5" x2="377.5" y1="291.7031" y2="291.7031"/><text fill="#000000" font-family="sans-serif" font-size="14" font-weight="bold" lengthAdjust="spacing" textLength="208" x="164.5" y="310.2363">Verdacht auf Marfan-Syndrom</text><text fill="#000000" font-family="sans-serif" font-size="14" lengthAdjust="spacing" textLength="127" x="164.5" y="327.8457">clinicalStatus: active</text><text fill="#000000" font-family="sans-serif" font-size="14" lengthAdjust="spacing" textLength="184" x="164.5" y="345.4551">verificationStatus: provisional</text><text fill="#000000" font-family="sans-serif" font-size="14" lengthAdjust="spacing" textLength="91" x="164.5" y="363.0645">ICD-10: Q87.4</text><text fill="#000000" font-family="sans-serif" font-size="14" lengthAdjust="spacing" textLength="157" x="164.5" y="380.6738">Feststellung: 10.12.2024</text><text fill="#000000" font-family="sans-serif" font-size="14" lengthAdjust="spacing" textLength="75" x="164.5" y="398.2832">Quelle: ZSE</text><line style="stroke:#DC2626;stroke-width:0.5;" x1="159.5" x2="377.5" y1="405.3594" y2="405.3594"/></g><!--class clinical-impression-001--><g id="elem_clinical-impression-001"><rect codeLine="66" fill="#FACC15" filter="url(#fkhwci8cz1gxd)" height="146.75" id="clinical-impression-001" rx="5" ry="5" style="stroke:#FACC15;stroke-width:0.5;" width="270" x="34.5" y="491"/><ellipse cx="93.25" cy="512.3516" fill="#ADD1B2" rx="11" ry="11" style="stroke:#181818;stroke-width:1.0;"/><path d="M96.0156,508.2266 Q96.1719,508.0078 96.3594,507.8984 Q96.5469,507.7891 96.7656,507.7891 Q97.1406,507.7891 97.375,508.0547 Q97.6094,508.3047 97.6094,508.9141 L97.6094,510.3672 Q97.6094,510.9766 97.375,511.2422 Q97.1406,511.5078 96.7656,511.5078 Q96.4219,511.5078 96.2188,511.3047 Q96.0156,511.1172 95.9063,510.6016 Q95.8594,510.2422 95.6719,510.0547 Q95.3438,509.6797 94.7344,509.4609 Q94.125,509.2422 93.5,509.2422 Q92.7344,509.2422 92.0938,509.5703 Q91.4688,509.8984 90.9688,510.6484 Q90.4844,511.3984 90.4844,512.4297 L90.4844,513.5234 Q90.4844,514.7578 91.375,515.5859 Q92.2656,516.3984 93.8594,516.3984 Q94.7969,516.3984 95.4531,516.1484 Q95.8438,515.9922 96.2656,515.5547 Q96.5313,515.2891 96.6719,515.2109 Q96.8281,515.1328 97.0313,515.1328 Q97.3594,515.1328 97.6094,515.3984 Q97.875,515.6484 97.875,515.9922 Q97.875,516.3359 97.5313,516.7422 Q97.0313,517.3203 96.2344,517.6484 Q95.1563,518.1016 93.8594,518.1016 Q92.3438,518.1016 91.1406,517.4766 Q90.1563,516.9766 89.4688,515.9141 Q88.7813,514.8359 88.7813,513.5547 L88.7813,512.3984 Q88.7813,511.0703 89.3906,509.9297 Q90.0156,508.7734 91.1094,508.1641 Q92.2031,507.5391 93.4375,507.5391 Q94.1719,507.5391 94.8125,507.7109 Q95.4688,507.8672 96.0156,508.2266 Z " fill="#000000"/><text fill="#000000" font-family="sans-serif" font-size="12" font-style="italic" lengthAdjust="spacing" textLength="117" x="127.25" y="508.457">&#171;ClinicalImpression&#187;</text><text fill="#000000" font-family="sans-serif" font-size="14" lengthAdjust="spacing" textLength="144" x="113.75" y="525.627">clinical-impression-001</text><line style="stroke:#FACC15;stroke-width:0.5;" x1="35.5" x2="303.5" y1="533.7031" y2="533.7031"/><text fill="#000000" font-family="sans-serif" font-size="14" font-weight="bold" lengthAdjust="spacing" textLength="119" x="40.5" y="552.2363">Konsultation ZSE</text><text fill="#000000" font-family="sans-serif" font-size="14" lengthAdjust="spacing" textLength="113" x="40.5" y="569.8457">Status: completed</text><text fill="#000000" font-family="sans-serif" font-size="14" lengthAdjust="spacing" textLength="121" x="40.5" y="587.4551">Datum: 20.12.2024</text><text fill="#000000" font-family="sans-serif" font-size="14" lengthAdjust="spacing" textLength="245" x="40.5" y="605.0645">Zusammenfassung: Best&#228;tigtes Marfan</text><text fill="#000000" font-family="sans-serif" font-size="14" lengthAdjust="spacing" textLength="258" x="40.5" y="622.6738">mit klinischen und genetischen Befunden</text><line style="stroke:#FACC15;stroke-width:0.5;" x1="35.5" x2="303.5" y1="629.75" y2="629.75"/></g><!--class encounter-cardiology--><g id="elem_encounter-cardiology"><rect codeLine="74" fill="#EA580C" filter="url(#fkhwci8cz1gxd)" height="111.5313" id="encounter-cardiology" rx="5" ry="5" style="stroke:#EA580C;stroke-width:0.5;" width="231" x="7" y="760"/><ellipse cx="51.25" cy="781.3516" fill="#ADD1B2" rx="11" ry="11" style="stroke:#181818;stroke-width:1.0;"/><path d="M54.0156,777.2266 Q54.1719,777.0078 54.3594,776.8984 Q54.5469,776.7891 54.7656,776.7891 Q55.1406,776.7891 55.375,777.0547 Q55.6094,777.3047 55.6094,777.9141 L55.6094,779.3672 Q55.6094,779.9766 55.375,780.2422 Q55.1406,780.5078 54.7656,780.5078 Q54.4219,780.5078 54.2188,780.3047 Q54.0156,780.1172 53.9063,779.6016 Q53.8594,779.2422 53.6719,779.0547 Q53.3438,778.6797 52.7344,778.4609 Q52.125,778.2422 51.5,778.2422 Q50.7344,778.2422 50.0938,778.5703 Q49.4688,778.8984 48.9688,779.6484 Q48.4844,780.3984 48.4844,781.4297 L48.4844,782.5234 Q48.4844,783.7578 49.375,784.5859 Q50.2656,785.3984 51.8594,785.3984 Q52.7969,785.3984 53.4531,785.1484 Q53.8438,784.9922 54.2656,784.5547 Q54.5313,784.2891 54.6719,784.2109 Q54.8281,784.1328 55.0313,784.1328 Q55.3594,784.1328 55.6094,784.3984 Q55.875,784.6484 55.875,784.9922 Q55.875,785.3359 55.5313,785.7422 Q55.0313,786.3203 54.2344,786.6484 Q53.1563,787.1016 51.8594,787.1016 Q50.3438,787.1016 49.1406,786.4766 Q48.1563,785.9766 47.4688,784.9141 Q46.7813,783.8359 46.7813,782.5547 L46.7813,781.3984 Q46.7813,780.0703 47.3906,778.9297 Q48.0156,777.7734 49.1094,777.1641 Q50.2031,776.5391 51.4375,776.5391 Q52.1719,776.5391 52.8125,776.7109 Q53.4688,776.8672 54.0156,777.2266 Z " fill="#000000"/><text fill="#000000" font-family="sans-serif" font-size="12" font-style="italic" lengthAdjust="spacing" textLength="70" x="103.75" y="777.457">&#171;Encounter&#187;</text><text fill="#FFFFFF" font-family="sans-serif" font-size="14" lengthAdjust="spacing" textLength="134" x="71.75" y="794.627">encounter-cardiology</text><line style="stroke:#EA580C;stroke-width:0.5;" x1="8" x2="237" y1="802.7031" y2="802.7031"/><text fill="#000000" font-family="sans-serif" font-size="14" font-weight="bold" lengthAdjust="spacing" textLength="219" x="13" y="821.2363">Kardiologische Erstvorstellung</text><text fill="#000000" font-family="sans-serif" font-size="14" lengthAdjust="spacing" textLength="121" x="13" y="838.8457">Datum: 15.12.2024</text><text fill="#000000" font-family="sans-serif" font-size="14" lengthAdjust="spacing" textLength="91" x="13" y="856.4551">Typ: Ambulant</text><line style="stroke:#EA580C;stroke-width:0.5;" x1="8" x2="237" y1="863.5313" y2="863.5313"/></g><!--class patient-marfan-001--><g id="elem_patient-marfan-001"><rect codeLine="82" fill="#1E3A5F" filter="url(#fkhwci8cz1gxd)" height="129.1406" id="patient-marfan-001" rx="5" ry="5" style="stroke:#1E3A5F;stroke-width:0.5;" width="153" x="765" y="266.5"/><ellipse cx="780" cy="287.8516" fill="#ADD1B2" rx="11" ry="11" style="stroke:#181818;stroke-width:1.0;"/><path d="M782.7656,283.7266 Q782.9219,283.5078 783.1094,283.3984 Q783.2969,283.2891 783.5156,283.2891 Q783.8906,283.2891 784.125,283.5547 Q784.3594,283.8047 784.3594,284.4141 L784.3594,285.8672 Q784.3594,286.4766 784.125,286.7422 Q783.8906,287.0078 783.5156,287.0078 Q783.1719,287.0078 782.9688,286.8047 Q782.7656,286.6172 782.6563,286.1016 Q782.6094,285.7422 782.4219,285.5547 Q782.0938,285.1797 781.4844,284.9609 Q780.875,284.7422 780.25,284.7422 Q779.4844,284.7422 778.8438,285.0703 Q778.2188,285.3984 777.7188,286.1484 Q777.2344,286.8984 777.2344,287.9297 L777.2344,289.0234 Q777.2344,290.2578 778.125,291.0859 Q779.0156,291.8984 780.6094,291.8984 Q781.5469,291.8984 782.2031,291.6484 Q782.5938,291.4922 783.0156,291.0547 Q783.2813,290.7891 783.4219,290.7109 Q783.5781,290.6328 783.7813,290.6328 Q784.1094,290.6328 784.3594,290.8984 Q784.625,291.1484 784.625,291.4922 Q784.625,291.8359 784.2813,292.2422 Q783.7813,292.8203 782.9844,293.1484 Q781.9063,293.6016 780.6094,293.6016 Q779.0938,293.6016 777.8906,292.9766 Q776.9063,292.4766 776.2188,291.4141 Q775.5313,290.3359 775.5313,289.0547 L775.5313,287.8984 Q775.5313,286.5703 776.1406,285.4297 Q776.7656,284.2734 777.8594,283.6641 Q778.9531,283.0391 780.1875,283.0391 Q780.9219,283.0391 781.5625,283.2109 Q782.2188,283.3672 782.7656,283.7266 Z " fill="#000000"/><text fill="#000000" font-family="sans-serif" font-size="12" font-style="italic" lengthAdjust="spacing" textLength="52" x="828.5" y="283.957">&#171;Patient&#187;</text><text fill="#FFFFFF" font-family="sans-serif" font-size="14" lengthAdjust="spacing" textLength="121" x="794" y="301.127">patient-marfan-001</text><line style="stroke:#1E3A5F;stroke-width:0.5;" x1="766" x2="917" y1="309.2031" y2="309.2031"/><text fill="#000000" font-family="sans-serif" font-size="14" lengthAdjust="spacing" textLength="108" x="771" y="327.7363">19-j&#228;hriger Mann</text><text fill="#000000" font-family="sans-serif" font-size="14" lengthAdjust="spacing" textLength="92" x="771" y="345.3457">Geburt: ~2005</text><text fill="#000000" font-family="sans-serif" font-size="14" lengthAdjust="spacing" textLength="117" x="771" y="362.9551">ID: MRF-2024-001</text><text fill="#000000" font-family="sans-serif" font-size="14" lengthAdjust="spacing" textLength="88" x="771" y="380.5645">Gr&#246;&#223;e: 2,13m</text><line style="stroke:#1E3A5F;stroke-width:0.5;" x1="766" x2="917" y1="387.6406" y2="387.6406"/></g><!--class condition-marfan-clinical--><g id="elem_condition-marfan-clinical"><rect codeLine="90" fill="#DC2626" filter="url(#fkhwci8cz1gxd)" height="181.9688" id="condition-marfan-clinical" rx="5" ry="5" style="stroke:#DC2626;stroke-width:0.5;" width="200" x="543.5" y="994"/><ellipse cx="565.25" cy="1015.3516" fill="#ADD1B2" rx="11" ry="11" style="stroke:#181818;stroke-width:1.0;"/><path d="M568.0156,1011.2266 Q568.1719,1011.0078 568.3594,1010.8984 Q568.5469,1010.7891 568.7656,1010.7891 Q569.1406,1010.7891 569.375,1011.0547 Q569.6094,1011.3047 569.6094,1011.9141 L569.6094,1013.3672 Q569.6094,1013.9766 569.375,1014.2422 Q569.1406,1014.5078 568.7656,1014.5078 Q568.4219,1014.5078 568.2188,1014.3047 Q568.0156,1014.1172 567.9063,1013.6016 Q567.8594,1013.2422 567.6719,1013.0547 Q567.3438,1012.6797 566.7344,1012.4609 Q566.125,1012.2422 565.5,1012.2422 Q564.7344,1012.2422 564.0938,1012.5703 Q563.4688,1012.8984 562.9688,1013.6484 Q562.4844,1014.3984 562.4844,1015.4297 L562.4844,1016.5234 Q562.4844,1017.7578 563.375,1018.5859 Q564.2656,1019.3984 565.8594,1019.3984 Q566.7969,1019.3984 567.4531,1019.1484 Q567.8438,1018.9922 568.2656,1018.5547 Q568.5313,1018.2891 568.6719,1018.2109 Q568.8281,1018.1328 569.0313,1018.1328 Q569.3594,1018.1328 569.6094,1018.3984 Q569.875,1018.6484 569.875,1018.9922 Q569.875,1019.3359 569.5313,1019.7422 Q569.0313,1020.3203 568.2344,1020.6484 Q567.1563,1021.1016 565.8594,1021.1016 Q564.3438,1021.1016 563.1406,1020.4766 Q562.1563,1019.9766 561.4688,1018.9141 Q560.7813,1017.8359 560.7813,1016.5547 L560.7813,1015.3984 Q560.7813,1014.0703 561.3906,1012.9297 Q562.0156,1011.7734 563.1094,1011.1641 Q564.2031,1010.5391 565.4375,1010.5391 Q566.1719,1010.5391 566.8125,1010.7109 Q567.4688,1010.8672 568.0156,1011.2266 Z " fill="#000000"/><text fill="#000000" font-family="sans-serif" font-size="12" font-style="italic" lengthAdjust="spacing" textLength="67" x="623.75" y="1011.457">&#171;Condition&#187;</text><text fill="#FFFFFF" font-family="sans-serif" font-size="14" lengthAdjust="spacing" textLength="153" x="580.75" y="1028.627">condition-marfan-clinical</text><line style="stroke:#DC2626;stroke-width:0.5;" x1="544.5" x2="742.5" y1="1036.7031" y2="1036.7031"/><text fill="#000000" font-family="sans-serif" font-size="14" font-weight="bold" lengthAdjust="spacing" textLength="188" x="549.5" y="1055.2363">Klinische Diagnose Marfan</text><text fill="#000000" font-family="sans-serif" font-size="14" lengthAdjust="spacing" textLength="108" x="549.5" y="1072.8457">Category: clinical</text><text fill="#000000" font-family="sans-serif" font-size="14" lengthAdjust="spacing" textLength="127" x="549.5" y="1090.4551">clinicalStatus: active</text><text fill="#000000" font-family="sans-serif" font-size="14" lengthAdjust="spacing" textLength="178" x="549.5" y="1108.0645">verificationStatus: confirmed</text><text fill="#000000" font-family="sans-serif" font-size="14" lengthAdjust="spacing" textLength="91" x="549.5" y="1125.6738">ICD-10: Q87.4</text><text fill="#000000" font-family="sans-serif" font-size="14" lengthAdjust="spacing" textLength="72" x="549.5" y="1143.2832">Orpha: 558</text><text fill="#000000" font-family="sans-serif" font-size="14" lengthAdjust="spacing" textLength="157" x="549.5" y="1160.8926">Feststellung: 15.12.2024</text><line style="stroke:#DC2626;stroke-width:0.5;" x1="544.5" x2="742.5" y1="1167.9688" y2="1167.9688"/></g><!--class condition-marfan-genetic--><g id="elem_condition-marfan-genetic"><rect codeLine="100" fill="#DC2626" filter="url(#fkhwci8cz1gxd)" height="199.5781" id="condition-marfan-genetic" rx="5" ry="5" style="stroke:#DC2626;stroke-width:0.5;" width="216" x="1169.5" y="716"/><ellipse cx="1196.65" cy="737.3516" fill="#ADD1B2" rx="11" ry="11" style="stroke:#181818;stroke-width:1.0;"/><path d="M1199.4156,733.2266 Q1199.5719,733.0078 1199.7594,732.8984 Q1199.9469,732.7891 1200.1656,732.7891 Q1200.5406,732.7891 1200.775,733.0547 Q1201.0094,733.3047 1201.0094,733.9141 L1201.0094,735.3672 Q1201.0094,735.9766 1200.775,736.2422 Q1200.5406,736.5078 1200.1656,736.5078 Q1199.8219,736.5078 1199.6188,736.3047 Q1199.4156,736.1172 1199.3063,735.6016 Q1199.2594,735.2422 1199.0719,735.0547 Q1198.7438,734.6797 1198.1344,734.4609 Q1197.525,734.2422 1196.9,734.2422 Q1196.1344,734.2422 1195.4938,734.5703 Q1194.8688,734.8984 1194.3688,735.6484 Q1193.8844,736.3984 1193.8844,737.4297 L1193.8844,738.5234 Q1193.8844,739.7578 1194.775,740.5859 Q1195.6656,741.3984 1197.2594,741.3984 Q1198.1969,741.3984 1198.8531,741.1484 Q1199.2438,740.9922 1199.6656,740.5547 Q1199.9313,740.2891 1200.0719,740.2109 Q1200.2281,740.1328 1200.4313,740.1328 Q1200.7594,740.1328 1201.0094,740.3984 Q1201.275,740.6484 1201.275,740.9922 Q1201.275,741.3359 1200.9313,741.7422 Q1200.4313,742.3203 1199.6344,742.6484 Q1198.5563,743.1016 1197.2594,743.1016 Q1195.7438,743.1016 1194.5406,742.4766 Q1193.5563,741.9766 1192.8688,740.9141 Q1192.1813,739.8359 1192.1813,738.5547 L1192.1813,737.3984 Q1192.1813,736.0703 1192.7906,734.9297 Q1193.4156,733.7734 1194.5094,733.1641 Q1195.6031,732.5391 1196.8375,732.5391 Q1197.5719,732.5391 1198.2125,732.7109 Q1198.8688,732.8672 1199.4156,733.2266 Z " fill="#000000"/><text fill="#000000" font-family="sans-serif" font-size="12" font-style="italic" lengthAdjust="spacing" textLength="67" x="1258.35" y="733.457">&#171;Condition&#187;</text><text fill="#FFFFFF" font-family="sans-serif" font-size="14" lengthAdjust="spacing" textLength="157" x="1213.35" y="750.627">condition-marfan-genetic</text><line style="stroke:#DC2626;stroke-width:0.5;" x1="1170.5" x2="1384.5" y1="758.7031" y2="758.7031"/><text fill="#000000" font-family="sans-serif" font-size="14" font-weight="bold" lengthAdjust="spacing" textLength="204" x="1175.5" y="777.2363">Genetische Diagnose Marfan</text><text fill="#000000" font-family="sans-serif" font-size="14" lengthAdjust="spacing" textLength="112" x="1175.5" y="794.8457">Category: genetic</text><text fill="#000000" font-family="sans-serif" font-size="14" lengthAdjust="spacing" textLength="127" x="1175.5" y="812.4551">clinicalStatus: active</text><text fill="#000000" font-family="sans-serif" font-size="14" lengthAdjust="spacing" textLength="178" x="1175.5" y="830.0645">verificationStatus: confirmed</text><text fill="#000000" font-family="sans-serif" font-size="14" lengthAdjust="spacing" textLength="91" x="1175.5" y="847.6738">ICD-10: Q87.4</text><text fill="#000000" font-family="sans-serif" font-size="14" lengthAdjust="spacing" textLength="72" x="1175.5" y="865.2832">Orpha: 558</text><text fill="#000000" font-family="sans-serif" font-size="14" lengthAdjust="spacing" textLength="157" x="1175.5" y="882.8926">Feststellung: 20.12.2024</text><text fill="#000000" font-family="sans-serif" font-size="14" lengthAdjust="spacing" textLength="177" x="1175.5" y="900.502">FBN1: homozygote Mutation</text><line style="stroke:#DC2626;stroke-width:0.5;" x1="1170.5" x2="1384.5" y1="907.5781" y2="907.5781"/></g><!--class variant-fbn1-001--><g id="elem_variant-fbn1-001"><rect codeLine="112" fill="#0D9488" filter="url(#fkhwci8cz1gxd)" height="129.1406" id="variant-fbn1-001" rx="5" ry="5" style="stroke:#0D9488;stroke-width:0.5;" width="184" x="1185.5" y="1020.5"/><ellipse cx="1221.65" cy="1041.8516" fill="#ADD1B2" rx="11" ry="11" style="stroke:#181818;stroke-width:1.0;"/><path d="M1224.4156,1037.7266 Q1224.5719,1037.5078 1224.7594,1037.3984 Q1224.9469,1037.2891 1225.1656,1037.2891 Q1225.5406,1037.2891 1225.775,1037.5547 Q1226.0094,1037.8047 1226.0094,1038.4141 L1226.0094,1039.8672 Q1226.0094,1040.4766 1225.775,1040.7422 Q1225.5406,1041.0078 1225.1656,1041.0078 Q1224.8219,1041.0078 1224.6188,1040.8047 Q1224.4156,1040.6172 1224.3063,1040.1016 Q1224.2594,1039.7422 1224.0719,1039.5547 Q1223.7438,1039.1797 1223.1344,1038.9609 Q1222.525,1038.7422 1221.9,1038.7422 Q1221.1344,1038.7422 1220.4938,1039.0703 Q1219.8688,1039.3984 1219.3688,1040.1484 Q1218.8844,1040.8984 1218.8844,1041.9297 L1218.8844,1043.0234 Q1218.8844,1044.2578 1219.775,1045.0859 Q1220.6656,1045.8984 1222.2594,1045.8984 Q1223.1969,1045.8984 1223.8531,1045.6484 Q1224.2438,1045.4922 1224.6656,1045.0547 Q1224.9313,1044.7891 1225.0719,1044.7109 Q1225.2281,1044.6328 1225.4313,1044.6328 Q1225.7594,1044.6328 1226.0094,1044.8984 Q1226.275,1045.1484 1226.275,1045.4922 Q1226.275,1045.8359 1225.9313,1046.2422 Q1225.4313,1046.8203 1224.6344,1047.1484 Q1223.5563,1047.6016 1222.2594,1047.6016 Q1220.7438,1047.6016 1219.5406,1046.9766 Q1218.5563,1046.4766 1217.8688,1045.4141 Q1217.1813,1044.3359 1217.1813,1043.0547 L1217.1813,1041.8984 Q1217.1813,1040.5703 1217.7906,1039.4297 Q1218.4156,1038.2734 1219.5094,1037.6641 Q1220.6031,1037.0391 1221.8375,1037.0391 Q1222.5719,1037.0391 1223.2125,1037.2109 Q1223.8688,1037.3672 1224.4156,1037.7266 Z " fill="#000000"/><text fill="#000000" font-family="sans-serif" font-size="12" font-style="italic" lengthAdjust="spacing" textLength="81" x="1252.35" y="1037.957">&#171;Observation&#187;</text><text fill="#FFFFFF" font-family="sans-serif" font-size="14" lengthAdjust="spacing" textLength="105" x="1240.35" y="1055.127">variant-fbn1-001</text><line style="stroke:#0D9488;stroke-width:0.5;" x1="1186.5" x2="1368.5" y1="1063.2031" y2="1063.2031"/><text fill="#000000" font-family="sans-serif" font-size="14" font-weight="bold" lengthAdjust="spacing" textLength="103" x="1191.5" y="1081.7363">FBN1 Mutation</text><text fill="#000000" font-family="sans-serif" font-size="14" lengthAdjust="spacing" textLength="129" x="1191.5" y="1099.3457">Status: Pathologisch</text><text fill="#000000" font-family="sans-serif" font-size="14" lengthAdjust="spacing" textLength="121" x="1191.5" y="1116.9551">Datum: 20.12.2024</text><line style="stroke:#0D9488;stroke-width:0.5;" x1="1186.5" x2="1368.5" y1="1124.0313" y2="1124.0313"/><text fill="#000000" font-family="sans-serif" font-size="14" lengthAdjust="spacing" textLength="172" x="1191.5" y="1142.5645">c.3217G&gt;A (p.Gly1073Arg)</text></g><!--class procedure-aortic-planned--><g id="elem_procedure-aortic-planned"><rect codeLine="120" fill="#7C3AED" filter="url(#fkhwci8cz1gxd)" height="129.1406" id="procedure-aortic-planned" rx="5" ry="5" style="stroke:#7C3AED;stroke-width:0.5;" width="193" x="895" y="500"/><ellipse cx="910" cy="521.3516" fill="#ADD1B2" rx="11" ry="11" style="stroke:#181818;stroke-width:1.0;"/><path d="M912.7656,517.2266 Q912.9219,517.0078 913.1094,516.8984 Q913.2969,516.7891 913.5156,516.7891 Q913.8906,516.7891 914.125,517.0547 Q914.3594,517.3047 914.3594,517.9141 L914.3594,519.3672 Q914.3594,519.9766 914.125,520.2422 Q913.8906,520.5078 913.5156,520.5078 Q913.1719,520.5078 912.9688,520.3047 Q912.7656,520.1172 912.6563,519.6016 Q912.6094,519.2422 912.4219,519.0547 Q912.0938,518.6797 911.4844,518.4609 Q910.875,518.2422 910.25,518.2422 Q909.4844,518.2422 908.8438,518.5703 Q908.2188,518.8984 907.7188,519.6484 Q907.2344,520.3984 907.2344,521.4297 L907.2344,522.5234 Q907.2344,523.7578 908.125,524.5859 Q909.0156,525.3984 910.6094,525.3984 Q911.5469,525.3984 912.2031,525.1484 Q912.5938,524.9922 913.0156,524.5547 Q913.2813,524.2891 913.4219,524.2109 Q913.5781,524.1328 913.7813,524.1328 Q914.1094,524.1328 914.3594,524.3984 Q914.625,524.6484 914.625,524.9922 Q914.625,525.3359 914.2813,525.7422 Q913.7813,526.3203 912.9844,526.6484 Q911.9063,527.1016 910.6094,527.1016 Q909.0938,527.1016 907.8906,526.4766 Q906.9063,525.9766 906.2188,524.9141 Q905.5313,523.8359 905.5313,522.5547 L905.5313,521.3984 Q905.5313,520.0703 906.1406,518.9297 Q906.7656,517.7734 907.8594,517.1641 Q908.9531,516.5391 910.1875,516.5391 Q910.9219,516.5391 911.5625,516.7109 Q912.2188,516.8672 912.7656,517.2266 Z " fill="#000000"/><text fill="#000000" font-family="sans-serif" font-size="12" font-style="italic" lengthAdjust="spacing" textLength="71" x="969" y="517.457">&#171;Procedure&#187;</text><text fill="#FFFFFF" font-family="sans-serif" font-size="14" lengthAdjust="spacing" textLength="161" x="924" y="534.627">procedure-aortic-planned</text><line style="stroke:#7C3AED;stroke-width:0.5;" x1="896" x2="1087" y1="542.7031" y2="542.7031"/><text fill="#000000" font-family="sans-serif" font-size="14" font-weight="bold" lengthAdjust="spacing" textLength="136" x="901" y="561.2363">Aortenwurzelersatz</text><text fill="#000000" font-family="sans-serif" font-size="14" lengthAdjust="spacing" textLength="94" x="901" y="578.8457">OPS: 5-354.0a</text><text fill="#000000" font-family="sans-serif" font-size="14" lengthAdjust="spacing" textLength="121" x="901" y="596.4551">Datum: 15.03.2025</text><text fill="#000000" font-family="sans-serif" font-size="14" lengthAdjust="spacing" textLength="104" x="901" y="614.0645">David-Operation</text><line style="stroke:#7C3AED;stroke-width:0.5;" x1="896" x2="1087" y1="621.1406" y2="621.1406"/></g><!--class medication-losartan--><g id="elem_medication-losartan"><rect codeLine="127" fill="#EC4899" filter="url(#fkhwci8cz1gxd)" height="111.5313" id="medication-losartan" rx="5" ry="5" style="stroke:#EC4899;stroke-width:0.5;" width="156" x="738.5" y="760"/><ellipse cx="753.5" cy="781.3516" fill="#ADD1B2" rx="11" ry="11" style="stroke:#181818;stroke-width:1.0;"/><path d="M756.2656,777.2266 Q756.4219,777.0078 756.6094,776.8984 Q756.7969,776.7891 757.0156,776.7891 Q757.3906,776.7891 757.625,777.0547 Q757.8594,777.3047 757.8594,777.9141 L757.8594,779.3672 Q757.8594,779.9766 757.625,780.2422 Q757.3906,780.5078 757.0156,780.5078 Q756.6719,780.5078 756.4688,780.3047 Q756.2656,780.1172 756.1563,779.6016 Q756.1094,779.2422 755.9219,779.0547 Q755.5938,778.6797 754.9844,778.4609 Q754.375,778.2422 753.75,778.2422 Q752.9844,778.2422 752.3438,778.5703 Q751.7188,778.8984 751.2188,779.6484 Q750.7344,780.3984 750.7344,781.4297 L750.7344,782.5234 Q750.7344,783.7578 751.625,784.5859 Q752.5156,785.3984 754.1094,785.3984 Q755.0469,785.3984 755.7031,785.1484 Q756.0938,784.9922 756.5156,784.5547 Q756.7813,784.2891 756.9219,784.2109 Q757.0781,784.1328 757.2813,784.1328 Q757.6094,784.1328 757.8594,784.3984 Q758.125,784.6484 758.125,784.9922 Q758.125,785.3359 757.7813,785.7422 Q757.2813,786.3203 756.4844,786.6484 Q755.4063,787.1016 754.1094,787.1016 Q752.5938,787.1016 751.3906,786.4766 Q750.4063,785.9766 749.7188,784.9141 Q749.0313,783.8359 749.0313,782.5547 L749.0313,781.3984 Q749.0313,780.0703 749.6406,778.9297 Q750.2656,777.7734 751.3594,777.1641 Q752.4531,776.5391 753.6875,776.5391 Q754.4219,776.5391 755.0625,776.7109 Q755.7188,776.8672 756.2656,777.2266 Z " fill="#000000"/><text fill="#000000" font-family="sans-serif" font-size="12" font-style="italic" lengthAdjust="spacing" textLength="73" x="793" y="777.457">&#171;Medication&#187;</text><text fill="#FFFFFF" font-family="sans-serif" font-size="14" lengthAdjust="spacing" textLength="124" x="767.5" y="794.627">medication-losartan</text><line style="stroke:#EC4899;stroke-width:0.5;" x1="739.5" x2="893.5" y1="802.7031" y2="802.7031"/><text fill="#000000" font-family="sans-serif" font-size="14" font-weight="bold" lengthAdjust="spacing" textLength="61" x="744.5" y="821.2363">Losartan</text><text fill="#000000" font-family="sans-serif" font-size="14" lengthAdjust="spacing" textLength="98" x="744.5" y="838.8457">50mg 1x t&#228;glich</text><text fill="#000000" font-family="sans-serif" font-size="14" lengthAdjust="spacing" textLength="110" x="744.5" y="856.4551">Start: 15.12.2024</text><line style="stroke:#EC4899;stroke-width:0.5;" x1="739.5" x2="893.5" y1="863.5313" y2="863.5313"/></g><!--class observation-aortic-series--><g id="elem_observation-aortic-series"><rect codeLine="134" fill="#0D9488" filter="url(#fkhwci8cz1gxd)" height="146.75" id="observation-aortic-series" rx="5" ry="5" style="stroke:#0D9488;stroke-width:0.5;" width="189" x="521" y="1254"/><ellipse cx="536" cy="1275.3516" fill="#ADD1B2" rx="11" ry="11" style="stroke:#181818;stroke-width:1.0;"/><path d="M538.7656,1271.2266 Q538.9219,1271.0078 539.1094,1270.8984 Q539.2969,1270.7891 539.5156,1270.7891 Q539.8906,1270.7891 540.125,1271.0547 Q540.3594,1271.3047 540.3594,1271.9141 L540.3594,1273.3672 Q540.3594,1273.9766 540.125,1274.2422 Q539.8906,1274.5078 539.5156,1274.5078 Q539.1719,1274.5078 538.9688,1274.3047 Q538.7656,1274.1172 538.6563,1273.6016 Q538.6094,1273.2422 538.4219,1273.0547 Q538.0938,1272.6797 537.4844,1272.4609 Q536.875,1272.2422 536.25,1272.2422 Q535.4844,1272.2422 534.8438,1272.5703 Q534.2188,1272.8984 533.7188,1273.6484 Q533.2344,1274.3984 533.2344,1275.4297 L533.2344,1276.5234 Q533.2344,1277.7578 534.125,1278.5859 Q535.0156,1279.3984 536.6094,1279.3984 Q537.5469,1279.3984 538.2031,1279.1484 Q538.5938,1278.9922 539.0156,1278.5547 Q539.2813,1278.2891 539.4219,1278.2109 Q539.5781,1278.1328 539.7813,1278.1328 Q540.1094,1278.1328 540.3594,1278.3984 Q540.625,1278.6484 540.625,1278.9922 Q540.625,1279.3359 540.2813,1279.7422 Q539.7813,1280.3203 538.9844,1280.6484 Q537.9063,1281.1016 536.6094,1281.1016 Q535.0938,1281.1016 533.8906,1280.4766 Q532.9063,1279.9766 532.2188,1278.9141 Q531.5313,1277.8359 531.5313,1276.5547 L531.5313,1275.3984 Q531.5313,1274.0703 532.1406,1272.9297 Q532.7656,1271.7734 533.8594,1271.1641 Q534.9531,1270.5391 536.1875,1270.5391 Q536.9219,1270.5391 537.5625,1270.7109 Q538.2188,1270.8672 538.7656,1271.2266 Z " fill="#000000"/><text fill="#000000" font-family="sans-serif" font-size="12" font-style="italic" lengthAdjust="spacing" textLength="81" x="588" y="1271.457">&#171;Observation&#187;</text><text fill="#FFFFFF" font-family="sans-serif" font-size="14" lengthAdjust="spacing" textLength="157" x="550" y="1288.627">observation-aortic-series</text><line style="stroke:#0D9488;stroke-width:0.5;" x1="522" x2="709" y1="1296.7031" y2="1296.7031"/><text fill="#000000" font-family="sans-serif" font-size="14" font-weight="bold" lengthAdjust="spacing" textLength="170" x="527" y="1315.2363">Kardiologische Befunde</text><text fill="#000000" font-family="sans-serif" font-size="14" lengthAdjust="spacing" textLength="138" x="527" y="1332.8457">Aortenwurzel: 48mm &#8593;</text><text fill="#000000" font-family="sans-serif" font-size="14" lengthAdjust="spacing" textLength="71" x="527" y="1350.4551">AKI: Grad II</text><text fill="#000000" font-family="sans-serif" font-size="14" lengthAdjust="spacing" textLength="70" x="527" y="1368.0645">MKI: Grad I</text><text fill="#000000" font-family="sans-serif" font-size="14" lengthAdjust="spacing" textLength="112" x="527" y="1385.6738">Thoraxschmerzen</text><line style="stroke:#0D9488;stroke-width:0.5;" x1="522" x2="709" y1="1392.75" y2="1392.75"/></g><!--class observation-skeletal--><g id="elem_observation-skeletal"><rect codeLine="143" fill="#0D9488" filter="url(#fkhwci8cz1gxd)" height="129.1406" id="observation-skeletal" rx="5" ry="5" style="stroke:#0D9488;stroke-width:0.5;" width="159" x="745" y="1263"/><ellipse cx="760" cy="1284.3516" fill="#ADD1B2" rx="11" ry="11" style="stroke:#181818;stroke-width:1.0;"/><path d="M762.7656,1280.2266 Q762.9219,1280.0078 763.1094,1279.8984 Q763.2969,1279.7891 763.5156,1279.7891 Q763.8906,1279.7891 764.125,1280.0547 Q764.3594,1280.3047 764.3594,1280.9141 L764.3594,1282.3672 Q764.3594,1282.9766 764.125,1283.2422 Q763.8906,1283.5078 763.5156,1283.5078 Q763.1719,1283.5078 762.9688,1283.3047 Q762.7656,1283.1172 762.6563,1282.6016 Q762.6094,1282.2422 762.4219,1282.0547 Q762.0938,1281.6797 761.4844,1281.4609 Q760.875,1281.2422 760.25,1281.2422 Q759.4844,1281.2422 758.8438,1281.5703 Q758.2188,1281.8984 757.7188,1282.6484 Q757.2344,1283.3984 757.2344,1284.4297 L757.2344,1285.5234 Q757.2344,1286.7578 758.125,1287.5859 Q759.0156,1288.3984 760.6094,1288.3984 Q761.5469,1288.3984 762.2031,1288.1484 Q762.5938,1287.9922 763.0156,1287.5547 Q763.2813,1287.2891 763.4219,1287.2109 Q763.5781,1287.1328 763.7813,1287.1328 Q764.1094,1287.1328 764.3594,1287.3984 Q764.625,1287.6484 764.625,1287.9922 Q764.625,1288.3359 764.2813,1288.7422 Q763.7813,1289.3203 762.9844,1289.6484 Q761.9063,1290.1016 760.6094,1290.1016 Q759.0938,1290.1016 757.8906,1289.4766 Q756.9063,1288.9766 756.2188,1287.9141 Q755.5313,1286.8359 755.5313,1285.5547 L755.5313,1284.3984 Q755.5313,1283.0703 756.1406,1281.9297 Q756.7656,1280.7734 757.8594,1280.1641 Q758.9531,1279.5391 760.1875,1279.5391 Q760.9219,1279.5391 761.5625,1279.7109 Q762.2188,1279.8672 762.7656,1280.2266 Z " fill="#000000"/><text fill="#000000" font-family="sans-serif" font-size="12" font-style="italic" lengthAdjust="spacing" textLength="81" x="797" y="1280.457">&#171;Observation&#187;</text><text fill="#FFFFFF" font-family="sans-serif" font-size="14" lengthAdjust="spacing" textLength="127" x="774" y="1297.627">observation-skeletal</text><line style="stroke:#0D9488;stroke-width:0.5;" x1="746" x2="903" y1="1305.7031" y2="1305.7031"/><text fill="#000000" font-family="sans-serif" font-size="14" font-weight="bold" lengthAdjust="spacing" textLength="143" x="751" y="1324.2363">Skelettale Merkmale</text><text fill="#000000" font-family="sans-serif" font-size="14" lengthAdjust="spacing" textLength="128" x="751" y="1341.8457">K&#246;rpergr&#246;&#223;e: 2,13m</text><text fill="#000000" font-family="sans-serif" font-size="14" lengthAdjust="spacing" textLength="125" x="751" y="1359.4551">Beinl&#228;ngendifferenz</text><text fill="#000000" font-family="sans-serif" font-size="14" lengthAdjust="spacing" textLength="121" x="751" y="1377.0645">Datum: 15.12.2024</text><line style="stroke:#0D9488;stroke-width:0.5;" x1="746" x2="903" y1="1384.1406" y2="1384.1406"/></g><!--class encounter-ophthalmology--><g id="elem_encounter-ophthalmology"><rect codeLine="152" fill="#EA580C" filter="url(#fkhwci8cz1gxd)" height="111.5313" id="encounter-ophthalmology" rx="5" ry="5" style="stroke:#EA580C;stroke-width:0.5;" width="210" x="1693.5" y="508.5"/><ellipse cx="1716.15" cy="529.8516" fill="#ADD1B2" rx="11" ry="11" style="stroke:#181818;stroke-width:1.0;"/><path d="M1718.9156,525.7266 Q1719.0719,525.5078 1719.2594,525.3984 Q1719.4469,525.2891 1719.6656,525.2891 Q1720.0406,525.2891 1720.275,525.5547 Q1720.5094,525.8047 1720.5094,526.4141 L1720.5094,527.8672 Q1720.5094,528.4766 1720.275,528.7422 Q1720.0406,529.0078 1719.6656,529.0078 Q1719.3219,529.0078 1719.1188,528.8047 Q1718.9156,528.6172 1718.8063,528.1016 Q1718.7594,527.7422 1718.5719,527.5547 Q1718.2438,527.1797 1717.6344,526.9609 Q1717.025,526.7422 1716.4,526.7422 Q1715.6344,526.7422 1714.9938,527.0703 Q1714.3688,527.3984 1713.8688,528.1484 Q1713.3844,528.8984 1713.3844,529.9297 L1713.3844,531.0234 Q1713.3844,532.2578 1714.275,533.0859 Q1715.1656,533.8984 1716.7594,533.8984 Q1717.6969,533.8984 1718.3531,533.6484 Q1718.7438,533.4922 1719.1656,533.0547 Q1719.4313,532.7891 1719.5719,532.7109 Q1719.7281,532.6328 1719.9313,532.6328 Q1720.2594,532.6328 1720.5094,532.8984 Q1720.775,533.1484 1720.775,533.4922 Q1720.775,533.8359 1720.4313,534.2422 Q1719.9313,534.8203 1719.1344,535.1484 Q1718.0563,535.6016 1716.7594,535.6016 Q1715.2438,535.6016 1714.0406,534.9766 Q1713.0563,534.4766 1712.3688,533.4141 Q1711.6813,532.3359 1711.6813,531.0547 L1711.6813,529.8984 Q1711.6813,528.5703 1712.2906,527.4297 Q1712.9156,526.2734 1714.0094,525.6641 Q1715.1031,525.0391 1716.3375,525.0391 Q1717.0719,525.0391 1717.7125,525.2109 Q1718.3688,525.3672 1718.9156,525.7266 Z " fill="#000000"/><text fill="#000000" font-family="sans-serif" font-size="12" font-style="italic" lengthAdjust="spacing" textLength="70" x="1777.35" y="525.957">&#171;Encounter&#187;</text><text fill="#FFFFFF" font-family="sans-serif" font-size="14" lengthAdjust="spacing" textLength="161" x="1731.85" y="543.127">encounter-ophthalmology</text><line style="stroke:#EA580C;stroke-width:0.5;" x1="1694.5" x2="1902.5" y1="551.2031" y2="551.2031"/><text fill="#000000" font-family="sans-serif" font-size="14" font-weight="bold" lengthAdjust="spacing" textLength="198" x="1699.5" y="569.7363">Augen&#228;rztliche Konsultation</text><text fill="#000000" font-family="sans-serif" font-size="14" lengthAdjust="spacing" textLength="121" x="1699.5" y="587.3457">Datum: 15.10.2024</text><text fill="#000000" font-family="sans-serif" font-size="14" lengthAdjust="spacing" textLength="91" x="1699.5" y="604.9551">Typ: Ambulant</text><line style="stroke:#EA580C;stroke-width:0.5;" x1="1694.5" x2="1902.5" y1="612.0313" y2="612.0313"/></g><!--class encounter-surgery-planned--><g id="elem_encounter-surgery-planned"><rect codeLine="158" fill="#EA580C" filter="url(#fkhwci8cz1gxd)" height="111.5313" id="encounter-surgery-planned" rx="5" ry="5" style="stroke:#EA580C;stroke-width:0.5;" width="205" x="1123" y="508.5"/><ellipse cx="1138" cy="529.8516" fill="#ADD1B2" rx="11" ry="11" style="stroke:#181818;stroke-width:1.0;"/><path d="M1140.7656,525.7266 Q1140.9219,525.5078 1141.1094,525.3984 Q1141.2969,525.2891 1141.5156,525.2891 Q1141.8906,525.2891 1142.125,525.5547 Q1142.3594,525.8047 1142.3594,526.4141 L1142.3594,527.8672 Q1142.3594,528.4766 1142.125,528.7422 Q1141.8906,529.0078 1141.5156,529.0078 Q1141.1719,529.0078 1140.9688,528.8047 Q1140.7656,528.6172 1140.6563,528.1016 Q1140.6094,527.7422 1140.4219,527.5547 Q1140.0938,527.1797 1139.4844,526.9609 Q1138.875,526.7422 1138.25,526.7422 Q1137.4844,526.7422 1136.8438,527.0703 Q1136.2188,527.3984 1135.7188,528.1484 Q1135.2344,528.8984 1135.2344,529.9297 L1135.2344,531.0234 Q1135.2344,532.2578 1136.125,533.0859 Q1137.0156,533.8984 1138.6094,533.8984 Q1139.5469,533.8984 1140.2031,533.6484 Q1140.5938,533.4922 1141.0156,533.0547 Q1141.2813,532.7891 1141.4219,532.7109 Q1141.5781,532.6328 1141.7813,532.6328 Q1142.1094,532.6328 1142.3594,532.8984 Q1142.625,533.1484 1142.625,533.4922 Q1142.625,533.8359 1142.2813,534.2422 Q1141.7813,534.8203 1140.9844,535.1484 Q1139.9063,535.6016 1138.6094,535.6016 Q1137.0938,535.6016 1135.8906,534.9766 Q1134.9063,534.4766 1134.2188,533.4141 Q1133.5313,532.3359 1133.5313,531.0547 L1133.5313,529.8984 Q1133.5313,528.5703 1134.1406,527.4297 Q1134.7656,526.2734 1135.8594,525.6641 Q1136.9531,525.0391 1138.1875,525.0391 Q1138.9219,525.0391 1139.5625,525.2109 Q1140.2188,525.3672 1140.7656,525.7266 Z " fill="#000000"/><text fill="#000000" font-family="sans-serif" font-size="12" font-style="italic" lengthAdjust="spacing" textLength="70" x="1203.5" y="525.957">&#171;Encounter&#187;</text><text fill="#FFFFFF" font-family="sans-serif" font-size="14" lengthAdjust="spacing" textLength="173" x="1152" y="543.127">encounter-surgery-planned</text><line style="stroke:#EA580C;stroke-width:0.5;" x1="1124" x2="1327" y1="551.2031" y2="551.2031"/><text fill="#000000" font-family="sans-serif" font-size="14" font-weight="bold" lengthAdjust="spacing" textLength="164" x="1129" y="569.7363">Geplante Herzchirurgie</text><text fill="#000000" font-family="sans-serif" font-size="14" lengthAdjust="spacing" textLength="121" x="1129" y="587.3457">Datum: 15.03.2025</text><text fill="#000000" font-family="sans-serif" font-size="14" lengthAdjust="spacing" textLength="89" x="1129" y="604.9551">Typ: Station&#228;r</text><line style="stroke:#EA580C;stroke-width:0.5;" x1="1124" x2="1327" y1="612.0313" y2="612.0313"/></g><g id="elem_GMN55"><path d="M409.5,23.5 L409.5,85 L374.11,89 L409.5,93 L409.5,154.3125 A5,5 0 0 0 414.5,159.3125 L646.5,159.3125 A5,5 0 0 0 651.5,154.3125 L651.5,28.5 L641.5,18.5 L414.5,18.5 A5,5 0 0 0 409.5,23.5 " fill="#FEFFDD" filter="url(#fkhwci8cz1gxd)" style="stroke:#181818;stroke-width:0.5;"/><path d="M641.5,18.5 L641.5,26 A2.5,2.5 0 0 0 644,28.5 L651.5,28.5 L641.5,18.5 " fill="#FEFFDD" style="stroke:#181818;stroke-width:0.5;"/><text fill="#000000" font-family="sans-serif" font-size="13" font-weight="bold" lengthAdjust="spacing" textLength="113" x="415.5" y="36.9951">Zeitlicher Verlauf:</text><text fill="#000000" font-family="sans-serif" font-size="13" lengthAdjust="spacing" textLength="221" x="415.5" y="53.3467">1. Katarakt (15.10) &#8594; ZSE-Vorstellung</text><text fill="#000000" font-family="sans-serif" font-size="13" lengthAdjust="spacing" textLength="154" x="415.5" y="69.6982">2. Verdacht Marfan (10.12)</text><text fill="#000000" font-family="sans-serif" font-size="13" lengthAdjust="spacing" textLength="170" x="415.5" y="86.0498">3. Klinische Diagnose (15.12)</text><text fill="#000000" font-family="sans-serif" font-size="13" lengthAdjust="spacing" textLength="183" x="415.5" y="102.4014">4. Genetische Diagnose (20.12)</text><text fill="#000000" font-family="sans-serif" font-size="13" lengthAdjust="spacing" textLength="4" x="415.5" y="118.7529">&#160;</text><text fill="#000000" font-family="sans-serif" font-size="13" lengthAdjust="spacing" textLength="135" x="415.5" y="135.1045">Katarakt war Anlass f&#252;r</text><text fill="#000000" font-family="sans-serif" font-size="13" lengthAdjust="spacing" textLength="148" x="415.5" y="151.4561">weiterf&#252;hrende Diagnostik</text></g><g id="elem_GMN58"><path d="M315.5,1311 L315.5,1343.7031 A5,5 0 0 0 320.5,1348.7031 L480.5,1348.7031 A5,5 0 0 0 485.5,1343.7031 L485.5,1331.5 L520.97,1327.5 L485.5,1323.5 L485.5,1316 L475.5,1306 L320.5,1306 A5,5 0 0 0 315.5,1311 " fill="#FEFFDD" filter="url(#fkhwci8cz1gxd)" style="stroke:#181818;stroke-width:0.5;"/><path d="M475.5,1306 L475.5,1313.5 A2.5,2.5 0 0 0 478,1316 L485.5,1316 L475.5,1306 " fill="#FEFFDD" style="stroke:#181818;stroke-width:0.5;"/><text fill="#000000" font-family="sans-serif" font-size="13" font-weight="bold" lengthAdjust="spacing" textLength="143" x="321.5" y="1324.4951">Kardiale Manifestation</text><text fill="#000000" font-family="sans-serif" font-size="13" lengthAdjust="spacing" textLength="149" x="321.5" y="1340.8467">best&#228;tigt Marfan-Syndrom</text></g><!--link condition-cataract to condition-marfan-suspected--><!--link condition-cataract to condition-marfan-suspected--><g id="link_condition-cataract_condition-marfan-suspected"><path codeLine="185" d="M273.13,171.25 C272.4,196.27 271.775,217.8126 271.045,242.8326 " fill="none" id="condition-cataract-to-condition-marfan-suspected-1" style="stroke:#666666;stroke-width:2.0;stroke-dasharray:7.0,7.0;"/><polygon fill="#666666" points="270.87,248.83,275.1308,239.9505,271.0158,243.8321,267.1342,239.7172,270.87,248.83" style="stroke:#666666;stroke-width:2.0;"/><text fill="#000000" font-family="sans-serif" font-size="13" lengthAdjust="spacing" textLength="104" x="272.5" y="215.4951">triggers evaluation</text></g><!--link condition-marfan-suspected to clinical-impression-001--><!--link clinical-impression-001 to condition-marfan-suspected--><g id="link_clinical-impression-001_condition-marfan-suspected"><path codeLine="188" d="M200.55,490.9 C211.09,466.25 220.571,444.0868 231.381,418.8068 " fill="none" id="clinical-impression-001-to-condition-marfan-suspected" style="stroke:#666666;stroke-width:2.0;"/><polygon fill="#666666" points="233.74,413.29,226.5236,419.9925,231.7741,417.8873,233.8793,423.1379,233.74,413.29" style="stroke:#666666;stroke-width:2.0;"/><text fill="#000000" font-family="sans-serif" font-size="13" lengthAdjust="spacing" textLength="46" x="219.5" y="457.4951">problem</text></g><!--link clinical-impression-001 to encounter-cardiology--><!--link clinical-impression-001 to encounter-cardiology--><g id="link_clinical-impression-001_encounter-cardiology"><path codeLine="225" d="M155.84,638 C148.52,676.85 140.7605,718.0537 134.0105,753.8937 " fill="none" id="clinical-impression-001-to-encounter-cardiology-1" style="stroke:#666666;stroke-width:2.0;"/><polygon fill="#666666" points="132.9,759.79,138.4966,751.6858,133.8254,754.8764,130.6349,750.2052,132.9,759.79" style="stroke:#666666;stroke-width:2.0;"/><text fill="#000000" font-family="sans-serif" font-size="13" lengthAdjust="spacing" textLength="57" x="149.5" y="682.4951">encounter</text></g><!--link condition-cataract to patient-marfan-001--><!--reverse link patient-marfan-001 to condition-cataract--><g id="link_patient-marfan-001_condition-cataract"><path codeLine="182" d="M758.916,307.9286 C667.426,282.0786 517.1,234.75 392.5,171 C386.45,167.91 380.35,164.54 374.28,161 " fill="none" id="patient-marfan-001-backto-condition-cataract" style="stroke:#666666;stroke-width:2.0;"/><polygon fill="#666666" points="764.69,309.56,757.1167,303.2636,759.8784,308.2005,754.9415,310.9622,764.69,309.56" style="stroke:#666666;stroke-width:2.0;"/><text fill="#000000" font-family="sans-serif" font-size="13" lengthAdjust="spacing" textLength="42" x="487.5" y="215.4951">subject</text></g><!--link condition-marfan-suspected to patient-marfan-001--><!--reverse link patient-marfan-001 to condition-marfan-suspected--><g id="link_patient-marfan-001_condition-marfan-suspected"><path codeLine="173" d="M758.7,331 C659.44,331 491.93,331 378.64,331 " fill="none" id="patient-marfan-001-backto-condition-marfan-suspected" style="stroke:#666666;stroke-width:2.0;"/><polygon fill="#666666" points="764.7,331,755.7,327,759.7,331,755.7,335,764.7,331" style="stroke:#666666;stroke-width:2.0;"/><text fill="#000000" font-family="sans-serif" font-size="13" lengthAdjust="spacing" textLength="42" x="550.75" y="324.4951">subject</text></g><!--link clinical-impression-001 to patient-marfan-001--><!--reverse link patient-marfan-001 to clinical-impression-001--><g id="link_patient-marfan-001_clinical-impression-001"><path codeLine="176" d="M759.0053,348.8769 C673.5953,367.3269 537.9,399.79 420.5,443 C382.06,457.15 341.56,475.14 304.58,492.87 " fill="none" id="patient-marfan-001-backto-clinical-impression-001" style="stroke:#666666;stroke-width:2.0;"/><polygon fill="#666666" points="764.87,347.61,755.2283,345.6005,759.9827,348.6657,756.9175,353.4201,764.87,347.61" style="stroke:#666666;stroke-width:2.0;"/><text fill="#000000" font-family="sans-serif" font-size="13" lengthAdjust="spacing" textLength="42" x="421.5" y="457.4951">subject</text></g><!--reverse link patient-marfan-001 to condition-marfan-clinical--><g id="link_patient-marfan-001_condition-marfan-clinical"><path codeLine="174" d="M843.6703,401.7825 C846.8103,464.4425 854.93,556.28 877.5,638 C887.61,674.63 904.55,678.85 912.5,716 C931.11,802.92 955.41,838.15 912.5,916 C876.75,980.86 804.31,1023.94 743.61,1050.22 " fill="none" id="patient-marfan-001-backto-condition-marfan-clinical" style="stroke:#666666;stroke-width:2.0;"/><polygon fill="#666666" points="843.37,395.79,839.8255,404.9789,843.6202,400.7837,847.8154,404.5785,843.37,395.79" style="stroke:#666666;stroke-width:2.0;"/><text fill="#000000" font-family="sans-serif" font-size="13" lengthAdjust="spacing" textLength="42" x="901.5" y="682.4951">subject</text></g><!--reverse link patient-marfan-001 to condition-marfan-genetic--><g id="link_patient-marfan-001_condition-marfan-genetic"><path codeLine="175" d="M924.143,346.0043 C1052.173,369.3043 1294.47,421.4 1345.5,491 C1393.07,555.89 1368.28,646.71 1336.04,715.69 " fill="none" id="patient-marfan-001-backto-condition-marfan-genetic" style="stroke:#666666;stroke-width:2.0;"/><polygon fill="#666666" points="918.24,344.93,926.3784,350.4768,923.1592,345.8252,927.8108,342.6061,918.24,344.93" style="stroke:#666666;stroke-width:2.0;"/><text fill="#000000" font-family="sans-serif" font-size="13" lengthAdjust="spacing" textLength="42" x="1372.5" y="569.9951">subject</text></g><!--reverse link patient-marfan-001 to variant-fbn1-001--><g id="link_patient-marfan-001_variant-fbn1-001"><path codeLine="177" d="M903.9585,399.4076 C912.7885,406.2276 917.56,408.61 927.5,413 C1029.56,458.08 1363.37,397.01 1423.5,491 C1455.18,540.51 1432.2,839.2 1403.5,916 C1389.27,954.08 1363.53,990.86 1339.01,1020.24 " fill="none" id="patient-marfan-001-backto-variant-fbn1-001" style="stroke:#666666;stroke-width:2.0;"/><polygon fill="#666666" points="899.21,395.74,903.8877,404.4071,903.1671,398.7963,908.7779,398.0757,899.21,395.74" style="stroke:#666666;stroke-width:2.0;"/><text fill="#000000" font-family="sans-serif" font-size="13" lengthAdjust="spacing" textLength="42" x="1437.5" y="682.4951">subject</text></g><!--reverse link patient-marfan-001 to procedure-aortic-planned--><g id="link_patient-marfan-001_procedure-aortic-planned"><path codeLine="178" d="M885.9523,400.5956 C906.9423,432.9956 929.13,467.25 950.15,499.68 " fill="none" id="patient-marfan-001-backto-procedure-aortic-planned" style="stroke:#666666;stroke-width:2.0;"/><polygon fill="#666666" points="882.69,395.56,884.2263,405.2883,885.4086,399.7564,890.9405,400.9386,882.69,395.56" style="stroke:#666666;stroke-width:2.0;"/><text fill="#000000" font-family="sans-serif" font-size="13" lengthAdjust="spacing" textLength="42" x="921.5" y="457.4951">subject</text></g><!--reverse link patient-marfan-001 to medication-losartan--><g id="link_patient-marfan-001_medication-losartan"><path codeLine="179" d="M803.5795,401.1075 C789.8495,429.3875 778.39,458.24 771.5,491 C751.83,584.5 777.45,695.05 797.33,759.85 " fill="none" id="patient-marfan-001-backto-medication-losartan" style="stroke:#666666;stroke-width:2.0;"/><polygon fill="#666666" points="806.2,395.71,798.6709,402.0593,804.0163,400.2079,805.8676,405.5532,806.2,395.71" style="stroke:#666666;stroke-width:2.0;"/><text fill="#000000" font-family="sans-serif" font-size="13" lengthAdjust="spacing" textLength="42" x="772.5" y="569.9951">subject</text></g><!--reverse link patient-marfan-001 to observation-aortic-series--><g id="link_patient-marfan-001_observation-aortic-series"><path codeLine="180" d="M903.9231,399.4916 C912.7631,406.3016 917.53,408.66 927.5,413 C1019.58,453.12 1282.81,412.45 1378.5,443 C1417.28,455.38 1433.55,457.38 1456.5,491 C1506.02,563.54 1496.79,598.57 1488.5,686 C1467.52,907.36 1557.54,1032.73 1387.5,1176 C1331.28,1223.37 793.15,1174.96 726.5,1206 C703.29,1216.81 682.69,1234.91 665.72,1253.84 " fill="none" id="patient-marfan-001-backto-observation-aortic-series" style="stroke:#666666;stroke-width:2.0;"/><polygon fill="#666666" points="899.17,395.83,903.8586,404.4912,903.131,398.8814,908.7408,398.1537,899.17,395.83" style="stroke:#666666;stroke-width:2.0;"/><text fill="#000000" font-family="sans-serif" font-size="13" lengthAdjust="spacing" textLength="42" x="1493.5" y="821.4951">subject</text></g><!--reverse link patient-marfan-001 to observation-skeletal--><g id="link_patient-marfan-001_observation-skeletal"><path codeLine="181" d="M903.334,399.3106 C912.334,406.2406 917.3,408.68 927.5,413 C995.62,441.82 1532.23,400.12 1592.5,443 C1639.47,476.42 1640.5,505.85 1640.5,563.5 C1640.5,563.5 1640.5,563.5 1640.5,1086 C1640.5,1238.49 1109.55,1301.46 904.23,1320.11 " fill="none" id="patient-marfan-001-backto-observation-skeletal" style="stroke:#666666;stroke-width:2.0;"/><polygon fill="#666666" points="898.58,395.65,903.2706,404.3102,902.5416,398.7005,908.1513,397.9715,898.58,395.65" style="stroke:#666666;stroke-width:2.0;"/><text fill="#000000" font-family="sans-serif" font-size="13" lengthAdjust="spacing" textLength="42" x="1641.5" y="821.4951">subject</text></g><!--link clinical-impression-001 to condition-marfan-clinical--><g id="link_clinical-impression-001_condition-marfan-clinical"><path codeLine="189" d="M289.38,638.16 C299.7,647.37 309.32,657.34 317.5,668 C404.79,781.68 337.43,869.85 445.5,964 C474.9,989.61 505.2632,1010.0068 538.0832,1029.2368 " fill="none" id="clinical-impression-001-to-condition-marfan-clinical" style="stroke:#666666;stroke-width:2.0;"/><polygon fill="#666666" points="543.26,1032.27,537.5169,1024.2689,538.946,1029.7423,533.4726,1031.1714,543.26,1032.27" style="stroke:#666666;stroke-width:2.0;"/><text fill="#000000" font-family="sans-serif" font-size="13" lengthAdjust="spacing" textLength="37" x="403.5" y="821.4951">finding</text></g><!--link clinical-impression-001 to condition-marfan-genetic--><g id="link_clinical-impression-001_condition-marfan-genetic"><path codeLine="190" d="M304.94,629.73 C313.83,632.82 322.73,635.61 331.5,638 C448.43,669.8 486.27,633.7 602.5,668 C619.66,673.06 621.22,681.37 638.5,686 C855.26,744.02 931.41,639.88 1142.5,716 C1151.52,719.25 1155.1543,720.5083 1163.8843,725.1183 " fill="none" id="clinical-impression-001-to-condition-marfan-genetic" style="stroke:#666666;stroke-width:2.0;"/><polygon fill="#666666" points="1169.19,727.92,1163.0993,720.1803,1164.7686,725.5852,1159.3637,727.2545,1169.19,727.92" style="stroke:#666666;stroke-width:2.0;"/><text fill="#000000" font-family="sans-serif" font-size="13" lengthAdjust="spacing" textLength="37" x="639.5" y="682.4951">finding</text></g><!--link clinical-impression-001 to condition-cataract--><g id="link_clinical-impression-001_condition-cataract"><path codeLine="191" d="M102.13,490.65 C84.82,467.51 68.54,440.69 59.5,413 C36.88,343.71 26.61,314.05 59.5,249 C84.34,199.86 127.157,165.2467 171.597,138.9367 " fill="none" id="clinical-impression-001-to-condition-cataract" style="stroke:#666666;stroke-width:2.0;"/><polygon fill="#666666" points="176.76,135.88,166.9777,137.023,172.4575,138.4272,171.0533,143.907,176.76,135.88" style="stroke:#666666;stroke-width:2.0;"/><text fill="#000000" font-family="sans-serif" font-size="13" lengthAdjust="spacing" textLength="80" x="60.5" y="336.4951">supportingInfo</text></g><!--link clinical-impression-001 to variant-fbn1-001--><g id="link_clinical-impression-001_variant-fbn1-001"><path codeLine="194" d="M304.63,630.03 C312.96,632.97 321.29,635.66 329.5,638 C379.5,652.22 521.11,635.27 561.5,668 C652.25,741.54 578.11,822.78 648.5,916 C670.79,945.52 682.61,949.16 716.5,964 C737.98,973.41 1025.731,1032.7411 1179.361,1064.0711 " fill="none" id="clinical-impression-001-to-variant-fbn1-001" style="stroke:#666666;stroke-width:2.0;"/><polygon fill="#666666" points="1185.24,1065.27,1177.2208,1059.5523,1180.3408,1064.2709,1175.6222,1067.391,1185.24,1065.27" style="stroke:#666666;stroke-width:2.0;"/><text fill="#000000" font-family="sans-serif" font-size="13" lengthAdjust="spacing" textLength="71" x="649.5" y="821.4951">investigation</text></g><!--link clinical-impression-001 to observation-aortic-series--><g id="link_clinical-impression-001_observation-aortic-series"><path codeLine="195" d="M214.18,638.09 C228.27,662.41 243.33,689.96 255.5,716 C305.28,822.5 291.56,860.6 347.5,964 C405.88,1071.9 489.3862,1178.9712 548.3562,1249.3412 " fill="none" id="clinical-impression-001-to-observation-aortic-series" style="stroke:#666666;stroke-width:2.0;"/><polygon fill="#666666" points="552.21,1253.94,549.4952,1244.4727,548.9985,1250.1077,543.3635,1249.611,552.21,1253.94" style="stroke:#666666;stroke-width:2.0;"/><text fill="#000000" font-family="sans-serif" font-size="13" lengthAdjust="spacing" textLength="71" x="348.5" y="960.4951">investigation</text></g><!--link clinical-impression-001 to observation-skeletal--><g id="link_clinical-impression-001_observation-skeletal"><path codeLine="196" d="M304.71,629.77 C313.01,632.77 321.32,635.55 329.5,638 C411.83,662.62 456.82,610.31 520.5,668 C621.24,759.26 497.91,871.48 597.5,964 C651.79,1014.43 708.84,941.87 761.5,994 C832.48,1064.27 837.3678,1181.8532 832.3778,1256.9432 " fill="none" id="clinical-impression-001-to-observation-skeletal" style="stroke:#666666;stroke-width:2.0;"/><polygon fill="#666666" points="831.98,1262.93,836.568,1254.215,832.3115,1257.941,828.5856,1253.6846,831.98,1262.93" style="stroke:#666666;stroke-width:2.0;"/><text fill="#000000" font-family="sans-serif" font-size="13" lengthAdjust="spacing" textLength="71" x="598.5" y="960.4951">investigation</text></g><!--link condition-marfan-suspected to condition-marfan-clinical--><g id="link_condition-marfan-suspected_condition-marfan-clinical"><path codeLine="199" d="M334.68,413.18 C350.86,430.23 368.9,447.2 387.5,461 C412.09,479.24 431.9,465.96 449.5,491 C571.07,663.94 399.88,777.55 499.5,964 C510.31,984.24 521.6635,998.3795 538.8535,1014.1095 " fill="none" id="condition-marfan-suspected-to-condition-marfan-clinical" style="stroke:#666666;stroke-width:2.0;stroke-dasharray:7.0,7.0;"/><polygon fill="#666666" points="543.28,1018.16,539.3407,1009.1333,539.5913,1014.7846,533.94,1015.0352,543.28,1018.16" style="stroke:#666666;stroke-width:2.0;"/><text fill="#000000" font-family="sans-serif" font-size="13" lengthAdjust="spacing" textLength="46" x="492.5" y="682.4951">leads to</text></g><!--link condition-marfan-suspected to condition-marfan-genetic--><g id="link_condition-marfan-suspected_condition-marfan-genetic"><path codeLine="200" d="M378.54,386.81 C409.65,403.65 443.04,423.04 472.5,443 C584.86,519.13 588.87,572.08 707.5,638 C766.47,670.77 785.58,671.66 851.5,686 C973.8,712.61 1013.99,672.93 1131.5,716 C1144.3,720.69 1151.7941,723.846 1164.1441,730.646 " fill="none" id="condition-marfan-suspected-to-condition-marfan-genetic" style="stroke:#666666;stroke-width:2.0;stroke-dasharray:7.0,7.0;"/><polygon fill="#666666" points="1169.4,733.54,1163.4454,725.6951,1165.02,731.1284,1159.5868,732.703,1169.4,733.54" style="stroke:#666666;stroke-width:2.0;"/><text fill="#000000" font-family="sans-serif" font-size="13" lengthAdjust="spacing" textLength="46" x="708.5" y="569.9951">leads to</text></g><!--link condition-marfan-genetic to variant-fbn1-001--><g id="link_condition-marfan-genetic_variant-fbn1-001"><path codeLine="203" d="M1277.5,916.04 C1277.5,950.92 1277.5,983.16 1277.5,1014.34 " fill="none" id="condition-marfan-genetic-to-variant-fbn1-001" style="stroke:#666666;stroke-width:2.0;"/><polygon fill="#666666" points="1277.5,1020.34,1281.5,1011.34,1277.5,1015.34,1273.5,1011.34,1277.5,1020.34" style="stroke:#666666;stroke-width:2.0;"/><text fill="#000000" font-family="sans-serif" font-size="13" lengthAdjust="spacing" textLength="50" x="1278.5" y="960.4951">evidence</text></g><!--link condition-marfan-clinical to observation-aortic-series--><g id="link_condition-marfan-clinical_observation-aortic-series"><path codeLine="204" d="M618.43,1176.3 C616.41,1186.26 614.69,1196.3 613.5,1206 C612.52,1213.94 613.42,1216 613.5,1224 C613.59,1233.7 613.6387,1237.9209 613.8087,1247.9909 " fill="none" id="condition-marfan-clinical-to-observation-aortic-series" style="stroke:#666666;stroke-width:2.0;"/><polygon fill="#666666" points="613.91,1253.99,617.7575,1244.9238,613.8256,1248.9907,609.7587,1245.0588,613.91,1253.99" style="stroke:#666666;stroke-width:2.0;"/><text fill="#000000" font-family="sans-serif" font-size="13" lengthAdjust="spacing" textLength="50" x="614.5" y="1220.4951">evidence</text></g><!--link condition-marfan-clinical to observation-skeletal--><g id="link_condition-marfan-clinical_observation-skeletal"><path codeLine="205" d="M710.7,1176.28 C722.6,1192.2 734.89,1208.6 746.5,1224 C755.99,1236.59 762.5409,1245.242 772.3009,1258.092 " fill="none" id="condition-marfan-clinical-to-observation-skeletal" style="stroke:#666666;stroke-width:2.0;"/><polygon fill="#666666" points="775.93,1262.87,773.6717,1253.2835,772.9058,1258.8883,767.301,1258.1223,775.93,1262.87" style="stroke:#666666;stroke-width:2.0;"/><text fill="#000000" font-family="sans-serif" font-size="13" lengthAdjust="spacing" textLength="50" x="747.5" y="1220.4951">evidence</text></g><!--link procedure-aortic-planned to condition-marfan-clinical--><g id="link_procedure-aortic-planned_condition-marfan-clinical"><path codeLine="208" d="M1008.47,629.15 C1027.11,714.25 1045.66,865.77 973.5,964 C920.54,1036.1 825.7828,1064.0748 749.5028,1075.5848 " fill="none" id="procedure-aortic-planned-to-condition-marfan-clinical" style="stroke:#666666;stroke-width:2.0;"/><polygon fill="#666666" points="743.57,1076.48,753.0661,1079.0924,748.514,1075.734,751.8725,1071.182,743.57,1076.48" style="stroke:#666666;stroke-width:2.0;"/><text fill="#000000" font-family="sans-serif" font-size="13" lengthAdjust="spacing" textLength="97" x="1025.5" y="821.4951">reasonReference</text></g><!--link procedure-aortic-planned to condition-marfan-genetic--><g id="link_procedure-aortic-planned_condition-marfan-genetic"><path codeLine="209" d="M1064.41,629.1 C1096.27,656.9 1129.7689,686.1255 1164.8189,716.7055 " fill="none" id="procedure-aortic-planned-to-condition-marfan-genetic" style="stroke:#666666;stroke-width:2.0;"/><polygon fill="#666666" points="1169.34,720.65,1165.188,711.7191,1165.5724,717.3629,1159.9286,717.7473,1169.34,720.65" style="stroke:#666666;stroke-width:2.0;"/><text fill="#000000" font-family="sans-serif" font-size="13" lengthAdjust="spacing" textLength="97" x="1126.5" y="682.4951">reasonReference</text></g><!--link medication-losartan to condition-marfan-clinical--><g id="link_medication-losartan_condition-marfan-clinical"><path codeLine="212" d="M780.65,872.32 C757.94,907.38 731.293,948.5048 705.203,988.7648 " fill="none" id="medication-losartan-to-condition-marfan-clinical" style="stroke:#666666;stroke-width:2.0;"/><polygon fill="#666666" points="701.94,993.8,710.1913,988.4226,704.6592,989.604,703.4777,984.0719,701.94,993.8" style="stroke:#666666;stroke-width:2.0;"/><text fill="#000000" font-family="sans-serif" font-size="13" lengthAdjust="spacing" textLength="97" x="730.5" y="960.4951">reasonReference</text></g><!--link encounter-cardiology to condition-marfan-clinical--><g id="link_encounter-cardiology_condition-marfan-clinical"><path codeLine="215" d="M135.87,872.07 C146.15,903.26 163.48,940.6 191.5,964 C291.53,1047.52 437.8181,1073.0149 537.4981,1080.7649 " fill="none" id="encounter-cardiology-to-condition-marfan-clinical" style="stroke:#666666;stroke-width:2.0;"/><polygon fill="#666666" points="543.48,1081.23,534.8171,1076.5444,538.495,1080.8424,534.197,1084.5203,543.48,1081.23" style="stroke:#666666;stroke-width:2.0;"/><text fill="#000000" font-family="sans-serif" font-size="13" lengthAdjust="spacing" textLength="55" x="192.5" y="960.4951">diagnosis</text></g><!--link encounter-ophthalmology to condition-cataract--><g id="link_encounter-ophthalmology_condition-cataract"><path codeLine="216" d="M1786.88,508.23 C1779.33,485.01 1767.09,459.59 1747.5,443 C1464.3,203.27 1299.97,318.56 935.5,249 C920.53,246.14 406.68,176.57 392.5,171 C386.41,168.61 385.6776,168.5411 379.6676,165.5111 " fill="none" id="encounter-ophthalmology-to-condition-cataract" style="stroke:#666666;stroke-width:2.0;"/><polygon fill="#666666" points="374.31,162.81,380.5457,170.4334,378.7747,165.0609,384.1472,163.2899,374.31,162.81" style="stroke:#666666;stroke-width:2.0;"/><text fill="#000000" font-family="sans-serif" font-size="13" lengthAdjust="spacing" textLength="55" x="1701.5" y="336.4951">diagnosis</text></g><!--link encounter-surgery-planned to condition-marfan-genetic--><g id="link_encounter-surgery-planned_condition-marfan-genetic"><path codeLine="217" d="M1236.98,620.56 C1242.81,648.55 1248.8563,677.5461 1255.6163,709.9961 " fill="none" id="encounter-surgery-planned-to-condition-marfan-genetic" style="stroke:#666666;stroke-width:2.0;"/><polygon fill="#666666" points="1256.84,715.87,1258.9205,706.2434,1255.8203,710.9751,1251.0886,707.8749,1256.84,715.87" style="stroke:#666666;stroke-width:2.0;"/><text fill="#000000" font-family="sans-serif" font-size="13" lengthAdjust="spacing" textLength="55" x="1250.5" y="682.4951">diagnosis</text></g><!--reverse link patient-marfan-001 to encounter-cardiology--><g id="link_patient-marfan-001_encounter-cardiology"><path codeLine="220" d="M759.5577,370.2606 C697.2277,400.3806 613.21,443.49 539.5,491 C407.54,576.06 265.52,692.31 185.96,759.95 " fill="none" id="patient-marfan-001-backto-encounter-cardiology" style="stroke:#666666;stroke-width:2.0;"/><polygon fill="#666666" points="764.96,367.65,755.1162,367.9643,760.4581,369.8255,758.5969,375.1674,764.96,367.65" style="stroke:#666666;stroke-width:2.0;"/><text fill="#000000" font-family="sans-serif" font-size="13" lengthAdjust="spacing" textLength="42" x="540.5" y="569.9951">subject</text></g><!--reverse link patient-marfan-001 to encounter-ophthalmology--><g id="link_patient-marfan-001_encounter-ophthalmology"><path codeLine="221" d="M924.1379,336.8504 C1102.4879,348.1804 1534.16,381.21 1666.5,443 C1699.11,458.23 1729.27,484.4 1752.51,508.46 " fill="none" id="patient-marfan-001-backto-encounter-ophthalmology" style="stroke:#666666;stroke-width:2.0;"/><polygon fill="#666666" points="918.15,336.47,926.8783,341.0325,923.1399,336.787,927.3855,333.0486,918.15,336.47" style="stroke:#666666;stroke-width:2.0;"/><text fill="#000000" font-family="sans-serif" font-size="13" lengthAdjust="spacing" textLength="42" x="1696.5" y="457.4951">subject</text></g><!--reverse link patient-marfan-001 to encounter-surgery-planned--><g id="link_patient-marfan-001_encounter-surgery-planned"><path codeLine="222" d="M923.1909,381.1637 C975.9009,412.8837 1042.39,452.93 1105.5,491 C1114.88,496.66 1124.67,502.57 1134.43,508.46 " fill="none" id="patient-marfan-001-backto-encounter-surgery-planned" style="stroke:#666666;stroke-width:2.0;"/><polygon fill="#666666" points="918.05,378.07,923.6989,386.1378,922.3341,380.6481,927.8238,379.2833,918.05,378.07" style="stroke:#666666;stroke-width:2.0;"/><text fill="#000000" font-family="sans-serif" font-size="13" lengthAdjust="spacing" textLength="42" x="1055.5" y="457.4951">subject</text></g><rect fill="none" height="154.875" id="_legend" rx="5" ry="5" style="stroke:#000000;stroke-width:1.0;" width="356" x="772.75" y="1423.75"/><text fill="#000000" font-family="sans-serif" font-size="14" lengthAdjust="spacing" textLength="34" x="777.75" y="1445.2832">Color</text><text fill="#000000" font-family="sans-serif" font-size="14" lengthAdjust="spacing" textLength="32" x="811.75" y="1445.2832">Type</text><text fill="#000000" font-family="sans-serif" font-size="14" lengthAdjust="spacing" textLength="87" x="924.75" y="1445.2832">Beschreibung</text><rect fill="#1E3A5F" height="17.6094" style="stroke:none;stroke-width:1.0;" width="34" x="777.75" y="1448.3594"/><text fill="#000000" font-family="sans-serif" font-size="14" lengthAdjust="spacing" textLength="4" x="777.75" y="1462.8926">&#160;</text><text fill="#000000" font-family="sans-serif" font-size="14" lengthAdjust="spacing" textLength="44" x="811.75" y="1462.8926">Patient</text><text fill="#000000" font-family="sans-serif" font-size="14" lengthAdjust="spacing" textLength="179" x="924.75" y="1462.8926">Zentrale Patientenressource</text><rect fill="#DC2626" height="17.6094" style="stroke:none;stroke-width:1.0;" width="34" x="777.75" y="1465.9688"/><text fill="#000000" font-family="sans-serif" font-size="14" lengthAdjust="spacing" textLength="4" x="777.75" y="1480.502">&#160;</text><text fill="#000000" font-family="sans-serif" font-size="14" lengthAdjust="spacing" textLength="60" x="811.75" y="1480.502">Condition</text><text fill="#000000" font-family="sans-serif" font-size="14" lengthAdjust="spacing" textLength="199" x="924.75" y="1480.502">Diagnosen (Katarakt &#8594; Marfan)</text><rect fill="#FACC15" height="17.6094" style="stroke:none;stroke-width:1.0;" width="34" x="777.75" y="1483.5781"/><text fill="#000000" font-family="sans-serif" font-size="14" lengthAdjust="spacing" textLength="4" x="777.75" y="1498.1113">&#160;</text><text fill="#000000" font-family="sans-serif" font-size="14" lengthAdjust="spacing" textLength="113" x="811.75" y="1498.1113">ClinicalImpression</text><text fill="#000000" font-family="sans-serif" font-size="14" lengthAdjust="spacing" textLength="109" x="924.75" y="1498.1113">ZSE-Konsultation</text><rect fill="#0D9488" height="17.6094" style="stroke:none;stroke-width:1.0;" width="34" x="777.75" y="1501.1875"/><text fill="#000000" font-family="sans-serif" font-size="14" lengthAdjust="spacing" textLength="4" x="777.75" y="1515.7207">&#160;</text><text fill="#000000" font-family="sans-serif" font-size="14" lengthAdjust="spacing" textLength="77" x="811.75" y="1515.7207">Observation</text><text fill="#000000" font-family="sans-serif" font-size="14" lengthAdjust="spacing" textLength="119" x="924.75" y="1515.7207">Befunde &amp; Genetik</text><rect fill="#7C3AED" height="17.6094" style="stroke:none;stroke-width:1.0;" width="34" x="777.75" y="1518.7969"/><text fill="#000000" font-family="sans-serif" font-size="14" lengthAdjust="spacing" textLength="4" x="777.75" y="1533.3301">&#160;</text><text fill="#000000" font-family="sans-serif" font-size="14" lengthAdjust="spacing" textLength="66" x="811.75" y="1533.3301">Procedure</text><text fill="#000000" font-family="sans-serif" font-size="14" lengthAdjust="spacing" textLength="79" x="924.75" y="1533.3301">Operationen</text><rect fill="#EA580C" height="17.6094" style="stroke:none;stroke-width:1.0;" width="34" x="777.75" y="1536.4063"/><text fill="#000000" font-family="sans-serif" font-size="14" lengthAdjust="spacing" textLength="4" x="777.75" y="1550.9395">&#160;</text><text fill="#000000" font-family="sans-serif" font-size="14" lengthAdjust="spacing" textLength="65" x="811.75" y="1550.9395">Encounter</text><text fill="#000000" font-family="sans-serif" font-size="14" lengthAdjust="spacing" textLength="56" x="924.75" y="1550.9395">Kontakte</text><rect fill="#EC4899" height="17.6094" style="stroke:none;stroke-width:1.0;" width="34" x="777.75" y="1554.0156"/><text fill="#000000" font-family="sans-serif" font-size="14" lengthAdjust="spacing" textLength="4" x="777.75" y="1568.5488">&#160;</text><text fill="#000000" font-family="sans-serif" font-size="14" lengthAdjust="spacing" textLength="68" x="811.75" y="1568.5488">Medication</text><text fill="#000000" font-family="sans-serif" font-size="14" lengthAdjust="spacing" textLength="68" x="924.75" y="1568.5488">Medikation</text><line style="stroke:#000000;stroke-width:1.0;" x1="777.75" x2="1123.75" y1="1430.75" y2="1430.75"/><line style="stroke:#000000;stroke-width:1.0;" x1="777.75" x2="1123.75" y1="1448.3594" y2="1448.3594"/><line style="stroke:#000000;stroke-width:1.0;" x1="777.75" x2="1123.75" y1="1465.9688" y2="1465.9688"/><line style="stroke:#000000;stroke-width:1.0;" x1="777.75" x2="1123.75" y1="1483.5781" y2="1483.5781"/><line style="stroke:#000000;stroke-width:1.0;" x1="777.75" x2="1123.75" y1="1501.1875" y2="1501.1875"/><line style="stroke:#000000;stroke-width:1.0;" x1="777.75" x2="1123.75" y1="1518.7969" y2="1518.7969"/><line style="stroke:#000000;stroke-width:1.0;" x1="777.75" x2="1123.75" y1="1536.4063" y2="1536.4063"/><line style="stroke:#000000;stroke-width:1.0;" x1="777.75" x2="1123.75" y1="1554.0156" y2="1554.0156"/><line style="stroke:#000000;stroke-width:1.0;" x1="777.75" x2="1123.75" y1="1571.625" y2="1571.625"/><line style="stroke:#000000;stroke-width:1.0;" x1="777.75" x2="777.75" y1="1430.75" y2="1571.625"/><line style="stroke:#000000;stroke-width:1.0;" x1="811.75" x2="811.75" y1="1430.75" y2="1571.625"/><line style="stroke:#000000;stroke-width:1.0;" x1="924.75" x2="924.75" y1="1430.75" y2="1571.625"/><line style="stroke:#000000;stroke-width:1.0;" x1="1123.75" x2="1123.75" y1="1430.75" y2="1571.625"/><!--SRC=[lHdDRjl8-SwdcDq0RHAKWYHRZYq40kpOSGpRiTVsfgYB7aRaK9mLEICCXtBirVROU_i2lUGPzjIRtwHFqcz-I0ujKhHpg174ript__-DVWX9H1b1X_jNfmTdFn-XLmEoXKUHzuEzE3iv_dHZRhRnxWxPBM-EhuwEFgDN_N1lUxSwlRZQ_tmCm0IFTlj1UNpvyzNb6Ho_2xOm2SlZgwD3z2eCXZl3dVBiBqTdPnT_HgyY70I3KKNXvFCfa0ssT_VsF2-RKxR00gTeYeFvJF2SXHzumWNWxKPx4NOWz6N01IC23VhEHHRZaDzHDaDIvCIvs1U2trboE_hdwULDJ8Cv8rc6XgumGOBXw5SFmSz1NR3txo-nf8J9oQIqje7Z8YHYCyn7pkGQn5rC9T7NpVm-S1PIIJa3M33qEhCc08UJUzt5wsAQ4R745bg7nZg_DY27PnsaY-kbu049Sq40raHOWqMROLoBEX1T78zO09ya4G1hGdsTOmkCmz65wE9uJa8Q50PHIR3Ei1d4uLS3w0oRX3A0JaxIXO00DqWcAHj2g0FO3QScq6a2xBtVFE-Fw0pVyroYc3A9V1Hn4H2Ka4YY1Szq64AYUfBFY8mXaKsEcNpxCIWYrGSj8H43-IEgnwy1LpzltvvgcBb4KvfWS09EthujhwybbdasHY0YJvPGgegBam-7_g0_Hf-6ExszylH8P3AaUCPuHiPeCEeD-hrXVxXT0jpsM0zTNCBTi3SOrE_- -uz_eNscLOWU_oFGxVMH_uK3HP8aEIYhO7whFBMcR8f5X9cVvTc219A4cvJ-GaI8WrWYd4Vet21UtxDGyDJHFh0-Agm0bgHBKbulYQ2HZQG2P27uaYflucJDLZ_jlkjLwduacInq0tlqUs2IcZr-ok4Ip0XsQDFTokVJCeZyVd-W5MyAhvhRESloH6hX5Oi6fmSyNIH4Ebu_X8jqZ8Rhmjxc6KvJmY8GJ2jq0EezVfDq9abcBLm2frIYkH8m2sB242GRcX56fFryG28u8gn5QrAK2mXl4L98fzczKjaj8_K0jr2Ql8xHPHLMZjvMEnMsJxIxkL-CqNuwpHFCf1LBPwbjFmXB17c80gBuUrRGXRai0jDwfkfOHiZ1dl_BuxTOq1dayJbcHkrZCis57AE_3_lzaJuvEHoZywkFlX9CqJ9Wul7tntz3a0p_DDXAZKmGyn4LAGdHeKt5p6jBbYA2cdC5R5TugQHbVMdDzW4gneoB-t6PArv7uZGbJL18x3MdouLOn7YCHgDTho5pAdU1-csAclWAslGyBiElKr5BwV-kvvEa-tZmUJ16CK_vm_sCIn0tDybiWi0e520O5aFe51bwBVdYJM6U9HOK8jcFfcnGn6LzrYWCezYKfAqjWjxMSF3kUBAFNYzwnydzeFzkQr_CtdXkyO0mZukayvfhXnRqHX0ieN18415o89Qba8jY4F4n5w2Blu3iOwQkkqDA8Ue-G15sbui7aX2HOVbWvRsul0QZ-bkZxLuVU_LCxsyfMKRsT4b3_s81FR0mf1KbBIS6F-4P5X8p9KLja2Z4EBC0blcedyxGu2k2OZXBgBK564abTprq8NDLfS81ufKhm2fJBYM7kRrc70UaC0ySK9Ark_997RHLrehf6c-CjdVJ5FhnFytLwSaO2WqEqSc9FZYl3lJdcvWB_1M8fWJGRG1Upy4B4YVDogX9fb6NpAArgs480mY4F17p5FwmEfm-_Yx0URDwJTH36g4iUVp687T36aL44FRWDPTy41walz1JLTbHIi5BcQicn1UnZ76IRkX349ivi7xy9XwaYW62tEvhfNT4SOQcUkUf8hBYd-K2EiUzcnrD4XmJ1G1ruXCuAOYf03HArdYx-Q1vNniXGVRQNEfCeUYEoXW6rH1QDi9g7SoynXdK_wi1-XkicSoVR9pTl8s3tJgbbad8Qv-HrcWqpXKTckYaLCWDlVwPAdIGw1H_8puux8ea9lbYkiXWbN165ZkkD0yglhzvk1wZB9_-0XzUWb_D6z-5NdRnPs6tcUuvoEiTyZbOxIthETYDNUOvY1kQmKlHg_hxCWTLkL7XwOvcZX7Ea8H8dQbmQyBgzIPTuMRnCqIMECbDYrOirZOTs5Pn1hymx1Lm17KssvH8VYTdSEiq8UcBYRZHRWUn5zDmGlx59EfEMInKQB3P2OjuY-4eMyBCIMUcO7GnQigH6eKk0XlZzhifkI5S9w8NDe5XgqvGyKoXIYBqzXYHhpIJAAEfwikCy3nBxZUNyEQOTPsU41n2uFFleUCulYG32Xp1Z0gTYY1WCy-y3NYjFYAMXBT9-6u7VHyPrpib1UMOedJQx0NLsgjfTxeP8bT4ptfAnfSISyp_b1P8Mqt-zjPhhjul5rIvk1X4YY2bMU7jvhUFRYub8QzzSjrGF1hHrmRFJaDMP6fQslPIwDZQRPgLVqwVQjNvPSXh6jTxtNezBL6xwbURQXK1jIhJb2Jgon_WpksopzJghqT0nAD6ztbg-hybr6mU0dqX8i5vDDQZ_w27olVVrthrUAFVOTVVNeSzL3wQcfSHG52xl5hxju3C-akH9gZljtkewONbzR0W0FzAEUwmSD-1uUeEf2S2FiIG8s59GDAv1v-Hie5dBA5Vo9KXsYkNL-x2UeN4Z4RG8gfDR5e-N3vv67Pu9KHjaiWkitQCNkcN_HLiJMHrG41JGUWKZBVoLk_jzuYJbPs-LxVmdr02s0F2L53mN0H4mvjl0IUhyh5gLLWDx5wQIhdA2Fb6Oval2G5hBHHNogFkrgdXpRULavMpQQ_ikm3wWtNPN4EQRof1_gAChift4c9ecQyu9wiohrV0JeAKHY7pLULaLLLE_UVS2WFcD4Rr_WS0]--></g></svg>