<?xml version="1.0" encoding="us-ascii" standalone="no"?><svg xmlns="http://www.w3.org/2000/svg" xmlns:xlink="http://www.w3.org/1999/xlink" contentStyleType="text/css" height="1335px" preserveAspectRatio="none" style="width:2590px;height:1335px;background:#F8F9FA;" version="1.1" viewBox="0 0 2590 1335" width="2590px" zoomAndPan="magnify"><defs><filter height="300%" id="fb1q21lgqwodi" width="300%" x="-1" y="-1"><feGaussianBlur result="blurOut" stdDeviation="2.0"/><feColorMatrix in="blurOut" result="blurOut2" type="matrix" values="0 0 0 0 0 0 0 0 0 0 0 0 0 0 0 0 0 0 .4 0"/><feOffset dx="4.0" dy="4.0" in="blurOut2" result="blurOut3"/><feBlend in="SourceGraphic" in2="blurOut3" mode="normal"/></filter></defs><g><rect fill="#F8F9FA" height="1335" style="stroke:none;stroke-width:1.0;" width="2590" x="0" y="0"/><!--class condition-sma-suspected--><g id="elem_condition-sma-suspected"><rect codeLine="47" fill="#DC2626" filter="url(#fb1q21lgqwodi)" height="146.75" id="condition-sma-suspected" rx="5" ry="5" style="stroke:#DC2626;stroke-width:0.5;" width="217" x="188.5" y="55.45"/><ellipse cx="215.65" cy="76.8016" fill="#ADD1B2" rx="11" ry="11" style="stroke:#181818;stroke-width:1.0;"/><path d="M218.4156,72.6766 Q218.5719,72.4578 218.7594,72.3484 Q218.9469,72.2391 219.1656,72.2391 Q219.5406,72.2391 219.775,72.5047 Q220.0094,72.7547 220.0094,73.3641 L220.0094,74.8172 Q220.0094,75.4266 219.775,75.6922 Q219.5406,75.9578 219.1656,75.9578 Q218.8219,75.9578 218.6188,75.7547 Q218.4156,75.5672 218.3063,75.0516 Q218.2594,74.6922 218.0719,74.5047 Q217.7438,74.1297 217.1344,73.9109 Q216.525,73.6922 215.9,73.6922 Q215.1344,73.6922 214.4938,74.0203 Q213.8688,74.3484 213.3688,75.0984 Q212.8844,75.8484 212.8844,76.8797 L212.8844,77.9734 Q212.8844,79.2078 213.775,80.0359 Q214.6656,80.8484 216.2594,80.8484 Q217.1969,80.8484 217.8531,80.5984 Q218.2438,80.4422 218.6656,80.0047 Q218.9313,79.7391 219.0719,79.6609 Q219.2281,79.5828 219.4313,79.5828 Q219.7594,79.5828 220.0094,79.8484 Q220.275,80.0984 220.275,80.4422 Q220.275,80.7859 219.9313,81.1922 Q219.4313,81.7703 218.6344,82.0984 Q217.5563,82.5516 216.2594,82.5516 Q214.7438,82.5516 213.5406,81.9266 Q212.5563,81.4266 211.8688,80.3641 Q211.1813,79.2859 211.1813,78.0047 L211.1813,76.8484 Q211.1813,75.5203 211.7906,74.3797 Q212.4156,73.2234 213.5094,72.6141 Q214.6031,71.9891 215.8375,71.9891 Q216.5719,71.9891 217.2125,72.1609 Q217.8688,72.3172 218.4156,72.6766 Z " fill="#000000"/><text fill="#000000" font-family="sans-serif" font-size="12" font-style="italic" lengthAdjust="spacing" textLength="67" x="277.85" y="72.907">&#171;Condition&#187;</text><text fill="#FFFFFF" font-family="sans-serif" font-size="14" lengthAdjust="spacing" textLength="158" x="232.35" y="90.077">condition-sma-suspected</text><line style="stroke:#DC2626;stroke-width:0.5;" x1="189.5" x2="404.5" y1="98.1531" y2="98.1531"/><text fill="#000000" font-family="sans-serif" font-size="14" font-weight="bold" lengthAdjust="spacing" textLength="124" x="194.5" y="116.6863">Verdacht auf SMA</text><text fill="#000000" font-family="sans-serif" font-size="14" lengthAdjust="spacing" textLength="127" x="194.5" y="134.2957">clinicalStatus: active</text><text fill="#000000" font-family="sans-serif" font-size="14" lengthAdjust="spacing" textLength="184" x="194.5" y="151.9051">verificationStatus: provisional</text><text fill="#000000" font-family="sans-serif" font-size="14" lengthAdjust="spacing" textLength="157" x="194.5" y="169.5145">Feststellung: 18.07.2024</text><text fill="#000000" font-family="sans-serif" font-size="14" lengthAdjust="spacing" textLength="205" x="194.5" y="187.1238">Quelle: Neugeborenenscreening</text><line style="stroke:#DC2626;stroke-width:0.5;" x1="189.5" x2="404.5" y1="194.2" y2="194.2"/></g><!--class clinical-impression-001--><g id="elem_clinical-impression-001"><rect codeLine="55" fill="#FACC15" filter="url(#fb1q21lgqwodi)" height="146.75" id="clinical-impression-001" rx="5" ry="5" style="stroke:#FACC15;stroke-width:0.5;" width="275" x="130.5" y="280.45"/><ellipse cx="191.75" cy="301.8016" fill="#ADD1B2" rx="11" ry="11" style="stroke:#181818;stroke-width:1.0;"/><path d="M194.5156,297.6766 Q194.6719,297.4578 194.8594,297.3484 Q195.0469,297.2391 195.2656,297.2391 Q195.6406,297.2391 195.875,297.5047 Q196.1094,297.7547 196.1094,298.3641 L196.1094,299.8172 Q196.1094,300.4266 195.875,300.6922 Q195.6406,300.9578 195.2656,300.9578 Q194.9219,300.9578 194.7188,300.7547 Q194.5156,300.5672 194.4063,300.0516 Q194.3594,299.6922 194.1719,299.5047 Q193.8438,299.1297 193.2344,298.9109 Q192.625,298.6922 192,298.6922 Q191.2344,298.6922 190.5938,299.0203 Q189.9688,299.3484 189.4688,300.0984 Q188.9844,300.8484 188.9844,301.8797 L188.9844,302.9734 Q188.9844,304.2078 189.875,305.0359 Q190.7656,305.8484 192.3594,305.8484 Q193.2969,305.8484 193.9531,305.5984 Q194.3438,305.4422 194.7656,305.0047 Q195.0313,304.7391 195.1719,304.6609 Q195.3281,304.5828 195.5313,304.5828 Q195.8594,304.5828 196.1094,304.8484 Q196.375,305.0984 196.375,305.4422 Q196.375,305.7859 196.0313,306.1922 Q195.5313,306.7703 194.7344,307.0984 Q193.6563,307.5516 192.3594,307.5516 Q190.8438,307.5516 189.6406,306.9266 Q188.6563,306.4266 187.9688,305.3641 Q187.2813,304.2859 187.2813,303.0047 L187.2813,301.8484 Q187.2813,300.5203 187.8906,299.3797 Q188.5156,298.2234 189.6094,297.6141 Q190.7031,296.9891 191.9375,296.9891 Q192.6719,296.9891 193.3125,297.1609 Q193.9688,297.3172 194.5156,297.6766 Z " fill="#000000"/><text fill="#000000" font-family="sans-serif" font-size="12" font-style="italic" lengthAdjust="spacing" textLength="117" x="225.75" y="297.907">&#171;ClinicalImpression&#187;</text><text fill="#000000" font-family="sans-serif" font-size="14" lengthAdjust="spacing" textLength="144" x="212.25" y="315.077">clinical-impression-001</text><line style="stroke:#FACC15;stroke-width:0.5;" x1="131.5" x2="404.5" y1="323.1531" y2="323.1531"/><text fill="#000000" font-family="sans-serif" font-size="14" font-weight="bold" lengthAdjust="spacing" textLength="187" x="136.5" y="341.6863">Klinische Beurteilung SMA</text><text fill="#000000" font-family="sans-serif" font-size="14" lengthAdjust="spacing" textLength="113" x="136.5" y="359.2957">Status: completed</text><text fill="#000000" font-family="sans-serif" font-size="14" lengthAdjust="spacing" textLength="121" x="136.5" y="376.9051">Datum: 26.07.2024</text><text fill="#000000" font-family="sans-serif" font-size="14" lengthAdjust="spacing" textLength="263" x="136.5" y="394.5145">Zusammenfassung: Best&#228;tigte SMA Typ 1</text><text fill="#000000" font-family="sans-serif" font-size="14" lengthAdjust="spacing" textLength="258" x="136.5" y="412.1238">mit klinischen und genetischen Befunden</text><line style="stroke:#FACC15;stroke-width:0.5;" x1="131.5" x2="404.5" y1="419.2" y2="419.2"/></g><!--class encounter-screening-001--><g id="elem_encounter-screening-001"><rect codeLine="63" fill="#EA580C" filter="url(#fb1q21lgqwodi)" height="111.5313" id="encounter-screening-001" rx="5" ry="5" style="stroke:#EA580C;stroke-width:0.5;" width="192" x="7" y="513.95"/><ellipse cx="22" cy="535.3016" fill="#ADD1B2" rx="11" ry="11" style="stroke:#181818;stroke-width:1.0;"/><path d="M24.7656,531.1766 Q24.9219,530.9578 25.1094,530.8484 Q25.2969,530.7391 25.5156,530.7391 Q25.8906,530.7391 26.125,531.0047 Q26.3594,531.2547 26.3594,531.8641 L26.3594,533.3172 Q26.3594,533.9266 26.125,534.1922 Q25.8906,534.4578 25.5156,534.4578 Q25.1719,534.4578 24.9688,534.2547 Q24.7656,534.0672 24.6563,533.5516 Q24.6094,533.1922 24.4219,533.0047 Q24.0938,532.6297 23.4844,532.4109 Q22.875,532.1922 22.25,532.1922 Q21.4844,532.1922 20.8438,532.5203 Q20.2188,532.8484 19.7188,533.5984 Q19.2344,534.3484 19.2344,535.3797 L19.2344,536.4734 Q19.2344,537.7078 20.125,538.5359 Q21.0156,539.3484 22.6094,539.3484 Q23.5469,539.3484 24.2031,539.0984 Q24.5938,538.9422 25.0156,538.5047 Q25.2813,538.2391 25.4219,538.1609 Q25.5781,538.0828 25.7813,538.0828 Q26.1094,538.0828 26.3594,538.3484 Q26.625,538.5984 26.625,538.9422 Q26.625,539.2859 26.2813,539.6922 Q25.7813,540.2703 24.9844,540.5984 Q23.9063,541.0516 22.6094,541.0516 Q21.0938,541.0516 19.8906,540.4266 Q18.9063,539.9266 18.2188,538.8641 Q17.5313,537.7859 17.5313,536.5047 L17.5313,535.3484 Q17.5313,534.0203 18.1406,532.8797 Q18.7656,531.7234 19.8594,531.1141 Q20.9531,530.4891 22.1875,530.4891 Q22.9219,530.4891 23.5625,530.6609 Q24.2188,530.8172 24.7656,531.1766 Z " fill="#000000"/><text fill="#000000" font-family="sans-serif" font-size="12" font-style="italic" lengthAdjust="spacing" textLength="70" x="81" y="531.407">&#171;Encounter&#187;</text><text fill="#FFFFFF" font-family="sans-serif" font-size="14" lengthAdjust="spacing" textLength="160" x="36" y="548.577">encounter-screening-001</text><line style="stroke:#EA580C;stroke-width:0.5;" x1="8" x2="198" y1="556.6531" y2="556.6531"/><text fill="#000000" font-family="sans-serif" font-size="14" font-weight="bold" lengthAdjust="spacing" textLength="177" x="13" y="575.1863">Neugeborenenscreening</text><text fill="#000000" font-family="sans-serif" font-size="14" lengthAdjust="spacing" textLength="121" x="13" y="592.7957">Datum: 18.07.2024</text><text fill="#000000" font-family="sans-serif" font-size="14" lengthAdjust="spacing" textLength="96" x="13" y="610.4051">Typ: Screening</text><line style="stroke:#EA580C;stroke-width:0.5;" x1="8" x2="198" y1="617.4813" y2="617.4813"/></g><!--class patient-sma-001--><g id="elem_patient-sma-001"><rect codeLine="71" fill="#1E3A5F" filter="url(#fb1q21lgqwodi)" height="111.5313" id="patient-sma-001" rx="5" ry="5" style="stroke:#1E3A5F;stroke-width:0.5;" width="167" x="1526.5" y="72.95"/><ellipse cx="1555.9" cy="94.3016" fill="#ADD1B2" rx="11" ry="11" style="stroke:#181818;stroke-width:1.0;"/><path d="M1558.6656,90.1766 Q1558.8219,89.9578 1559.0094,89.8484 Q1559.1969,89.7391 1559.4156,89.7391 Q1559.7906,89.7391 1560.025,90.0047 Q1560.2594,90.2547 1560.2594,90.8641 L1560.2594,92.3172 Q1560.2594,92.9266 1560.025,93.1922 Q1559.7906,93.4578 1559.4156,93.4578 Q1559.0719,93.4578 1558.8688,93.2547 Q1558.6656,93.0672 1558.5563,92.5516 Q1558.5094,92.1922 1558.3219,92.0047 Q1557.9938,91.6297 1557.3844,91.4109 Q1556.775,91.1922 1556.15,91.1922 Q1555.3844,91.1922 1554.7438,91.5203 Q1554.1188,91.8484 1553.6188,92.5984 Q1553.1344,93.3484 1553.1344,94.3797 L1553.1344,95.4734 Q1553.1344,96.7078 1554.025,97.5359 Q1554.9156,98.3484 1556.5094,98.3484 Q1557.4469,98.3484 1558.1031,98.0984 Q1558.4938,97.9422 1558.9156,97.5047 Q1559.1813,97.2391 1559.3219,97.1609 Q1559.4781,97.0828 1559.6813,97.0828 Q1560.0094,97.0828 1560.2594,97.3484 Q1560.525,97.5984 1560.525,97.9422 Q1560.525,98.2859 1560.1813,98.6922 Q1559.6813,99.2703 1558.8844,99.5984 Q1557.8063,100.0516 1556.5094,100.0516 Q1554.9938,100.0516 1553.7906,99.4266 Q1552.8063,98.9266 1552.1188,97.8641 Q1551.4313,96.7859 1551.4313,95.5047 L1551.4313,94.3484 Q1551.4313,93.0203 1552.0406,91.8797 Q1552.6656,90.7234 1553.7594,90.1141 Q1554.8531,89.4891 1556.0875,89.4891 Q1556.8219,89.4891 1557.4625,89.6609 Q1558.1188,89.8172 1558.6656,90.1766 Z " fill="#000000"/><text fill="#000000" font-family="sans-serif" font-size="12" font-style="italic" lengthAdjust="spacing" textLength="52" x="1598.6" y="90.407">&#171;Patient&#187;</text><text fill="#FFFFFF" font-family="sans-serif" font-size="14" lengthAdjust="spacing" textLength="103" x="1573.1" y="107.577">patient-sma-001</text><line style="stroke:#1E3A5F;stroke-width:0.5;" x1="1527.5" x2="1692.5" y1="115.6531" y2="115.6531"/><text fill="#000000" font-family="sans-serif" font-size="14" lengthAdjust="spacing" textLength="155" x="1532.5" y="134.1863">Neugeborenes M&#228;dchen</text><text fill="#000000" font-family="sans-serif" font-size="14" lengthAdjust="spacing" textLength="132" x="1532.5" y="151.7957">Geburt: ~01.07.2024</text><text fill="#000000" font-family="sans-serif" font-size="14" lengthAdjust="spacing" textLength="116" x="1532.5" y="169.4051">ID: SMA-2024-001</text><line style="stroke:#1E3A5F;stroke-width:0.5;" x1="1527.5" x2="1692.5" y1="176.4813" y2="176.4813"/></g><!--class condition-sma-clinical--><g id="elem_condition-sma-clinical"><rect codeLine="78" fill="#DC2626" filter="url(#fb1q21lgqwodi)" height="199.5781" id="condition-sma-clinical" rx="5" ry="5" style="stroke:#DC2626;stroke-width:0.5;" width="222" x="1428" y="712.45"/><ellipse cx="1467.75" cy="733.8016" fill="#ADD1B2" rx="11" ry="11" style="stroke:#181818;stroke-width:1.0;"/><path d="M1470.5156,729.6766 Q1470.6719,729.4578 1470.8594,729.3484 Q1471.0469,729.2391 1471.2656,729.2391 Q1471.6406,729.2391 1471.875,729.5047 Q1472.1094,729.7547 1472.1094,730.3641 L1472.1094,731.8172 Q1472.1094,732.4266 1471.875,732.6922 Q1471.6406,732.9578 1471.2656,732.9578 Q1470.9219,732.9578 1470.7188,732.7547 Q1470.5156,732.5672 1470.4063,732.0516 Q1470.3594,731.6922 1470.1719,731.5047 Q1469.8438,731.1297 1469.2344,730.9109 Q1468.625,730.6922 1468,730.6922 Q1467.2344,730.6922 1466.5938,731.0203 Q1465.9688,731.3484 1465.4688,732.0984 Q1464.9844,732.8484 1464.9844,733.8797 L1464.9844,734.9734 Q1464.9844,736.2078 1465.875,737.0359 Q1466.7656,737.8484 1468.3594,737.8484 Q1469.2969,737.8484 1469.9531,737.5984 Q1470.3438,737.4422 1470.7656,737.0047 Q1471.0313,736.7391 1471.1719,736.6609 Q1471.3281,736.5828 1471.5313,736.5828 Q1471.8594,736.5828 1472.1094,736.8484 Q1472.375,737.0984 1472.375,737.4422 Q1472.375,737.7859 1472.0313,738.1922 Q1471.5313,738.7703 1470.7344,739.0984 Q1469.6563,739.5516 1468.3594,739.5516 Q1466.8438,739.5516 1465.6406,738.9266 Q1464.6563,738.4266 1463.9688,737.3641 Q1463.2813,736.2859 1463.2813,735.0047 L1463.2813,733.8484 Q1463.2813,732.5203 1463.8906,731.3797 Q1464.5156,730.2234 1465.6094,729.6141 Q1466.7031,728.9891 1467.9375,728.9891 Q1468.6719,728.9891 1469.3125,729.1609 Q1469.9688,729.3172 1470.5156,729.6766 Z " fill="#000000"/><text fill="#000000" font-family="sans-serif" font-size="12" font-style="italic" lengthAdjust="spacing" textLength="67" x="1521.25" y="729.907">&#171;Condition&#187;</text><text fill="#FFFFFF" font-family="sans-serif" font-size="14" lengthAdjust="spacing" textLength="135" x="1487.25" y="747.077">condition-sma-clinical</text><line style="stroke:#DC2626;stroke-width:0.5;" x1="1429" x2="1649" y1="755.1531" y2="755.1531"/><text fill="#000000" font-family="sans-serif" font-size="14" font-weight="bold" lengthAdjust="spacing" textLength="210" x="1434" y="773.6863">Klinische Diagnose SMA Typ 1</text><text fill="#000000" font-family="sans-serif" font-size="14" lengthAdjust="spacing" textLength="108" x="1434" y="791.2957">Category: clinical</text><text fill="#000000" font-family="sans-serif" font-size="14" lengthAdjust="spacing" textLength="127" x="1434" y="808.9051">clinicalStatus: active</text><text fill="#000000" font-family="sans-serif" font-size="14" lengthAdjust="spacing" textLength="178" x="1434" y="826.5145">verificationStatus: confirmed</text><text fill="#000000" font-family="sans-serif" font-size="14" lengthAdjust="spacing" textLength="91" x="1434" y="844.1238">ICD-10: G12.0</text><text fill="#000000" font-family="sans-serif" font-size="14" lengthAdjust="spacing" textLength="88" x="1434" y="861.7332">Orpha: 83330</text><text fill="#000000" font-family="sans-serif" font-size="14" lengthAdjust="spacing" textLength="157" x="1434" y="879.3426">Feststellung: 22.07.2024</text><text fill="#000000" font-family="sans-serif" font-size="14" lengthAdjust="spacing" textLength="102" x="1434" y="896.952">Onset: Neonatal</text><line style="stroke:#DC2626;stroke-width:0.5;" x1="1429" x2="1649" y1="904.0281" y2="904.0281"/></g><!--class condition-sma-genetic--><g id="elem_condition-sma-genetic"><rect codeLine="89" fill="#DC2626" filter="url(#fb1q21lgqwodi)" height="199.5781" id="condition-sma-genetic" rx="5" ry="5" style="stroke:#DC2626;stroke-width:0.5;" width="238" x="763" y="712.45"/><ellipse cx="808.25" cy="733.8016" fill="#ADD1B2" rx="11" ry="11" style="stroke:#181818;stroke-width:1.0;"/><path d="M811.0156,729.6766 Q811.1719,729.4578 811.3594,729.3484 Q811.5469,729.2391 811.7656,729.2391 Q812.1406,729.2391 812.375,729.5047 Q812.6094,729.7547 812.6094,730.3641 L812.6094,731.8172 Q812.6094,732.4266 812.375,732.6922 Q812.1406,732.9578 811.7656,732.9578 Q811.4219,732.9578 811.2188,732.7547 Q811.0156,732.5672 810.9063,732.0516 Q810.8594,731.6922 810.6719,731.5047 Q810.3438,731.1297 809.7344,730.9109 Q809.125,730.6922 808.5,730.6922 Q807.7344,730.6922 807.0938,731.0203 Q806.4688,731.3484 805.9688,732.0984 Q805.4844,732.8484 805.4844,733.8797 L805.4844,734.9734 Q805.4844,736.2078 806.375,737.0359 Q807.2656,737.8484 808.8594,737.8484 Q809.7969,737.8484 810.4531,737.5984 Q810.8438,737.4422 811.2656,737.0047 Q811.5313,736.7391 811.6719,736.6609 Q811.8281,736.5828 812.0313,736.5828 Q812.3594,736.5828 812.6094,736.8484 Q812.875,737.0984 812.875,737.4422 Q812.875,737.7859 812.5313,738.1922 Q812.0313,738.7703 811.2344,739.0984 Q810.1563,739.5516 808.8594,739.5516 Q807.3438,739.5516 806.1406,738.9266 Q805.1563,738.4266 804.4688,737.3641 Q803.7813,736.2859 803.7813,735.0047 L803.7813,733.8484 Q803.7813,732.5203 804.3906,731.3797 Q805.0156,730.2234 806.1094,729.6141 Q807.2031,728.9891 808.4375,728.9891 Q809.1719,728.9891 809.8125,729.1609 Q810.4688,729.3172 811.0156,729.6766 Z " fill="#000000"/><text fill="#000000" font-family="sans-serif" font-size="12" font-style="italic" lengthAdjust="spacing" textLength="67" x="864.75" y="729.907">&#171;Condition&#187;</text><text fill="#FFFFFF" font-family="sans-serif" font-size="14" lengthAdjust="spacing" textLength="139" x="828.75" y="747.077">condition-sma-genetic</text><line style="stroke:#DC2626;stroke-width:0.5;" x1="764" x2="1000" y1="755.1531" y2="755.1531"/><text fill="#000000" font-family="sans-serif" font-size="14" font-weight="bold" lengthAdjust="spacing" textLength="226" x="769" y="773.6863">Genetische Diagnose SMA Typ 1</text><text fill="#000000" font-family="sans-serif" font-size="14" lengthAdjust="spacing" textLength="112" x="769" y="791.2957">Category: genetic</text><text fill="#000000" font-family="sans-serif" font-size="14" lengthAdjust="spacing" textLength="127" x="769" y="808.9051">clinicalStatus: active</text><text fill="#000000" font-family="sans-serif" font-size="14" lengthAdjust="spacing" textLength="178" x="769" y="826.5145">verificationStatus: confirmed</text><text fill="#000000" font-family="sans-serif" font-size="14" lengthAdjust="spacing" textLength="91" x="769" y="844.1238">ICD-10: G12.0</text><text fill="#000000" font-family="sans-serif" font-size="14" lengthAdjust="spacing" textLength="88" x="769" y="861.7332">Orpha: 83330</text><text fill="#000000" font-family="sans-serif" font-size="14" lengthAdjust="spacing" textLength="157" x="769" y="879.3426">Feststellung: 26.07.2024</text><text fill="#000000" font-family="sans-serif" font-size="14" lengthAdjust="spacing" textLength="177" x="769" y="896.952">SMN1: homozygote Deletion</text><line style="stroke:#DC2626;stroke-width:0.5;" x1="764" x2="1000" y1="904.0281" y2="904.0281"/></g><!--class variant-smn1-001--><g id="elem_variant-smn1-001"><rect codeLine="101" fill="#0D9488" filter="url(#fb1q21lgqwodi)" height="129.1406" id="variant-smn1-001" rx="5" ry="5" style="stroke:#0D9488;stroke-width:0.5;" width="154" x="298" y="999.45"/><ellipse cx="317.95" cy="1020.8016" fill="#ADD1B2" rx="11" ry="11" style="stroke:#181818;stroke-width:1.0;"/><path d="M320.7156,1016.6766 Q320.8719,1016.4578 321.0594,1016.3484 Q321.2469,1016.2391 321.4656,1016.2391 Q321.8406,1016.2391 322.075,1016.5047 Q322.3094,1016.7547 322.3094,1017.3641 L322.3094,1018.8172 Q322.3094,1019.4266 322.075,1019.6922 Q321.8406,1019.9578 321.4656,1019.9578 Q321.1219,1019.9578 320.9188,1019.7547 Q320.7156,1019.5672 320.6063,1019.0516 Q320.5594,1018.6922 320.3719,1018.5047 Q320.0438,1018.1297 319.4344,1017.9109 Q318.825,1017.6922 318.2,1017.6922 Q317.4344,1017.6922 316.7938,1018.0203 Q316.1688,1018.3484 315.6688,1019.0984 Q315.1844,1019.8484 315.1844,1020.8797 L315.1844,1021.9734 Q315.1844,1023.2078 316.075,1024.0359 Q316.9656,1024.8484 318.5594,1024.8484 Q319.4969,1024.8484 320.1531,1024.5984 Q320.5438,1024.4422 320.9656,1024.0047 Q321.2313,1023.7391 321.3719,1023.6609 Q321.5281,1023.5828 321.7313,1023.5828 Q322.0594,1023.5828 322.3094,1023.8484 Q322.575,1024.0984 322.575,1024.4422 Q322.575,1024.7859 322.2313,1025.1922 Q321.7313,1025.7703 320.9344,1026.0984 Q319.8563,1026.5516 318.5594,1026.5516 Q317.0438,1026.5516 315.8406,1025.9266 Q314.8563,1025.4266 314.1688,1024.3641 Q313.4813,1023.2859 313.4813,1022.0047 L313.4813,1020.8484 Q313.4813,1019.5203 314.0906,1018.3797 Q314.7156,1017.2234 315.8094,1016.6141 Q316.9031,1015.9891 318.1375,1015.9891 Q318.8719,1015.9891 319.5125,1016.1609 Q320.1688,1016.3172 320.7156,1016.6766 Z " fill="#000000"/><text fill="#000000" font-family="sans-serif" font-size="12" font-style="italic" lengthAdjust="spacing" textLength="81" x="348.05" y="1016.907">&#171;Observation&#187;</text><text fill="#FFFFFF" font-family="sans-serif" font-size="14" lengthAdjust="spacing" textLength="111" x="333.05" y="1034.077">variant-smn1-001</text><line style="stroke:#0D9488;stroke-width:0.5;" x1="299" x2="451" y1="1042.1531" y2="1042.1531"/><text fill="#000000" font-family="sans-serif" font-size="14" font-weight="bold" lengthAdjust="spacing" textLength="103" x="304" y="1060.6863">SMN1 Deletion</text><text fill="#000000" font-family="sans-serif" font-size="14" lengthAdjust="spacing" textLength="129" x="304" y="1078.2957">Status: Pathologisch</text><text fill="#000000" font-family="sans-serif" font-size="14" lengthAdjust="spacing" textLength="121" x="304" y="1095.9051">Datum: 26.07.2024</text><line style="stroke:#0D9488;stroke-width:0.5;" x1="299" x2="451" y1="1102.9813" y2="1102.9813"/><text fill="#000000" font-family="sans-serif" font-size="14" lengthAdjust="spacing" textLength="142" x="304" y="1121.5145">Kopien: 0 (homozygot)</text></g><!--class variant-smn2-001--><g id="elem_variant-smn2-001"><rect codeLine="108" fill="#0D9488" filter="url(#fb1q21lgqwodi)" height="129.1406" id="variant-smn2-001" rx="5" ry="5" style="stroke:#0D9488;stroke-width:0.5;" width="151" x="487.5" y="999.45"/><ellipse cx="506.1" cy="1020.8016" fill="#ADD1B2" rx="11" ry="11" style="stroke:#181818;stroke-width:1.0;"/><path d="M508.8656,1016.6766 Q509.0219,1016.4578 509.2094,1016.3484 Q509.3969,1016.2391 509.6156,1016.2391 Q509.9906,1016.2391 510.225,1016.5047 Q510.4594,1016.7547 510.4594,1017.3641 L510.4594,1018.8172 Q510.4594,1019.4266 510.225,1019.6922 Q509.9906,1019.9578 509.6156,1019.9578 Q509.2719,1019.9578 509.0688,1019.7547 Q508.8656,1019.5672 508.7563,1019.0516 Q508.7094,1018.6922 508.5219,1018.5047 Q508.1938,1018.1297 507.5844,1017.9109 Q506.975,1017.6922 506.35,1017.6922 Q505.5844,1017.6922 504.9438,1018.0203 Q504.3188,1018.3484 503.8188,1019.0984 Q503.3344,1019.8484 503.3344,1020.8797 L503.3344,1021.9734 Q503.3344,1023.2078 504.225,1024.0359 Q505.1156,1024.8484 506.7094,1024.8484 Q507.6469,1024.8484 508.3031,1024.5984 Q508.6938,1024.4422 509.1156,1024.0047 Q509.3813,1023.7391 509.5219,1023.6609 Q509.6781,1023.5828 509.8813,1023.5828 Q510.2094,1023.5828 510.4594,1023.8484 Q510.725,1024.0984 510.725,1024.4422 Q510.725,1024.7859 510.3813,1025.1922 Q509.8813,1025.7703 509.0844,1026.0984 Q508.0063,1026.5516 506.7094,1026.5516 Q505.1938,1026.5516 503.9906,1025.9266 Q503.0063,1025.4266 502.3188,1024.3641 Q501.6313,1023.2859 501.6313,1022.0047 L501.6313,1020.8484 Q501.6313,1019.5203 502.2406,1018.3797 Q502.8656,1017.2234 503.9594,1016.6141 Q505.0531,1015.9891 506.2875,1015.9891 Q507.0219,1015.9891 507.6625,1016.1609 Q508.3188,1016.3172 508.8656,1016.6766 Z " fill="#000000"/><text fill="#000000" font-family="sans-serif" font-size="12" font-style="italic" lengthAdjust="spacing" textLength="81" x="535.9" y="1016.907">&#171;Observation&#187;</text><text fill="#FFFFFF" font-family="sans-serif" font-size="14" lengthAdjust="spacing" textLength="111" x="520.9" y="1034.077">variant-smn2-001</text><line style="stroke:#0D9488;stroke-width:0.5;" x1="488.5" x2="637.5" y1="1042.1531" y2="1042.1531"/><text fill="#000000" font-family="sans-serif" font-size="14" font-weight="bold" lengthAdjust="spacing" textLength="139" x="493.5" y="1060.6863">SMN2 Kopienanzahl</text><text fill="#000000" font-family="sans-serif" font-size="14" lengthAdjust="spacing" textLength="60" x="493.5" y="1078.2957">Kopien: 2</text><text fill="#000000" font-family="sans-serif" font-size="14" lengthAdjust="spacing" textLength="69" x="493.5" y="1095.9051">Modifikator</text><text fill="#000000" font-family="sans-serif" font-size="14" lengthAdjust="spacing" textLength="121" x="493.5" y="1113.5145">Datum: 26.07.2024</text><line style="stroke:#0D9488;stroke-width:0.5;" x1="488.5" x2="637.5" y1="1120.5906" y2="1120.5906"/></g><!--class procedure-gentherapy-001--><g id="elem_procedure-gentherapy-001"><rect codeLine="116" fill="#7C3AED" filter="url(#fb1q21lgqwodi)" height="129.1406" id="procedure-gentherapy-001" rx="5" ry="5" style="stroke:#7C3AED;stroke-width:0.5;" width="203" x="1265.5" y="505.45"/><ellipse cx="1280.5" cy="526.8016" fill="#ADD1B2" rx="11" ry="11" style="stroke:#181818;stroke-width:1.0;"/><path d="M1283.2656,522.6766 Q1283.4219,522.4578 1283.6094,522.3484 Q1283.7969,522.2391 1284.0156,522.2391 Q1284.3906,522.2391 1284.625,522.5047 Q1284.8594,522.7547 1284.8594,523.3641 L1284.8594,524.8172 Q1284.8594,525.4266 1284.625,525.6922 Q1284.3906,525.9578 1284.0156,525.9578 Q1283.6719,525.9578 1283.4688,525.7547 Q1283.2656,525.5672 1283.1563,525.0516 Q1283.1094,524.6922 1282.9219,524.5047 Q1282.5938,524.1297 1281.9844,523.9109 Q1281.375,523.6922 1280.75,523.6922 Q1279.9844,523.6922 1279.3438,524.0203 Q1278.7188,524.3484 1278.2188,525.0984 Q1277.7344,525.8484 1277.7344,526.8797 L1277.7344,527.9734 Q1277.7344,529.2078 1278.625,530.0359 Q1279.5156,530.8484 1281.1094,530.8484 Q1282.0469,530.8484 1282.7031,530.5984 Q1283.0938,530.4422 1283.5156,530.0047 Q1283.7813,529.7391 1283.9219,529.6609 Q1284.0781,529.5828 1284.2813,529.5828 Q1284.6094,529.5828 1284.8594,529.8484 Q1285.125,530.0984 1285.125,530.4422 Q1285.125,530.7859 1284.7813,531.1922 Q1284.2813,531.7703 1283.4844,532.0984 Q1282.4063,532.5516 1281.1094,532.5516 Q1279.5938,532.5516 1278.3906,531.9266 Q1277.4063,531.4266 1276.7188,530.3641 Q1276.0313,529.2859 1276.0313,528.0047 L1276.0313,526.8484 Q1276.0313,525.5203 1276.6406,524.3797 Q1277.2656,523.2234 1278.3594,522.6141 Q1279.4531,521.9891 1280.6875,521.9891 Q1281.4219,521.9891 1282.0625,522.1609 Q1282.7188,522.3172 1283.2656,522.6766 Z " fill="#000000"/><text fill="#000000" font-family="sans-serif" font-size="12" font-style="italic" lengthAdjust="spacing" textLength="71" x="1344.5" y="522.907">&#171;Procedure&#187;</text><text fill="#FFFFFF" font-family="sans-serif" font-size="14" lengthAdjust="spacing" textLength="171" x="1294.5" y="540.077">procedure-gentherapy-001</text><line style="stroke:#7C3AED;stroke-width:0.5;" x1="1266.5" x2="1467.5" y1="548.1531" y2="548.1531"/><text fill="#000000" font-family="sans-serif" font-size="14" font-weight="bold" lengthAdjust="spacing" textLength="88" x="1271.5" y="566.6863">Gentherapie</text><text fill="#000000" font-family="sans-serif" font-size="14" lengthAdjust="spacing" textLength="86" x="1271.5" y="584.2957">OPS: 6-00d.0</text><text fill="#000000" font-family="sans-serif" font-size="14" lengthAdjust="spacing" textLength="121" x="1271.5" y="601.9051">Datum: 29.07.2024</text><text fill="#000000" font-family="sans-serif" font-size="14" lengthAdjust="spacing" textLength="97" x="1271.5" y="619.5145">Mit Prednisolon</text><line style="stroke:#7C3AED;stroke-width:0.5;" x1="1266.5" x2="1467.5" y1="626.5906" y2="626.5906"/></g><!--class family-history-001--><g id="elem_family-history-001"><rect codeLine="124" fill="#4A86E8" filter="url(#fb1q21lgqwodi)" height="129.1406" id="family-history-001" rx="5" ry="5" style="stroke:#4A86E8;stroke-width:0.5;" width="208" x="824" y="505.45"/><ellipse cx="867.8" cy="526.8016" fill="#ADD1B2" rx="11" ry="11" style="stroke:#181818;stroke-width:1.0;"/><path d="M870.5656,522.6766 Q870.7219,522.4578 870.9094,522.3484 Q871.0969,522.2391 871.3156,522.2391 Q871.6906,522.2391 871.925,522.5047 Q872.1594,522.7547 872.1594,523.3641 L872.1594,524.8172 Q872.1594,525.4266 871.925,525.6922 Q871.6906,525.9578 871.3156,525.9578 Q870.9719,525.9578 870.7688,525.7547 Q870.5656,525.5672 870.4563,525.0516 Q870.4094,524.6922 870.2219,524.5047 Q869.8938,524.1297 869.2844,523.9109 Q868.675,523.6922 868.05,523.6922 Q867.2844,523.6922 866.6438,524.0203 Q866.0188,524.3484 865.5188,525.0984 Q865.0344,525.8484 865.0344,526.8797 L865.0344,527.9734 Q865.0344,529.2078 865.925,530.0359 Q866.8156,530.8484 868.4094,530.8484 Q869.3469,530.8484 870.0031,530.5984 Q870.3938,530.4422 870.8156,530.0047 Q871.0813,529.7391 871.2219,529.6609 Q871.3781,529.5828 871.5813,529.5828 Q871.9094,529.5828 872.1594,529.8484 Q872.425,530.0984 872.425,530.4422 Q872.425,530.7859 872.0813,531.1922 Q871.5813,531.7703 870.7844,532.0984 Q869.7063,532.5516 868.4094,532.5516 Q866.8938,532.5516 865.6906,531.9266 Q864.7063,531.4266 864.0188,530.3641 Q863.3313,529.2859 863.3313,528.0047 L863.3313,526.8484 Q863.3313,525.5203 863.9406,524.3797 Q864.5656,523.2234 865.6594,522.6141 Q866.7531,521.9891 867.9875,521.9891 Q868.7219,521.9891 869.3625,522.1609 Q870.0188,522.3172 870.5656,522.6766 Z " fill="#000000"/><text fill="#000000" font-family="sans-serif" font-size="12" font-style="italic" lengthAdjust="spacing" textLength="89" x="899.7" y="522.907">&#171;FamilyHistory&#187;</text><text fill="#FFFFFF" font-family="sans-serif" font-size="14" lengthAdjust="spacing" textLength="112" x="888.2" y="540.077">family-history-001</text><line style="stroke:#4A86E8;stroke-width:0.5;" x1="825" x2="1031" y1="548.1531" y2="548.1531"/><text fill="#000000" font-family="sans-serif" font-size="14" font-weight="bold" lengthAdjust="spacing" textLength="94" x="830" y="566.6863">Urgro&#223;mutter</text><text fill="#000000" font-family="sans-serif" font-size="14" lengthAdjust="spacing" textLength="196" x="830" y="584.2957">Unbekannte Muskelerkrankung</text><text fill="#000000" font-family="sans-serif" font-size="14" lengthAdjust="spacing" textLength="114" x="830" y="601.9051">Relation: unsicher</text><text fill="#000000" font-family="sans-serif" font-size="14" lengthAdjust="spacing" textLength="121" x="830" y="619.5145">Datum: 22.07.2024</text><line style="stroke:#4A86E8;stroke-width:0.5;" x1="825" x2="1031" y1="626.5906" y2="626.5906"/></g><!--class encounter-ambulant-001--><g id="elem_encounter-ambulant-001"><rect codeLine="132" fill="#EA580C" filter="url(#fb1q21lgqwodi)" height="129.1406" id="encounter-ambulant-001" rx="5" ry="5" style="stroke:#EA580C;stroke-width:0.5;" width="188" x="1516" y="289.45"/><ellipse cx="1531" cy="310.8016" fill="#ADD1B2" rx="11" ry="11" style="stroke:#181818;stroke-width:1.0;"/><path d="M1533.7656,306.6766 Q1533.9219,306.4578 1534.1094,306.3484 Q1534.2969,306.2391 1534.5156,306.2391 Q1534.8906,306.2391 1535.125,306.5047 Q1535.3594,306.7547 1535.3594,307.3641 L1535.3594,308.8172 Q1535.3594,309.4266 1535.125,309.6922 Q1534.8906,309.9578 1534.5156,309.9578 Q1534.1719,309.9578 1533.9688,309.7547 Q1533.7656,309.5672 1533.6563,309.0516 Q1533.6094,308.6922 1533.4219,308.5047 Q1533.0938,308.1297 1532.4844,307.9109 Q1531.875,307.6922 1531.25,307.6922 Q1530.4844,307.6922 1529.8438,308.0203 Q1529.2188,308.3484 1528.7188,309.0984 Q1528.2344,309.8484 1528.2344,310.8797 L1528.2344,311.9734 Q1528.2344,313.2078 1529.125,314.0359 Q1530.0156,314.8484 1531.6094,314.8484 Q1532.5469,314.8484 1533.2031,314.5984 Q1533.5938,314.4422 1534.0156,314.0047 Q1534.2813,313.7391 1534.4219,313.6609 Q1534.5781,313.5828 1534.7813,313.5828 Q1535.1094,313.5828 1535.3594,313.8484 Q1535.625,314.0984 1535.625,314.4422 Q1535.625,314.7859 1535.2813,315.1922 Q1534.7813,315.7703 1533.9844,316.0984 Q1532.9063,316.5516 1531.6094,316.5516 Q1530.0938,316.5516 1528.8906,315.9266 Q1527.9063,315.4266 1527.2188,314.3641 Q1526.5313,313.2859 1526.5313,312.0047 L1526.5313,310.8484 Q1526.5313,309.5203 1527.1406,308.3797 Q1527.7656,307.2234 1528.8594,306.6141 Q1529.9531,305.9891 1531.1875,305.9891 Q1531.9219,305.9891 1532.5625,306.1609 Q1533.2188,306.3172 1533.7656,306.6766 Z " fill="#000000"/><text fill="#000000" font-family="sans-serif" font-size="12" font-style="italic" lengthAdjust="spacing" textLength="70" x="1588" y="306.907">&#171;Encounter&#187;</text><text fill="#FFFFFF" font-family="sans-serif" font-size="14" lengthAdjust="spacing" textLength="156" x="1545" y="324.077">encounter-ambulant-001</text><line style="stroke:#EA580C;stroke-width:0.5;" x1="1517" x2="1703" y1="332.1531" y2="332.1531"/><text fill="#000000" font-family="sans-serif" font-size="14" font-weight="bold" lengthAdjust="spacing" textLength="109" x="1522" y="350.6863">Erstvorstellung</text><text fill="#000000" font-family="sans-serif" font-size="14" lengthAdjust="spacing" textLength="121" x="1522" y="368.2957">Datum: 22.07.2024</text><text fill="#000000" font-family="sans-serif" font-size="14" lengthAdjust="spacing" textLength="91" x="1522" y="385.9051">Typ: Ambulant</text><text fill="#000000" font-family="sans-serif" font-size="14" lengthAdjust="spacing" textLength="86" x="1522" y="403.5145">SMA-Zentrum</text><line style="stroke:#EA580C;stroke-width:0.5;" x1="1517" x2="1703" y1="410.5906" y2="410.5906"/></g><!--class encounter-stationaer-001--><g id="elem_encounter-stationaer-001"><rect codeLine="139" fill="#EA580C" filter="url(#fb1q21lgqwodi)" height="111.5313" id="encounter-stationaer-001" rx="5" ry="5" style="stroke:#EA580C;stroke-width:0.5;" width="193" x="1287.5" y="297.95"/><ellipse cx="1302.5" cy="319.3016" fill="#ADD1B2" rx="11" ry="11" style="stroke:#181818;stroke-width:1.0;"/><path d="M1305.2656,315.1766 Q1305.4219,314.9578 1305.6094,314.8484 Q1305.7969,314.7391 1306.0156,314.7391 Q1306.3906,314.7391 1306.625,315.0047 Q1306.8594,315.2547 1306.8594,315.8641 L1306.8594,317.3172 Q1306.8594,317.9266 1306.625,318.1922 Q1306.3906,318.4578 1306.0156,318.4578 Q1305.6719,318.4578 1305.4688,318.2547 Q1305.2656,318.0672 1305.1563,317.5516 Q1305.1094,317.1922 1304.9219,317.0047 Q1304.5938,316.6297 1303.9844,316.4109 Q1303.375,316.1922 1302.75,316.1922 Q1301.9844,316.1922 1301.3438,316.5203 Q1300.7188,316.8484 1300.2188,317.5984 Q1299.7344,318.3484 1299.7344,319.3797 L1299.7344,320.4734 Q1299.7344,321.7078 1300.625,322.5359 Q1301.5156,323.3484 1303.1094,323.3484 Q1304.0469,323.3484 1304.7031,323.0984 Q1305.0938,322.9422 1305.5156,322.5047 Q1305.7813,322.2391 1305.9219,322.1609 Q1306.0781,322.0828 1306.2813,322.0828 Q1306.6094,322.0828 1306.8594,322.3484 Q1307.125,322.5984 1307.125,322.9422 Q1307.125,323.2859 1306.7813,323.6922 Q1306.2813,324.2703 1305.4844,324.5984 Q1304.4063,325.0516 1303.1094,325.0516 Q1301.5938,325.0516 1300.3906,324.4266 Q1299.4063,323.9266 1298.7188,322.8641 Q1298.0313,321.7859 1298.0313,320.5047 L1298.0313,319.3484 Q1298.0313,318.0203 1298.6406,316.8797 Q1299.2656,315.7234 1300.3594,315.1141 Q1301.4531,314.4891 1302.6875,314.4891 Q1303.4219,314.4891 1304.0625,314.6609 Q1304.7188,314.8172 1305.2656,315.1766 Z " fill="#000000"/><text fill="#000000" font-family="sans-serif" font-size="12" font-style="italic" lengthAdjust="spacing" textLength="70" x="1362" y="315.407">&#171;Encounter&#187;</text><text fill="#FFFFFF" font-family="sans-serif" font-size="14" lengthAdjust="spacing" textLength="161" x="1316.5" y="332.577">encounter-stationaer-001</text><line style="stroke:#EA580C;stroke-width:0.5;" x1="1288.5" x2="1479.5" y1="340.6531" y2="340.6531"/><text fill="#000000" font-family="sans-serif" font-size="14" font-weight="bold" lengthAdjust="spacing" textLength="179" x="1293.5" y="359.1863">Station&#228;r f&#252;r Gentherapie</text><text fill="#000000" font-family="sans-serif" font-size="14" lengthAdjust="spacing" textLength="142" x="1293.5" y="376.7957">Datum: 29-30.07.2024</text><text fill="#000000" font-family="sans-serif" font-size="14" lengthAdjust="spacing" textLength="89" x="1293.5" y="394.4051">Typ: Station&#228;r</text><line style="stroke:#EA580C;stroke-width:0.5;" x1="1288.5" x2="1479.5" y1="401.4813" y2="401.4813"/></g><!--class encounter-nachsorge-001--><g id="elem_encounter-nachsorge-001"><rect codeLine="145" fill="#EA580C" filter="url(#fb1q21lgqwodi)" height="111.5313" id="encounter-nachsorge-001" rx="5" ry="5" style="stroke:#EA580C;stroke-width:0.5;" width="197" x="1631.5" y="513.95"/><ellipse cx="1646.5" cy="535.3016" fill="#ADD1B2" rx="11" ry="11" style="stroke:#181818;stroke-width:1.0;"/><path d="M1649.2656,531.1766 Q1649.4219,530.9578 1649.6094,530.8484 Q1649.7969,530.7391 1650.0156,530.7391 Q1650.3906,530.7391 1650.625,531.0047 Q1650.8594,531.2547 1650.8594,531.8641 L1650.8594,533.3172 Q1650.8594,533.9266 1650.625,534.1922 Q1650.3906,534.4578 1650.0156,534.4578 Q1649.6719,534.4578 1649.4688,534.2547 Q1649.2656,534.0672 1649.1563,533.5516 Q1649.1094,533.1922 1648.9219,533.0047 Q1648.5938,532.6297 1647.9844,532.4109 Q1647.375,532.1922 1646.75,532.1922 Q1645.9844,532.1922 1645.3438,532.5203 Q1644.7188,532.8484 1644.2188,533.5984 Q1643.7344,534.3484 1643.7344,535.3797 L1643.7344,536.4734 Q1643.7344,537.7078 1644.625,538.5359 Q1645.5156,539.3484 1647.1094,539.3484 Q1648.0469,539.3484 1648.7031,539.0984 Q1649.0938,538.9422 1649.5156,538.5047 Q1649.7813,538.2391 1649.9219,538.1609 Q1650.0781,538.0828 1650.2813,538.0828 Q1650.6094,538.0828 1650.8594,538.3484 Q1651.125,538.5984 1651.125,538.9422 Q1651.125,539.2859 1650.7813,539.6922 Q1650.2813,540.2703 1649.4844,540.5984 Q1648.4063,541.0516 1647.1094,541.0516 Q1645.5938,541.0516 1644.3906,540.4266 Q1643.4063,539.9266 1642.7188,538.8641 Q1642.0313,537.7859 1642.0313,536.5047 L1642.0313,535.3484 Q1642.0313,534.0203 1642.6406,532.8797 Q1643.2656,531.7234 1644.3594,531.1141 Q1645.4531,530.4891 1646.6875,530.4891 Q1647.4219,530.4891 1648.0625,530.6609 Q1648.7188,530.8172 1649.2656,531.1766 Z " fill="#000000"/><text fill="#000000" font-family="sans-serif" font-size="12" font-style="italic" lengthAdjust="spacing" textLength="70" x="1708" y="531.407">&#171;Encounter&#187;</text><text fill="#FFFFFF" font-family="sans-serif" font-size="14" lengthAdjust="spacing" textLength="165" x="1660.5" y="548.577">encounter-nachsorge-001</text><line style="stroke:#EA580C;stroke-width:0.5;" x1="1632.5" x2="1827.5" y1="556.6531" y2="556.6531"/><text fill="#000000" font-family="sans-serif" font-size="14" font-weight="bold" lengthAdjust="spacing" textLength="76" x="1637.5" y="575.1863">Nachsorge</text><text fill="#000000" font-family="sans-serif" font-size="14" lengthAdjust="spacing" textLength="121" x="1637.5" y="592.7957">Datum: 12.08.2024</text><text fill="#000000" font-family="sans-serif" font-size="14" lengthAdjust="spacing" textLength="91" x="1637.5" y="610.4051">Typ: Ambulant</text><line style="stroke:#EA580C;stroke-width:0.5;" x1="1632.5" x2="1827.5" y1="617.4813" y2="617.4813"/></g><!--class observation-troponin-series--><g id="elem_observation-troponin-series"><rect codeLine="152" fill="#0D9488" filter="url(#fb1q21lgqwodi)" height="146.75" id="observation-troponin-series" rx="5" ry="5" style="stroke:#0D9488;stroke-width:0.5;" width="206" x="2039" y="990.45"/><ellipse cx="2054" cy="1011.8016" fill="#ADD1B2" rx="11" ry="11" style="stroke:#181818;stroke-width:1.0;"/><path d="M2056.7656,1007.6766 Q2056.9219,1007.4578 2057.1094,1007.3484 Q2057.2969,1007.2391 2057.5156,1007.2391 Q2057.8906,1007.2391 2058.125,1007.5047 Q2058.3594,1007.7547 2058.3594,1008.3641 L2058.3594,1009.8172 Q2058.3594,1010.4266 2058.125,1010.6922 Q2057.8906,1010.9578 2057.5156,1010.9578 Q2057.1719,1010.9578 2056.9688,1010.7547 Q2056.7656,1010.5672 2056.6563,1010.0516 Q2056.6094,1009.6922 2056.4219,1009.5047 Q2056.0938,1009.1297 2055.4844,1008.9109 Q2054.875,1008.6922 2054.25,1008.6922 Q2053.4844,1008.6922 2052.8438,1009.0203 Q2052.2188,1009.3484 2051.7188,1010.0984 Q2051.2344,1010.8484 2051.2344,1011.8797 L2051.2344,1012.9734 Q2051.2344,1014.2078 2052.125,1015.0359 Q2053.0156,1015.8484 2054.6094,1015.8484 Q2055.5469,1015.8484 2056.2031,1015.5984 Q2056.5938,1015.4422 2057.0156,1015.0047 Q2057.2813,1014.7391 2057.4219,1014.6609 Q2057.5781,1014.5828 2057.7813,1014.5828 Q2058.1094,1014.5828 2058.3594,1014.8484 Q2058.625,1015.0984 2058.625,1015.4422 Q2058.625,1015.7859 2058.2813,1016.1922 Q2057.7813,1016.7703 2056.9844,1017.0984 Q2055.9063,1017.5516 2054.6094,1017.5516 Q2053.0938,1017.5516 2051.8906,1016.9266 Q2050.9063,1016.4266 2050.2188,1015.3641 Q2049.5313,1014.2859 2049.5313,1013.0047 L2049.5313,1011.8484 Q2049.5313,1010.5203 2050.1406,1009.3797 Q2050.7656,1008.2234 2051.8594,1007.6141 Q2052.9531,1006.9891 2054.1875,1006.9891 Q2054.9219,1006.9891 2055.5625,1007.1609 Q2056.2188,1007.3172 2056.7656,1007.6766 Z " fill="#000000"/><text fill="#000000" font-family="sans-serif" font-size="12" font-style="italic" lengthAdjust="spacing" textLength="81" x="2114.5" y="1007.907">&#171;Observation&#187;</text><text fill="#FFFFFF" font-family="sans-serif" font-size="14" lengthAdjust="spacing" textLength="174" x="2068" y="1025.077">observation-troponin-series</text><line style="stroke:#0D9488;stroke-width:0.5;" x1="2040" x2="2244" y1="1033.1531" y2="1033.1531"/><text fill="#000000" font-family="sans-serif" font-size="14" font-weight="bold" lengthAdjust="spacing" textLength="96" x="2045" y="1051.6863">Troponin T hs</text><text fill="#000000" font-family="sans-serif" font-size="14" lengthAdjust="spacing" textLength="98" x="2045" y="1069.2957">22.07: 92 ng/l &#8593;</text><text fill="#000000" font-family="sans-serif" font-size="14" lengthAdjust="spacing" textLength="98" x="2045" y="1086.9051">28.07: 58 ng/l &#8593;</text><text fill="#000000" font-family="sans-serif" font-size="14" lengthAdjust="spacing" textLength="98" x="2045" y="1104.5145">01.08: 57 ng/l &#8593;</text><text fill="#000000" font-family="sans-serif" font-size="14" lengthAdjust="spacing" textLength="106" x="2045" y="1122.1238">12.08: 106 ng/l &#8593;</text><line style="stroke:#0D9488;stroke-width:0.5;" x1="2040" x2="2244" y1="1129.2" y2="1129.2"/></g><!--class observation-liver-plt--><g id="elem_observation-liver-plt"><rect codeLine="160" fill="#0D9488" filter="url(#fb1q21lgqwodi)" height="129.1406" id="observation-liver-plt" rx="5" ry="5" style="stroke:#0D9488;stroke-width:0.5;" width="178" x="2066" y="289.45"/><ellipse cx="2090.45" cy="310.8016" fill="#ADD1B2" rx="11" ry="11" style="stroke:#181818;stroke-width:1.0;"/><path d="M2093.2156,306.6766 Q2093.3719,306.4578 2093.5594,306.3484 Q2093.7469,306.2391 2093.9656,306.2391 Q2094.3406,306.2391 2094.575,306.5047 Q2094.8094,306.7547 2094.8094,307.3641 L2094.8094,308.8172 Q2094.8094,309.4266 2094.575,309.6922 Q2094.3406,309.9578 2093.9656,309.9578 Q2093.6219,309.9578 2093.4188,309.7547 Q2093.2156,309.5672 2093.1063,309.0516 Q2093.0594,308.6922 2092.8719,308.5047 Q2092.5438,308.1297 2091.9344,307.9109 Q2091.325,307.6922 2090.7,307.6922 Q2089.9344,307.6922 2089.2938,308.0203 Q2088.6688,308.3484 2088.1688,309.0984 Q2087.6844,309.8484 2087.6844,310.8797 L2087.6844,311.9734 Q2087.6844,313.2078 2088.575,314.0359 Q2089.4656,314.8484 2091.0594,314.8484 Q2091.9969,314.8484 2092.6531,314.5984 Q2093.0438,314.4422 2093.4656,314.0047 Q2093.7313,313.7391 2093.8719,313.6609 Q2094.0281,313.5828 2094.2313,313.5828 Q2094.5594,313.5828 2094.8094,313.8484 Q2095.075,314.0984 2095.075,314.4422 Q2095.075,314.7859 2094.7313,315.1922 Q2094.2313,315.7703 2093.4344,316.0984 Q2092.3563,316.5516 2091.0594,316.5516 Q2089.5438,316.5516 2088.3406,315.9266 Q2087.3563,315.4266 2086.6688,314.3641 Q2085.9813,313.2859 2085.9813,312.0047 L2085.9813,310.8484 Q2085.9813,309.5203 2086.5906,308.3797 Q2087.2156,307.2234 2088.3094,306.6141 Q2089.4031,305.9891 2090.6375,305.9891 Q2091.3719,305.9891 2092.0125,306.1609 Q2092.6688,306.3172 2093.2156,306.6766 Z " fill="#000000"/><text fill="#000000" font-family="sans-serif" font-size="12" font-style="italic" lengthAdjust="spacing" textLength="81" x="2128.55" y="306.907">&#171;Observation&#187;</text><text fill="#FFFFFF" font-family="sans-serif" font-size="14" lengthAdjust="spacing" textLength="125" x="2106.55" y="324.077">observation-liver-plt</text><line style="stroke:#0D9488;stroke-width:0.5;" x1="2067" x2="2243" y1="332.1531" y2="332.1531"/><text fill="#000000" font-family="sans-serif" font-size="14" font-weight="bold" lengthAdjust="spacing" textLength="166" x="2072" y="350.6863">ALT, AST, Thrombozyten</text><text fill="#000000" font-family="sans-serif" font-size="14" lengthAdjust="spacing" textLength="119" x="2072" y="368.2957">Post-therapeutisch</text><text fill="#000000" font-family="sans-serif" font-size="14" lengthAdjust="spacing" textLength="118" x="2072" y="385.9051">Status: Normwertig</text><text fill="#000000" font-family="sans-serif" font-size="14" lengthAdjust="spacing" textLength="121" x="2072" y="403.5145">Datum: 29.07.2024</text><line style="stroke:#0D9488;stroke-width:0.5;" x1="2067" x2="2243" y1="410.5906" y2="410.5906"/></g><g id="elem_GMN55"><path d="M441,71.95 L441,124.95 L405.59,128.95 L441,132.95 L441,186.4109 A5,5 0 0 0 446,191.4109 L640,191.4109 A5,5 0 0 0 645,186.4109 L645,76.95 L635,66.95 L446,66.95 A5,5 0 0 0 441,71.95 " fill="#FEFFDD" filter="url(#fb1q21lgqwodi)" style="stroke:#181818;stroke-width:0.5;"/><path d="M635,66.95 L635,74.45 A2.5,2.5 0 0 0 637.5,76.95 L645,76.95 L635,66.95 " fill="#FEFFDD" style="stroke:#181818;stroke-width:0.5;"/><text fill="#000000" font-family="sans-serif" font-size="13" font-weight="bold" lengthAdjust="spacing" textLength="133" x="447" y="85.4451">Parallele Diagnosen:</text><text fill="#000000" font-family="sans-serif" font-size="13" lengthAdjust="spacing" textLength="111" x="447" y="101.7967">1. Verdacht (18.07)</text><text fill="#000000" font-family="sans-serif" font-size="13" lengthAdjust="spacing" textLength="170" x="447" y="118.1482">2. Klinische Diagnose (22.07)</text><text fill="#000000" font-family="sans-serif" font-size="13" lengthAdjust="spacing" textLength="183" x="447" y="134.4998">3. Genetische Diagnose (26.07)</text><text fill="#000000" font-family="sans-serif" font-size="13" lengthAdjust="spacing" textLength="4" x="447" y="150.8514">&#160;</text><text fill="#000000" font-family="sans-serif" font-size="13" lengthAdjust="spacing" textLength="158" x="447" y="167.2029">Beide Diagnosen existieren</text><text fill="#000000" font-family="sans-serif" font-size="13" lengthAdjust="spacing" textLength="151" x="447" y="183.5545">parallel und erg&#228;nzen sich</text></g><g id="elem_GMN58"><path d="M1830.5,1047.45 L1830.5,1080.1531 A5,5 0 0 0 1835.5,1085.1531 L1998.5,1085.1531 A5,5 0 0 0 2003.5,1080.1531 L2003.5,1067.95 L2038.99,1063.95 L2003.5,1059.95 L2003.5,1052.45 L1993.5,1042.45 L1835.5,1042.45 A5,5 0 0 0 1830.5,1047.45 " fill="#FEFFDD" filter="url(#fb1q21lgqwodi)" style="stroke:#181818;stroke-width:0.5;"/><path d="M1993.5,1042.45 L1993.5,1049.95 A2.5,2.5 0 0 0 1996,1052.45 L2003.5,1052.45 L1993.5,1042.45 " fill="#FEFFDD" style="stroke:#181818;stroke-width:0.5;"/><text fill="#000000" font-family="sans-serif" font-size="13" font-weight="bold" lengthAdjust="spacing" textLength="104" x="1836.5" y="1060.9451">Troponin bereits</text><text fill="#000000" font-family="sans-serif" font-size="13" font-weight="bold" lengthAdjust="spacing" textLength="152" x="1836.5" y="1077.2967">pr&#228;therapeutisch erh&#246;ht</text></g><!--link condition-sma-suspected to clinical-impression-001--><!--link clinical-impression-001 to condition-sma-suspected--><g id="link_clinical-impression-001_condition-sma-suspected"><path codeLine="186" d="M224.3,280.36 C219.51,264.65 217.95,248.07 223,232.45 C226.31,222.22 228.0692,217.3514 233.5892,207.7514 " fill="none" id="clinical-impression-001-to-condition-sma-suspected" style="stroke:#666666;stroke-width:2.0;"/><polygon fill="#666666" points="236.58,202.55,228.6261,208.3583,234.0876,206.8845,235.5614,212.346,236.58,202.55" style="stroke:#666666;stroke-width:2.0;"/><text fill="#000000" font-family="sans-serif" font-size="13" lengthAdjust="spacing" textLength="97" x="224" y="246.9451">reasonReference</text></g><!--link clinical-impression-001 to encounter-screening-001--><!--link condition-sma-suspected to patient-sma-001--><!--reverse link patient-sma-001 to condition-sma-suspected--><g id="link_patient-sma-001_condition-sma-suspected"><path codeLine="174" d="M1520.432,109.9161 C1400.082,85.2661 1176.71,43.25 979,27.45 C855.76,17.6 540.87,10.14 423,47.45 C416.05,49.65 409.11,52.35 402.26,55.4 " fill="none" id="patient-sma-001-backto-condition-sma-suspected" style="stroke:#666666;stroke-width:2.0;"/><polygon fill="#666666" points="1526.31,111.12,1518.2957,105.3955,1521.4117,110.1167,1516.6904,113.2328,1526.31,111.12" style="stroke:#666666;stroke-width:2.0;"/><text fill="#000000" font-family="sans-serif" font-size="13" lengthAdjust="spacing" textLength="42" x="936" y="21.9451">subject</text></g><!--link clinical-impression-001 to patient-sma-001--><!--reverse link patient-sma-001 to clinical-impression-001--><g id="link_patient-sma-001_clinical-impression-001"><path codeLine="177" d="M1520.4496,144.6739 C1401.1796,164.2939 1181.28,200.51 989,232.45 C785.87,266.19 550.61,305.56 405.54,329.88 " fill="none" id="patient-sma-001-backto-clinical-impression-001" style="stroke:#666666;stroke-width:2.0;"/><polygon fill="#666666" points="1526.37,143.7,1516.8401,141.2139,1521.4363,144.5116,1518.1386,149.1078,1526.37,143.7" style="stroke:#666666;stroke-width:2.0;"/><text fill="#000000" font-family="sans-serif" font-size="13" lengthAdjust="spacing" textLength="42" x="990" y="246.9451">subject</text></g><!--reverse link patient-sma-001 to condition-sma-clinical--><g id="link_patient-sma-001_condition-sma-clinical"><path codeLine="175" d="M1699.59,134.8069 C1899.37,146.3769 2385.7,179.67 2437,232.45 C2561.79,360.83 2577.07,496.45 2463,634.45 C2360.95,757.9 1872.94,796.08 1650.25,807.19 " fill="none" id="patient-sma-001-backto-condition-sma-clinical" style="stroke:#666666;stroke-width:2.0;"/><polygon fill="#666666" points="1693.6,134.46,1702.3537,138.9737,1698.5916,134.7491,1702.8162,130.987,1693.6,134.46" style="stroke:#666666;stroke-width:2.0;"/><text fill="#000000" font-family="sans-serif" font-size="13" lengthAdjust="spacing" textLength="42" x="2540" y="471.9451">subject</text></g><!--reverse link patient-sma-001 to condition-sma-genetic--><g id="link_patient-sma-001_condition-sma-genetic"><path codeLine="176" d="M1699.7513,138.7485 C1764.7413,149.3785 1846.13,173.45 1897,232.45 C1955.86,300.72 2008,564.63 1951,634.45 C1883.58,717.03 1821.41,666.54 1716,682.45 C1581.31,702.77 1545.85,693.24 1411,712.45 C1269.36,732.63 1107.9,764.09 1001,786.11 " fill="none" id="patient-sma-001-backto-condition-sma-genetic" style="stroke:#666666;stroke-width:2.0;"/><polygon fill="#666666" points="1693.83,137.78,1702.0663,143.1803,1698.7644,138.5871,1703.3576,135.2852,1693.83,137.78" style="stroke:#666666;stroke-width:2.0;"/><text fill="#000000" font-family="sans-serif" font-size="13" lengthAdjust="spacing" textLength="42" x="1973" y="471.9451">subject</text></g><!--reverse link patient-sma-001 to variant-smn1-001--><g id="link_patient-sma-001_variant-smn1-001"><path codeLine="178" d="M1698.5968,183.2672 C1734.9068,208.9772 1769.89,239.99 1795,280.45 C1849.06,367.58 1834.6,403.55 1846,505.45 C1867.96,701.66 1838.03,812.11 1668,912.45 C1553.12,980.25 594.92,943.65 470,990.45 C463.49,992.89 457.06,995.93 450.8,999.38 " fill="none" id="patient-sma-001-backto-variant-smn1-001" style="stroke:#666666;stroke-width:2.0;"/><polygon fill="#666666" points="1693.7,179.8,1698.7336,188.2654,1697.7806,182.6894,1703.3566,181.7364,1693.7,179.8" style="stroke:#666666;stroke-width:2.0;"/><text fill="#000000" font-family="sans-serif" font-size="13" lengthAdjust="spacing" textLength="42" x="1853" y="575.4451">subject</text></g><!--reverse link patient-sma-001 to variant-smn2-001--><g id="link_patient-sma-001_variant-smn2-001"><path codeLine="179" d="M1699.8165,137.1091 C1788.4465,149.0191 1916.81,182.39 1971,280.45 C2117.52,545.57 2152.28,760.2 1925,960.45 C1876.38,1003.29 917.47,1047.71 638.51,1059.77 " fill="none" id="patient-sma-001-backto-variant-smn2-001" style="stroke:#666666;stroke-width:2.0;"/><polygon fill="#666666" points="1693.87,136.31,1702.2571,141.473,1698.8255,136.9759,1703.3226,133.5443,1693.87,136.31" style="stroke:#666666;stroke-width:2.0;"/><text fill="#000000" font-family="sans-serif" font-size="13" lengthAdjust="spacing" textLength="42" x="2089" y="575.4451">subject</text></g><!--reverse link patient-sma-001 to procedure-gentherapy-001--><g id="link_patient-sma-001_procedure-gentherapy-001"><path codeLine="180" d="M1520.2896,136.98 C1429.0296,148.79 1293.08,182.11 1226,280.45 C1189.18,334.42 1201.05,367.07 1226,427.45 C1238.18,456.94 1259.82,483.51 1282.54,505.44 " fill="none" id="patient-sma-001-backto-procedure-gentherapy-001" style="stroke:#666666;stroke-width:2.0;"/><polygon fill="#666666" points="1526.24,136.21,1516.8011,133.3981,1521.2813,136.8517,1517.8278,141.332,1526.24,136.21" style="stroke:#666666;stroke-width:2.0;"/><text fill="#000000" font-family="sans-serif" font-size="13" lengthAdjust="spacing" textLength="42" x="1227" y="359.4451">subject</text></g><!--reverse link patient-sma-001 to family-history-001--><g id="link_patient-sma-001_family-history-001"><path codeLine="181" d="M1520.4919,139.6393 C1421.4019,153.9793 1261.94,189.68 1153,280.45 C1074.8,345.61 1006.34,442.24 966.06,505.41 " fill="none" id="patient-sma-001-backto-family-history-001" style="stroke:#666666;stroke-width:2.0;"/><polygon fill="#666666" points="1526.43,138.78,1516.9499,136.1103,1521.4815,139.4961,1518.0957,144.0278,1526.43,138.78" style="stroke:#666666;stroke-width:2.0;"/><text fill="#000000" font-family="sans-serif" font-size="13" lengthAdjust="spacing" textLength="39" x="1154" y="359.4451">patient</text></g><!--reverse link patient-sma-001 to observation-troponin-series--><g id="link_patient-sma-001_observation-troponin-series"><path codeLine="182" d="M1699.8124,135.899 C1905.2224,151.659 2411,205.26 2411,352.95 C2411,352.95 2411,352.95 2411,813.45 C2411,907.72 2321.09,976.38 2245.23,1017.54 " fill="none" id="patient-sma-001-backto-observation-troponin-series" style="stroke:#666666;stroke-width:2.0;"/><polygon fill="#666666" points="1693.83,135.44,1702.4976,140.1168,1698.8153,135.8225,1703.1096,132.1402,1693.83,135.44" style="stroke:#666666;stroke-width:2.0;"/><text fill="#000000" font-family="sans-serif" font-size="13" lengthAdjust="spacing" textLength="42" x="2412" y="575.4451">subject</text></g><!--reverse link patient-sma-001 to observation-liver-plt--><g id="link_patient-sma-001_observation-liver-plt"><path codeLine="183" d="M1699.7068,136.5803 C1790.1068,146.1303 1929.82,170.01 2039,232.45 C2064.21,246.87 2087.42,268.41 2106.35,289.3 " fill="none" id="patient-sma-001-backto-observation-liver-plt" style="stroke:#666666;stroke-width:2.0;"/><polygon fill="#666666" points="1693.74,135.95,1702.27,140.8734,1698.7123,136.4753,1703.1104,132.9176,1693.74,135.95" style="stroke:#666666;stroke-width:2.0;"/><text fill="#000000" font-family="sans-serif" font-size="13" lengthAdjust="spacing" textLength="42" x="2066" y="246.9451">subject</text></g><!--link clinical-impression-001 to condition-sma-clinical--><g id="link_clinical-impression-001_condition-sma-clinical"><path codeLine="187" d="M405.51,384.05 C460.7,399.94 522.96,423.51 573,457.45 C658.34,515.33 634.59,581.37 723,634.45 C783.16,670.57 1213.2177,752.2314 1422.0877,790.4014 " fill="none" id="clinical-impression-001-to-condition-sma-clinical" style="stroke:#666666;stroke-width:2.0;"/><polygon fill="#666666" points="1427.99,791.48,1419.8557,785.9273,1423.0715,790.5812,1418.4175,793.7969,1427.99,791.48" style="stroke:#666666;stroke-width:2.0;"/><text fill="#000000" font-family="sans-serif" font-size="13" lengthAdjust="spacing" textLength="81" x="724" y="575.4451">finding (result)</text></g><!--link clinical-impression-001 to condition-sma-genetic--><g id="link_clinical-impression-001_condition-sma-genetic"><path codeLine="188" d="M326.92,427.65 C390.69,505.62 486.34,620.23 509,634.45 C552.65,661.84 573.28,644.99 621,664.45 C669.03,684.04 714.0717,707.6764 757.4917,732.8964 " fill="none" id="clinical-impression-001-to-condition-sma-genetic" style="stroke:#666666;stroke-width:2.0;"/><polygon fill="#666666" points="762.68,735.91,756.9066,727.9308,758.3564,733.3987,752.8885,734.8485,762.68,735.91" style="stroke:#666666;stroke-width:2.0;"/><text fill="#000000" font-family="sans-serif" font-size="13" lengthAdjust="spacing" textLength="81" x="510" y="575.4451">finding (result)</text></g><!--link clinical-impression-001 to variant-smn1-001--><g id="link_clinical-impression-001_variant-smn1-001"><path codeLine="191" d="M254.94,427.58 C245.04,494.24 235.28,595.53 249,682.45 C267.17,797.58 313.1845,919.419 344.4245,993.719 " fill="none" id="clinical-impression-001-to-variant-smn1-001" style="stroke:#666666;stroke-width:2.0;"/><polygon fill="#666666" points="346.75,999.25,346.949,989.4032,344.812,994.6408,339.5744,992.5039,346.75,999.25" style="stroke:#666666;stroke-width:2.0;"/><text fill="#000000" font-family="sans-serif" font-size="13" lengthAdjust="spacing" textLength="71" x="250" y="678.9451">investigation</text></g><!--link clinical-impression-001 to variant-smn2-001--><g id="link_clinical-impression-001_variant-smn2-001"><path codeLine="192" d="M298.32,427.72 C356.25,566.75 479.4521,862.4316 534.2321,993.8916 " fill="none" id="clinical-impression-001-to-variant-smn2-001" style="stroke:#666666;stroke-width:2.0;"/><polygon fill="#666666" points="536.54,999.43,536.7705,989.5838,534.6168,994.8147,529.3859,992.661,536.54,999.43" style="stroke:#666666;stroke-width:2.0;"/><text fill="#000000" font-family="sans-serif" font-size="13" lengthAdjust="spacing" textLength="71" x="403" y="678.9451">investigation</text></g><!--link clinical-impression-001 to observation-troponin-series--><g id="link_clinical-impression-001_observation-troponin-series"><path codeLine="193" d="M405.59,417.3 C447.37,440.77 491.14,470.41 525,505.45 C667.89,653.31 571.68,801.81 745,912.45 C984.45,1065.31 1749.64,906.38 2021,990.45 C2026.97,992.3 2027.398,992.2009 2033.328,994.6609 " fill="none" id="clinical-impression-001-to-observation-troponin-series" style="stroke:#666666;stroke-width:2.0;"/><polygon fill="#666666" points="2038.87,996.96,2032.0896,989.8167,2034.2516,995.0441,2029.0242,997.2061,2038.87,996.96" style="stroke:#666666;stroke-width:2.0;"/><text fill="#000000" font-family="sans-serif" font-size="13" lengthAdjust="spacing" textLength="71" x="616" y="678.9451">investigation</text></g><!--link clinical-impression-001 to family-history-001--><g id="link_clinical-impression-001_family-history-001"><path codeLine="194" d="M405.63,369.94 C547.1,387.14 756.37,418.12 827,457.45 C848.22,469.27 863.4062,482.6882 879.1662,500.7582 " fill="none" id="clinical-impression-001-to-family-history-001" style="stroke:#666666;stroke-width:2.0;"/><polygon fill="#666666" points="883.11,505.28,880.2089,495.8681,879.8235,501.5118,874.1798,501.1265,883.11,505.28" style="stroke:#666666;stroke-width:2.0;"/><text fill="#000000" font-family="sans-serif" font-size="13" lengthAdjust="spacing" textLength="71" x="852" y="471.9451">investigation</text></g><!--link condition-sma-suspected to condition-sma-clinical--><g id="link_condition-sma-suspected_condition-sma-clinical"><path codeLine="197" d="M405.58,196.4 C411.37,198.68 417.2,200.72 423,202.45 C479.1,219.16 902.75,196.56 949,232.45 C1020.85,288.21 976.78,343.19 1011,427.45 C1025.58,463.36 1033.5,470.38 1050,505.45 C1076.69,562.16 1062.08,590.73 1107,634.45 C1131.29,658.09 1302.6059,724.2997 1422.3659,768.8097 " fill="none" id="condition-sma-suspected-to-condition-sma-clinical" style="stroke:#666666;stroke-width:2.0;stroke-dasharray:7.0,7.0;"/><polygon fill="#666666" points="1427.99,770.9,1420.9473,764.0152,1423.3032,769.1581,1418.1603,771.514,1427.99,770.9" style="stroke:#666666;stroke-width:2.0;"/><text fill="#000000" font-family="sans-serif" font-size="13" lengthAdjust="spacing" textLength="46" x="1035" y="471.9451">leads to</text></g><!--link condition-sma-suspected to condition-sma-genetic--><g id="link_condition-sma-suspected_condition-sma-genetic"><path codeLine="198" d="M405.82,198.48 C506.05,266.21 653.32,377.96 749,505.45 C750.72,507.74 798.6006,618.2519 836.8306,706.7519 " fill="none" id="condition-sma-suspected-to-condition-sma-genetic" style="stroke:#666666;stroke-width:2.0;stroke-dasharray:7.0,7.0;"/><polygon fill="#666666" points="839.21,712.26,839.313,702.4117,837.2272,707.67,831.9689,705.5842,839.21,712.26" style="stroke:#666666;stroke-width:2.0;"/><text fill="#000000" font-family="sans-serif" font-size="13" lengthAdjust="spacing" textLength="46" x="724" y="471.9451">leads to</text></g><!--link condition-sma-genetic to variant-smn1-001--><g id="link_condition-sma-genetic_variant-smn1-001"><path codeLine="201" d="M762.85,855.67 C678.5,887.68 564.1,935.46 470,990.45 C464.09,993.9 463.1084,994.336 457.1984,998.286 " fill="none" id="condition-sma-genetic-to-variant-smn1-001" style="stroke:#666666;stroke-width:2.0;"/><polygon fill="#666666" points="452.21,1001.62,461.9153,999.9445,456.367,998.8416,457.4699,993.2933,452.21,1001.62" style="stroke:#666666;stroke-width:2.0;"/><text fill="#000000" font-family="sans-serif" font-size="13" lengthAdjust="spacing" textLength="50" x="558" y="956.9451">evidence</text></g><!--link condition-sma-genetic to variant-smn2-001--><g id="link_condition-sma-genetic_variant-smn2-001"><path codeLine="202" d="M762.76,906.71 C721.18,939.24 680.406,971.1234 643.356,1000.1034 " fill="none" id="condition-sma-genetic-to-variant-smn2-001" style="stroke:#666666;stroke-width:2.0;"/><polygon fill="#666666" points="638.63,1003.8,648.1834,1001.4057,642.5683,1000.7195,643.2546,995.1044,638.63,1003.8" style="stroke:#666666;stroke-width:2.0;"/><text fill="#000000" font-family="sans-serif" font-size="13" lengthAdjust="spacing" textLength="50" x="714" y="956.9451">evidence</text></g><!--link condition-sma-clinical to observation-troponin-series--><g id="link_condition-sma-clinical_observation-troponin-series"><path codeLine="203" d="M1650.04,847.63 C1749.33,879.73 1897.74,931.54 2021,990.45 C2026.86,993.25 2027.4799,993.4466 2033.4299,996.5766 " fill="none" id="condition-sma-clinical-to-observation-troponin-series" style="stroke:#666666;stroke-width:2.0;"/><polygon fill="#666666" points="2038.74,999.37,2032.6371,991.6399,2034.3149,997.0422,2028.9126,998.72,2038.74,999.37" style="stroke:#666666;stroke-width:2.0;"/><text fill="#000000" font-family="sans-serif" font-size="13" lengthAdjust="spacing" textLength="50" x="1945" y="956.9451">evidence</text></g><!--link procedure-gentherapy-001 to condition-sma-clinical--><g id="link_procedure-gentherapy-001_condition-sma-clinical"><path codeLine="206" d="M1317.08,634.56 C1310.33,650.51 1308.32,667.37 1317,682.45 C1341.29,724.66 1379.8597,751.7671 1422.3097,771.9171 " fill="none" id="procedure-gentherapy-001-to-condition-sma-clinical" style="stroke:#666666;stroke-width:2.0;"/><polygon fill="#666666" points="1427.73,774.49,1421.3148,767.0171,1423.213,772.3459,1417.8842,774.2442,1427.73,774.49" style="stroke:#666666;stroke-width:2.0;"/><text fill="#000000" font-family="sans-serif" font-size="13" lengthAdjust="spacing" textLength="97" x="1318" y="678.9451">reasonReference</text></g><!--link procedure-gentherapy-001 to condition-sma-genetic--><g id="link_procedure-gentherapy-001_condition-sma-genetic"><path codeLine="207" d="M1265.33,621.37 C1188.25,659.59 1087.4954,709.5545 1006.4454,749.7445 " fill="none" id="procedure-gentherapy-001-to-condition-sma-genetic" style="stroke:#666666;stroke-width:2.0;"/><polygon fill="#666666" points="1001.07,752.41,1010.9101,751.9954,1005.5495,750.1888,1007.3561,744.8281,1001.07,752.41" style="stroke:#666666;stroke-width:2.0;"/><text fill="#000000" font-family="sans-serif" font-size="13" lengthAdjust="spacing" textLength="97" x="1168" y="678.9451">reasonReference</text></g><!--link encounter-screening-001 to condition-sma-suspected--><g id="link_encounter-screening-001_condition-sma-suspected"><path codeLine="210" d="M75.54,513.81 C49.43,452.96 19.64,353.9 60,280.45 C87.64,230.15 134.6259,196.9482 183.1059,172.8782 " fill="none" id="encounter-screening-001-to-condition-sma-suspected" style="stroke:#666666;stroke-width:2.0;stroke-dasharray:7.0,7.0;"/><polygon fill="#666666" points="188.48,170.21,178.6401,170.6296,184.0016,172.4335,182.1977,177.795,188.48,170.21" style="stroke:#666666;stroke-width:2.0;"/><text fill="#000000" font-family="sans-serif" font-size="13" lengthAdjust="spacing" textLength="51" x="61" y="359.4451">identifies</text></g><!--link encounter-ambulant-001 to condition-sma-clinical--><g id="link_encounter-ambulant-001_condition-sma-clinical"><path codeLine="211" d="M1583.12,418.65 C1573.16,445.04 1562.88,476.26 1557,505.45 C1543.27,573.66 1538.9714,646.0209 1537.9514,706.3609 " fill="none" id="encounter-ambulant-001-to-condition-sma-clinical" style="stroke:#666666;stroke-width:2.0;"/><polygon fill="#666666" points="1537.85,712.36,1542.0015,703.4289,1537.9345,707.3607,1534.0027,703.2937,1537.85,712.36" style="stroke:#666666;stroke-width:2.0;"/><text fill="#000000" font-family="sans-serif" font-size="13" lengthAdjust="spacing" textLength="55" x="1558" y="575.4451">diagnosis</text></g><!--link encounter-stationaer-001 to condition-sma-genetic--><g id="link_encounter-stationaer-001_condition-sma-genetic"><path codeLine="212" d="M1309.03,410.13 C1272.59,437.77 1228.65,472.34 1191,505.45 C1116.03,571.39 1040.2352,646.5707 980.4352,708.0007 " fill="none" id="encounter-stationaer-001-to-condition-sma-genetic" style="stroke:#666666;stroke-width:2.0;"/><polygon fill="#666666" points="976.25,712.3,985.394,708.6412,979.7377,708.7173,979.6616,703.0609,976.25,712.3" style="stroke:#666666;stroke-width:2.0;"/><text fill="#000000" font-family="sans-serif" font-size="13" lengthAdjust="spacing" textLength="55" x="1192" y="575.4451">diagnosis</text></g><!--link encounter-nachsorge-001 to condition-sma-clinical--><g id="link_encounter-nachsorge-001_condition-sma-clinical"><path codeLine="213" d="M1686.18,626.13 C1665.92,651.64 1644.9414,678.0514 1621.6014,707.4414 " fill="none" id="encounter-nachsorge-001-to-condition-sma-clinical" style="stroke:#666666;stroke-width:2.0;"/><polygon fill="#666666" points="1617.87,712.14,1626.5995,707.5797,1620.9795,708.2245,1620.3347,702.6045,1617.87,712.14" style="stroke:#666666;stroke-width:2.0;"/><text fill="#000000" font-family="sans-serif" font-size="13" lengthAdjust="spacing" textLength="55" x="1652" y="678.9451">diagnosis</text></g><!--link encounter-nachsorge-001 to condition-sma-genetic--><g id="link_encounter-nachsorge-001_condition-sma-genetic"><path codeLine="214" d="M1631.5,623.05 C1622.31,627.16 1613.05,631.03 1604,634.45 C1398.29,712.12 1152.5023,763.7215 1007.1423,790.2815 " fill="none" id="encounter-nachsorge-001-to-condition-sma-genetic" style="stroke:#666666;stroke-width:2.0;"/><polygon fill="#666666" points="1001.24,791.36,1010.8124,793.6772,1006.1586,790.4613,1009.3745,785.8075,1001.24,791.36" style="stroke:#666666;stroke-width:2.0;"/><text fill="#000000" font-family="sans-serif" font-size="13" lengthAdjust="spacing" textLength="55" x="1509" y="678.9451">diagnosis</text></g><!--reverse link patient-sma-001 to encounter-screening-001--><g id="link_patient-sma-001_encounter-screening-001"><path codeLine="217" d="M1699.6385,136.5069 C1860.2685,150.1269 2195.89,188.93 2262,280.45 C2300.26,333.41 2303.58,377.05 2262,427.45 C2190.55,514.05 2125.65,463.7 2014,475.45 C1654.37,513.28 746.05,462.45 387,505.45 C323.67,513.04 253.73,528.58 199.1,542.39 " fill="none" id="patient-sma-001-backto-encounter-screening-001" style="stroke:#666666;stroke-width:2.0;"/><polygon fill="#666666" points="1693.66,136,1702.2899,140.7461,1698.6421,136.4224,1702.9658,132.7747,1693.66,136" style="stroke:#666666;stroke-width:2.0;"/><text fill="#000000" font-family="sans-serif" font-size="13" lengthAdjust="spacing" textLength="42" x="2292" y="359.4451">subject</text></g><!--reverse link patient-sma-001 to encounter-ambulant-001--><g id="link_patient-sma-001_encounter-ambulant-001"><path codeLine="218" d="M1610,191.07 C1610,222.67 1610,256.47 1610,289.39 " fill="none" id="patient-sma-001-backto-encounter-ambulant-001" style="stroke:#666666;stroke-width:2.0;"/><polygon fill="#666666" points="1610,185.07,1606,194.07,1610,190.07,1614,194.07,1610,185.07" style="stroke:#666666;stroke-width:2.0;"/><text fill="#000000" font-family="sans-serif" font-size="13" lengthAdjust="spacing" textLength="42" x="1611" y="246.9451">subject</text></g><!--reverse link patient-sma-001 to encounter-stationaer-001--><g id="link_patient-sma-001_encounter-stationaer-001"><path codeLine="219" d="M1549.8598,189.2849 C1515.0998,223.5949 1474.8,263.35 1440.01,297.69 " fill="none" id="patient-sma-001-backto-encounter-stationaer-001" style="stroke:#666666;stroke-width:2.0;"/><polygon fill="#666666" points="1554.13,185.07,1544.9148,188.5456,1550.5715,188.5824,1550.5347,194.2392,1554.13,185.07" style="stroke:#666666;stroke-width:2.0;"/><text fill="#000000" font-family="sans-serif" font-size="13" lengthAdjust="spacing" textLength="42" x="1504" y="246.9451">subject</text></g><!--reverse link patient-sma-001 to encounter-nachsorge-001--><g id="link_patient-sma-001_encounter-nachsorge-001"><path codeLine="220" d="M1667.7853,189.709 C1690.1653,216.279 1709.84,245.37 1722,280.45 C1748.88,357.97 1744.64,454.36 1738.1,513.76 " fill="none" id="patient-sma-001-backto-encounter-nachsorge-001" style="stroke:#666666;stroke-width:2.0;"/><polygon fill="#666666" points="1663.92,185.12,1666.6587,194.5804,1667.1411,188.9442,1672.7774,189.4266,1663.92,185.12" style="stroke:#666666;stroke-width:2.0;"/><text fill="#000000" font-family="sans-serif" font-size="13" lengthAdjust="spacing" textLength="42" x="1744" y="359.4451">subject</text></g><!--reverse link encounter-stationaer-001 to procedure-gentherapy-001--><g id="link_encounter-stationaer-001_procedure-gentherapy-001"><path codeLine="223" d="M1379.1452,416.0412 C1376.8352,445.1412 1374.46,475.02 1372.06,505.31 " fill="none" id="encounter-stationaer-001-backto-procedure-gentherapy-001" style="stroke:#666666;stroke-width:2.0;stroke-dasharray:7.0,7.0;"/><polygon fill="#666666" points="1379.62,410.06,1374.9204,418.7152,1379.2243,415.0443,1382.8953,419.3483,1379.62,410.06" style="stroke:#666666;stroke-width:2.0;"/><text fill="#000000" font-family="sans-serif" font-size="13" lengthAdjust="spacing" textLength="43" x="1376" y="471.9451">context</text></g><rect fill="none" height="154.875" id="_legend" rx="5" ry="5" style="stroke:#000000;stroke-width:1.0;" width="427" x="1074.5" y="1160.2"/><text fill="#000000" font-family="sans-serif" font-size="14" lengthAdjust="spacing" textLength="34" x="1079.5" y="1181.7332">Color</text><text fill="#000000" font-family="sans-serif" font-size="14" lengthAdjust="spacing" textLength="32" x="1113.5" y="1181.7332">Type</text><text fill="#000000" font-family="sans-serif" font-size="14" lengthAdjust="spacing" textLength="87" x="1226.5" y="1181.7332">Beschreibung</text><rect fill="#1E3A5F" height="17.6094" style="stroke:none;stroke-width:1.0;" width="34" x="1079.5" y="1184.8094"/><text fill="#000000" font-family="sans-serif" font-size="14" lengthAdjust="spacing" textLength="4" x="1079.5" y="1199.3426">&#160;</text><text fill="#000000" font-family="sans-serif" font-size="14" lengthAdjust="spacing" textLength="44" x="1113.5" y="1199.3426">Patient</text><text fill="#000000" font-family="sans-serif" font-size="14" lengthAdjust="spacing" textLength="179" x="1226.5" y="1199.3426">Zentrale Patientenressource</text><rect fill="#DC2626" height="17.6094" style="stroke:none;stroke-width:1.0;" width="34" x="1079.5" y="1202.4188"/><text fill="#000000" font-family="sans-serif" font-size="14" lengthAdjust="spacing" textLength="4" x="1079.5" y="1216.952">&#160;</text><text fill="#000000" font-family="sans-serif" font-size="14" lengthAdjust="spacing" textLength="60" x="1113.5" y="1216.952">Condition</text><text fill="#000000" font-family="sans-serif" font-size="14" lengthAdjust="spacing" textLength="270" x="1226.5" y="1216.952">Parallele Diagnosen (Klinisch &amp; Genetisch)</text><rect fill="#FACC15" height="17.6094" style="stroke:none;stroke-width:1.0;" width="34" x="1079.5" y="1220.0281"/><text fill="#000000" font-family="sans-serif" font-size="14" lengthAdjust="spacing" textLength="4" x="1079.5" y="1234.5613">&#160;</text><text fill="#000000" font-family="sans-serif" font-size="14" lengthAdjust="spacing" textLength="113" x="1113.5" y="1234.5613">ClinicalImpression</text><text fill="#000000" font-family="sans-serif" font-size="14" lengthAdjust="spacing" textLength="132" x="1226.5" y="1234.5613">Klinische Beurteilung</text><rect fill="#0D9488" height="17.6094" style="stroke:none;stroke-width:1.0;" width="34" x="1079.5" y="1237.6375"/><text fill="#000000" font-family="sans-serif" font-size="14" lengthAdjust="spacing" textLength="4" x="1079.5" y="1252.1707">&#160;</text><text fill="#000000" font-family="sans-serif" font-size="14" lengthAdjust="spacing" textLength="77" x="1113.5" y="1252.1707">Observation</text><text fill="#000000" font-family="sans-serif" font-size="14" lengthAdjust="spacing" textLength="103" x="1226.5" y="1252.1707">Labor &amp; Genetik</text><rect fill="#7C3AED" height="17.6094" style="stroke:none;stroke-width:1.0;" width="34" x="1079.5" y="1255.2469"/><text fill="#000000" font-family="sans-serif" font-size="14" lengthAdjust="spacing" textLength="4" x="1079.5" y="1269.7801">&#160;</text><text fill="#000000" font-family="sans-serif" font-size="14" lengthAdjust="spacing" textLength="66" x="1113.5" y="1269.7801">Procedure</text><text fill="#000000" font-family="sans-serif" font-size="14" lengthAdjust="spacing" textLength="79" x="1226.5" y="1269.7801">Gentherapie</text><rect fill="#EA580C" height="17.6094" style="stroke:none;stroke-width:1.0;" width="34" x="1079.5" y="1272.8563"/><text fill="#000000" font-family="sans-serif" font-size="14" lengthAdjust="spacing" textLength="4" x="1079.5" y="1287.3895">&#160;</text><text fill="#000000" font-family="sans-serif" font-size="14" lengthAdjust="spacing" textLength="65" x="1113.5" y="1287.3895">Encounter</text><text fill="#000000" font-family="sans-serif" font-size="14" lengthAdjust="spacing" textLength="56" x="1226.5" y="1287.3895">Kontakte</text><rect fill="#4A86E8" height="17.6094" style="stroke:none;stroke-width:1.0;" width="34" x="1079.5" y="1290.4656"/><text fill="#000000" font-family="sans-serif" font-size="14" lengthAdjust="spacing" textLength="4" x="1079.5" y="1304.9988">&#160;</text><text fill="#000000" font-family="sans-serif" font-size="14" lengthAdjust="spacing" textLength="84" x="1113.5" y="1304.9988">FamilyHistory</text><text fill="#000000" font-family="sans-serif" font-size="14" lengthAdjust="spacing" textLength="119" x="1226.5" y="1304.9988">Familienanamnese</text><line style="stroke:#000000;stroke-width:1.0;" x1="1079.5" x2="1496.5" y1="1167.2" y2="1167.2"/><line style="stroke:#000000;stroke-width:1.0;" x1="1079.5" x2="1496.5" y1="1184.8094" y2="1184.8094"/><line style="stroke:#000000;stroke-width:1.0;" x1="1079.5" x2="1496.5" y1="1202.4188" y2="1202.4188"/><line style="stroke:#000000;stroke-width:1.0;" x1="1079.5" x2="1496.5" y1="1220.0281" y2="1220.0281"/><line style="stroke:#000000;stroke-width:1.0;" x1="1079.5" x2="1496.5" y1="1237.6375" y2="1237.6375"/><line style="stroke:#000000;stroke-width:1.0;" x1="1079.5" x2="1496.5" y1="1255.2469" y2="1255.2469"/><line style="stroke:#000000;stroke-width:1.0;" x1="1079.5" x2="1496.5" y1="1272.8563" y2="1272.8563"/><line style="stroke:#000000;stroke-width:1.0;" x1="1079.5" x2="1496.5" y1="1290.4656" y2="1290.4656"/><line style="stroke:#000000;stroke-width:1.0;" x1="1079.5" x2="1496.5" y1="1308.075" y2="1308.075"/><line style="stroke:#000000;stroke-width:1.0;" x1="1079.5" x2="1079.5" y1="1167.2" y2="1308.075"/><line style="stroke:#000000;stroke-width:1.0;" x1="1113.5" x2="1113.5" y1="1167.2" y2="1308.075"/><line style="stroke:#000000;stroke-width:1.0;" x1="1226.5" x2="1226.5" y1="1167.2" y2="1308.075"/><line style="stroke:#000000;stroke-width:1.0;" x1="1496.5" x2="1496.5" y1="1167.2" y2="1308.075"/><!--SRC=[nLdBSjl85TtZAth6LOci2XYIicMQvLALPCaQb_MA92ULIMNH12u9X40tghj1ZJoSBBFF5sIZRyWgE_r9lYIt7tYH02dE9ggfcM7txViuzzcDxqAOnWp8wV7jbvEBhsVarG0EwDkfzvtRkFXy_iEztNb3HuSmAdVERy_EhiYhVlZ-pQXQlRuzlZf7Og1lH_sWNBxvUdjpWSllWWCAORbyUtPANeN1y71uMAxz-UpYulfFvDMK1i7WhUV9USmoAcXA9ZIOpmJFMVYH9rmWoMZwVafh56Opu8A188D-RKD6DEGFCPiH9NAeRHmBmHySkqFpjxfv7yN1d86KP5XN9aWeBlti4VmxQIhsuSCDLJ4mTNHK0clfk0X1RARvn9bQetY8OWLckrtUHyx2MCMS8IrYkYwiZQ0cgRwzJTRrH89OK4Tjec1TNXTHJMQJP9lK6y4327C1I6k3gGNHTfeweZMARHBFM82_50YajL6zBh63fYQnJh5DuYUQnidZ3x5KN3mYVPbxwu8tazRahn9kZQGaPd50ayzf9Z3chNDiIhP4rHRYUeIraKuI5E_zudc_9HVqaUUAH35Jn2TJBW8W2KmLoRWqaOcvwoa-0nLXRjkqioduVL04hozJwijSPX0e2BydpRYsP_JV_luVGOGqY1IX-PJSNHxlxvURWLFqJb6Lop6XWOeNK6ulGCHJtDTC2v9Cy4MiJQ99IVS9f98AaYHdip4PZ7hzTxrXV_Yc9FX3Zfim9bUGps321J1WCX00nb9DyKlbfi9IfviVboZw_Vx0MDg6RztaBvf01X6G4yY5WbXhjc9xOL30qom1nB3SESMDT4o6Xsjs_9XBcgR0fgYXiVK4BNz-Kl5CWMPFxXypCYZ9qrYHUQ4A8nXuP8QcA_Vx1AQu1Am302YooI-XAW2e9rhTxbPyQpOxoreyX8gFoTsAIqomki9Cg28OZYG0BTTpEcPsqmIZqwqgv5QpcawIN3u_XTfsitCE4tJEcFozFsZey_bqhC7qzOBcQlN0y9x68eMGdCPqnhW4wRKcHH4uxJbH3uw2KUKwXzL7gc26DMHSPeYt9LtQKYKeDBPMVJpr1_qnEHyCUtspSYsoY8x9wE3Wm2uqysWuRA1opIGedKAOUWeLGb1QpRSH5dHPVru6u4lCTyp-7zOti-_kycem9X5F-RV76STiEmLCMXHdWyDQ5H0SgaACNqds5CzU5m0jg8YfYL8sACAqsP4BTBIOahL3umlFCA37f4_sIlcllNe9mP2FiFBFDAnUUmMfl5LJPhXLcQ6JJjat6YKh2WtDhqiU8lPpYZslMxP5I2UmeDaZsHFnB58bFbanAUZWSJHbEjUcY5eCMQeOd4hNDtTZSeXdGkVTGelt3IzUOa6y4H1Y_Y5UpdUsQsCtD6sRx4suKZmr3R7KS6feV4TJwBRQxmlzlWfiyy__IdE5fSff-9LDO4uP5YzocSivkbZC1MNpt5MxMqWC_cCiqpB6z6YYEMoYUMqwSrc6PQ5rgN1Ll6awoHFjyCxQlRz_9gHQS554lrDvNNPPgOyTKvSRn_wFw1AHfxKugxKFPIoZ-ByRTBYpLCzFWaoV_oF8kfDBd_e7_NMLglEjIZ0SGIGNCzYamrL1r9IeQyQe2m4tKKq8hv98kWWdCWwXz4cDm5U2PthEyd4f1jcTXFUEaDoJI3grZ4V6vFsGiDdl4_BVV_pJBe_CyjjHSrbtjn4klsik6wFGjlvXjLu1LzSrmJ8h_2nHtLeUNzp_ZXpVuR_k8y7J2LOf1KK1k-5I-TQNaAkoI1NLwugBz0443Z4TcLkVMMiJQcDqzHNtBUJJX3yGYgFEGlF4Va6em4IR0SvDokiUOFs_H768qz1VyUxA_AFk0T3h7WtNU7JDK2_HmvYZcQmEEIzHeFimObdK6Xd5cKGOQoEM6wzQ1YlVtp3zZudC9t_37oyxMOr8EnuiXuljvxeWsdfolLllScJumYFTFM_hqRPcX1SZIzjrQ6FnsIgoennKv_I0l7Oh8WAenF_eRCIbF55oK-oQfEkECCli5gQ0itm0kt6gHvmRqh166vrUxyQf5e9hZDfHYDa2HyjuPdDkcxIsy6jms871y5Sns18gE_5gZzKc2tF94nHlw0a9YxiLbYKSQI82F-5HxACf0amPy5mcZnkgPw-tqVK9q50InNVZK7DvoG2LFbjWTsUw0SLiBhskGvrU1NV-nIU7sqvMfhx4aIKNxO2Y7BaqA_6l72BpBEC2R-58eMmpxIvYMr9mBPTtubJpnoeZxPQYvnQwnxBmKEUJHelJ6xL70wNmcWCD9itHUel9fJBUXj5uix6jB5O6sr-ZnNOMhKeqi7Pzeq2wlOrquh-r0NM1liF1LQntEBe2KAFjLPbJqXiGDhdvGw-tUG90z1NyPFZVnoaa-biDNXwvvUCn_G9Xnrq-xGvSJu_cHMcjtblOs0pcWnufdsRtp9ESVbKOzaZB0zMUkNBe_OCUQNl2sJFtVKs0_vm0vaibpjRmM6SeRcP5gTVFaI1cpq_i6zBeEwy7kAHjywo5varQ6xYfa7cDMz84fSJANfJszpFn_DIuUA30wFdVaSBzIbO2C_t3tVlT1BmqR-bBlEl1yWJmAFATuDruwIq_kEzsHqitE2_DxPSYn6u1cEw4FCVRYQ6tNzsEbkM3sBB5AsIl09xyfiBujM5WlyyXWxNfOjdwrcmEsQ-5HylQbMs95rKkIlvpGsU_4w8rHK0kQtTlGs4_C1ujotHVVi40fNDbj-t7ogDbupt4_Z9lHpHb894KKRPOU_y3]--></g></svg>