<svg xmlns="http://www.w3.org/2000/svg" xmlns:xlink="http://www.w3.org/1999/xlink" contentStyleType="text/css" data-diagram-type="CLASS" height="945px" preserveAspectRatio="none" style="width:2154px;height:945px;background:#FFFFFF;" version="1.1" viewBox="0 0 2154 945" width="2154px" zoomAndPan="magnify"><defs/><g><!--class Patient--><g class="entity" data-entity="Patient" data-source-line="15" data-uid="ent0002" id="entity_Patient"><rect fill="#FFFFFF" height="91.6279" rx="2.5" ry="2.5" style="stroke:#2563EB;stroke-width:1;" width="195.9658" x="652.98" y="12"/><ellipse cx="665.98" cy="49.814" fill="#FFFFFF" rx="9" ry="9" style="stroke:#000000;stroke-width:1;"/><path d="M669.5943,56.314 L661.8745,56.314 L661.8745,43.9209 L669.5943,43.9209 L669.5943,46.0791 L664.3233,46.0791 L664.3233,48.752 L669.0962,48.752 L669.0962,50.9102 L664.3233,50.9102 L664.3233,54.1558 L669.5943,54.1558 Z " fill="#000000"/><text fill="#000000" font-family="Verdana" font-size="12" font-style="italic" lengthAdjust="spacing" textLength="57.4043" x="733.2608" y="29.0645">&#171;Patient&#187;</text><text fill="#000000" font-family="Verdana" font-size="14" font-weight="bold" lengthAdjust="spacing" textLength="56.4238" x="733.751" y="45.6592">Patient</text><text fill="#000000" font-family="Verdana" font-size="14" lengthAdjust="spacing" textLength="167.9658" x="677.98" y="62.6738">Neugeborenes M&#228;dchen</text><text fill="#000000" font-family="Verdana" font-size="14" lengthAdjust="spacing" textLength="83.918" x="720.0039" y="79.6885">2024-07-01</text><line style="stroke:#2563EB;stroke-width:1;" x1="653.98" x2="847.9458" y1="87.6279" y2="87.6279"/><line style="stroke:#2563EB;stroke-width:1;" x1="653.98" x2="847.9458" y1="95.6279" y2="95.6279"/></g><!--class C1--><g class="entity" data-entity="C1" data-source-line="18" data-uid="ent0003" id="entity_C1"><rect fill="#FFFFFF" height="91.6279" rx="2.5" ry="2.5" style="stroke:#DC2626;stroke-width:1;" width="249.8535" x="1898.03" y="220.64"/><ellipse cx="1911.03" cy="258.454" fill="#FFFFFF" rx="9" ry="9" style="stroke:#000000;stroke-width:1;"/><path d="M1914.6443,264.954 L1906.9245,264.954 L1906.9245,252.5609 L1914.6443,252.5609 L1914.6443,254.7191 L1909.3733,254.7191 L1909.3733,257.392 L1914.1462,257.392 L1914.1462,259.5502 L1909.3733,259.5502 L1909.3733,262.7958 L1914.6443,262.7958 Z " fill="#000000"/><text fill="#000000" font-family="Verdana" font-size="12" font-style="italic" lengthAdjust="spacing" textLength="72.3926" x="1997.7605" y="237.7045">&#171;Condition&#187;</text><text fill="#000000" font-family="Verdana" font-size="14" font-weight="bold" lengthAdjust="spacing" textLength="166.4688" x="1950.7224" y="254.2992">Condition: Suspected</text><text fill="#000000" font-family="Verdana" font-size="14" lengthAdjust="spacing" textLength="83.918" x="1991.9978" y="271.3138">2024-07-18</text><text fill="#000000" font-family="Verdana" font-size="14" lengthAdjust="spacing" textLength="221.8535" x="1923.03" y="288.3285">verificationStatus: unconfirmed</text><line style="stroke:#DC2626;stroke-width:1;" x1="1899.03" x2="2146.8835" y1="296.2679" y2="296.2679"/><line style="stroke:#DC2626;stroke-width:1;" x1="1899.03" x2="2146.8835" y1="304.2679" y2="304.2679"/></g><!--class C2--><g class="entity" data-entity="C2" data-source-line="19" data-uid="ent0004" id="entity_C2"><rect fill="#FFFFFF" height="108.6426" rx="2.5" ry="2.5" style="stroke:#DC2626;stroke-width:1;" width="238.1299" x="1133.89" y="429.29"/><ellipse cx="1146.89" cy="475.6113" fill="#FFFFFF" rx="9" ry="9" style="stroke:#000000;stroke-width:1;"/><path d="M1150.5043,482.1113 L1142.7845,482.1113 L1142.7845,469.7182 L1150.5043,469.7182 L1150.5043,471.8764 L1145.2333,471.8764 L1145.2333,474.5493 L1150.0062,474.5493 L1150.0062,476.7075 L1145.2333,476.7075 L1145.2333,479.9531 L1150.5043,479.9531 Z " fill="#000000"/><text fill="#000000" font-family="Verdana" font-size="12" font-style="italic" lengthAdjust="spacing" textLength="72.3926" x="1227.7587" y="446.3545">&#171;Condition&#187;</text><text fill="#000000" font-family="Verdana" font-size="14" font-weight="bold" lengthAdjust="spacing" textLength="142.29" x="1192.8099" y="462.9492">Condition: Clinical</text><text fill="#000000" font-family="Verdana" font-size="14" lengthAdjust="spacing" textLength="83.918" x="1221.996" y="479.9638">2024-07-22</text><text fill="#000000" font-family="Verdana" font-size="14" lengthAdjust="spacing" textLength="210.1299" x="1158.89" y="496.9785">verificationStatus: provisional</text><text fill="#000000" font-family="Verdana" font-size="14" lengthAdjust="spacing" textLength="104.542" x="1211.6839" y="513.9931">ICD-10: G12.0</text><line style="stroke:#DC2626;stroke-width:1;" x1="1134.89" x2="1371.0199" y1="521.9326" y2="521.9326"/><line style="stroke:#DC2626;stroke-width:1;" x1="1134.89" x2="1371.0199" y1="529.9326" y2="529.9326"/></g><!--class C3--><g class="entity" data-entity="C3" data-source-line="20" data-uid="ent0005" id="entity_C3"><rect fill="#FFFFFF" height="108.6426" rx="2.5" ry="2.5" style="stroke:#DC2626;stroke-width:1;" width="247.5088" x="508.2" y="637.93"/><ellipse cx="521.2" cy="684.2513" fill="#FFFFFF" rx="9" ry="9" style="stroke:#000000;stroke-width:1;"/><path d="M524.8143,690.7513 L517.0945,690.7513 L517.0945,678.3582 L524.8143,678.3582 L524.8143,680.5164 L519.5433,680.5164 L519.5433,683.1893 L524.3162,683.1893 L524.3162,685.3475 L519.5433,685.3475 L519.5433,688.5931 L524.8143,688.5931 Z " fill="#000000"/><text fill="#000000" font-family="Verdana" font-size="12" font-style="italic" lengthAdjust="spacing" textLength="72.3926" x="606.7581" y="654.9945">&#171;Condition&#187;</text><text fill="#000000" font-family="Verdana" font-size="14" font-weight="bold" lengthAdjust="spacing" textLength="166.7285" x="559.5901" y="671.5892">Condition: Confirmed</text><text fill="#000000" font-family="Verdana" font-size="14" lengthAdjust="spacing" textLength="83.918" x="600.9954" y="688.6038">2024-07-26</text><text fill="#000000" font-family="Verdana" font-size="14" lengthAdjust="spacing" textLength="204.1348" x="540.887" y="705.6185">verificationStatus: confirmed</text><text fill="#000000" font-family="Verdana" font-size="14" lengthAdjust="spacing" textLength="219.5088" x="533.2" y="722.6331">ICD-10: G12.0 | Orpha: 83330</text><line style="stroke:#DC2626;stroke-width:1;" x1="509.2" x2="754.7088" y1="730.5726" y2="730.5726"/><line style="stroke:#DC2626;stroke-width:1;" x1="509.2" x2="754.7088" y1="738.5726" y2="738.5726"/></g><!--class SMN1--><g class="entity" data-entity="SMN1" data-source-line="23" data-uid="ent0006" id="entity_SMN1"><rect fill="#FFFFFF" height="91.6279" rx="2.5" ry="2.5" style="stroke:#059669;stroke-width:1;" width="180.5098" x="313.7" y="846.57"/><ellipse cx="326.7" cy="884.384" fill="#FFFFFF" rx="9" ry="9" style="stroke:#000000;stroke-width:1;"/><path d="M330.3143,890.884 L322.5945,890.884 L322.5945,878.4909 L330.3143,878.4909 L330.3143,880.6491 L325.0433,880.6491 L325.0433,883.322 L329.8162,883.322 L329.8162,885.4802 L325.0433,885.4802 L325.0433,888.7258 L330.3143,888.7258 Z " fill="#000000"/><text fill="#000000" font-family="Verdana" font-size="12" font-style="italic" lengthAdjust="spacing" textLength="88.1074" x="370.9012" y="863.6345">&#171;Observation&#187;</text><text fill="#000000" font-family="Verdana" font-size="14" font-weight="bold" lengthAdjust="spacing" textLength="150.8896" x="339.5101" y="880.2292">Observation: SMN1</text><text fill="#000000" font-family="Verdana" font-size="14" lengthAdjust="spacing" textLength="99.3398" x="365.285" y="897.2438">Gene Deletion</text><text fill="#000000" font-family="Verdana" font-size="14" lengthAdjust="spacing" textLength="152.5098" x="338.7" y="914.2585">0 copies (pathogenic)</text><line style="stroke:#059669;stroke-width:1;" x1="314.7" x2="493.2098" y1="922.1979" y2="922.1979"/><line style="stroke:#059669;stroke-width:1;" x1="314.7" x2="493.2098" y1="930.1979" y2="930.1979"/></g><!--class SMN2--><g class="entity" data-entity="SMN2" data-source-line="24" data-uid="ent0007" id="entity_SMN2"><rect fill="#FFFFFF" height="91.6279" rx="2.5" ry="2.5" style="stroke:#059669;stroke-width:1;" width="178.8896" x="770.51" y="846.57"/><ellipse cx="783.51" cy="884.384" fill="#FFFFFF" rx="9" ry="9" style="stroke:#000000;stroke-width:1;"/><path d="M787.1243,890.884 L779.4045,890.884 L779.4045,878.4909 L787.1243,878.4909 L787.1243,880.6491 L781.8533,880.6491 L781.8533,883.322 L786.6262,883.322 L786.6262,885.4802 L781.8533,885.4802 L781.8533,888.7258 L787.1243,888.7258 Z " fill="#000000"/><text fill="#000000" font-family="Verdana" font-size="12" font-style="italic" lengthAdjust="spacing" textLength="88.1074" x="826.9011" y="863.6345">&#171;Observation&#187;</text><text fill="#000000" font-family="Verdana" font-size="14" font-weight="bold" lengthAdjust="spacing" textLength="150.8896" x="795.51" y="880.2292">Observation: SMN2</text><text fill="#000000" font-family="Verdana" font-size="14" lengthAdjust="spacing" textLength="96.1885" x="822.8606" y="897.2438">Copy Number</text><text fill="#000000" font-family="Verdana" font-size="14" lengthAdjust="spacing" textLength="133.2051" x="804.3523" y="914.2585">2 copies (modifier)</text><line style="stroke:#059669;stroke-width:1;" x1="771.51" x2="948.3996" y1="922.1979" y2="922.1979"/><line style="stroke:#059669;stroke-width:1;" x1="771.51" x2="948.3996" y1="930.1979" y2="930.1979"/></g><!--class Proc--><g class="entity" data-entity="Proc" data-source-line="27" data-uid="ent0008" id="entity_Proc"><rect fill="#FFFFFF" height="108.6426" rx="2.5" ry="2.5" style="stroke:#7C3AED;stroke-width:1;" width="124.0859" x="569.92" y="429.29"/><ellipse cx="582.92" cy="475.6113" fill="#FFFFFF" rx="9" ry="9" style="stroke:#000000;stroke-width:1;"/><path d="M586.5343,482.1113 L578.8145,482.1113 L578.8145,469.7182 L586.5343,469.7182 L586.5343,471.8764 L581.2633,471.8764 L581.2633,474.5493 L586.0362,474.5493 L586.0362,476.7075 L581.2633,476.7075 L581.2633,479.9531 L586.5343,479.9531 Z " fill="#000000"/><text fill="#000000" font-family="Verdana" font-size="12" font-style="italic" lengthAdjust="spacing" textLength="75.8496" x="605.0382" y="446.3545">&#171;Procedure&#187;</text><text fill="#000000" font-family="Verdana" font-size="14" font-weight="bold" lengthAdjust="spacing" textLength="80.3838" x="602.7711" y="462.9492">Procedure</text><text fill="#000000" font-family="Verdana" font-size="14" lengthAdjust="spacing" textLength="86.0576" x="599.9342" y="479.9638">Gentherapie</text><text fill="#000000" font-family="Verdana" font-size="14" lengthAdjust="spacing" textLength="83.918" x="601.004" y="496.9785">2024-07-29</text><text fill="#000000" font-family="Verdana" font-size="14" lengthAdjust="spacing" textLength="96.0859" x="594.92" y="513.9931">OPS: 6-00d.0</text><line style="stroke:#7C3AED;stroke-width:1;" x1="570.92" x2="693.0059" y1="521.9326" y2="521.9326"/><line style="stroke:#7C3AED;stroke-width:1;" x1="570.92" x2="693.0059" y1="529.9326" y2="529.9326"/></g><!--class Family--><g class="entity" data-entity="Family" data-source-line="30" data-uid="ent0009" id="entity_Family"><rect fill="#FFFFFF" height="108.6426" rx="2.5" ry="2.5" style="stroke:#0891B2;stroke-width:1;" width="156.9873" x="1499.47" y="212.14"/><ellipse cx="1512.47" cy="258.4613" fill="#FFFFFF" rx="9" ry="9" style="stroke:#000000;stroke-width:1;"/><path d="M1516.0843,264.9613 L1508.3645,264.9613 L1508.3645,252.5682 L1516.0843,252.5682 L1516.0843,254.7264 L1510.8133,254.7264 L1510.8133,257.3993 L1515.5862,257.3993 L1515.5862,259.5575 L1510.8133,259.5575 L1510.8133,262.8031 L1516.0843,262.8031 Z " fill="#000000"/><text fill="#000000" font-family="Verdana" font-size="12" font-style="italic" lengthAdjust="spacing" textLength="54.9258" x="1561.5008" y="229.2045">&#171;Family&#187;</text><text fill="#000000" font-family="Verdana" font-size="14" font-weight="bold" lengthAdjust="spacing" textLength="108.8281" x="1534.5496" y="245.7992">FamilyHistory</text><text fill="#000000" font-family="Verdana" font-size="14" lengthAdjust="spacing" textLength="95.9219" x="1541.0027" y="262.8138">Urgro&#223;mutter</text><text fill="#000000" font-family="Verdana" font-size="14" lengthAdjust="spacing" textLength="128.9873" x="1524.47" y="279.8285">Muskelerkrankung</text><text fill="#000000" font-family="Verdana" font-size="14" lengthAdjust="spacing" textLength="127.6406" x="1525.1433" y="296.8431">Relation: unsicher</text><line style="stroke:#0891B2;stroke-width:1;" x1="1500.47" x2="1655.4573" y1="304.7826" y2="304.7826"/><line style="stroke:#0891B2;stroke-width:1;" x1="1500.47" x2="1655.4573" y1="312.7826" y2="312.7826"/></g><!--class Trop--><g class="entity" data-entity="Trop" data-source-line="33" data-uid="ent0010" id="entity_Trop"><rect fill="#FFFFFF" height="125.6572" rx="2.5" ry="2.5" style="stroke:#059669;stroke-width:1;" width="151.0537" x="270.43" y="203.63"/><ellipse cx="283.43" cy="258.4586" fill="#FFFFFF" rx="9" ry="9" style="stroke:#000000;stroke-width:1;"/><path d="M287.0443,264.9586 L279.3245,264.9586 L279.3245,252.5655 L287.0443,252.5655 L287.0443,254.7238 L281.7733,254.7238 L281.7733,257.3966 L286.5462,257.3966 L286.5462,259.5548 L281.7733,259.5548 L281.7733,262.8004 L287.0443,262.8004 Z " fill="#000000"/><text fill="#000000" font-family="Verdana" font-size="12" font-style="italic" lengthAdjust="spacing" textLength="88.1074" x="312.9031" y="220.6945">&#171;Observation&#187;</text><text fill="#000000" font-family="Verdana" font-size="14" font-weight="bold" lengthAdjust="spacing" textLength="123.0537" x="295.43" y="237.2892">Lab: Troponin T</text><text fill="#000000" font-family="Verdana" font-size="14" lengthAdjust="spacing" textLength="78.8047" x="317.5545" y="254.3038">22.07: 92&#8593;</text><text fill="#000000" font-family="Verdana" font-size="14" lengthAdjust="spacing" textLength="78.8047" x="317.5545" y="271.3185">28.07: 58&#8593;</text><text fill="#000000" font-family="Verdana" font-size="14" lengthAdjust="spacing" textLength="78.8047" x="317.5545" y="288.3331">01.08: 57&#8593;</text><text fill="#000000" font-family="Verdana" font-size="14" lengthAdjust="spacing" textLength="87.7051" x="313.1043" y="305.3478">12.08: 106&#8593;</text><line style="stroke:#059669;stroke-width:1;" x1="271.43" x2="420.4837" y1="313.2872" y2="313.2872"/><line style="stroke:#059669;stroke-width:1;" x1="271.43" x2="420.4837" y1="321.2872" y2="321.2872"/></g><!--class Liver--><g class="entity" data-entity="Liver" data-source-line="34" data-uid="ent0011" id="entity_Liver"><rect fill="#FFFFFF" height="91.6279" rx="2.5" ry="2.5" style="stroke:#059669;stroke-width:1;" width="174.2002" x="663.86" y="220.64"/><ellipse cx="676.86" cy="258.454" fill="#FFFFFF" rx="9" ry="9" style="stroke:#000000;stroke-width:1;"/><path d="M680.4743,264.954 L672.7545,264.954 L672.7545,252.5609 L680.4743,252.5609 L680.4743,254.7191 L675.2033,254.7191 L675.2033,257.392 L679.9762,257.392 L679.9762,259.5502 L675.2033,259.5502 L675.2033,262.7958 L680.4743,262.7958 Z " fill="#000000"/><text fill="#000000" font-family="Verdana" font-size="12" font-style="italic" lengthAdjust="spacing" textLength="88.1074" x="717.9064" y="237.7045">&#171;Observation&#187;</text><text fill="#000000" font-family="Verdana" font-size="14" font-weight="bold" lengthAdjust="spacing" textLength="146.2002" x="688.86" y="254.2992">Lab: ALT/AST/PLT</text><text fill="#000000" font-family="Verdana" font-size="14" lengthAdjust="spacing" textLength="90.2139" x="716.8532" y="271.3138">Post-therapy</text><text fill="#000000" font-family="Verdana" font-size="14" lengthAdjust="spacing" textLength="71.374" x="726.2731" y="288.3285">All normal</text><line style="stroke:#059669;stroke-width:1;" x1="664.86" x2="837.0602" y1="296.2679" y2="296.2679"/><line style="stroke:#059669;stroke-width:1;" x1="664.86" x2="837.0602" y1="304.2679" y2="304.2679"/></g><!--class E1--><g class="entity" data-entity="E1" data-source-line="37" data-uid="ent0012" id="entity_E1"><rect fill="#FFFFFF" height="74.6133" rx="2.5" ry="2.5" style="stroke:#EA580C;stroke-width:1;" width="111.918" x="1967" y="20.51"/><ellipse cx="1980" cy="49.8166" fill="#FFFFFF" rx="9" ry="9" style="stroke:#000000;stroke-width:1;"/><path d="M1983.6143,56.3166 L1975.8945,56.3166 L1975.8945,43.9236 L1983.6143,43.9236 L1983.6143,46.0818 L1978.3433,46.0818 L1978.3433,48.7546 L1983.1162,48.7546 L1983.1162,50.9128 L1978.3433,50.9128 L1978.3433,54.1584 L1983.6143,54.1584 Z " fill="#000000"/><text fill="#000000" font-family="Verdana" font-size="12" font-style="italic" lengthAdjust="spacing" textLength="76.3711" x="1995.7734" y="37.5745">&#171;Encounter&#187;</text><text fill="#000000" font-family="Verdana" font-size="14" font-weight="bold" lengthAdjust="spacing" textLength="78.2578" x="1994.8301" y="54.1692">Screening</text><text fill="#000000" font-family="Verdana" font-size="14" lengthAdjust="spacing" textLength="83.918" x="1992" y="71.1838">2024-07-18</text><line style="stroke:#EA580C;stroke-width:1;" x1="1968" x2="2077.918" y1="79.1233" y2="79.1233"/><line style="stroke:#EA580C;stroke-width:1;" x1="1968" x2="2077.918" y1="87.1233" y2="87.1233"/></g><!--class E2--><g class="entity" data-entity="E2" data-source-line="38" data-uid="ent0013" id="entity_E2"><rect fill="#FFFFFF" height="74.6133" rx="2.5" ry="2.5" style="stroke:#EA580C;stroke-width:1;" width="148.1621" x="1109.88" y="229.15"/><ellipse cx="1122.88" cy="258.4566" fill="#FFFFFF" rx="9" ry="9" style="stroke:#000000;stroke-width:1;"/><path d="M1126.4943,264.9566 L1118.7745,264.9566 L1118.7745,252.5636 L1126.4943,252.5636 L1126.4943,254.7218 L1121.2233,254.7218 L1121.2233,257.3946 L1125.9962,257.3946 L1125.9962,259.5528 L1121.2233,259.5528 L1121.2233,262.7984 L1126.4943,262.7984 Z " fill="#000000"/><text fill="#000000" font-family="Verdana" font-size="12" font-style="italic" lengthAdjust="spacing" textLength="76.3711" x="1156.7755" y="246.2145">&#171;Encounter&#187;</text><text fill="#000000" font-family="Verdana" font-size="14" font-weight="bold" lengthAdjust="spacing" textLength="120.1621" x="1134.88" y="262.8092">Erstvorstellung</text><text fill="#000000" font-family="Verdana" font-size="14" lengthAdjust="spacing" textLength="83.918" x="1153.0021" y="279.8238">2024-07-22</text><line style="stroke:#EA580C;stroke-width:1;" x1="1110.88" x2="1257.0421" y1="287.7633" y2="287.7633"/><line style="stroke:#EA580C;stroke-width:1;" x1="1110.88" x2="1257.0421" y1="295.7633" y2="295.7633"/></g><!--class E3--><g class="entity" data-entity="E3" data-source-line="39" data-uid="ent0014" id="entity_E3"><rect fill="#FFFFFF" height="74.6133" rx="2.5" ry="2.5" style="stroke:#EA580C;stroke-width:1;" width="111.918" x="918" y="229.15"/><ellipse cx="931" cy="258.4566" fill="#FFFFFF" rx="9" ry="9" style="stroke:#000000;stroke-width:1;"/><path d="M934.6143,264.9566 L926.8945,264.9566 L926.8945,252.5636 L934.6143,252.5636 L934.6143,254.7218 L929.3433,254.7218 L929.3433,257.3946 L934.1162,257.3946 L934.1162,259.5528 L929.3433,259.5528 L929.3433,262.7984 L934.6143,262.7984 Z " fill="#000000"/><text fill="#000000" font-family="Verdana" font-size="12" font-style="italic" lengthAdjust="spacing" textLength="76.3711" x="946.7734" y="246.2145">&#171;Encounter&#187;</text><text fill="#000000" font-family="Verdana" font-size="14" font-weight="bold" lengthAdjust="spacing" textLength="72.7344" x="948.5918" y="262.8092">Station&#228;r</text><text fill="#000000" font-family="Verdana" font-size="14" lengthAdjust="spacing" textLength="83.918" x="943" y="279.8238">2024-07-29</text><line style="stroke:#EA580C;stroke-width:1;" x1="919" x2="1028.918" y1="287.7633" y2="287.7633"/><line style="stroke:#EA580C;stroke-width:1;" x1="919" x2="1028.918" y1="295.7633" y2="295.7633"/></g><!--class E4--><g class="entity" data-entity="E4" data-source-line="40" data-uid="ent0015" id="entity_E4"><rect fill="#FFFFFF" height="74.6133" rx="2.5" ry="2.5" style="stroke:#EA580C;stroke-width:1;" width="111.918" x="12" y="446.3"/><ellipse cx="25" cy="475.6066" fill="#FFFFFF" rx="9" ry="9" style="stroke:#000000;stroke-width:1;"/><path d="M28.6143,482.1066 L20.8945,482.1066 L20.8945,469.7136 L28.6143,469.7136 L28.6143,471.8718 L23.3433,471.8718 L23.3433,474.5446 L28.1162,474.5446 L28.1162,476.7028 L23.3433,476.7028 L23.3433,479.9484 L28.6143,479.9484 Z " fill="#000000"/><text fill="#000000" font-family="Verdana" font-size="12" font-style="italic" lengthAdjust="spacing" textLength="76.3711" x="40.7734" y="463.3645">&#171;Encounter&#187;</text><text fill="#000000" font-family="Verdana" font-size="14" font-weight="bold" lengthAdjust="spacing" textLength="83.3779" x="37.27" y="479.9592">Nachsorge</text><text fill="#000000" font-family="Verdana" font-size="14" lengthAdjust="spacing" textLength="83.918" x="37" y="496.9738">2024-08-12</text><line style="stroke:#EA580C;stroke-width:1;" x1="13" x2="122.918" y1="504.9133" y2="504.9133"/><line style="stroke:#EA580C;stroke-width:1;" x1="13" x2="122.918" y1="512.9133" y2="512.9133"/></g><!--link Patient to C1--><g class="link" data-entity-1="Patient" data-entity-2="C1" data-source-line="43" data-uid="lnk16" id="link_Patient_C1"><path codeLine="43" d="M857.41,98.2 C1141.17,98.2 1932.52,98.2 1932.52,98.2 C1932.52,98.2 1932.52,152.66 1932.52,202.48" fill="none" id="Patient-C1" style="stroke:#000000;stroke-width:1;"/><line style="stroke:#000000;stroke-width:1;" x1="853.41" x2="853.41" y1="102.2" y2="94.2"/><line style="stroke:#000000;stroke-width:1;" x1="856.41" x2="856.41" y1="102.2" y2="94.2"/><line style="stroke:#000000;stroke-width:1;" x1="857.41" x2="849.41" y1="98.2" y2="98.2"/><line style="stroke:#000000;stroke-width:1;" x1="1932.52" x2="1938.52" y1="212.48" y2="220.48"/><line style="stroke:#000000;stroke-width:1;" x1="1932.52" x2="1926.52" y1="212.48" y2="220.48"/><line style="stroke:#000000;stroke-width:1;" x1="1932.52" x2="1932.52" y1="212.48" y2="220.48"/><ellipse cx="1932.52" cy="206.48" fill="none" rx="4" ry="4" style="stroke:#000000;stroke-width:1;"/><text fill="#000000" font-family="Verdana" font-size="13" lengthAdjust="spacing" textLength="47.2139" x="1404.1" y="95.2698">subject</text></g><!--link Patient to C2--><g class="link" data-entity-1="Patient" data-entity-2="C2" data-source-line="44" data-uid="lnk17" id="link_Patient_C2"><path codeLine="44" d="M846.22,111.9 C846.22,216.77 846.22,456.2 846.22,456.2 C846.22,456.2 995.4,456.2 1115.4,456.2" fill="none" id="Patient-C2" style="stroke:#000000;stroke-width:1;"/><line style="stroke:#000000;stroke-width:1;" x1="842.22" x2="850.22" y1="107.9" y2="107.9"/><line style="stroke:#000000;stroke-width:1;" x1="842.22" x2="850.22" y1="110.9" y2="110.9"/><line style="stroke:#000000;stroke-width:1;" x1="846.22" x2="846.22" y1="111.9" y2="103.9"/><line style="stroke:#000000;stroke-width:1;" x1="1125.4" x2="1133.4" y1="456.2" y2="450.2"/><line style="stroke:#000000;stroke-width:1;" x1="1125.4" x2="1133.4" y1="456.2" y2="462.2"/><line style="stroke:#000000;stroke-width:1;" x1="1125.4" x2="1133.4" y1="456.2" y2="456.2"/><ellipse cx="1119.4" cy="456.2" fill="none" rx="4" ry="4" style="stroke:#000000;stroke-width:1;"/><text fill="#000000" font-family="Verdana" font-size="13" lengthAdjust="spacing" textLength="47.2139" x="798.22" y="420.7098">subject</text></g><!--link Patient to C3--><g class="link" data-entity-1="Patient" data-entity-2="C3" data-source-line="45" data-uid="lnk18" id="link_Patient_C3"><path codeLine="45" d="M840.78,111.97 C840.78,253.71 840.78,665.2 840.78,665.2 C840.78,665.2 818.99,665.2 774.15,665.2" fill="none" id="Patient-C3" style="stroke:#000000;stroke-width:1;"/><line style="stroke:#000000;stroke-width:1;" x1="836.78" x2="844.78" y1="107.97" y2="107.97"/><line style="stroke:#000000;stroke-width:1;" x1="836.78" x2="844.78" y1="110.97" y2="110.97"/><line style="stroke:#000000;stroke-width:1;" x1="840.78" x2="840.78" y1="111.97" y2="103.97"/><line style="stroke:#000000;stroke-width:1;" x1="764.15" x2="756.15" y1="665.2" y2="671.2"/><line style="stroke:#000000;stroke-width:1;" x1="764.15" x2="756.15" y1="665.2" y2="659.2"/><line style="stroke:#000000;stroke-width:1;" x1="764.15" x2="756.15" y1="665.2" y2="665.2"/><ellipse cx="770.15" cy="665.2" fill="none" rx="4" ry="4" style="stroke:#000000;stroke-width:1;"/><text fill="#000000" font-family="Verdana" font-size="13" lengthAdjust="spacing" textLength="47.2139" x="792.78" y="440.9698">subject</text></g><!--link Patient to SMN1--><g class="link" data-entity-1="Patient" data-entity-2="SMN1" data-source-line="46" data-uid="lnk19" id="link_Patient_SMN1"><path codeLine="46" d="M644.7,58.2 C555.47,58.2 445.73,58.2 445.73,58.2 C445.73,58.2 445.73,653.47 445.73,828.35" fill="none" id="Patient-SMN1" style="stroke:#000000;stroke-width:1;"/><line style="stroke:#000000;stroke-width:1;" x1="648.7" x2="648.7" y1="54.2" y2="62.2"/><line style="stroke:#000000;stroke-width:1;" x1="645.7" x2="645.7" y1="54.2" y2="62.2"/><line style="stroke:#000000;stroke-width:1;" x1="644.7" x2="652.7" y1="58.2" y2="58.2"/><line style="stroke:#000000;stroke-width:1;" x1="445.73" x2="451.73" y1="838.35" y2="846.35"/><line style="stroke:#000000;stroke-width:1;" x1="445.73" x2="439.73" y1="838.35" y2="846.35"/><line style="stroke:#000000;stroke-width:1;" x1="445.73" x2="445.73" y1="838.35" y2="846.35"/><ellipse cx="445.73" cy="832.35" fill="none" rx="4" ry="4" style="stroke:#000000;stroke-width:1;"/><text fill="#000000" font-family="Verdana" font-size="13" lengthAdjust="spacing" textLength="47.2139" x="397.73" y="345.8598">subject</text></g><!--link Patient to SMN2--><g class="link" data-entity-1="Patient" data-entity-2="SMN2" data-source-line="47" data-uid="lnk20" id="link_Patient_SMN2"><path codeLine="47" d="M843.5,111.87 C843.5,257.7 843.5,682.23 843.5,828.21" fill="none" id="Patient-SMN2" style="stroke:#000000;stroke-width:1;"/><line style="stroke:#000000;stroke-width:1;" x1="839.5" x2="847.5" y1="107.87" y2="107.87"/><line style="stroke:#000000;stroke-width:1;" x1="839.5" x2="847.5" y1="110.87" y2="110.87"/><line style="stroke:#000000;stroke-width:1;" x1="843.5" x2="843.5" y1="111.87" y2="103.87"/><line style="stroke:#000000;stroke-width:1;" x1="843.5" x2="849.5" y1="838.21" y2="846.21"/><line style="stroke:#000000;stroke-width:1;" x1="843.5" x2="837.5" y1="838.21" y2="846.21"/><line style="stroke:#000000;stroke-width:1;" x1="843.5" x2="843.5" y1="838.21" y2="846.21"/><ellipse cx="843.5" cy="832.21" fill="none" rx="4" ry="4" style="stroke:#000000;stroke-width:1;"/><text fill="#000000" font-family="Verdana" font-size="13" lengthAdjust="spacing" textLength="47.2139" x="795.5" y="472.1098">subject</text></g><!--link Patient to Proc--><g class="link" data-entity-1="Patient" data-entity-2="Proc" data-source-line="48" data-uid="lnk21" id="link_Patient_Proc"><path codeLine="48" d="M660.23,111.79 C660.23,190.81 660.23,326.08 660.23,410.81" fill="none" id="Patient-Proc" style="stroke:#000000;stroke-width:1;"/><line style="stroke:#000000;stroke-width:1;" x1="656.23" x2="664.23" y1="107.79" y2="107.79"/><line style="stroke:#000000;stroke-width:1;" x1="656.23" x2="664.23" y1="110.79" y2="110.79"/><line style="stroke:#000000;stroke-width:1;" x1="660.23" x2="660.23" y1="111.79" y2="103.79"/><line style="stroke:#000000;stroke-width:1;" x1="660.23" x2="666.23" y1="420.81" y2="428.81"/><line style="stroke:#000000;stroke-width:1;" x1="660.23" x2="654.23" y1="420.81" y2="428.81"/><line style="stroke:#000000;stroke-width:1;" x1="660.23" x2="660.23" y1="420.81" y2="428.81"/><ellipse cx="660.23" cy="414.81" fill="none" rx="4" ry="4" style="stroke:#000000;stroke-width:1;"/><text fill="#000000" font-family="Verdana" font-size="13" lengthAdjust="spacing" textLength="47.2139" x="612.23" y="263.3698">subject</text></g><!--link Patient to Family--><g class="link" data-entity-1="Patient" data-entity-2="Family" data-source-line="49" data-uid="lnk22" id="link_Patient_Family"><path codeLine="49" d="M857.07,101.2 C1076.14,101.2 1577.96,101.2 1577.96,101.2 C1577.96,101.2 1577.96,145.75 1577.96,193.89" fill="none" id="Patient-Family" style="stroke:#000000;stroke-width:1;"/><line style="stroke:#000000;stroke-width:1;" x1="853.07" x2="853.07" y1="105.2" y2="97.2"/><line style="stroke:#000000;stroke-width:1;" x1="856.07" x2="856.07" y1="105.2" y2="97.2"/><line style="stroke:#000000;stroke-width:1;" x1="857.07" x2="849.07" y1="101.2" y2="101.2"/><line style="stroke:#000000;stroke-width:1;" x1="1577.96" x2="1583.96" y1="203.89" y2="211.89"/><line style="stroke:#000000;stroke-width:1;" x1="1577.96" x2="1571.96" y1="203.89" y2="211.89"/><line style="stroke:#000000;stroke-width:1;" x1="1577.96" x2="1577.96" y1="203.89" y2="211.89"/><ellipse cx="1577.96" cy="197.89" fill="none" rx="4" ry="4" style="stroke:#000000;stroke-width:1;"/><text fill="#000000" font-family="Verdana" font-size="13" lengthAdjust="spacing" textLength="45.6904" x="1222.86" y="98.2698">patient</text></g><!--link Patient to Trop--><g class="link" data-entity-1="Patient" data-entity-2="Trop" data-source-line="50" data-uid="lnk23" id="link_Patient_Trop"><path codeLine="50" d="M656.6,111.75 C656.6,155.98 656.6,208.2 656.6,208.2 C656.6,208.2 531.92,208.2 439.95,208.2" fill="none" id="Patient-Trop" style="stroke:#000000;stroke-width:1;"/><line style="stroke:#000000;stroke-width:1;" x1="652.6" x2="660.6" y1="107.75" y2="107.75"/><line style="stroke:#000000;stroke-width:1;" x1="652.6" x2="660.6" y1="110.75" y2="110.75"/><line style="stroke:#000000;stroke-width:1;" x1="656.6" x2="656.6" y1="111.75" y2="103.75"/><line style="stroke:#000000;stroke-width:1;" x1="429.95" x2="421.95" y1="208.2" y2="214.2"/><line style="stroke:#000000;stroke-width:1;" x1="429.95" x2="421.95" y1="208.2" y2="202.2"/><line style="stroke:#000000;stroke-width:1;" x1="429.95" x2="421.95" y1="208.2" y2="208.2"/><ellipse cx="435.95" cy="208.2" fill="none" rx="4" ry="4" style="stroke:#000000;stroke-width:1;"/><text fill="#000000" font-family="Verdana" font-size="13" lengthAdjust="spacing" textLength="47.2139" x="543.5" y="205.2698">subject</text></g><!--link Patient to Liver--><g class="link" data-entity-1="Patient" data-entity-2="Liver" data-source-line="51" data-uid="lnk24" id="link_Patient_Liver"><path codeLine="51" d="M750.96,112.12 C750.96,146.7 750.96,167.74 750.96,202.28" fill="none" id="Patient-Liver" style="stroke:#000000;stroke-width:1;"/><line style="stroke:#000000;stroke-width:1;" x1="746.96" x2="754.96" y1="108.12" y2="108.12"/><line style="stroke:#000000;stroke-width:1;" x1="746.96" x2="754.96" y1="111.12" y2="111.12"/><line style="stroke:#000000;stroke-width:1;" x1="750.96" x2="750.96" y1="112.12" y2="104.12"/><line style="stroke:#000000;stroke-width:1;" x1="750.96" x2="756.96" y1="212.28" y2="220.28"/><line style="stroke:#000000;stroke-width:1;" x1="750.96" x2="744.96" y1="212.28" y2="220.28"/><line style="stroke:#000000;stroke-width:1;" x1="750.96" x2="750.96" y1="212.28" y2="220.28"/><ellipse cx="750.96" cy="206.28" fill="none" rx="4" ry="4" style="stroke:#000000;stroke-width:1;"/><text fill="#000000" font-family="Verdana" font-size="13" lengthAdjust="spacing" textLength="47.2139" x="702.96" y="159.2698">subject</text></g><!--reverse link C1 to C2--><g class="link" data-entity-1="C1" data-entity-2="C2" data-source-line="54" data-uid="lnk25" id="link_C1_C2"><path codeLine="54" d="M2022.96,318.69 C2022.96,382.34 2022.96,483.2 2022.96,483.2 C2022.96,483.2 1588.71,483.2 1372.43,483.2" fill="none" id="C1-backto-C2" style="stroke:#000000;stroke-width:1;stroke-dasharray:7,7;"/><polygon fill="#000000" points="2022.96,312.69,2018.96,321.69,2022.96,317.69,2026.96,321.69,2022.96,312.69" style="stroke:#000000;stroke-width:1;"/><text fill="#000000" font-family="Verdana" font-size="13" lengthAdjust="spacing" textLength="116.6572" x="1665.95" y="480.2698">stage.assessment</text></g><!--reverse link C2 to C3--><g class="link" data-entity-1="C2" data-entity-2="C3" data-source-line="55" data-uid="lnk26" id="link_C2_C3"><path codeLine="55" d="M1127.45,511.2 C971.67,511.2 724.86,511.2 724.86,511.2 C724.86,511.2 724.86,584.15 724.86,637.44" fill="none" id="C2-backto-C3" style="stroke:#000000;stroke-width:1;stroke-dasharray:7,7;"/><polygon fill="#000000" points="1133.45,511.2,1124.45,507.2,1128.45,511.2,1124.45,515.2,1133.45,511.2" style="stroke:#000000;stroke-width:1;"/><text fill="#000000" font-family="Verdana" font-size="13" lengthAdjust="spacing" textLength="116.6572" x="749.04" y="508.2698">stage.assessment</text></g><!--link C3 to SMN1--><g class="link" data-entity-1="C3" data-entity-2="SMN1" data-source-line="58" data-uid="lnk27" id="link_C3_SMN1"><path codeLine="58" d="M507.95,692.2 C485.99,692.2 469.97,692.2 469.97,692.2 C469.97,692.2 469.97,781.09 469.97,840.21" fill="none" id="C3-to-SMN1" style="stroke:#000000;stroke-width:1;"/><polygon fill="#000000" points="469.97,846.21,473.97,837.21,469.97,841.21,465.97,837.21,469.97,846.21" style="stroke:#000000;stroke-width:1;"/><text fill="#000000" font-family="Verdana" font-size="13" lengthAdjust="spacing" textLength="57.5923" x="411.97" y="747.2798">evidence</text></g><!--link C3 to SMN2--><g class="link" data-entity-1="C3" data-entity-2="SMN2" data-source-line="59" data-uid="lnk28" id="link_C3_SMN2"><path codeLine="59" d="M755.83,719.2 C783.22,719.2 804.29,719.2 804.29,719.2 C804.29,719.2 804.29,789.12 804.29,840.43" fill="none" id="C3-to-SMN2" style="stroke:#000000;stroke-width:1;"/><polygon fill="#000000" points="804.29,846.43,808.29,837.43,804.29,841.43,800.29,837.43,804.29,846.43" style="stroke:#000000;stroke-width:1;"/><text fill="#000000" font-family="Verdana" font-size="13" lengthAdjust="spacing" textLength="57.5923" x="746.29" y="772.6498">evidence</text></g><!--link Proc to C3--><g class="link" data-entity-1="Proc" data-entity-2="C3" data-source-line="62" data-uid="lnk29" id="link_Proc_C3"><path codeLine="62" d="M631.96,538.43 C631.96,568.97 631.96,600.89 631.96,631.44" fill="none" id="Proc-to-C3" style="stroke:#000000;stroke-width:1;"/><polygon fill="#000000" points="631.96,637.44,635.96,628.44,631.96,632.44,627.96,628.44,631.96,637.44" style="stroke:#000000;stroke-width:1;"/><text fill="#000000" font-family="Verdana" font-size="13" lengthAdjust="spacing" textLength="109.1226" x="521.96" y="584.9998">reasonReference</text></g><!--link E1 to C1--><g class="link" data-entity-1="E1" data-entity-2="C1" data-source-line="65" data-uid="lnk30" id="link_E1_C1"><path codeLine="65" d="M2022.96,95.6 C2022.96,130.59 2022.96,176.73 2022.96,214.2" fill="none" id="E1-to-C1" style="stroke:#000000;stroke-width:1;stroke-dasharray:7,7;"/><polygon fill="#000000" points="2022.96,220.2,2026.96,211.2,2022.96,215.2,2018.96,211.2,2022.96,220.2" style="stroke:#000000;stroke-width:1;"/><text fill="#000000" font-family="Verdana" font-size="13" lengthAdjust="spacing" textLength="60.8042" x="1961.96" y="154.9698">diagnosis</text></g><!--link E2 to C2--><g class="link" data-entity-1="E2" data-entity-2="C2" data-source-line="66" data-uid="lnk31" id="link_E2_C2"><path codeLine="66" d="M1195.97,303.79 C1195.97,338.23 1195.97,383.79 1195.97,422.88" fill="none" id="E2-to-C2" style="stroke:#000000;stroke-width:1;"/><polygon fill="#000000" points="1195.97,428.88,1199.97,419.88,1195.97,423.88,1191.97,419.88,1195.97,428.88" style="stroke:#000000;stroke-width:1;"/><text fill="#000000" font-family="Verdana" font-size="13" lengthAdjust="spacing" textLength="60.8042" x="1134.97" y="363.3998">diagnosis</text></g><!--link E3 to C3--><g class="link" data-entity-1="E3" data-entity-2="C3" data-source-line="67" data-uid="lnk32" id="link_E3_C3"><path codeLine="67" d="M938.94,304.24 C938.94,408.43 938.94,692.2 938.94,692.2 C938.94,692.2 847.13,692.2 761.93,692.2" fill="none" id="E3-to-C3" style="stroke:#000000;stroke-width:1;"/><polygon fill="#000000" points="755.93,692.2,764.93,696.2,760.93,692.2,764.93,688.2,755.93,692.2" style="stroke:#000000;stroke-width:1;"/><text fill="#000000" font-family="Verdana" font-size="13" lengthAdjust="spacing" textLength="60.8042" x="877.94" y="586.7898">diagnosis</text></g><!--link E4 to C3--><g class="link" data-entity-1="E4" data-entity-2="C3" data-source-line="68" data-uid="lnk33" id="link_E4_C3"><path codeLine="68" d="M124.32,483.2 C249.36,483.2 539.06,483.2 539.06,483.2 C539.06,483.2 539.06,569.66 539.06,631.6" fill="none" id="E4-to-C3" style="stroke:#000000;stroke-width:1;"/><polygon fill="#000000" points="539.06,637.6,543.06,628.6,539.06,632.6,535.06,628.6,539.06,637.6" style="stroke:#000000;stroke-width:1;"/><text fill="#000000" font-family="Verdana" font-size="13" lengthAdjust="spacing" textLength="60.8042" x="347.89" y="480.2698">diagnosis</text></g><!--reverse link E3 to Proc--><g class="link" data-entity-1="E3" data-entity-2="Proc" data-source-line="69" data-uid="lnk34" id="link_E3_Proc"><path codeLine="69" d="M928.47,310.21 C928.47,372.31 928.47,483.2 928.47,483.2 C928.47,483.2 781.47,483.2 694.48,483.2" fill="none" id="E3-backto-Proc" style="stroke:#000000;stroke-width:1;stroke-dasharray:7,7;"/><polygon fill="#000000" points="928.47,304.21,924.47,313.21,928.47,309.21,932.47,313.21,928.47,304.21" style="stroke:#000000;stroke-width:1;"/><text fill="#000000" font-family="Verdana" font-size="13" lengthAdjust="spacing" textLength="48.5723" x="851.97" y="480.2698">context</text></g><!--SRC=[dLRBRkCs5DthApYPHTi0ykYHEBOH170TpOm1np9ifq010mKjqJ8RcHH8ogtHhBll5tGpVv8_wPVqadfOTfn7kmdCUybppdqg7zIQR0ZAKaoP9Hyeox306vHIHjGk8uWBjUOD1-CnaIH37QTX59WzQAFhE9Rr7Hhmb0ia8uriVOZ92i3Gf3yV1kFvBuDm54xHH- -oxPDbxHs4uzlXV1YEAtySUMslNVl37sV1zAT-yuPpsMstktlyQJW8Rk-dGUM_YdnCujeVZ0VX_NWUJ2i_mPST9whzd_jtmz7FDNYdwouz7Kp055KxP6vHHJcJw3UgraWg8WZNEP9e1U56EcZA4eiK3yxEpoTOKJYTdo_OcEG9MN9165o_U_eMGtBOWdcETs4xLxRZdY4iKVa0NL-NlsvkqCU3n1NfPN6fX3AK2Pu88YMS6zJrdHwQvJ8ZaIAnrb4Hkfq5sn91LpJ2-jfCOPNB7ifPnDcAYWs9ZQA12s9gC2tdg5AdEGVGFu2SDYazxpGb1B2bMZvE5smukBLTfuU-k5xBAHHu_qz15SQ1XFPf2NNCHmBG8mf5jiOzrF5zlzJZlwK7IlG5wgneXFXI4h4rNBAXCzoReJvtOrUBr6_GBKc9DY-O0weo2jtoVOPX11C22Vt1AD0FG4C3HAjuDY6ly7cQRy2p7HhdcoKHaA6QRSDZo0yHDPVt7Yw8UI9uHE9SaEO4LBOoG5Ws0WDFeoJT1GidinvgsuuJbpNNp_GGLA_D61pEjsRyZ3SqtQ6lL2ekTWtQmb7QDVMzI0H_-dkJAwMZlSlb0oHQFEZ5bRDamQOaBTEJCqbXE8KHKZ9SNnS_j8xcdj0YHdXvK6O4J7a6YsSl1wxqq5pmZ3COsBdfIEYkgnxgUl_y-HUSEkPqsJ4dnsqv7JXTcPFkGpYvJXkEHfH6-c_rDmBwe_cd_cp-QJ8o2YPSAhkensx1-caAgrriS6eeHXJ6v9rr3s1bv0poskpmMIG8T2nB3fUE0GzqzzQlDExHRcxW14AgBOS_94tpGpJFAz2yDz0GQkfI9fYdR-80gbj0-UyNDiRHMdAHa3rEntPBIHTluPWjBWWIPTl9DSsaLQt_nqVRvd_etTj3Cb_-2jlxcSzxnUU_x3ExupNlAxXcAb_qbgC2-xom7_jDrxxukcYulHiIT4jnmhYayk0Jfpz8hLOH_vbKE24jB2KuDu1sPkclXNRxfzswNRSq9YmY5jonxPig8-IvsMkQcmiEoeObQ349qPSDNM6SaXNyNr2-g7lWgD0m0QtMJL7Wk0hJWausODwXrTzJDAmN9ws-YRui57pL5FbTMVy2]--></g></svg>